<svg xmlns="http://www.w3.org/2000/svg" viewBox="0 0 1874.099 669.7"><path d="M1131.199 98.5V8.3h44.1l-.8 9h-32v33.3h29.5v9h-29.5v38.8h-11.3zm95-41.6c0 2.7-.1 5-.3 7-.2 2-.3 3.7-.5 5.2h-31.9c.4 7.4 1.9 12.9 4.8 16.3 2.8 3.5 6.9 5.2 12.2 5.2 1.8 0 3.5-.2 4.9-.6 1.5-.4 2.8-1 3.8-1.6 1.1-.6 2-1.2 2.7-1.8.7-.6 1.3-1.1 1.6-1.4l3.9 7.4c-.4.4-1.1 1.1-2 1.9-.9.8-2 1.7-3.5 2.5s-3.3 1.6-5.5 2.2c-2.2.6-4.7.9-7.7.9-3.9 0-7.4-.6-10.6-2-3.2-1.3-5.9-3.3-8.1-6.1-2.2-2.7-3.9-6.2-5.1-10.5-1.2-4.2-1.8-9.3-1.8-15.2 0-5.6.6-10.4 1.9-14.4 1.3-4.1 3-7.4 5.1-10 2.2-2.6 4.7-4.5 7.6-5.8 2.9-1.3 5.9-1.9 9.2-1.9 6 0 10.7 1.9 14.1 5.7 3.5 3.7 5.2 9.4 5.2 17zm-19.7-14.1c-3.7 0-6.7 1.6-9 4.7s-3.6 7.7-3.9 13.6h22.8c.1-.4.2-1.1.2-1.9 0-.8.1-1.7.1-2.7 0-4.4-.9-7.7-2.6-10.1-1.8-2.4-4.4-3.6-7.6-3.6zm30.9 25.2c0-6.4.8-11.7 2.5-15.9 1.6-4.3 3.8-7.7 6.4-10.3 2.6-2.6 5.6-4.5 8.9-5.6 3.3-1.1 6.6-1.6 9.9-1.6 2 0 3.7.2 5.2.5s2.7.7 3.6 1.1V6.1l10.6-1.2v93.6h-9.7v-6.7h-.3c-.3.5-.7 1.2-1.4 2.2-.7.9-1.6 1.8-2.9 2.7-1.2.9-2.7 1.7-4.6 2.4-1.8.7-4 1-6.4 1-3 0-5.7-.6-8.4-1.8-2.7-1.2-5-3-7-5.6-2-2.6-3.6-5.9-4.8-9.9-1-4.1-1.6-9-1.6-14.8zm24.8 22.6c1.6 0 3.1-.2 4.4-.6 1.3-.4 2.4-1 3.4-1.6 1-.6 1.8-1.3 2.4-2 .6-.7 1.1-1.3 1.5-1.8V45.9c-1-.6-2.1-1.1-3.3-1.6-1.3-.4-2.8-.7-4.8-.7-2.4 0-4.7.4-6.8 1.2-2.1.8-4 2.2-5.5 4.1-1.6 1.9-2.8 4.4-3.7 7.5-.9 3-1.4 6.8-1.4 11.2 0 4.4.4 8 1.1 10.9.7 2.9 1.8 5.3 3.1 7.1 1.3 1.8 2.8 3.1 4.4 3.9 1.6.7 3.3 1.1 5.2 1.1zm78.5-33.7c0 2.7-.1 5-.3 7-.2 2-.4 3.7-.5 5.2h-31.9c.3 7.4 1.9 12.9 4.8 16.3 2.8 3.5 6.9 5.2 12.2 5.2 1.8 0 3.5-.2 4.9-.6 1.5-.4 2.8-1 3.8-1.6 1.1-.6 2-1.2 2.7-1.8.7-.6 1.3-1.1 1.6-1.4l3.9 7.4c-.4.4-1.1 1.1-2 1.9-.9.8-2 1.7-3.5 2.5s-3.3 1.6-5.5 2.2c-2.2.6-4.7.9-7.7.9-3.9 0-7.4-.6-10.6-2-3.2-1.3-5.9-3.3-8.1-6.1-2.2-2.7-3.9-6.2-5.1-10.5-1.2-4.2-1.8-9.3-1.8-15.2 0-5.6.6-10.4 1.9-14.4 1.3-4.1 3-7.4 5.1-10 2.2-2.6 4.7-4.5 7.5-5.8 2.9-1.3 5.9-1.9 9.2-1.9 6 0 10.7 1.9 14.1 5.7 3.6 3.7 5.3 9.4 5.3 17zm-19.8-14.1c-3.7 0-6.7 1.6-9 4.7s-3.6 7.7-3.9 13.6h22.8c.1-.4.1-1.1.2-1.9 0-.8.1-1.7.1-2.7 0-4.4-.9-7.7-2.6-10.1-1.8-2.4-4.3-3.6-7.6-3.6zm61.3 2.2c-.3-.2-.8-.4-1.7-.7-.9-.3-2-.4-3.5-.4-3.3 0-5.9.9-7.8 2.7-1.9 1.8-3.2 3.7-4 5.8v46h-10.5V35.7h9.6v8.5h.3c.4-1.2 1-2.4 1.7-3.6.7-1.2 1.6-2.2 2.6-3.1 1-.9 2.3-1.6 3.7-2.2 1.4-.5 3.2-.8 5.1-.8 1.5 0 2.7.1 3.6.4.9.3 1.6.5 2.1.6zm6.1 37.5c0-3.7.7-6.7 2.1-9.1 1.4-2.4 3.2-4.4 5.6-6 2.4-1.5 5.1-2.6 8.3-3.3 3.2-.7 6.5-1 10.1-1h3.3v-6c0-5.3-.9-9-2.8-11s-4.5-3-7.9-3c-3.1 0-5.7.7-7.8 2-2.1 1.3-3.7 2.5-4.9 3.6l-4.4-7.1c.7-.7 1.6-1.5 2.7-2.4 1.1-.9 2.4-1.7 4-2.5s3.3-1.4 5.3-2c2-.6 4.3-.8 6.8-.8 6.4 0 11.3 1.8 14.6 5.4 3.3 3.6 5 9.3 5 17.3v28.6c0 2.7.1 5.3.3 7.9.2 2.6.3 4.3.5 5.2h-10l-.4-6.9h-.3c-.3.8-.9 1.7-1.6 2.7-.7 1-1.6 1.9-2.6 2.7-1 .8-2.3 1.6-3.8 2.2-1.5.6-3.2.9-5.2.9-2.3 0-4.5-.4-6.6-1.3-2-.9-3.8-2.1-5.3-3.7s-2.7-3.4-3.5-5.6c-1.1-1.9-1.5-4.2-1.5-6.8zm18.9 8.5c1.5 0 2.8-.2 3.9-.7 1.1-.4 2.1-1 2.9-1.6.8-.6 1.5-1.3 2.1-2 .6-.7 1.1-1.4 1.5-1.9V70.9l-3.4.1c-5 .2-8.9 1.1-11.4 2.6-2.6 1.6-3.9 4.1-3.9 7.6 0 3.2.7 5.6 2.2 7.3 1.5 1.7 3.5 2.5 6.1 2.5zm47.1-7.2c0 2.6.4 4.4 1.1 5.5.8 1 2 1.6 3.8 1.6 1 0 1.8-.1 2.4-.3.6-.2 1.1-.3 1.5-.5l.9 7.8c-.5.3-1.5.6-2.9 1s-3.2.7-5.6.7c-3.5 0-6.4-1.1-8.6-3.3-2.2-2.2-3.2-6.1-3.2-11.6V6.1l10.5-1.2v78.9zm123.9-75.5v90.2h-10.9V47.6c0-2.6 0-5.1.1-7.3.1-2.3.1-4.3.2-6 .1-1.7.2-3.1.3-4h-.4c-.4 2-1.3 5.3-2.7 9.7-1.3 4.5-2.9 9.3-4.6 14.4l-14.8 44.1h-9l-14.8-44.1c-1.7-5.1-3.3-10-4.6-14.4-1.3-4.5-2.2-7.7-2.7-9.7h-.5c.1 1 .2 2.4.2 4.2.1 1.7.2 3.7.2 5.9s.1 4.6.1 7.3v50.9h-11V8.4h12.6l21.2 62.2c1 2.9 1.8 5.7 2.5 8.4.8 2.7 1.2 5.1 1.4 7.1h.3c.1-2 .5-4.4 1.2-7.1.7-2.7 1.6-5.5 2.5-8.4l21.2-62.4h12zm28.9 90.2h-10.5V35.8h10.5zm-5.2-77.9c-2.2 0-3.9-.7-5.2-2.1-1.3-1.4-1.9-3.2-1.9-5.5 0-2.2.6-4 1.9-5.4 1.3-1.4 3-2.1 5.2-2.1 2.1 0 3.7.7 5 2.1 1.3 1.4 2 3.2 2 5.4 0 2.3-.6 4.1-2 5.5-1.2 1.4-2.9 2.1-5 2.1zm55.5 77.9V58.1c0-5.3-.9-9.1-2.7-11.4-1.8-2.3-4.5-3.5-8.2-3.5-3.1 0-5.7.8-7.8 2.3-2.1 1.6-3.7 3.1-5 4.6v48.4h-10.5V35.8h9.6v7.1h.3c.3-.5.8-1.3 1.7-2.3.9-1 2-2 3.4-2.9 1.4-.9 3-1.7 4.9-2.4 1.9-.7 4.1-1 6.5-1 2.8 0 5.3.4 7.6 1.2 2.3.8 4.2 2.2 5.7 4 1.6 1.8 2.8 4.2 3.7 7.1.8 2.9 1.3 6.5 1.3 10.8v41.2h-10.5zm36.8 0h-10.5V35.8h10.5zm-5.2-77.9c-2.2 0-3.9-.7-5.2-2.1-1.3-1.4-1.9-3.2-1.9-5.5 0-2.2.6-4 1.9-5.4 1.3-1.4 3-2.1 5.2-2.1 2.1 0 3.8.7 5.1 2.1 1.3 1.4 2 3.2 2 5.4 0 2.3-.6 4.1-2 5.5-1.3 1.4-3 2.1-5.1 2.1zm48.3 27.8c-.7-.8-1.9-1.9-3.8-3.2-1.8-1.4-4.2-2-7.2-2-2.8 0-4.9.6-6.4 2-1.5 1.3-2.2 2.9-2.2 4.7 0 2.4.7 4.3 2 5.8s3.4 3.2 6.2 4.9l3.9 2.4c4.2 2.5 7.6 5.3 10 8.2 2.4 2.9 3.6 6.7 3.6 11.3 0 5-1.7 9.2-5.1 12.6-3.4 3.4-8.3 5.1-14.8 5.1-2.5 0-4.7-.3-6.6-.8-1.9-.5-3.6-1.1-5-1.8s-2.6-1.5-3.6-2.3c-1-.8-1.8-1.6-2.3-2.3l5.1-8.4c.5.5 1.1 1.1 1.9 1.8.7.7 1.6 1.4 2.7 2 1 .7 2.2 1.2 3.5 1.6 1.3.4 2.8.6 4.6.6 3.1 0 5.5-.7 7.1-2.1 1.6-1.4 2.5-3.1 2.5-5.1 0-1.5-.2-2.8-.6-3.9-.4-1.1-1-2.1-1.8-2.9-.8-.9-1.8-1.7-2.9-2.5-1.1-.8-2.4-1.7-3.9-2.6l-3.9-2.5c-3.9-2.5-6.9-5.2-9.1-8-2.2-2.8-3.3-6.4-3.3-10.7 0-2.3.5-4.5 1.4-6.5.9-2 2.2-3.7 3.8-5.1 1.7-1.4 3.6-2.6 5.8-3.4 2.2-.8 4.6-1.2 7.1-1.2 2.4 0 4.5.2 6.2.7 1.7.5 3.2 1.1 4.5 1.8 1.3.7 2.3 1.5 3.1 2.2.8.7 1.5 1.4 2 1.9zm45.3-4h-13.7v34.7c0 4.4.5 7.5 1.7 9.1 1.1 1.6 3 2.4 5.7 2.4 1.6 0 2.9-.2 4-.6 1.1-.4 1.9-.8 2.5-1.2l1.4 8.5c-.4.3-1.5.9-3.1 1.6-1.6.7-3.8 1.1-6.6 1.1-5.4 0-9.4-1.5-12.1-4.5-2.7-3-4-8-4-15V44.3h-7.6v-7.1l7.6-1.6 1.2-17.5h9.4v17.5h15zm39.5.6c-.3-.2-.8-.4-1.7-.7-.8-.3-2-.4-3.5-.4-3.3 0-5.9.9-7.8 2.7-1.9 1.8-3.2 3.7-3.9 5.8v46h-10.6V35.7h9.6v8.5h.3c.4-1.2 1-2.4 1.7-3.6.7-1.2 1.6-2.2 2.6-3.1 1-.9 2.3-1.6 3.7-2.2 1.4-.5 3.1-.8 5.1-.8 1.5 0 2.7.1 3.6.4.9.3 1.6.5 2.1.6zm52-9.3l-19.5 66.4c-2.3 7.7-5 13.5-8.3 17.4-3.2 3.9-8 5.9-14.1 5.9-1.3 0-2.4-.2-3.3-.5-.8-.3-1.5-.5-1.8-.7v-9.1c.4.2 1 .4 1.7.6.7.2 1.6.3 2.7.3 3.7 0 6.6-1.2 8.5-3.5 2-2.4 3.6-6 5-10.9l.9-3.3-20.2-62.6h11.3l9.8 34.8c1 3.6 1.8 6.9 2.6 10 .8 3.1 1.2 5.9 1.4 8.3h.3c.2-2.4.6-5.2 1.2-8.2.7-3 1.5-6.4 2.4-9.9l8.9-34.9h10.5zm-748 163.2c0-5.8.7-10.7 2-14.9 1.3-4.2 3.2-7.6 5.5-10.3 2.3-2.7 4.9-4.6 7.9-5.9 3-1.3 6.2-1.9 9.6-1.9 3.5 0 6.7.6 9.6 1.9 3 1.3 5.5 3.2 7.7 5.9s3.9 6.1 5.1 10.3c1.3 4.2 1.9 9.2 1.9 14.9 0 5.8-.7 10.8-2 15-1.3 4.2-3.1 7.6-5.4 10.3-2.3 2.7-5 4.6-8 5.8-3 1.2-6.3 1.8-9.6 1.8-3.5 0-6.7-.6-9.6-1.8-3-1.2-5.5-3.2-7.7-5.8-2.2-2.7-3.9-6.1-5.1-10.2-1.2-4.1-1.9-9.2-1.9-15.1zm38.4 0c0-8.4-1.2-14.4-3.6-18.2-2.4-3.8-5.8-5.7-10.2-5.7-4.4 0-7.7 1.9-10.1 5.7-2.4 3.8-3.6 9.9-3.6 18.2 0 8.4 1.2 14.4 3.6 18 2.4 3.7 5.8 5.5 10.2 5.5 4.3 0 7.7-1.8 10.1-5.5 2.4-3.6 3.6-9.6 3.6-18zm49.8-22.7h-12.8v54.1h-10.5v-54.1h-7.6v-7.1l7.6-1.4v-12.6c0-3.4.5-6.3 1.4-8.8 1-2.4 2.2-4.4 3.8-6 1.6-1.6 3.4-2.7 5.5-3.4 2.1-.7 4.3-1 6.6-1s4.2.3 5.7.9c1.6.6 2.6 1.1 3.1 1.4l-2.2 8.8c-.5-.3-1.3-.7-2.2-1.1-1-.4-2.1-.6-3.5-.6-2.5 0-4.4.8-5.7 2.4-1.3 1.6-1.9 4.4-1.9 8.6v11.2h14.1zm81.2-27.1h-32v31.1h29.4v9h-29.4v31.6h35.3l-.7 9.4h-46v-90.1h44.1zm12.4 50.7c0-6.4.8-11.7 2.5-15.9 1.6-4.3 3.8-7.7 6.4-10.3 2.6-2.6 5.6-4.5 8.9-5.6 3.3-1.1 6.6-1.6 9.9-1.6 2 0 3.7.2 5.2.5s2.7.7 3.6 1.1v-30.1l10.6-1.2v93.6h-9.6v-6.7h-.3c-.2.5-.7 1.2-1.4 2.2-.7.9-1.6 1.8-2.9 2.7-1.2.9-2.7 1.7-4.5 2.4-1.8.6-4 1-6.4 1-2.9 0-5.8-.6-8.4-1.8-2.7-1.2-5-3.1-7-5.6-2-2.6-3.6-5.9-4.8-9.9-1.3-4.1-1.8-9-1.8-14.8zm24.7 22.6c1.6 0 3.1-.2 4.4-.7 1.3-.4 2.4-1 3.4-1.6.9-.7 1.7-1.3 2.4-2s1.2-1.3 1.5-1.8v-38.7c-1-.6-2.1-1.1-3.3-1.6-1.3-.4-2.8-.7-4.8-.7-2.4 0-4.7.4-6.8 1.2-2.1.8-4 2.2-5.5 4.1-1.6 1.9-2.8 4.4-3.7 7.5-.9 3.1-1.4 6.8-1.4 11.2 0 4.4.4 8 1.1 10.9.7 2.9 1.8 5.3 3.1 7.1 1.3 1.8 2.8 3.1 4.4 3.9 1.6.9 3.4 1.2 5.2 1.2zm82.1 7.9h-9.6v-7.1h-.2c-.3.5-.8 1.3-1.7 2.3-.9 1-2 2-3.3 2.9-1.3.9-3 1.7-4.9 2.4-1.9.7-4 1-6.4 1-2.8 0-5.3-.4-7.5-1.2-2.2-.8-4.1-2.2-5.7-4-1.6-1.8-2.8-4.2-3.6-7.1-.8-2.9-1.2-6.5-1.2-10.8v-41.2h10.6v40.4c0 5.2.8 8.9 2.5 11.2 1.7 2.2 4.3 3.3 7.9 3.3 3 0 5.6-.8 7.7-2.3 2.1-1.5 3.7-3 5-4.5v-48.1h10.5v62.8zm50.9-50.6c-.3-.3-.7-.6-1.2-1.2-.6-.5-1.3-1-2.2-1.6-.9-.5-1.9-1-3.1-1.4-1.2-.4-2.6-.6-4.2-.6-2.3 0-4.4.4-6.3 1.2-1.9.8-3.6 2.2-5.1 4-1.4 1.8-2.6 4.2-3.4 7.1-.8 2.9-1.2 6.5-1.2 10.6 0 4.6.4 8.5 1.1 11.6.8 3.1 1.8 5.6 3.1 7.5 1.3 1.9 2.9 3.2 4.8 4 1.8.8 3.9 1.2 6.2 1.2 3.2 0 5.7-.6 7.3-1.7 1.7-1.1 2.9-2.1 3.6-2.8l4.3 7.3c-.4.5-1.1 1.2-1.9 1.9-.8.7-1.9 1.5-3.2 2.2-1.3.7-2.9 1.3-4.8 1.8-1.8.5-4 .7-6.4.7-3.5 0-6.7-.6-9.7-1.7-3-1.1-5.7-3-8-5.6-2.3-2.6-4-6-5.3-10.2-1.3-4.2-1.9-9.4-1.9-15.6 0-6 .8-11.1 2.3-15.3 1.6-4.2 3.6-7.6 6.1-10.1 2.5-2.6 5.3-4.4 8.4-5.6 3.1-1.2 6.2-1.8 9.3-1.8 2.4 0 4.4.2 6.2.7 1.8.4 3.3 1 4.6 1.6 1.3.7 2.3 1.3 3.1 2.1.8.7 1.5 1.4 2 1.9zm11.9 34.6c0-3.7.7-6.7 2.1-9.2 1.4-2.4 3.3-4.4 5.6-6 2.4-1.5 5.1-2.6 8.3-3.3 3.2-.6 6.5-1 10.1-1h3.3v-6c0-5.3-.9-9-2.8-11s-4.5-3-7.9-3c-3.1 0-5.7.7-7.8 2-2.1 1.3-3.7 2.5-5 3.6l-4.4-7.1c.7-.7 1.6-1.5 2.7-2.3 1.1-.9 2.4-1.7 4-2.5s3.3-1.4 5.3-2c2-.5 4.3-.8 6.8-.8 6.4 0 11.3 1.8 14.6 5.4 3.3 3.6 4.9 9.3 4.9 17.2v28.6c0 2.7.1 5.3.3 7.9.2 2.6.4 4.3.5 5.2h-10l-.4-6.9h-.3c-.3.8-.9 1.7-1.6 2.7-.7 1-1.6 1.9-2.6 2.7-1 .8-2.3 1.5-3.8 2.2-1.5.6-3.2.9-5.2.9-2.4 0-4.5-.4-6.6-1.3-2-.9-3.8-2.1-5.3-3.7s-2.7-3.4-3.5-5.6c-.9-1.8-1.3-4.1-1.3-6.7zm18.8 8.5c1.5 0 2.8-.2 3.9-.7 1.1-.4 2.1-1 2.9-1.6.8-.6 1.5-1.3 2.1-2 .5-.7 1-1.4 1.5-1.9v-13.9l-3.4.1c-5 .2-8.9 1-11.4 2.6-2.6 1.6-3.9 4.1-3.9 7.6 0 3.2.7 5.6 2.2 7.3 1.5 1.7 3.6 2.5 6.1 2.5zm63.5-46.6h-13.7V211c0 4.5.5 7.5 1.7 9.1 1.1 1.6 3 2.4 5.7 2.4 1.6 0 2.9-.2 4-.7 1.1-.4 1.9-.8 2.5-1.2l1.4 8.5c-.4.4-1.5.9-3.1 1.6-1.7.7-3.8 1.1-6.6 1.1-5.4 0-9.4-1.5-12.1-4.5-2.7-3-4-8-4-15v-36.2h-7.5v-7l7.5-1.6 1.2-17.5h9.4v17.5h15zm22.5 54.1h-10.5v-62.7h10.5zm-5.2-77.9c-2.2 0-3.9-.7-5.2-2.1-1.3-1.4-1.9-3.2-1.9-5.5 0-2.2.6-4 1.9-5.4 1.3-1.4 3-2.1 5.2-2.1 2.1 0 3.8.7 5.1 2.1 1.3 1.4 1.9 3.2 1.9 5.4 0 2.3-.6 4.1-1.9 5.5-1.3 1.4-3.1 2.1-5.1 2.1zm18.5 46.5c0-5.8.7-10.7 2-14.9 1.3-4.2 3.1-7.6 5.4-10.3 2.3-2.7 5-4.6 7.9-5.9 3-1.3 6.2-1.9 9.6-1.9 3.5 0 6.7.6 9.7 1.9 2.9 1.3 5.5 3.2 7.7 5.9s3.9 6.1 5.1 10.3c1.2 4.2 1.9 9.2 1.9 14.9 0 5.8-.6 10.8-1.9 15-1.3 4.2-3.1 7.6-5.4 10.3-2.3 2.7-5 4.6-8 5.8-3 1.2-6.2 1.8-9.6 1.8-3.5 0-6.7-.6-9.6-1.8-3-1.2-5.5-3.2-7.7-5.8-2.2-2.7-3.9-6.1-5.1-10.2-1.4-4.1-2-9.2-2-15.1zm38.3 0c0-8.4-1.2-14.4-3.6-18.2-2.4-3.8-5.8-5.7-10.1-5.7s-7.7 1.9-10.1 5.7c-2.4 3.8-3.6 9.9-3.6 18.2 0 8.4 1.2 14.4 3.6 18 2.4 3.7 5.8 5.5 10.2 5.5 4.3 0 7.7-1.8 10.1-5.5 2.4-3.6 3.5-9.6 3.5-18zm58.4 31.4v-40.4c0-5.3-.9-9.1-2.7-11.4-1.8-2.3-4.5-3.5-8.2-3.5-3.1 0-5.7.8-7.8 2.3-2.1 1.6-3.7 3.1-5 4.6v48.4h-10.5v-62.7h9.7v7.1h.3c.3-.5.8-1.3 1.7-2.3.9-1 2-2 3.4-2.9 1.4-.9 3-1.7 5-2.4 1.9-.7 4.1-1 6.5-1 2.8 0 5.3.4 7.6 1.2 2.3.8 4.2 2.2 5.7 4 1.6 1.8 2.8 4.2 3.7 7.1.9 2.9 1.3 6.5 1.3 10.8v41.2h-10.7zm-566.9 115.8c0-3.7.7-6.7 2.1-9.1 1.4-2.4 3.3-4.4 5.6-5.9s5.1-2.6 8.3-3.3c3.2-.7 6.5-1 10.1-1h3.3v-6c0-5.3-.9-9-2.8-11s-4.5-3-7.9-3c-3.1 0-5.7.7-7.8 2-2.1 1.4-3.7 2.5-4.9 3.6l-4.4-7.1c.7-.7 1.6-1.5 2.7-2.3 1.1-.9 2.4-1.7 4-2.5s3.3-1.4 5.3-1.9 4.3-.8 6.8-.8c6.4 0 11.3 1.8 14.6 5.4 3.3 3.6 4.9 9.3 4.9 17.2V349c0 2.7.1 5.3.3 7.9.2 2.6.3 4.3.5 5.2h-10l-.4-6.9h-.3c-.3.8-.9 1.7-1.6 2.7-.7 1-1.6 1.9-2.6 2.8-1 .8-2.3 1.5-3.8 2.2-1.5.6-3.2.9-5.2.9-2.3 0-4.5-.4-6.6-1.3-2-.9-3.8-2.1-5.3-3.7s-2.7-3.4-3.5-5.6c-1-2.2-1.4-4.5-1.4-7.1zm18.8 8.5c1.5 0 2.8-.2 3.9-.6 1.1-.4 2.1-1 2.9-1.6.8-.6 1.5-1.3 2.1-2 .6-.7 1.1-1.4 1.5-1.9v-13.9l-3.4.1c-5 .2-8.9 1.1-11.5 2.6-2.6 1.6-3.9 4.1-3.9 7.6 0 3.2.7 5.6 2.2 7.3 1.6 1.6 3.6 2.4 6.2 2.4zm70.8 7.5v-40.4c0-5.3-.9-9.1-2.7-11.4-1.8-2.3-4.5-3.5-8.1-3.5-3.1 0-5.7.8-7.8 2.4-2.1 1.6-3.7 3.1-5 4.6v48.3h-10.5v-62.8h9.6v7.1h.3c.3-.5.8-1.3 1.7-2.3.9-1 2-1.9 3.4-2.9 1.4-.9 3-1.7 5-2.4 1.9-.7 4.1-1.1 6.5-1.1 2.8 0 5.3.4 7.6 1.2 2.3.8 4.2 2.2 5.7 4 1.6 1.8 2.8 4.2 3.6 7.1.9 2.9 1.3 6.5 1.3 10.8v41.3zm23.5-30.5c0-6.4.8-11.7 2.5-16 1.6-4.3 3.8-7.7 6.4-10.3 2.6-2.6 5.6-4.5 8.9-5.6 3.3-1.1 6.6-1.6 9.9-1.6 2 0 3.7.2 5.2.5s2.7.7 3.6 1.1v-30.1l10.5-1.2v93.7h-9.7v-6.7h-.3c-.3.5-.7 1.2-1.4 2.2-.7.9-1.7 1.8-2.9 2.7-1.2.9-2.7 1.7-4.6 2.4-1.8.6-3.9 1-6.4 1-2.9 0-5.7-.6-8.4-1.8-2.7-1.2-5-3.1-7-5.6-2-2.6-3.6-5.9-4.8-9.9-.9-4.1-1.5-9-1.5-14.8zm24.7 22.7c1.6 0 3.1-.2 4.4-.7 1.3-.4 2.4-1 3.4-1.6 1-.7 1.8-1.3 2.4-2 .7-.7 1.2-1.3 1.5-1.8v-38.7c-1-.6-2.1-1.1-3.3-1.6-1.3-.4-2.8-.6-4.8-.6-2.4 0-4.7.4-6.8 1.2-2.1.8-4 2.2-5.5 4.1-1.6 1.9-2.8 4.4-3.7 7.5-.9 3-1.4 6.8-1.4 11.3 0 4.4.4 8 1.1 10.9.7 2.9 1.8 5.3 3.1 7 1.3 1.8 2.8 3.1 4.4 3.9 1.7.7 3.4 1.1 5.2 1.1zm109.2 7.8l-18.6-37c-.9.1-2 .2-3 .2-1.1.1-2.1.1-3.1.1h-4.9v36.7h-11.3v-90.2h16.8c10.9 0 18.9 2.1 24 6.3 5.2 4.2 7.8 10.5 7.8 18.9 0 6-1.2 11.2-3.8 15.4-2.5 4.3-6.4 7.5-11.6 9.8l21.1 39.7h-13.4zm-4.5-64.3c0-5.7-1.6-10-4.8-12.7-3.2-2.7-8.1-4.1-14.9-4.1h-5.5v35.4h4.9c6.9 0 11.9-1.6 15.2-4.8 3.4-3.3 5.1-7.9 5.1-13.8zm67.3 22.7c0 2.7-.1 5-.3 7-.2 1.9-.3 3.7-.5 5.2h-31.9c.4 7.4 1.9 12.9 4.7 16.3 2.8 3.5 6.9 5.2 12.2 5.2 1.8 0 3.5-.2 5-.7 1.5-.4 2.8-.9 3.8-1.6 1.1-.6 2-1.2 2.7-1.8.7-.6 1.3-1.1 1.6-1.4l3.9 7.5c-.4.4-1.1 1.1-2 1.9-.9.8-2.1 1.7-3.5 2.5-1.5.8-3.3 1.5-5.5 2.2-2.2.6-4.7.9-7.7.9-3.9 0-7.4-.6-10.6-2-3.1-1.3-5.8-3.3-8-6.1-2.2-2.7-3.9-6.2-5.2-10.5-1.2-4.2-1.8-9.3-1.8-15.2 0-5.6.6-10.4 1.9-14.5 1.2-4 3-7.4 5.1-10 2.2-2.6 4.7-4.6 7.6-5.8 2.9-1.3 5.9-1.9 9.2-1.9 6 0 10.7 1.9 14.1 5.7 3.5 3.9 5.2 9.5 5.2 17.1zm-19.8-14.1c-3.7 0-6.7 1.6-9 4.7s-3.5 7.7-3.9 13.6h22.8c.1-.4.2-1.1.2-1.9.1-.8.1-1.7.1-2.7 0-4.4-.9-7.7-2.6-10.1-1.8-2.4-4.3-3.6-7.6-3.6zm60.8 5.6c-.7-.8-1.9-1.8-3.8-3.2-1.8-1.3-4.2-2-7.2-2-2.8 0-4.9.7-6.4 2s-2.2 2.9-2.2 4.7c0 2.3.7 4.3 2 5.8s3.4 3.2 6.2 4.9l3.9 2.3c4.2 2.5 7.6 5.3 10 8.2 2.4 2.9 3.6 6.7 3.6 11.3 0 5-1.7 9.2-5.1 12.6-3.4 3.4-8.4 5.1-14.8 5.1-2.5 0-4.7-.3-6.6-.8-1.9-.5-3.6-1.1-5-1.8s-2.6-1.5-3.6-2.3c-.9-.8-1.7-1.6-2.3-2.3l5.1-8.4c.5.5 1.1 1.1 1.9 1.8.7.7 1.6 1.4 2.7 2 1 .6 2.2 1.2 3.5 1.6 1.3.5 2.8.7 4.5.7 3.1 0 5.5-.7 7.2-2.1 1.7-1.4 2.5-3.1 2.5-5.1 0-1.5-.2-2.8-.6-3.8-.4-1.1-1-2.1-1.7-2.9-.8-.9-1.8-1.7-2.9-2.5-1.1-.8-2.4-1.7-3.9-2.6l-3.9-2.5c-3.9-2.5-7-5.2-9.2-8-2.2-2.8-3.3-6.4-3.3-10.7 0-2.3.4-4.5 1.4-6.5.9-2 2.2-3.7 3.8-5.1 1.6-1.4 3.6-2.6 5.8-3.4 2.2-.8 4.6-1.2 7.1-1.2 2.4 0 4.5.2 6.2.7 1.7.5 3.2 1.1 4.5 1.8 1.2.7 2.3 1.5 3.1 2.2.8.7 1.5 1.4 2 1.9zm58.7 8.5c0 2.7-.1 5-.3 7-.2 1.9-.4 3.7-.5 5.2h-31.9c.3 7.4 1.9 12.9 4.7 16.3 2.8 3.5 6.9 5.2 12.2 5.2 1.8 0 3.5-.2 5-.7 1.5-.4 2.8-.9 3.8-1.6 1.1-.6 2-1.2 2.7-1.8.7-.6 1.3-1.1 1.6-1.4l3.9 7.5c-.4.4-1.1 1.1-2 1.9-.8.8-2 1.7-3.5 2.5s-3.3 1.5-5.5 2.2c-2.2.6-4.7.9-7.7.9-3.9 0-7.4-.6-10.6-2-3.2-1.3-5.8-3.3-8.1-6.1-2.2-2.7-3.9-6.2-5.1-10.5-1.2-4.2-1.8-9.3-1.8-15.2 0-5.6.6-10.4 1.9-14.5 1.2-4 3-7.4 5.1-10 2.2-2.6 4.7-4.6 7.6-5.8 2.9-1.3 5.9-1.9 9.2-1.9 6 0 10.7 1.9 14.1 5.7 3.5 3.9 5.2 9.5 5.2 17.1zm-19.8-14.1c-3.7 0-6.7 1.6-9 4.7-2.2 3.1-3.5 7.7-3.9 13.6h22.8c.1-.4.2-1.1.2-1.9.1-.8.1-1.7.1-2.7 0-4.4-.9-7.7-2.6-10.1-1.8-2.4-4.3-3.6-7.6-3.6zm30.2 39.7c0-3.7.7-6.7 2.1-9.1 1.4-2.4 3.3-4.4 5.6-5.9s5.1-2.6 8.3-3.3c3.2-.7 6.5-1 10.1-1h3.2v-6c0-5.3-.9-9-2.8-11s-4.5-3-7.8-3c-3.2 0-5.8.7-7.8 2-2.1 1.4-3.7 2.5-5 3.6l-4.4-7.1c.7-.7 1.6-1.5 2.7-2.3 1.1-.9 2.4-1.7 4-2.5s3.3-1.4 5.3-1.9 4.3-.8 6.8-.8c6.4 0 11.3 1.8 14.6 5.4 3.3 3.6 4.9 9.3 4.9 17.2V349c0 2.7.1 5.3.3 7.9.2 2.6.4 4.3.5 5.2h-10l-.4-6.9h-.3c-.4.8-.9 1.7-1.6 2.7-.7 1-1.6 1.9-2.6 2.8-1 .8-2.3 1.5-3.8 2.2-1.5.6-3.2.9-5.2.9-2.3 0-4.5-.4-6.6-1.3-2-.9-3.8-2.1-5.3-3.7s-2.7-3.4-3.5-5.6c-.9-2.2-1.3-4.5-1.3-7.1zm18.9 8.5c1.5 0 2.8-.2 3.9-.6 1.1-.4 2.1-1 2.9-1.6.8-.6 1.5-1.3 2.1-2 .6-.7 1.1-1.4 1.5-1.9v-13.9l-3.4.1c-5 .2-8.9 1.1-11.4 2.6-2.6 1.6-3.9 4.1-3.9 7.6 0 3.2.7 5.6 2.2 7.3 1.4 1.6 3.5 2.4 6.1 2.4zm64.1-46c-.3-.2-.8-.4-1.7-.7-.9-.3-2-.4-3.5-.4-3.3 0-5.9.9-7.8 2.7-1.8 1.8-3.2 3.7-4 5.8v46h-10.5v-62.8h9.6v8.5h.3c.4-1.2 1-2.4 1.7-3.6.7-1.2 1.6-2.2 2.6-3.1 1.1-.9 2.3-1.6 3.7-2.2 1.4-.5 3.2-.8 5.1-.8 1.5 0 2.7.1 3.6.4.9.3 1.6.5 2.1.6zm43.7 2.9l-1.2-1.2c-.6-.5-1.3-1.1-2.1-1.6-.9-.5-1.9-1-3.1-1.4-1.2-.4-2.6-.6-4.2-.6-2.3 0-4.4.4-6.3 1.2-1.9.8-3.6 2.2-5.1 4-1.5 1.8-2.6 4.2-3.4 7.1-.8 2.9-1.2 6.5-1.2 10.7 0 4.6.4 8.5 1.1 11.6.8 3.1 1.8 5.6 3.1 7.5 1.3 1.9 2.9 3.2 4.7 4.1 1.8.8 3.9 1.2 6.2 1.2 3.2 0 5.7-.6 7.4-1.7 1.7-1.1 2.9-2 3.6-2.7l4.3 7.3c-.4.5-1.1 1.2-1.9 1.9-.9.7-1.9 1.5-3.2 2.2-1.3.7-2.9 1.3-4.8 1.8s-4 .7-6.4.7c-3.5 0-6.7-.6-9.8-1.7-3.1-1.1-5.7-3-8-5.6-2.3-2.6-4-6-5.3-10.2-1.3-4.2-1.9-9.4-1.9-15.5 0-6 .8-11.1 2.3-15.3 1.6-4.2 3.6-7.6 6.2-10.1 2.5-2.6 5.3-4.4 8.4-5.6 3.1-1.2 6.2-1.8 9.3-1.8 2.4 0 4.4.2 6.2.6 1.8.4 3.3 1 4.6 1.6 1.2.7 2.3 1.3 3.1 2.1.8.7 1.5 1.4 2 1.9zm49.6 50.6v-40.4c0-5.3-.9-9.1-2.7-11.4-1.8-2.3-4.5-3.5-8.2-3.5-3.1 0-5.7.8-7.8 2.4-2.1 1.6-3.7 3.1-5 4.6v48.3h-10.5v-92.4l10.5-1.2v37.3h.3c.4-.5.9-1.2 1.7-2.1.7-.9 1.8-1.7 3-2.6 1.3-.9 2.9-1.6 4.8-2.3 1.9-.7 4.1-1 6.6-1 5.5 0 9.8 1.8 13 5.4 3.2 3.6 4.8 9.5 4.8 17.8v41.1zm-809.7-274.7c11.2 17.8 20 17.5 33.2 17.5-11-8.4-18.2-19.2-21.6-24.7l-20.5-32.9c-2-10.2-7.2-19.6-15.1-26.7 2.6-1 4.8-2.1 6.1-3.1-13.4 0-26.6-6.8-33.9-6.8-4.7 0-7.7 2.8-7.7 6.5.3 4.1 4.5 8.3 12.4 8.3 1.8 0 4-.2 6.5-.6 4.2 5.9 7.7 11.3 7.7 19 0 14.4-17.1 25.6-34.4 25.6-1 0-1.9 0-2.9-.1-1.6-3.6-6.8-9.6-6.8-16.4 0-11.4 7.4-20.8 7.4-32.1 0-7-3.4-11.4-4.7-13.2 2.1-2 4.5-4.4 5-6.1-1.2.5-2.7.6-4.8.6-8.3 0-15-2.2-21.6-2.2-3.8 0-4.8 1.2-4.8 2.3 0 .4.1.8.2 1-1.4-.6-2.7-.9-4.3-1.2-1.9-.4-4-.6-6.3-.6-8 0-10.9 3.4-10.9 6.3 0 2.4 1.9 6.9 4.1 10.3 3.1-1.6 6.9-2.6 8.6-2.6 4.2 0 8 4.1 10 8.9-2.9.4-3.4.5-6.3.5-7.8 0-13.1-2.8-14.2-2.8-.1 0-.3.1-.3.2 0 1.1 2.2 4 6.6 5.6 5.7 2.1 14.3 3 15.8 3.2 0 .3-1.5 3-3.1 3.5-.3.1-.6.1-1 0-6-1.2-7.7-1.7-15.3-4.6-.2-.1-.4.1-.4.3 0 3 7.8 9.7 14.8 12.2-5.8 7.5-13.1 15.1-16.5 26.8-1 .1-1.9.1-2.9.1-17.3 0-34.4-11.2-34.4-25.6 0-7.7 3.4-13 7.7-19 2.5.4 4.8.6 6.5.6 7.8 0 12.1-4.2 12.4-8.3 0-3.7-3-6.5-7.7-6.5-7.3 0-20.5 6.8-33.9 6.8 1.3 1 3.5 2.1 6.1 3.1-7.8 7.1-13.1 16.5-15.1 26.7l-20.3 32.9c-3.4 5.5-10.7 16.3-21.7 24.7 13.2 0 22 .3 33.2-17.5l10.5-16.9c.8 2.2 1.7 4.3 2.9 6.4l-20.9 33.5c-3.5 5.6-10.7 16.3-21.7 24.7 13.2 0 22 .3 33.2-17.5l18-28.9c1.3 1.4 2.8 2.8 4.2 4.2l-25.3 40.7c-3.5 5.6-10.6 16.2-21.7 24.7 13.2 0 22 .3 33.2-17.5l24.7-39.7c1.6 1 3.3 2 5 3l-30.1 48.7c-3.5 5.6-10.6 16.2-21.6 24.7 13.2 0 22 .3 33.2-17.5l31-49.9c1.8.7 3.7 1.4 5.6 2l-35.1 56.4c-3.4 5.5-10.8 16.3-21.6 24.7 13.2 0 22 .3 33.2-17.5l37.4-60.1c.4.1.8.1 1.1.2 1 3.3 1.7 6.3 1.7 9.3 0 18.9-12.3 35.6-27.1 48.4.9.4 2.6.6 4.1.6 3.1 0 5-.2 6.4-.4-3.4 7.8-10.8 17.9-14.5 23.2-4.8-.9-11.9-1.6-16.5-1.6-4.8 0-5.4 2.8-5.4 5.4 0 4.4 2.1 7.9 4.4 9.9.9-2.3 2.7-5.3 11.6-5.3.2 0 .5 0 .9.1-2.6 2.9-10.8 9.5-10.8 14.9 0 3.5 3.9 8.8 9 8.8-.3-1.1-.3-2.2-.3-3 0-4.3 3.8-9.4 7-12.9-.1 1 0 .9 0 2.2 0 10.2.9 14.9 7.4 14.9 3.2 0 5.4-1.8 6.1-2.3-4.2-3.9-4.4-6.9-4.4-12.7v-5c0-1.3 0-3-.2-4.3 2.3-.3 3.3-.3 5-.3 0 0 9.2-.7 11.4 4.1 2.5-2.3 6.1-5.5 6.1-9.1 0-2.4-1.1-5-5.8-5-1.8 0-7.4 1.1-12.1 1.1 1.3-2.8 6.9-11.1 11.8-17.1.7 2.3 1.9 4.8 4.5 6.9.3-3.9 2.6-16.1 8.6-23.2.7 4.8 1.6 9.8 1.6 20.2 0 25.4-6.1 44.2-19 47.8 1.7 2.9 5.2 5.6 8.9 5.6 4.7 0 7.3-5.4 9.9-10.4 1.4 3.7 5.1 12.9 8.9 12.9 3.8 0 7.6-9.2 8.9-12.9 2.6 5.1 5.2 10.4 9.9 10.4 3.7 0 7.2-2.6 8.9-5.6-12.9-3.6-19-22.4-19-47.8 0-10.4.9-15.4 1.6-20.2 6 7.1 8.3 19.4 8.6 23.2 2.6-2.1 3.7-4.6 4.5-6.9 4.9 6 10.5 14.3 11.8 17.1-4.7 0-10.4-1.1-12.2-1.1-4.7 0-5.8 2.7-5.8 5 0 3.6 3.6 6.8 6.1 9.1 2.2-4.8 11.4-4.1 11.4-4.1 1.8 0 2.7 0 5 .3-.2 1.3-.2 3-.2 4.3v5c0 5.7-.2 8.8-4.4 12.7.8.5 2.9 2.3 6.1 2.3 6.5 0 7.4-4.7 7.4-14.9v-2.2c3.2 3.5 7 8.6 7 12.9 0 .8 0 1.8-.3 3 5.1 0 9-5.3 9-8.8 0-5.3-8.2-12-10.8-14.9.4 0 .7-.1.9-.1 8.9 0 10.7 3 11.6 5.3 2.4-2 4.4-5.5 4.4-9.9 0-2.5-.5-5.4-5.4-5.4-4.6 0-11.7.7-16.5 1.6-3.7-5.2-11.1-15.3-14.5-23.2 1.4.2 3.4.4 6.4.4 1.5 0 3.2-.1 4.1-.6-14.8-12.9-27.2-29.6-27.2-48.4 0-3 .7-6 1.7-9.3.4-.1.8-.1 1.1-.2l37.4 60.1c11.2 17.8 20 17.5 33.2 17.5-10.9-8.4-18.2-19.2-21.6-24.7l-34.6-56.3c1.9-.6 3.8-1.3 5.6-2l31 49.9c11.2 17.8 20 17.5 33.2 17.5-11-8.5-18.2-19.1-21.6-24.7l-30.2-48.4c1.7-.9 3.4-2 5-3l24.7 39.7c11.2 17.8 20 17.5 33.2 17.5-11-8.5-18.2-19.2-21.6-24.7l-25.3-40.7c1.5-1.3 2.9-2.7 4.2-4.2l18 28.9c11.2 17.8 20 17.5 33.2 17.5-11-8.5-18.2-19.2-21.7-24.7l-20.9-33.5c1.1-2.1 2.1-4.2 2.9-6.4zm-167.4-38.6c0-12.5 9.1-22.4 12.3-25.2.8.2 1.5.4 2.3.5-3.4 4.2-9.4 11.1-9.4 20.4 0 18.3 19.5 34.2 41.6 34.2-.1 1.6-.2 3.2-.2 4.9 0 2.7.1 5.2.4 7.6-25.1-.1-47-20.5-47-42.4zm33.8 150.2l-.1.4h.4c7 0 10.4-.5 12.7-.8 1.2-.2 2-.3 2.9-.3 1.8 0 3.2.2 3.2 2.4 0 1.5-1.8 3.9-3.5 5.3-2.6-2.4-6.2-2.9-11.4-2.9-2.5 0-5.7.4-7.4.7h-.6l.1.8c.2 1.5.5 3.3.5 5.7v5c0 6 .8 9.4 2.9 12-.5.2-1.4.4-2 .4-3.7 0-4.8-1.6-4.8-12.3 0-2.1-.1-4.2-.2-5.5l-.1-2-.5.4c-5.5 4.2-11.1 11.7-11.5 17.3-1.7-1.1-3.5-3.5-3.5-5.3 0-3.1 4.6-7.7 9.9-13l3.1-3.1.4-.4-1-.2c-1.1-.3-3.3-.8-5.1-.8-6 0-9.7 1.1-12 3.6-.8-1.2-1.5-4-1.5-5.6 0-1.1.2-1.8.6-2.2.5-.5 1.3-.5 2-.5h.1c6.6 0 14.4 1.2 17.5 1.7h.2l.1-.1c.5-.7 13-17.5 16.3-26.3.7-.3 1.4-.5 2.7-.5 2.5 0 3.2 1.7 3.9 4.2-7.7 9.4-12.5 16.8-14.3 21.9zm67.5-26.3c1.3 0 2 .2 2.7.5 3.3 8.9 15.8 25.6 16.3 26.3l.1.1h.2c3.1-.5 10.9-1.7 17.5-1.7h.1c.7 0 1.5 0 2 .5.4.4.6 1.2.6 2.2 0 1.6-.7 4.4-1.5 5.6-2.3-2.5-6-3.6-12-3.6-1.8 0-3.9.5-5.1.8l-.5.1-.5.1 3.5 3.5c5.3 5.3 9.9 9.9 9.9 13 0 1.8-1.8 4.2-3.5 5.3-.4-5.6-6-13.1-11.5-17.3l-.5-.3-.1 2c-.1 1.3-.2 3.4-.2 5.5 0 10.7-1.1 12.3-4.8 12.3-.6 0-1.4-.2-2-.4 2.1-2.6 2.9-6 2.9-12v-5c0-2.4.3-4.3.5-5.7l.1-.8-.6-.1c-1.7-.2-4.9-.7-7.4-.7-5.3 0-8.8.5-11.4 2.9-1.7-1.4-3.5-3.8-3.5-5.3 0-2.2 1.4-2.4 3.2-2.4.9 0 1.8.1 3 .3 2.3.3 5.7.8 12.7.8h.4l-.1-.4c-1.8-5.1-6.7-12.5-14.5-22.1.9-2.3 1.6-4 4-4zm-29-146.1c-.8-3.2-2.4-6.6-4.6-9.1-1.9-2.3-5.1-5-9.4-5-2 0-5.2.9-7.3 1.8-.8-1.4-2.3-4.9-2.3-6.4 0-1.6 2.7-3.2 7.8-3.2 11.3 0 18 5.1 18 13.7.1 3-1.1 5.8-2.2 8.2zm5.1-11.2c-.4-2.4-1.3-4.6-2.7-6.5.1-2.2 1-4.3 4.5-2.6-1.9 2-.4 5.5-.4 5.5s3.9-1.8 3.1-4.4c5.8 1.4 1.6 9.2-4.5 8zm22 75.8c.3-2.5.5-5 .5-7.6 0-1.4 0-3.1-.2-4.9 21.8-.3 40.9-16.1 40.9-34.2 0-9.2-6-16.2-9.4-20.4.8-.2 1.5-.3 2.3-.5 3.2 2.8 12.3 12.7 12.3 25.2 0 21.8-21.7 42-46.4 42.4z" fill="#1d1d1b"/><path d="M1033.399 450h16.4v219.7h-38.3V450z" fill="#f8d200"/><path d="M1033.399 229.2h16.4V450h-38.3V229.2z" fill="#e20613"/><path d="M1049.799 10.6v219.7h-38.3V10.6z" fill="#1d1d1b"/><path d="M6.914 71.9v1.6c0 7.4 4.7 9.8 9.2 9.8 5.5 0 9.8-2.4 9.8-8.9 0-12.2-24.5-10.8-24.5-27.3 0-9.7 6.9-14.9 16-14.9 10 0 15.6 4.9 15.1 16h-7.3c.1-6-1.8-9.9-8.4-9.9-4.2 0-8.4 2.1-8.4 8.1 0 12.1 24.5 10.3 24.5 27.7 0 11.5-7.9 15.3-16.9 15.3-16.1.2-16.1-12.2-16-17.5zm37.6 16.3V33.4h16.2c7.3 0 15.2 2.7 15.2 15.6 0 12.5-9.7 15-15.3 15h-9.2v24.1h-6.9zm6.9-30.2h7.6c2.9 0 9.7-.8 9.7-9.3 0-8.3-6.2-9.2-7.7-9.2h-9.6zm34 10.1v-18c0-10.9 5.6-17.9 17.2-17.9s17.2 7 17.2 17.9v18c0 15.2-5.6 21.2-17.2 21.2s-17.2-6-17.2-21.2zm27.2.3V49.9c0-11.5-7.9-11.8-10.1-11.8-2.2 0-10.1.4-10.1 11.8v18.5c0 12 3.5 15 10.1 15 6.6.1 10.1-3 10.1-15zm57-35v54.8h-9.5l-21.6-47.5h-.1v47.5h-6.2V33.4h9.8l21.2 46.9h.2V33.4zm18 38.5v1.6c0 7.4 4.7 9.8 9.2 9.8 5.5 0 9.8-2.4 9.8-8.9 0-12.2-24.5-10.8-24.5-27.3 0-9.7 6.9-14.9 16-14.9 10 0 15.6 4.9 15.1 16h-7.3c.1-6-1.8-9.9-8.4-9.9-4.2 0-8.4 2.1-8.4 8.1 0 12.1 24.5 10.3 24.5 27.7 0 11.5-7.9 15.3-16.9 15.3-16.1.2-16.1-12.2-16-17.5zm36.5-3.8v-18c0-10.9 5.6-17.9 17.2-17.9 11.5 0 17.2 7 17.2 17.9v18c0 15.2-5.6 21.2-17.2 21.2s-17.2-6-17.2-21.2zm27.2.3V49.9c0-11.5-7.9-11.8-10.1-11.8-2.2 0-10.1.4-10.1 11.8v18.5c0 12 3.5 15 10.1 15 6.6.1 10.1-3 10.1-15zm26-5.4v25.2h-7V33.4h18.8c9.7 0 13.1 6.8 13.1 13.7 0 6.5-3.5 11.4-10 12.5v.2c6.3 1 8.5 3.1 8.9 14.1.1 2.4.8 10.9 1.9 14.3h-7.2c-2-3.8-1.5-10.9-2.1-18.2-.5-6.7-5.9-7-8.3-7zm0-6.1h10.4c5 0 7.4-4.3 7.4-9.1 0-3.9-2-8.3-7.3-8.3h-10.5zm35.2 31.3V33.4h28.1v6.1h-21.2v17.6h19.7v6.1h-19.7v19h21.6v6.1h-28.5zm38-54.8h16.8c7 0 12 2.5 14.7 8.4 2.2 4.6 2.4 15.6 2.4 17.3 0 11.7-1.1 18.4-3.3 22.1-3 4.7-8.5 7.1-18 7.1h-12.5V33.4zm6.9 48.7h6.6c9.7 0 13.2-3.6 13.2-16.4V54.6c0-11.1-3.4-15.2-10.7-15.2h-9.1zm56.6 6.1V33.4h17.8c7.6 0 10.1 2.6 12.2 5.6 1.9 3 2.2 6.2 2.2 7.3 0 6.8-2.4 11.4-9.4 13v.4c7.8.9 11.2 5.6 11.2 13.1 0 14-10.2 15.4-16.4 15.4zm7-31.7h10.1c5.5-.1 8.1-3.4 8.1-8.7 0-4.6-2.6-8.3-8.4-8.3h-9.8zm0 25.6h9.8c7.4 0 10.1-5.3 10.1-9.3 0-8.7-5.4-10.3-12.5-10.3h-7.4zm62.5-48.7h7l-14.9 33.9v20.9h-7V67.3l-14.7-33.9h7.8l10.6 26.5zm61.2 0v6.1h-14.4v48.7h-6.9V39.5h-14.4v-6.1zm7.6 54.8V33.4h7v23.7h19.2V33.4h7v54.8h-7v-25h-19.2v25zm45.8 0V33.4h28.1v6.1h-21.2v17.6h19.6v6.1h-19.6v19h21.6v6.1h-28.5z"/></svg>