<svg xmlns="http://www.w3.org/2000/svg" viewBox="0 0 642.1 190"><path fill="#636466" d="M450.9 136.3c0 .2-.1.3-.4.3H448c-.2 0-.4-.1-.4-.3v-10.2c0-.1 0-.1-.1-.1s-.1 0-.1.1l-1.8 4.6c-.1.2-.2.3-.5.3h-1.7c-.2 0-.4-.1-.5-.3l-1.8-4.6c0-.1 0-.1-.1-.1s-.1 0-.1.1v10.2c0 .2-.1.3-.4.3H438c-.2 0-.4-.1-.4-.3v-19.9c0-.3.1-.4.4-.4h2.5c.2 0 .4.1.5.3l3.1 8.3c0 .1 0 .1.1.1s.1 0 .1-.1l3.1-8.3c.1-.2.2-.3.5-.3h2.4c.3 0 .5.1.5.3v20h.1zm14 .1l-3.8-20.1c0-.2-.2-.3-.4-.3h-2.4c-.2 0-.3.1-.4.4l-3.8 20v.1c0 .2.1.3.3.3h2.6c.2 0 .4-.1.4-.3l.5-2.6c0-.2.2-.3.4-.3h2.4c.2 0 .4.1.4.3l.5 2.6c0 .2.2.3.4.3h2.6c.2-.2.3-.3.3-.4zm-4.6-6.5c0 .2-.1.3-.3.3h-1.2c-.2 0-.3-.1-.3-.3 0 .1.3-1.1.8-3.9 0-.1.1-.1.2-.1s.2 0 .2.1c.4 2.7.6 4 .6 3.9zm18.5 1.8v-5.4c0-.2-.1-.4-.3-.4h-4.9c-.2 0-.4.1-.4.4v2.5c0 .2.1.4.4.4h1.7c.2 0 .3.1.3.3v2.2c0 .5-.2 1-.6 1.4-.4.4-.8.6-1.4.6h-.4c-.5 0-1-.2-1.4-.6-.4-.4-.6-.8-.6-1.4V121c0-.5.2-1 .6-1.4.4-.4.8-.6 1.4-.6h.4c.5 0 1 .2 1.4.6.4.4.6.8.6 1.4v2.2c0 .2.1.3.3.3h2.6c.2 0 .3-.1.3-.3V121c0-1.5-.5-2.7-1.5-3.7s-2.2-1.5-3.7-1.5h-.4c-1.4 0-2.7.5-3.7 1.5s-1.5 2.2-1.5 3.7v10.7c0 1.4.5 2.7 1.5 3.7s2.2 1.5 3.7 1.5h.4c1.4 0 2.7-.5 3.7-1.5 1-1.1 1.5-2.3 1.5-3.7zm14-.2v-10.3c0-1.5-.5-2.7-1.5-3.7s-2.2-1.5-3.7-1.5h-5.3c-.2 0-.3.1-.3.3v20c0 .2.1.3.3.3h5.3c1.4 0 2.7-.5 3.7-1.5s1.5-2.2 1.5-3.6zm-3.2 0c0 .5-.2 1-.6 1.4-.4.4-.8.6-1.4.6h-2c-.2 0-.3-.1-.3-.3v-13.5c0-.2.1-.3.3-.3h2c.5 0 1 .2 1.4.6.4.4.6.8.6 1.4v10.1zm17.2 4.8v-2.6c0-.2-.1-.3-.3-.3h-6.9c-.2 0-.4-.1-.4-.3v-4.8c0-.2.1-.3.4-.3h6c.2 0 .3-.1.3-.4V125c0-.2-.1-.4-.3-.4h-6c-.2 0-.4-.1-.4-.3v-4.8c0-.2.1-.3.4-.3h6.9c.2 0 .3-.1.3-.3v-2.6c0-.2-.1-.3-.3-.3h-10.1c-.2 0-.3.1-.3.3v20c0 .2.1.3.3.3h10.1c.2 0 .3-.1.3-.3zm14-4.8v-1.6c0-1.1-.4-2.2-1.2-3.3-.1-.1-.1-.2-.1-.3 0-.1 0-.2.1-.3.8-1.1 1.2-2.2 1.2-3.3v-1.6c0-1.5-.5-2.7-1.5-3.7s-2.2-1.5-3.7-1.5h-5.3c-.2 0-.3.1-.3.3v20c0 .2.1.3.3.3h5.3c1.4 0 2.7-.5 3.7-1.5 1-.9 1.5-2.1 1.5-3.5zm-3.2-8.8c0 .5-.2 1-.6 1.4-.4.4-.8.6-1.4.6h-2c-.2 0-.3-.1-.3-.3v-4.8c0-.2.1-.3.3-.3h2c.5 0 1 .2 1.4.6.4.4.6.8.6 1.4v1.4zm0 8.8c0 .5-.2 1-.6 1.4-.4.4-.8.6-1.4.6h-2c-.2 0-.3-.1-.3-.3v-4.8c0-.2.1-.3.3-.3h2c.5 0 1 .2 1.4.6.4.4.6.8.6 1.4v1.4zm17.2.2v-15.4c0-.2-.1-.3-.3-.3h-2.6c-.2 0-.3.1-.3.3v15.4c0 .5-.2 1-.6 1.4-.4.4-.8.6-1.4.6h-.4c-.5 0-1-.2-1.4-.6-.4-.4-.6-.8-.6-1.4v-15.4c0-.2-.1-.3-.3-.3h-2.6c-.2 0-.3.1-.3.3v15.4c0 1.4.5 2.7 1.5 3.7s2.2 1.5 3.7 1.5h.4c1.4 0 2.7-.5 3.7-1.5s1.5-2.3 1.5-3.7zm14 4.7l-1.2-4.2c-.7-2.4-1.1-3.7-1.1-3.8 0-.2.1-.3.2-.4 1.4-1.2 2-2.5 2-4.1v-2.8c0-1.4-.5-2.7-1.5-3.7s-2.2-1.5-3.7-1.5h-5.3c-.2 0-.3.1-.3.4v20c0 .2.1.3.3.3h2.6c.2 0 .3-.1.3-.3v-6.9c0-.2.1-.3.4-.3h1.4c.2 0 .4.1.5.3l2 6.9c.1.2.2.3.4.3h2.7c.2 0 .3-.1.3-.2zm-3.2-12.5c0 .5-.2 1-.6 1.4-.4.4-.8.6-1.4.6h-2c-.2 0-.4-.1-.4-.4v-6c0-.2.1-.3.4-.3h2c.5 0 1 .2 1.4.6.4.4.6.8.6 1.4v2.7zm17.2 7.8v-5.4c0-.2-.1-.4-.3-.4h-4.9c-.2 0-.4.1-.4.4v2.5c0 .2.1.4.4.4h1.7c.2 0 .3.1.3.3v2.2c0 .5-.2 1-.6 1.4-.4.4-.8.6-1.4.6h-.4c-.5 0-1-.2-1.4-.6-.4-.4-.6-.8-.6-1.4V121c0-.5.2-1 .6-1.4.4-.4.8-.6 1.4-.6h.4c.5 0 1 .2 1.4.6.4.4.6.8.6 1.4v2.2c0 .2.1.3.3.3h2.6c.2 0 .3-.1.3-.3V121c0-1.5-.5-2.7-1.5-3.7s-2.2-1.5-3.7-1.5h-.4c-1.4 0-2.7.5-3.7 1.5s-1.5 2.2-1.5 3.7v10.7c0 1.4.5 2.7 1.5 3.7s2.2 1.5 3.7 1.5h.4c1.4 0 2.7-.5 3.7-1.5 1-1.1 1.5-2.3 1.5-3.7zM448.5 87.6V85c0-.2-.1-.3-.3-.3H438c-.2 0-.3.1-.3.3v20c0 .2.1.3.3.3h2.6c.2 0 .3-.1.3-.3v-8c0-.2.1-.3.4-.3h6c.2 0 .3-.1.3-.4v-2.5c0-.2-.1-.4-.3-.4h-6c-.2 0-.4-.1-.4-.3v-4.8c0-.2.1-.3.4-.3h6.9c.2 0 .3-.1.3-.4zm14 12.8V89.7c0-1.5-.5-2.7-1.5-3.7s-2.2-1.5-3.7-1.5h-.4c-1.4 0-2.7.5-3.7 1.5s-1.5 2.2-1.5 3.7v10.7c0 1.4.5 2.7 1.5 3.7s2.2 1.5 3.7 1.5h.4c1.4 0 2.7-.5 3.7-1.5s1.5-2.2 1.5-3.7zm-3.2 0c0 .5-.2 1-.6 1.4-.4.4-.8.6-1.4.6h-.4c-.5 0-1-.2-1.4-.6-.4-.4-.6-.8-.6-1.4V89.7c0-.5.2-1 .6-1.4.4-.4.8-.6 1.4-.6h.4c.5 0 1 .2 1.4.6.4.4.6.8.6 1.4v10.7zm17.2 4.8l-1.2-4.2c-.7-2.4-1.1-3.7-1.1-3.8 0-.2.1-.3.2-.4 1.4-1.2 2-2.5 2-4.1v-2.8c0-1.4-.5-2.7-1.5-3.7s-2.2-1.5-3.7-1.5H466c-.2 0-.3.1-.3.4v20c0 .2.1.3.3.3h2.6c.2 0 .3-.1.3-.3v-6.9c0-.2.1-.3.4-.3h1.4c.2 0 .4.1.5.3l2 6.9c.1.2.2.3.4.3h2.7c.1 0 .2-.1.2-.2zm-3.2-12.5c0 .5-.2 1-.6 1.4-.4.4-.8.6-1.4.6h-2c-.2 0-.4-.1-.4-.4v-6c0-.2.1-.3.4-.3h2c.5 0 1 .2 1.4.6.4.4.6.8.6 1.4v2.7zm22 12.3V85.1c0-.2-.1-.4-.3-.4h-2.6c-.2 0-.3.1-.3.4v10.3c0 .1 0 .1-.1.1s-.1 0-.1-.1l-4-10.4c-.1-.2-.3-.3-.5-.3h-2.5c-.2 0-.4.2-.4.5V105c0 .2.1.4.3.4h2.6c.2 0 .3-.1.3-.4V94.7c0-.1 0-.1.1-.1s.1 0 .1.1l4 10.4c.1.2.2.3.5.3h2.3c.4 0 .6-.1.6-.4zm14 .1v-2.6c0-.2-.1-.3-.3-.3h-6.9c-.2 0-.4-.1-.4-.3V97c0-.2.1-.3.4-.3h6c.2 0 .3-.1.3-.4v-2.5c0-.2-.1-.4-.3-.4h-6c-.2 0-.4-.1-.4-.3v-4.8c0-.2.1-.3.4-.3h6.9c.2 0 .3-.1.3-.3v-2.6c0-.2-.1-.3-.3-.3h-10.1c-.2 0-.3.1-.3.3v20c0 .2.1.3.3.3H509c.2 0 .3-.1.3-.3zm14-4.6V85.1c0-.2-.1-.3-.3-.3h-2.6c-.2 0-.3.1-.3.3v15.4c0 .5-.2 1-.6 1.4-.4.4-.8.6-1.4.6h-.4c-.5 0-1-.2-1.4-.6-.4-.4-.6-.8-.6-1.4V85.1c0-.2-.1-.3-.3-.3h-2.6c-.2 0-.3.1-.3.3v15.4c0 1.4.5 2.7 1.5 3.7s2.2 1.5 3.7 1.5h.4c1.4 0 2.7-.5 3.7-1.5 1-1.1 1.5-2.3 1.5-3.7zm14 4.7l-1.2-4.2c-.7-2.4-1.1-3.7-1.1-3.8 0-.2.1-.3.2-.4 1.4-1.2 2-2.5 2-4.1v-2.8c0-1.4-.5-2.7-1.5-3.7s-2.2-1.5-3.7-1.5h-5.3c-.2 0-.3.1-.3.4v20c0 .2.1.3.3.3h2.6c.2 0 .3-.1.3-.3v-6.9c0-.2.1-.3.4-.3h1.4c.2 0 .4.1.5.3l2 6.9c.1.2.2.3.4.3h2.7c.2 0 .3-.1.3-.2zM534 92.7c0 .5-.2 1-.6 1.4-.4.4-.8.6-1.4.6h-2c-.2 0-.4-.1-.4-.4v-6c0-.2.1-.3.4-.3h2c.5 0 1 .2 1.4.6.4.4.6.8.6 1.4v2.7zm17.3 7.7V89.7c0-1.5-.5-2.7-1.5-3.7s-2.2-1.5-3.7-1.5h-.4c-1.4 0-2.7.5-3.7 1.5s-1.5 2.2-1.5 3.7v10.7c0 1.4.5 2.7 1.5 3.7s2.2 1.5 3.7 1.5h.4c1.4 0 2.7-.5 3.7-1.5s1.5-2.2 1.5-3.7zm-3.3 0c0 .5-.2 1-.6 1.4-.4.4-.8.6-1.4.6h-.4c-.5 0-1-.2-1.4-.6-.4-.4-.6-.8-.6-1.4V89.7c0-.5.2-1 .6-1.4.4-.4.8-.6 1.4-.6h.4c.5 0 1 .2 1.4.6.4.4.6.8.6 1.4v10.7zm17.3-.2v-1.6c0-1.1-.4-2.2-1.2-3.3-.1-.1-.1-.2-.1-.3 0-.1 0-.2.1-.3.8-1.1 1.2-2.2 1.2-3.3v-1.6c0-1.5-.5-2.7-1.5-3.7s-2.2-1.5-3.7-1.5h-5.3c-.2 0-.3.1-.3.3v20c0 .2.1.3.3.3h5.3c1.4 0 2.7-.5 3.7-1.5 1-.8 1.5-2 1.5-3.5zm-3.3-8.7c0 .5-.2 1-.6 1.4-.4.4-.8.6-1.4.6h-2c-.2 0-.3-.1-.3-.3v-4.8c0-.2.1-.3.3-.3h2c.5 0 1 .2 1.4.6.4.4.6.8.6 1.4v1.4zm0 8.7c0 .5-.2 1-.6 1.4-.4.4-.8.6-1.4.6h-2c-.2 0-.3-.1-.3-.3V97c0-.2.1-.3.3-.3h2c.5 0 1 .2 1.4.6.4.4.6.8.6 1.4v1.5zm9.7 4.9v-20c0-.2-.1-.3-.3-.3h-2.6c-.2 0-.3.1-.3.3v20c0 .2.1.3.3.3h2.6c.2 0 .3-.1.3-.3zm14-4.7V89.7c0-1.5-.5-2.7-1.5-3.7s-2.2-1.5-3.7-1.5h-.5c-1.4 0-2.7.5-3.7 1.5s-1.5 2.2-1.5 3.7v10.7c0 1.4.5 2.7 1.5 3.7s2.2 1.5 3.7 1.5h.4c1.4 0 2.7-.5 3.7-1.5 1.1-1 1.6-2.2 1.6-3.7zm-3.3 0c0 .5-.2 1-.6 1.4-.4.4-.8.6-1.4.6h-.4c-.5 0-1-.2-1.4-.6-.4-.4-.6-.8-.6-1.4V89.7c0-.5.2-1 .6-1.4.4-.4.8-.6 1.4-.6h.4c.5 0 1 .2 1.4.6.4.4.6.8.6 1.4v10.7zm17.3 4.7v-2.6c0-.2-.1-.3-.3-.3h-6.9c-.2 0-.3-.1-.3-.3V85.1c0-.2-.1-.3-.3-.3h-2.6c-.2 0-.3.1-.3.3v20c0 .2.1.3.3.3h10.1c.2 0 .3-.1.3-.3zm14-4.7V89.7c0-1.5-.5-2.7-1.5-3.7s-2.2-1.5-3.7-1.5h-.5c-1.4 0-2.7.5-3.7 1.5s-1.5 2.2-1.5 3.7v10.7c0 1.4.5 2.7 1.5 3.7s2.2 1.5 3.7 1.5h.4c1.4 0 2.7-.5 3.7-1.5 1.1-1 1.6-2.2 1.6-3.7zm-3.3 0c0 .5-.2 1-.6 1.4-.4.4-.8.6-1.4.6h-.4c-.5 0-1-.2-1.4-.6-.4-.4-.6-.8-.6-1.4V89.7c0-.5.2-1 .6-1.4.4-.4.8-.6 1.4-.6h.4c.5 0 1 .2 1.4.6.4.4.6.8.6 1.4v10.7zm17.3 0V95c0-.2-.1-.4-.3-.4h-4.9c-.2 0-.4.1-.4.4v2.5c0 .2.1.4.4.4h1.7c.2 0 .3.1.3.3v2.2c0 .5-.2 1-.6 1.4-.4.4-.8.6-1.4.6h-.5c-.5 0-1-.2-1.4-.6-.4-.4-.6-.8-.6-1.4V89.7c0-.5.2-1 .6-1.4.4-.4.8-.6 1.4-.6h.4c.5 0 1 .2 1.4.6.4.4.6.8.6 1.4v2.2c0 .2.1.3.3.3h2.6c.2 0 .3-.1.3-.3v-2.2c0-1.5-.5-2.7-1.5-3.7s-2.2-1.5-3.7-1.5h-.4c-1.4 0-2.7.5-3.7 1.5s-1.5 2.2-1.5 3.7v10.7c0 1.4.5 2.7 1.5 3.7s2.2 1.5 3.7 1.5h.4c1.4 0 2.7-.5 3.7-1.5 1.1-1 1.6-2.2 1.6-3.7zm14.1-15.5c0-.1-.1-.2-.3-.2h-2.8c-.2 0-.4.1-.4.3l-1.9 5c0 .1 0 .1-.1.1s-.1 0-.1-.1l-1.9-5c-.1-.2-.2-.3-.5-.3H631c-.2 0-.3.1-.3.2l1.8 4.8c1.2 3.2 1.9 5 2 5.4 0 .1.1.3.1.3v9.6c0 .2.1.3.3.3h2.6c.2 0 .3-.1.3-.3v-9.9l2-5.4c1.4-3.1 2-4.7 2-4.8zm-193.3-11v-2.6c0-.2-.1-.3-.3-.3h-6.9c-.2 0-.3-.1-.3-.3V53.8c0-.2-.1-.3-.3-.3H438c-.2 0-.3.1-.3.3v20c0 .2.1.3.3.3h10.1c.3.1.4 0 .4-.2zm14 0v-2.6c0-.2-.1-.3-.3-.3h-6.9c-.2 0-.4-.1-.4-.3v-4.8c0-.2.1-.3.4-.3h6c.2 0 .3-.1.3-.4v-2.5c0-.2-.1-.4-.3-.4h-6c-.2 0-.4-.1-.4-.3v-4.8c0-.2.1-.3.4-.3h6.9c.2 0 .3-.1.3-.3V54c0-.2-.1-.3-.3-.3H452c-.2 0-.3.1-.3.3v20c0 .2.1.3.3.3h10.1c.3-.1.4-.2.4-.4zm6.4 0v-20c0-.2-.1-.3-.3-.3H466c-.2 0-.3.1-.3.3v20c0 .2.1.3.3.3h2.6c.2 0 .3-.1.3-.3zm14-4.9v-1.6c0-1.1-.4-2.2-1.2-3.3-.1-.1-.1-.2-.1-.3 0-.1 0-.2.1-.3.8-1.1 1.2-2.2 1.2-3.3v-1.6c0-1.5-.5-2.7-1.5-3.7s-2.2-1.5-3.7-1.5h-5.3c-.2 0-.3.1-.3.3v20c0 .2.1.3.3.3h5.3c1.4 0 2.7-.5 3.7-1.5 1-.8 1.5-2 1.5-3.5zm-3.2-8.7c0 .5-.2 1-.6 1.4-.4.4-.8.6-1.4.6h-2c-.2 0-.3-.1-.3-.3v-4.8c0-.2.1-.3.3-.3h2c.5 0 1 .2 1.4.6.4.4.6.8.6 1.4v1.4zm0 8.7c0 .5-.2 1-.6 1.4-.4.4-.8.6-1.4.6h-2c-.2 0-.3-.1-.3-.3v-4.8c0-.2.1-.3.3-.3h2c.5 0 1 .2 1.4.6.4.4.6.8.6 1.4V69zm17.2 4.8v-20c0-.2-.1-.4-.3-.4H494c-.2 0-.3.1-.3.4v10.3c0 .1 0 .1-.1.1s-.1 0-.1-.1l-4-10.4c-.1-.2-.3-.3-.5-.3h-2.5c-.2 0-.4.2-.4.5v19.9c0 .2.1.4.3.4h2.6c.2 0 .3-.1.3-.4V63.5c0-.1 0-.1.1-.1s.1 0 .1.1l4 10.4c.1.2.2.3.5.3h2.3c.4 0 .6-.1.6-.4zm6.4.1v-20c0-.2-.1-.3-.3-.3h-2.6c-.2 0-.3.1-.3.3v20c0 .2.1.3.3.3h2.6c.2 0 .3-.1.3-.3zm14 0v-2.6c0-.2-.1-.3-.4-.3h-6.3c-.1 0-.2-.1-.2-.2l3.2-6.8c2.2-4.6 3.4-7.1 3.6-7.5.1-.1.1-.2.1-.4v-2.3c0-.2-.1-.3-.3-.3h-10.1c-.2 0-.3.1-.3.3v2.6c0 .2.1.3.3.3h6.3c.1 0 .2.1.2.2 0 .2-2.3 4.9-6.8 14.2-.1.1-.1.2-.1.4v2.4c0 .2.1.3.3.3h10.1c.3 0 .4-.1.4-.3zm20.4 0v-20c0-.2-.1-.3-.3-.3h-2.6c-.2 0-.3.1-.3.3v20c0 .2.1.3.3.3h2.6c.2 0 .3-.1.3-.3zm14-.1v-20c0-.2-.1-.4-.3-.4h-2.6c-.2 0-.3.1-.3.4v10.3c0 .1 0 .1-.1.1s-.1 0-.1-.1l-4-10.4c-.1-.2-.3-.3-.5-.3h-2.5c-.2 0-.4.2-.4.5v19.9c0 .2.1.4.3.4h2.6c.2 0 .3-.1.3-.4V63.5c0-.1 0-.1.1-.1s.1 0 .1.1l4 10.4c.1.2.2.3.5.3h2.3c.4 0 .6-.1.6-.4zm14-4.6c0-1.9-.7-3.4-2-4.6l-4.7-4.1c-.6-.5-.9-1.2-.9-2.1 0-.5.2-1 .6-1.4s.8-.6 1.4-.6h.4c.5 0 1 .2 1.4.6.4.4.6.8.6 1.4v1.8c0 .2.1.4.3.4h2.6c.2 0 .3-.1.3-.4v-1.8c0-1.5-.5-2.7-1.5-3.7s-2.2-1.5-3.7-1.5h-.4c-1.4 0-2.7.5-3.7 1.5s-1.5 2.2-1.5 3.7c0 1.9.7 3.4 2 4.5 2.3 2 3.9 3.3 4.7 4.1.6.5.8 1.2.8 2.1 0 .5-.2 1-.6 1.4-.4.4-.8.6-1.4.6h-.4c-.5 0-1-.2-1.4-.6-.4-.4-.6-.8-.6-1.4v-1.8c0-.2-.1-.4-.3-.4h-2.6c-.2 0-.3.1-.3.4v1.8c0 1.4.5 2.7 1.5 3.7s2.2 1.5 3.7 1.5h.4c1.4 0 2.7-.5 3.7-1.5 1.1-.9 1.6-2.2 1.6-3.6zm14-12.8v-2.6c0-.2-.1-.3-.3-.3h-10.1c-.2 0-.3.1-.3.3v2.6c0 .2.1.3.3.3h3.1c.2 0 .4.1.4.3v16.8c0 .2.1.3.3.3h2.6c.2 0 .3-.1.3-.3V57.1c0-.2.1-.3.3-.3h3.1c.2-.1.3-.2.3-.4zm6.4 17.5v-20c0-.2-.1-.3-.3-.3h-2.6c-.2 0-.3.1-.3.3v20c0 .2.1.3.3.3h2.6c.2 0 .3-.1.3-.3zm14-17.5v-2.6c0-.2-.1-.3-.3-.3h-10.1c-.2 0-.3.1-.3.3v2.6c0 .2.1.3.3.3h3.1c.2 0 .4.1.4.3v16.8c0 .2.1.3.3.3h2.6c.2 0 .3-.1.3-.3V57.1c0-.2.1-.3.3-.3h3.1c.2-.1.3-.2.3-.4zm14 12.8V53.8c0-.2-.1-.3-.3-.3h-2.6c-.2 0-.3.1-.3.3v15.4c0 .5-.2 1-.6 1.4-.4.4-.8.6-1.4.6h-.4c-.5 0-1-.2-1.4-.6-.4-.4-.6-.8-.6-1.4V53.8c0-.2-.1-.3-.3-.3h-2.6c-.2 0-.3.1-.3.3v15.4c0 1.4.5 2.7 1.5 3.7s2.2 1.5 3.7 1.5h.4c1.4 0 2.7-.5 3.7-1.5s1.5-2.2 1.5-3.7zm14-12.8v-2.6c0-.2-.1-.3-.3-.3h-10.1c-.2 0-.3.1-.3.3v2.6c0 .2.1.3.3.3h3.1c.2 0 .4.1.4.3v16.8c0 .2.1.3.3.3h2.6c.2 0 .3-.1.3-.3V57.1c0-.2.1-.3.3-.3h3.1c.2-.1.3-.2.3-.4zm14 17.5v-2.6c0-.2-.1-.3-.3-.3h-6.9c-.2 0-.4-.1-.4-.3v-4.8c0-.2.1-.3.4-.3h6c.2 0 .3-.1.3-.4v-2.5c0-.2-.1-.4-.3-.4h-6c-.2 0-.4-.1-.4-.3v-4.8c0-.2.1-.3.4-.3h6.9c.2 0 .3-.1.3-.3V54c0-.2-.1-.3-.3-.3h-10.1c-.2 0-.3.1-.3.3v20c0 .2.1.3.3.3h10.1c.2-.1.3-.2.3-.4zm-530-43.3c-33.1-9.8-69 7-82.2 39.7-12.3 30.4-1 64.5 25.4 82l-9.1 19.5C8.2 147.7-7 98.5 12.5 56.5c19.6-41.9 67-62 110-48.3-2.4 5.2-8.6 18.6-10.4 22.4zm5.2 4.8c33.3 13.5 49.4 51.4 36 84.7-13.5 33.3-51.4 49.4-84.7 36-33.3-13.5-49.4-51.4-36-84.7C46.1 38.1 84 22 117.3 35.4zM77.4 161.9c32.1 7.6 65.8-9.1 78.6-40.7 11.8-29.2 1.8-61.9-22.3-79.9l10.6-22.9C182 42.6 197 91.6 177.5 133.3 158 175.2 110.8 195.2 68 181.9l9.4-20zM130.3 39c-3.7-2.4-7.7-4.5-11.9-6.2l-2.4-.9c2.5-5.4 11.1-24 11.1-24 .5-1.1 0-2.3-1.2-2.7-45.4-15.7-96.3 5.1-117 49.7-20.8 44.5-4 96.9 37.2 121.6 1 .6 2.3.2 2.8-.9l9.8-21.1c2.8 1.6 5.7 3 8.7 4.3 2 .8 3.9 1.5 5.9 2.1l-10 21.4c-.5 1.1 0 2.3 1.2 2.7 45.3 15.3 95.8-5.5 116.4-49.9 20.7-44.3 4.2-96.4-36.6-121.2-1.1-.6-2.3-.2-2.9.9L130.3 39z"/><path fill="#006b91" d="M215.9 53.5H229v60.8c0 2.6.9 4.8 2.7 6.5 1.8 1.8 3.9 2.7 6.4 2.7h43.3v13.1h-43.3c-3.1 0-6-.6-8.7-1.7-2.7-1.2-5-2.8-7-4.8-2-2.1-3.6-4.4-4.8-7.1-1.2-2.7-1.8-5.6-1.8-8.7V53.5h.1zm136.8 0c-3.6 0-6.9.6-10 1.9-3.1 1.3-5.8 3.1-8.1 5.4-2.3 2.3-4.1 5-5.5 8.1s-2 6.3-2 9.8v57.9h13.2V78.8c0-3.4 1.2-6.3 3.6-8.7 2.4-2.4 5.3-3.6 8.8-3.6h33.1c1.7 0 3.3.3 4.8 1s2.8 1.5 3.9 2.7 2 2.4 2.7 3.9c.6 1.5 1 3.1 1 4.8v57.8h13V78.8c0-3.5-.7-6.7-2-9.8-1.3-3.1-3.1-5.8-5.5-8.1-2.3-2.3-5-4.1-8.1-5.4-3.1-1.3-6.4-1.9-9.8-1.9h-33.1v-.1zm-55 0v83.1h13.2V53.5h-13.2zm-196.6 31c8.4-2 17.7-5.4 27.3-7.2-2.5 6.2-5.2 12.9-8.5 20.2-2.9 6.3-12.7 17-28.8 20.3 2.3-11 5.9-22.3 10-33.3zM71.8 118c-8.1-1.3-17.1-4.5-27-10.1 21-19.8 17.9-34.5 33.8-24.6 5.2 3.2 11.2 3.4 17.9 2.2-6.3 11.4-13.6 22.1-21.8 29.8l-2.9 2.7zm-37 27.7c45.1-14.4 60.5-11.6 79.7 20.2-13.3-34.5-27.3-26.2-24.3-43.2l.2-1c14.2-2.8 23.4-9.8 29.4-3.6 8.3 8.5 8 20.6 26 32-16.2-14.7-25.8-36.7-12.9-37.1 9.1-.3 23.9 5 31.2 9.7-11.7-9.6-22.8-12.9-28.5-27.2-2.7-6.8-3.2-13.1-2.3-19.1 10.5-1.3 21.3-.1 31.6 7.3-8.7-9-19.8-11-31.1-10.2 2.2-10.1 7.9-19.6 12.9-29.8-7.9 9-12.4 18.7-17.1 30.3-9.4 1.2-18.8 4.1-26.9 6.1 7.6-19.5 16.7-37.8 23.5-52.1-6.8 7.6-15.5 30.9-27.3 53-14.6 3.2-23.6 1.8-18.3-21.3 2.7-11.5 9.2-17.2 21.1-36.2C91.7 32.1 71 65 55.3 63.9 39.1 62.7 46 60 27.2 60.3c16.5 3.8 22.4 3.2 29.8 14 4.9 7.3-4.2 20.6-14.9 32C34.8 101.8 27 96 18.8 88.6c7.7 8.2 14.9 14.6 21.6 19.5-7.3 7.5-15 14-19.3 17.1 9.2-5.2 16.3-10.4 21.8-15.3 9.4 6.5 17.8 10 25.3 11.7-13.4 12.2-20.6 18.1-33.4 24.1z"/></svg>