<svg xmlns="http://www.w3.org/2000/svg" viewBox="0 0 371.671 131.343"><g stroke-linejoin="round" stroke-miterlimit="100000" transform="matrix(.26458 0 0 .26458 -12.093 0)"><g fill="#424242" aria-label="OpenNEURO" class="cls-1"><path d="M641.348 318.108c36.938 0 63.718-26.596 63.718-67.228 0-40.632-26.78-67.227-63.718-67.227-36.939 0-63.719 26.595-63.719 67.227 0 40.632 26.78 67.228 63.719 67.228zm0-111.738c25.117 0 37.861 18.654 37.861 44.51 0 25.857-12.744 44.51-37.861 44.51-25.118 0-37.862-18.653-37.862-44.51 0-25.856 12.744-44.51 37.862-44.51zM765.48 317.369c29.55 0 45.248-21.978 45.248-47.835s-15.698-47.835-45.249-47.835c-10.158 0-16.437 2.586-22.717 6.834l-1.847-5.356H720.97v137.04h22.901v-49.128c6.095 4.064 12.005 6.28 21.61 6.28zm-1.478-76.831c14.775 0 23.27 11.82 23.27 28.996s-8.495 28.996-23.27 28.996c-14.776 0-21.24-11.82-21.24-28.996s6.464-28.996 21.24-28.996zM904.55 274.336c.924-4.433 1.478-8.496 1.478-12.56 0-24.378-17.36-40.077-40.632-40.077-28.442 0-44.325 22.163-44.325 47.835 0 25.857 16.622 47.835 50.05 47.835 13.114 0 23.826-3.325 30.844-7.018l-1.108-19.393c-7.572 4.063-19.762 7.572-28.442 7.572-12.19 0-24.934-7.018-27.52-24.194zm-38.415-33.798c12.374 0 16.622 9.973 16.622 18.284H845.45c2.216-10.527 8.865-18.284 20.685-18.284zM1003.175 315.522V265.84c0-26.041-10.527-44.14-39.339-44.14-7.203 0-14.96 3.139-20.316 7.017l-.369-5.54h-21.424v92.345h22.902v-67.043c4.247-4.986 9.603-7.941 17.36-7.941 12.929 0 18.285 8.126 18.285 25.302v49.682z"/><path fill="#00505c" d="M1095.394 315.522v-91.576h-16.745v59.132l-39.116-59.132h-16.484v91.576h16.745v-62.795l41.863 62.795zM1175.457 315.522V299.3h-42.779v-23.417h32.182V259.66h-32.182v-19.493h41.47v-16.222h-58.608v91.576zM1226.74 317.353c25.771 0 37.938-16.222 37.938-41.078v-52.329h-16.745v46.704c0 17.007-3.533 30.612-21.194 30.612-17.66 0-21.193-13.605-21.193-30.612v-46.704h-16.745v52.33c0 24.855 12.166 41.077 37.938 41.077zM1353.899 315.522l-20.67-38.462c8.634-5.364 15.567-12.559 15.567-26.688 0-19.885-13.867-26.426-31.528-26.426h-33.49v91.576h16.745v-34.014h17.007l18.97 34.014zm-40.425-77.578c14.39 0 17.792 5.102 17.792 13.606 0 8.242-3.27 14.26-18.446 14.26h-12.297v-27.866zM1405.312 317.353c26.164 0 45.133-18.838 45.133-47.619 0-28.78-18.969-47.62-45.133-47.62-26.165 0-45.134 18.84-45.134 47.62 0 28.781 18.97 47.62 45.134 47.62zm0-79.147c17.791 0 26.818 13.213 26.818 31.528 0 18.315-9.027 31.528-26.818 31.528-17.792 0-26.819-13.213-26.819-31.528 0-18.315 9.027-31.528 26.819-31.528z"/></g><path fill="#e2e2e2" d="M484.1 136.9v238.9l-206.5 117 .6-236.3z" class="cls-3"/><path fill="#f7f7f7" d="M72 375.7l-.7-238.8 206.8 119.6v236.3z" class="cls-4"/><path fill="#fff" d="M484.1 136.9L277.2 17.4 71.3 136.9l206.8 119.6z" class="cls-5"/><path fill="none" d="M68.216 271.093l20.127-56.523 49.044 17.463-20.128 56.524z" class="cls-6"/><path fill="#d2d2d2" d="M113.263 259.416l2.013-5.652 9.1 3.24-2.013 5.653zM96.898 253.62l2.012-5.652 9.1 3.24-2.012 5.653zM80.7 247.736l2.012-5.652 9.1 3.24-2.012 5.652z" class="cls-7"/><path fill="none" d="M117.278 288.475l20.127-56.523 49.044 17.463-20.127 56.524z" class="cls-6"/><path fill="#d2d2d2" d="M162.386 276.926l2.013-5.653 9.1 3.24-2.013 5.653zM145.96 271.002l2.013-5.652 9.1 3.24-2.013 5.653zM129.723 265.346l2.012-5.653 9.1 3.24-2.012 5.653z" class="cls-7"/><path fill="none" d="M166.302 305.985l20.127-56.524 49.043 17.464-20.127 56.523z" class="cls-6"/><path fill="#d2d2d2" d="M211.349 294.308l2.012-5.653 9.1 3.24-2.012 5.653zM195.083 288.512l2.013-5.653 9.1 3.24-2.012 5.653zM178.785 282.727l2.013-5.652 9.1 3.24-2.013 5.653z" class="cls-7"/><path fill="none" d="M215.364 323.466l20.127-56.523 49.044 17.464-20.128 56.523z" class="cls-6"/><path fill="#d2d2d2" d="M260.472 311.817l2.013-5.652 9.1 3.24-2.013 5.653zM244.14 305.927l2.013-5.652 9.1 3.24-2.013 5.653zM227.808 300.237l2.013-5.652 9.1 3.24-2.013 5.652z" class="cls-7"/><path fill="none" d="M264.387 340.976l20.127-56.523 49.044 17.463-20.127 56.524z" class="cls-6"/><path fill="#d2d2d2" d="M309.4 329.293l2.013-5.652 9.1 3.24-2.012 5.653zM293.169 323.503l2.013-5.652 9.1 3.24-2.013 5.653zM276.837 317.713l2.013-5.652 9.1 3.24-2.013 5.652z" class="cls-7"/><path fill="none" d="M313.416 358.452l20.127-56.523 49.044 17.463-20.127 56.524z" class="cls-6"/><path fill="#d2d2d2" d="M358.557 346.709l2.013-5.653 9.1 3.24-2.012 5.653zM342.226 340.918l2.012-5.652 9.1 3.24-2.012 5.653zM325.994 335.128l2.013-5.652 9.1 3.24-2.013 5.653z" class="cls-7"/><path fill="none" d="M362.473 375.868l20.127-56.524 49.043 17.464-20.127 56.523z" class="cls-6"/><path fill="#d2d2d2" d="M407.486 364.185l2.013-5.653 9.1 3.24-2.012 5.653zM391.255 358.395l2.012-5.653 9.1 3.24-2.012 5.653zM374.923 352.604l2.012-5.652 9.1 3.24-2.012 5.653z" class="cls-7"/><path fill="none" d="M411.502 393.344l20.127-56.524 49.043 17.464-20.127 56.523z" class="cls-6"/><path fill="#d2d2d2" d="M456.643 381.6l2.013-5.652 9.1 3.24-2.013 5.652zM440.278 375.904l2.012-5.652 9.1 3.24-2.012 5.653zM424.08 370.02l2.012-5.653 9.1 3.24-2.012 5.653z" class="cls-7"/><path fill="none" d="M45.705 371.448L70.98 325.66l52.52 28.992-25.276 45.787z" class="cls-6"/><path fill="#d2d2d2" d="M88.825 351.042l4.688-8.492 5.253 2.9-4.688 8.492zM80.373 366.242l4.688-8.492 5.252 2.9-4.687 8.492zM72.02 381.442l4.688-8.492 5.253 2.9-4.688 8.491z" class="cls-7"/><path fill="none" d="M70.935 325.764l25.276-45.787 52.52 28.992-25.277 45.787z" class="cls-6"/><path fill="#d2d2d2" d="M114.156 305.358l4.688-8.492 5.253 2.9-4.688 8.492zM105.704 320.558l4.687-8.492 5.253 2.9-4.688 8.492zM97.251 335.658l4.688-8.492 5.253 2.9-4.688 8.492z" class="cls-7"/><path fill="none" d="M96.266 279.98l25.276-45.786 52.519 28.992-25.276 45.787z" class="cls-6"/><path fill="#d2d2d2" d="M139.435 259.487l4.688-8.492 5.253 2.9-4.688 8.492zM130.934 274.775l4.688-8.492 5.253 2.9-4.688 8.491zM122.582 289.974l4.688-8.492 5.252 2.9-4.687 8.492z" class="cls-7"/><path fill="none" d="M121.545 234.11l25.276-45.787 52.519 28.992-25.276 45.786z" class="cls-6"/><path fill="#d2d2d2" d="M164.766 213.704l4.688-8.492 5.253 2.9-4.688 8.491zM156.265 228.991l4.688-8.492 5.253 2.9-4.688 8.492zM147.813 244.19l4.687-8.491 5.253 2.9-4.688 8.492z" class="cls-7"/><path fill="none" d="M146.876 188.326l25.276-45.787 52.519 28.992-25.276 45.787z" class="cls-6"/><path fill="#d2d2d2" d="M189.997 167.92l4.688-8.492 5.252 2.9-4.687 8.492zM181.544 183.12l4.688-8.492 5.253 2.9-4.688 8.492zM173.192 198.32l4.688-8.492 5.252 2.9-4.687 8.491z" class="cls-7"/><path fill="none" d="M172.107 142.542l25.275-45.787 52.52 28.992-25.276 45.787z" class="cls-6"/><path fill="#d2d2d2" d="M215.328 122.137l4.687-8.492 5.253 2.9-4.688 8.491zM206.875 137.336l4.688-8.492 5.253 2.9-4.688 8.492zM198.522 152.536l4.688-8.492 5.253 2.9-4.688 8.492z" class="cls-7"/><path fill="none" d="M197.438 96.859l25.275-45.787 52.52 28.992-25.276 45.787z" class="cls-6"/><path fill="#d2d2d2" d="M240.558 76.453l4.688-8.492 5.253 2.9-4.688 8.492zM232.106 91.553l4.688-8.492 5.252 2.9-4.687 8.491zM223.753 106.753l4.688-8.492 5.253 2.9-4.688 8.491z" class="cls-7"/><path fill="none" d="M222.768 51.075l25.276-45.787 52.52 28.992-25.277 45.787z" class="cls-6"/><path fill="#d2d2d2" d="M265.937 30.582l4.688-8.492 5.253 2.9-4.688 8.492zM257.437 45.87l4.687-8.493 5.253 2.9-4.688 8.492zM249.084 61.069l4.688-8.492 5.253 2.9-4.688 8.492z" class="cls-7"/><path fill="none" d="M251.249 37.959l58.976-11.037 9.126 48.763-58.976 11.037z" class="cls-6"/><path fill="#d2d2d2" d="M283.683 69.263l5.898-1.104 1.694 9.053-5.898 1.104zM280.654 52.991l5.898-1.104 1.694 9.053-5.898 1.104zM277.625 36.82l5.898-1.104 1.694 9.053-5.897 1.103z" class="cls-7"/><path fill="none" d="M260.45 86.635l58.976-11.037 9.126 48.764-58.976 11.037z" class="cls-6"/><path fill="#d2d2d2" d="M292.805 118.056l5.897-1.104 1.694 9.053-5.897 1.104zM289.757 101.686l5.898-1.104 1.694 9.053-5.897 1.104zM286.729 85.514l5.897-1.103 1.694 9.053-5.897 1.103z" class="cls-7"/><path fill="none" d="M269.472 135.429l58.976-11.037 9.126 48.763-58.977 11.037z" class="cls-6"/><path fill="#d2d2d2" d="M302.006 166.733l5.898-1.104 1.694 9.053-5.898 1.104zM298.879 150.58l5.897-1.104 1.695 9.053-5.898 1.103zM295.85 134.308l5.898-1.104 1.694 9.053-5.898 1.104z" class="cls-7"/><path fill="none" d="M278.593 184.222l58.976-11.037 9.126 48.763-58.976 11.037z" class="cls-6"/><path fill="#d2d2d2" d="M311.128 215.526l5.897-1.104 1.694 9.053-5.897 1.104zM307.982 199.274l5.898-1.103 1.694 9.053-5.898 1.103zM304.972 183.101l5.897-1.104 1.694 9.053-5.897 1.104z" class="cls-7"/><path fill="none" d="M144.533 115.21l25.641-54.245 46.832 22.137-25.642 54.245z" class="cls-6"/><path fill="#d2d2d2" d="M190.357 108.079l2.564-5.425 8.688 4.107-2.564 5.425zM174.8 100.62l2.564-5.424 8.688 4.107-2.564 5.424zM159.276 93.314l2.564-5.425 8.688 4.107-2.564 5.425z" class="cls-7"/><path fill="none" d="M191.313 137.343l25.642-54.245 46.831 22.137-25.641 54.245z" class="cls-6"/><path fill="#d2d2d2" d="M237.237 130.212l2.565-5.424 8.688 4.107-2.564 5.424zM221.58 122.854l2.565-5.425 8.688 4.107-2.564 5.425zM206.057 115.447l2.564-5.424 8.688 4.107-2.564 5.424z" class="cls-7"/><path fill="none" d="M238.284 159.62l25.642-54.245 46.831 22.137-25.641 54.245z" class="cls-6"/><path fill="#d2d2d2" d="M284.06 152.256l2.565-5.425 8.688 4.107-2.564 5.425zM268.494 144.94l2.564-5.425 8.689 4.107-2.565 5.425zM252.937 137.58l2.564-5.424 8.689 4.107-2.565 5.425z" class="cls-7"/><path fill="none" d="M285.108 181.663l25.641-54.245 46.832 22.137-25.642 54.245z" class="cls-6"/><path fill="#d2d2d2" d="M330.841 174.39l2.565-5.425 8.688 4.107-2.564 5.424zM315.375 167.073l2.564-5.424 8.688 4.107-2.564 5.424zM299.76 159.724l2.565-5.425 8.688 4.107-2.564 5.425z" class="cls-7"/><path fill="none" d="M331.888 203.796l25.642-54.245 46.831 22.137-25.641 54.245z" class="cls-6"/><path fill="#d2d2d2" d="M377.812 196.665l2.564-5.424 8.689 4.107-2.564 5.424zM362.301 191.214l2.58-5.4 8.649 4.132-2.58 5.4zM346.763 183.865l2.58-5.4 8.649 4.132-2.58 5.4z" class="cls-7"/><path fill="none" d="M378.712 225.84l25.641-54.246 46.831 22.137-25.641 54.245z" class="cls-6"/><path fill="#d2d2d2" d="M424.636 218.709l2.564-5.425 8.688 4.107-2.564 5.424zM408.979 211.35l2.564-5.425 8.688 4.107-2.564 5.425zM393.607 206.268l2.58-5.4 8.649 4.132-2.58 5.4z" class="cls-7"/><path fill="none" d="M425.592 247.973l25.642-54.245 46.831 22.137-25.641 54.245z" class="cls-6"/><path fill="#d2d2d2" d="M471.416 240.842l2.564-5.424 8.689 4.107-2.565 5.424zM455.76 233.483l2.563-5.424 8.689 4.107-2.565 5.424zM440.335 226.077l2.565-5.425 8.688 4.107-2.564 5.425z" class="cls-7"/><path fill="none" d="M125.06 94.513l59.487-7.832 6.608 50.197-59.487 7.832z" class="cls-6"/><path fill="#d2d2d2" d="M155.457 128.131l5.94-.78 1.222 9.306-5.94.78zM153.539 111.429l5.948-.783 1.227 9.32-5.949.783zM151.39 94.858l5.95-.783 1.226 9.32-5.948.783z" class="cls-7"/><path fill="none" d="M131.656 144.622l59.487-7.832 6.608 50.197-59.487 7.832z" class="cls-6"/><path fill="#d2d2d2" d="M162.395 178.408l5.95-.783 1.226 9.32-5.949.783zM160.134 161.638l5.95-.783 1.226 9.32-5.949.783zM157.987 145.067l5.948-.783 1.227 9.32-5.949.783z" class="cls-7"/><path fill="none" d="M138.252 194.83l59.487-7.83 6.608 50.196-59.487 7.832z" class="cls-6"/><path fill="#d2d2d2" d="M168.991 228.617l5.95-.783 1.226 9.32-5.949.783zM166.73 211.847l5.95-.783 1.226 9.32-5.949.783zM164.583 195.276l5.948-.783 1.227 9.32-5.949.783z" class="cls-7"/><path fill="none" d="M144.848 245.04l59.486-7.832 6.609 50.197-59.487 7.832z" class="cls-6"/><path fill="#d2d2d2" d="M175.587 278.726l5.949-.783 1.227 9.32-5.949.783zM173.326 262.056l5.949-.783 1.227 9.32-5.949.783zM171.178 245.485l5.95-.783 1.226 9.32-5.949.783z" class="cls-7"/><path fill="none" d="M151.444 295.25l59.486-7.833 6.609 50.197-59.487 7.832z" class="cls-6"/><path fill="#d2d2d2" d="M182.282 328.922l5.95-.783 1.226 9.32-5.949.783zM180.021 312.252l5.95-.783 1.226 9.32-5.949.783zM177.874 295.681l5.948-.783 1.227 9.32-5.949.783z" class="cls-7"/><path fill="none" d="M158.04 345.458l59.486-7.831 6.609 50.196-59.487 7.832z" class="cls-6"/><path fill="#d2d2d2" d="M188.878 379.131l5.95-.783 1.226 9.32-5.949.783zM186.617 362.461l5.95-.783 1.226 9.32-5.949.783zM184.47 345.89l5.948-.783 1.227 9.32-5.949.783z" class="cls-7"/><path fill="none" d="M164.636 395.667l59.486-7.831 6.609 50.196-59.487 7.832z" class="cls-6"/><path fill="#d2d2d2" d="M195.474 429.34l5.949-.783 1.227 9.32-5.949.783zM193.213 412.67l5.949-.783 1.227 9.32-5.949.783zM191.052 396l5.95-.783 1.226 9.32-5.949.783z" class="cls-7"/><path fill="none" d="M60.603 359.168L99.19 321.25l42.047 42.788-38.587 37.92z" class="cls-6"/><path fill="#d2d2d2" d="M108.737 350.985l7.132-7.01 4.206 4.28-7.133 7.01zM95.939 363.544l7.132-7.01 4.206 4.28-7.133 7.009zM83.14 376.102l7.133-7.009 4.205 4.28-7.132 7.009z" class="cls-7"/><path fill="none" d="M99.17 321.181l38.587-37.919 42.047 42.788-38.587 37.92z" class="cls-6"/><path fill="#d2d2d2" d="M147.304 312.998l7.132-7.01 4.206 4.28-7.133 7.01zM134.434 325.726l7.133-7.009 4.205 4.28-7.132 7.009zM121.636 338.285l7.133-7.01 4.205 4.28-7.132 7.01z" class="cls-7"/><path fill="none" d="M137.737 283.294l38.587-37.92 42.047 42.789-38.587 37.919z" class="cls-6"/><path fill="#d2d2d2" d="M185.87 275.11l7.133-7.009 4.206 4.28-7.133 7.009zM173.071 287.81l7.133-7.009 4.205 4.28-7.132 7.009zM160.203 300.398l7.133-7.01 4.205 4.28-7.132 7.01z" class="cls-7"/><path fill="none" d="M176.303 245.548l38.586-37.92 42.048 42.789-38.587 37.919z" class="cls-6"/><path fill="#d2d2d2" d="M224.437 237.364l7.132-7.009 4.205 4.28-7.132 7.009zM211.638 249.923l7.133-7.009 4.205 4.28-7.132 7.009zM198.77 262.41l7.133-7.009 4.205 4.28-7.132 7.009z" class="cls-7"/><path fill="none" d="M214.87 207.66l38.586-37.918 42.048 42.787-38.587 37.92z" class="cls-6"/><path fill="#d2d2d2" d="M263.004 199.477l7.132-7.009 4.206 4.28-7.133 7.009zM250.205 212.036l7.133-7.01 4.205 4.28-7.132 7.01zM237.337 224.523l7.133-7.009 4.205 4.28-7.132 7.009z" class="cls-7"/><path fill="none" d="M253.537 169.673l38.586-37.919 42.048 42.788-38.587 37.92z" class="cls-6"/><path fill="#d2d2d2" d="M301.57 161.49l7.133-7.01 4.206 4.28-7.133 7.01zM288.701 174.119l7.133-7.01 4.205 4.28-7.132 7.01zM275.903 186.777l7.132-7.009 4.206 4.28-7.133 7.009z" class="cls-7"/><path fill="none" d="M292.032 131.856l38.587-37.919 42.048 42.788-38.587 37.92z" class="cls-6"/><path fill="#d2d2d2" d="M340.066 123.673l7.133-7.01 4.205 4.28-7.132 7.01zM327.268 136.231l7.133-7.009 4.205 4.28-7.132 7.009zM314.47 148.79l7.132-7.01 4.206 4.28-7.133 7.01z" class="cls-7"/><path fill="none" d="M330.6 93.969l38.586-37.92 42.048 42.789-38.587 37.919z" class="cls-6"/><path fill="#d2d2d2" d="M378.633 85.785l7.133-7.009 4.205 4.28-7.132 7.009zM365.835 98.344l7.133-7.01 4.205 4.28-7.132 7.01zM353.037 110.903l7.132-7.01 4.206 4.28-7.133 7.01z" class="cls-7"/><path fill="none" d="M407.445 175.214l58.217-14.515 12.82 51.416-58.218 14.515z" class="cls-6"/><path fill="#d2d2d2" d="M442.35 206.88l5.821-1.452 2.38 9.548-5.821 1.452zM438.04 189.828l5.822-1.451 2.38 9.547-5.821 1.452zM433.755 172.873l5.822-1.451 2.38 9.548-5.821 1.451z" class="cls-7"/><path fill="none" d="M420.3 226.59l58.217-14.515 12.82 51.416-58.218 14.516z" class="cls-6"/><path fill="#d2d2d2" d="M455.204 258.257l5.822-1.452 2.38 9.548-5.822 1.451zM450.895 241.205l5.822-1.452 2.38 9.548-5.822 1.452zM446.61 224.25l5.822-1.451 2.38 9.547-5.822 1.452z" class="cls-7"/><path fill="none" d="M433.15 277.943l58.218-14.515 12.82 51.416-58.218 14.515z" class="cls-6"/><path fill="#d2d2d2" d="M467.983 309.83l5.821-1.451 2.381 9.547-5.822 1.452zM463.65 292.581l5.821-1.451 2.38 9.548-5.821 1.451zM459.461 275.602l5.822-1.451 2.38 9.548-5.821 1.451z" class="cls-7"/><path fill="none" d="M446.03 329.417l58.217-14.516 12.82 51.416-58.218 14.516z" class="cls-6"/><path fill="#d2d2d2" d="M480.837 361.207l5.822-1.452 2.38 9.548-5.821 1.452zM476.528 344.055l5.822-1.451 2.38 9.547-5.821 1.452zM472.316 326.979l5.822-1.451 2.38 9.547-5.821 1.452z" class="cls-7"/><path fill="none" d="M419.28 253.094l47.872-33.272 34.237 49.26-47.873 33.273z" class="cls-6"/><path fill="#d2d2d2" d="M437.818 272.139l8.869-6.164 3.424 4.927-8.868 6.164zM453.74 261.05l8.868-6.164 3.424 4.927-8.868 6.164zM469.618 250.043l8.869-6.164 3.424 4.927-8.869 6.164z" class="cls-7"/><path fill="none" d="M370.809 286.277l47.806-33.231 34.194 49.192-47.806 33.23z" class="cls-6"/><path fill="#d2d2d2" d="M389.933 305.338l8.868-6.163 3.425 4.926-8.869 6.164zM405.854 294.25l8.869-6.165 3.424 4.927-8.868 6.164zM421.733 283.242l8.868-6.164 3.425 4.927-8.869 6.164z" class="cls-7"/><path fill="none" d="M323.666 319.675l47.873-33.273 34.237 49.261-47.873 33.273z" class="cls-6"/><path fill="#d2d2d2" d="M342.048 338.538l8.868-6.164 3.424 4.927-8.868 6.164zM358.051 327.491l8.869-6.163 3.424 4.927-8.869 6.163zM373.847 316.442l8.869-6.164 3.424 4.927-8.868 6.163z" class="cls-7"/><path fill="none" d="M275.27 352.626l47.806-33.231 34.194 49.192-47.806 33.23z" class="cls-6"/><path fill="#d2d2d2" d="M294.262 371.837l8.869-6.164 3.424 4.927-8.868 6.164zM310.223 360.773l8.868-6.164 3.425 4.927-8.869 6.164zM326.044 349.684l8.869-6.164 3.424 4.927-8.869 6.164z" class="cls-7"/><path fill="none" d="M227.977 386.017l47.873-33.273 34.237 49.26-47.873 33.273z" class="cls-6"/><path fill="#d2d2d2" d="M246.46 404.98l8.867-6.164 3.425 4.926-8.869 6.164zM262.338 393.972l8.868-6.163 3.424 4.926-8.868 6.164zM278.316 382.965l8.868-6.163 3.425 4.926-8.869 6.164z" class="cls-7"/><path fill="none" d="M180.092 419.316l47.873-33.273 34.237 49.261-47.873 33.273z" class="cls-6"/><path fill="#d2d2d2" d="M198.63 438.26l8.87-6.163 3.423 4.927-8.868 6.164zM214.552 427.172l8.869-6.164 3.424 4.927-8.869 6.163zM230.43 416.165L239.3 410l3.424 4.927-8.868 6.163z" class="cls-7"/><path fill="none" d="M289.305 241.487l59.402-8.454 7.552 53.065-59.401 8.454z" class="cls-6"/><path fill="#d2d2d2" d="M320.799 277.048l5.94-.845 1.402 9.85-5.94.846zM318.344 259.476l5.94-.845 1.402 9.85-5.94.846zM315.775 241.705l5.94-.846 1.402 9.851-5.94.846z" class="cls-7"/><path fill="none" d="M296.911 294.586l59.402-8.454 7.552 53.066-59.401 8.454z" class="cls-6"/><path fill="#d2d2d2" d="M328.306 330.162l5.94-.846 1.402 9.85-5.94.846zM325.837 312.49l5.94-.845 1.402 9.85-5.94.846zM323.282 294.818l5.94-.845 1.402 9.85-5.94.846z" class="cls-7"/><path fill="none" d="M304.404 347.6l59.402-8.453 7.552 53.065-59.401 8.454z" class="cls-6"/><path fill="#d2d2d2" d="M335.912 383.261l5.94-.845 1.402 9.85-5.94.846zM333.443 365.59l5.94-.846 1.402 9.851-5.94.846zM330.888 347.918l5.94-.846 1.402 9.851-5.94.845z" class="cls-7"/><path fill="none" d="M312.01 400.7l59.402-8.454 7.552 53.066-59.401 8.454z" class="cls-6"/><path fill="#d2d2d2" d="M343.405 436.275l5.94-.845 1.402 9.85-5.94.846zM340.95 418.603l5.94-.845 1.402 9.85-5.94.846zM338.48 400.932l5.94-.845 1.403 9.85-5.94.846z" class="cls-7"/><path fill="none" d="M330.877 268.645l6.276-74.737 75.116 6.307-6.276 74.737z" class="cls-6"/><path fill="#d2d2d2" d="M389.27 240.787l.628-7.474 13.94 1.171-.627 7.474zM364.286 238.724l.627-7.474 13.941 1.17-.628 7.474zM339.31 236.56l.627-7.473 13.94 1.17-.627 7.474z" class="cls-7"/><path fill="none" d="M405.406 272.704l6-75 75.38 6.03-6 75z" class="cls-6"/><path fill="#d2d2d2" d="M464.432 247.078l.628-7.474 13.94 1.17-.627 7.474zM439.348 245.014l.627-7.473 13.941 1.17-.627 7.474zM414.471 242.851l.628-7.473 13.94 1.17-.627 7.474z" class="cls-7"/><path fill="none" stroke="gray" stroke-miterlimit="10" stroke-width="6" d="M70.4 135.6l208.1 121.2M70.5 243.9V134.6M381.2 75.7l104.9 61.2M484.3 243.9V134.6M277.6 492.8V254.6M354.9 449.2l-79.3 44.6M195.7 445.1l82.9 48.7M485.2 135.6l-51.5 30.6M328.1 228.8l-49.6 28M69.4 136.6l82.2-48.2" class="cls-9"/><circle cx="151.6" cy="85.4" r="10.6" fill="#027c93" class="cls-10"/><circle cx="277.2" cy="17.4" r="17.4" fill="#027c93" class="cls-10"/><circle cx="325.1" cy="231.3" r="18.2" fill="#027c93" class="cls-10"/><circle cx="436.6" cy="165.8" r="12.2" fill="#027c93" class="cls-10"/><circle cx="382.2" cy="75.1" r="12.9" fill="#027c93" class="cls-10"/><circle cx="485.2" cy="242.9" r="11.6" fill="#027c93" class="cls-10"/><circle cx="487.8" cy="371.1" r="17.2" fill="#027c93" class="cls-10"/><circle cx="353.3" cy="449.5" r="12.2" fill="#027c93" class="cls-10"/><circle cx="197.1" cy="444.3" r="12.3" fill="#027c93" class="cls-10"/><circle cx="78.3" cy="380.6" r="17.3" fill="#027c93" class="cls-10"/><circle cx="72" cy="237.3" r="14.6" fill="#027c93" class="cls-10"/></g></svg>
