<svg xmlns="http://www.w3.org/2000/svg" version="1.0" viewBox="-3.87 -3.87 379.788 136.745"><path fill="#7a003f" d="M372.048 96.157V10.218a5.16 5.16 0 00-5.16-5.158h-241.18c13.29 11.472 21.743 28.66 21.743 47.883 0 19.495-8.69 36.903-22.306 48.373h241.743c2.85 0 5.16-2.309 5.16-5.159M40.853 5.06H5.16A5.16 5.16 0 000 10.218v85.94c0 2.85 2.31 5.158 5.16 5.158h36.255C27.799 89.846 19.11 72.438 19.11 52.943c0-19.222 8.454-36.41 21.744-47.883"/><path fill="#fff" d="M348.813 86.328v-8.716a.695.695 0 00-.686-.685h-4.829a.695.695 0 00-.686.685v1.344c0 .371.315.686.686.686h2.515v5.629a6.303 6.303 0 01-1.828.257c-3.029 0-4.83-1.829-4.83-6.972 0-5.03 1.543-7.259 4.601-7.259 1.485 0 2.486.344 3.486.829.343.172.686 0 .829-.314l.571-1.229c.171-.342.058-.686-.314-.886-1.258-.656-2.886-1.085-4.572-1.085-4.973 0-7.83 3.8-7.83 9.742 0 6.174 2.342 9.86 7.772 9.86 1.543 0 3.144-.286 4.23-.686.685-.256.885-.542.885-1.2m-19.462.829c-.829-2.286-1.943-5.058-2.4-6.03-.6-1.258-1.686-2.458-3.058-2.743 2.943-.457 4.202-2.457 4.202-4.715 0-1.915-1.002-4.886-5.83-4.886h-5.03a.695.695 0 00-.685.685v17.918c0 .342.315.657.685.657h1.658c.372 0 .685-.315.685-.657v-7.859h1.172c1.715 0 2.572 1.144 3.228 2.4.802 1.515 1.287 3.544 1.944 5.515.144.486.458.601.858.601h2.085c.601 0 .686-.372.486-.886m-21.694-5.086V69.468c0-.427-.286-.685-.686-.685h-1.629c-.429 0-.715.228-.715.685v12.459c0 2.915-1.2 3.772-3.315 3.772-2.342 0-3.171-1.428-3.171-3.943V69.468c0-.457-.258-.685-.686-.685h-1.658c-.4 0-.656.258-.656.685v12.603c0 3.886 2 6.143 6.229 6.143 4.115 0 6.287-2.172 6.287-6.143m-20.18.542c0-2.4-1.371-4.371-3.971-4.8 2.2-.715 3.142-2.116 3.142-4.144 0-2.83-1.942-4.886-5.257-4.886h-5.686a.695.695 0 00-.687.685v17.918c0 .342.315.657.687.657h6c3.658 0 5.772-1.972 5.772-5.43m-21.834 4.744v-1.4c0-.373-.342-.686-.713-.686h-6.744v-6.115h5.829a.727.727 0 00.715-.714v-1.201c0-.372-.344-.658-.715-.658h-5.829v-5.115h6.515c.4 0 .686-.342.686-.714v-1.286a.695.695 0 00-.686-.685h-8.859a.694.694 0 00-.685.685v17.889c0 .371.314.686.685.686h9.088c.371 0 .713-.315.713-.686m-18.753-9.059c0-7.344-3.144-9.515-7.202-9.515h-4.543a.694.694 0 00-.685.685v17.889c0 .371.313.686.685.686h4.657c5.43 0 7.088-3.63 7.088-9.745m-21.56 8.03v-8.716a.694.694 0 00-.685-.685h-4.829a.695.695 0 00-.686.685v1.344c0 .371.313.686.686.686h2.514v5.629a6.29 6.29 0 01-1.829.257c-3.029 0-4.829-1.829-4.829-6.972 0-5.03 1.543-7.259 4.6-7.259 1.486 0 2.486.344 3.486.829.343.172.687 0 .83-.314l.572-1.229c.17-.342.056-.686-.315-.886-1.258-.656-2.887-1.085-4.573-1.085-4.971 0-7.83 3.8-7.83 9.742 0 6.174 2.344 9.86 7.773 9.86 1.543 0 3.143-.286 4.23-.686.685-.256.885-.542.885-1.2m-18.745.915l-5.487-17.804c-.143-.428-.486-.656-.857-.656h-2.514c-.372 0-.772.258-.886.656l-5.115 17.804c-.115.428.085.8.514.8h1.857c.4 0 .743-.257.829-.63l1.085-4.229h6.03l1.144 4.23c.113.372.485.63.885.63h2c.428 0 .657-.373.515-.8m118.422-13.175c0 1.8-1.171 3-3.142 3h-2.287v-5.628h2.602c1.913 0 2.827 1.256 2.827 2.628m-40.786 8.173c0 1.942-1.115 3.142-2.916 3.142h-3.257v-6.257h2.772c2.143 0 3.401 1.371 3.401 3.115m-.686-8.23c0 1.629-1 2.714-2.973 2.714h-2.514v-5.4h2.685c1.887 0 2.802 1.001 2.802 2.686m-39.847 4.457c0 5.744-1.57 6.945-4.372 6.945h-1.829V71.326h1.886c1.23 0 2.344.428 3.03 1.313.857 1.115 1.285 2.773 1.285 5.83m-42.332 2.087h-4.686l1.857-7.515c.199-.8.343-1.887.429-2.687.114.772.227 1.915.427 2.687l1.973 7.515zm-26.27 7.487h.952a.85.85 0 00.838-.657l3.537-12.029c.307-1.25.64-2.945.874-3.934-.042.77-.18 3.281-.187 3.968l-.047 11.995a.73.73 0 00.718.657h1.455c.387 0 .716-.315.716-.657V69.439c0-.37-.329-.656-.716-.656h-3.235c-.359 0-.746.258-.836.571l-3.732 13.097c-.18.708-.293 1.918-.378 2.898-.085-.98-.199-2.19-.378-2.898l-3.731-13.097c-.09-.313-.479-.57-.838-.57h-3.245c-.388 0-.717.284-.717.655v17.947c0 .342.329.657.717.657h1.465a.73.73 0 00.72-.657l-.047-11.995c-.008-.687-.145-3.198-.188-3.968.234.989.568 2.684.874 3.934l3.529 12.029c.09.4.449.657.837.657h1.043zM349.33 45.627v-1.4c0-.371-.286-.686-.658-.686h-11.144c-.371 0-.715.315-.715.686v1.4c0 .371.344.656.715.656h4.058v15.832c0 .372.313.686.686.686h1.656a.695.695 0 00.686-.686V46.283h4.058a.646.646 0 00.657-.656M333.5 62.001l-5.487-17.803c-.144-.428-.486-.657-.858-.657h-2.515c-.37 0-.77.257-.886.657l-5.115 17.803c-.114.429.086.8.515.8h1.856c.4 0 .744-.258.83-.629l1.085-4.229h6.03l1.143 4.23c.115.37.486.628.886.628h2c.429 0 .658-.371.515-.8m-8.774-21.689c0-.942-.77-1.657-1.713-1.657-.887 0-1.63.715-1.63 1.657 0 .943.743 1.714 1.658 1.714.943 0 1.685-.771 1.685-1.714m5.83 0c0-.942-.77-1.657-1.715-1.657-.885 0-1.628.715-1.628 1.657 0 .943.743 1.714 1.657 1.714.944 0 1.686-.771 1.686-1.714m-15.646 5.315v-1.4c0-.371-.285-.686-.656-.686h-11.145c-.371 0-.714.315-.714.686v1.4c0 .371.343.656.714.656h4.057v15.832c0 .372.315.686.687.686h1.657a.696.696 0 00.686-.686V46.283h4.058a.645.645 0 00.656-.656m-18.536 16.488V44.227a.696.696 0 00-.686-.686h-1.772a.696.696 0 00-.686.686v17.888c0 .372.314.686.686.686h1.772a.696.696 0 00.686-.686m-9.986-4.8c0-3.03-1.744-4.344-3.773-5.287l-1.544-.715c-1.513-.715-2.8-1.286-2.8-2.8 0-1.572.944-2.515 2.8-2.515 1.287 0 2.058.285 2.973.6.371.114.685-.086.771-.428l.315-1.287c.085-.342-.029-.713-.371-.828-.973-.343-2.373-.685-3.744-.685-3.657 0-5.83 2.257-5.83 5.287 0 2.771 1.6 3.971 3.373 4.8l1.17.543c1.773.828 3.545 1.6 3.545 3.543 0 1.772-1.373 2.714-3.258 2.714-1.429 0-2.744-.429-3.83-.829-.4-.142-.771.058-.856.43l-.344 1.428c-.085.344.058.715.429.857 1.2.457 3.001.83 4.657.83 3.973 0 6.317-2.315 6.317-5.658m-17.067 4.6c-.827-2.287-1.942-5.058-2.4-6.03-.6-1.257-1.686-2.457-3.057-2.742 2.944-.458 4.2-2.457 4.2-4.716 0-1.915-1-4.886-5.829-4.886h-5.029a.696.696 0 00-.686.686v17.916c0 .344.314.658.686.658h1.657c.372 0 .686-.314.686-.658v-7.857h1.172c1.714 0 2.572 1.142 3.23 2.4.8 1.515 1.284 3.544 1.942 5.515.142.486.457.6.857.6h2.086c.6 0 .685-.371.485-.886m-20.195.2v-1.4c0-.372-.342-.685-.713-.685h-6.744v-6.117h5.829a.726.726 0 00.715-.713V52c0-.372-.344-.658-.715-.658h-5.83v-5.115h6.516c.4 0 .686-.342.686-.714v-1.286a.696.696 0 00-.686-.686h-8.859a.695.695 0 00-.685.686v17.888c0 .372.314.686.685.686h9.088c.37 0 .713-.314.713-.686M231.97 44.312c.114-.4-.113-.771-.542-.771h-1.715c-.458 0-.743.257-.858.714l-3.286 12.916c-.227.915-.429 2.43-.6 3.745-.114-1.315-.371-2.83-.6-3.745l-3.286-12.944c-.114-.457-.429-.686-.886-.686h-1.972c-.428 0-.657.371-.542.801l5.286 17.83a.92.92 0 00.858.629h2.17a.92.92 0 00.858-.629l5.115-17.86zm-21.218 17.803V44.227a.695.695 0 00-.685-.686h-1.772a.696.696 0 00-.686.686v17.888c0 .372.314.686.686.686h1.772a.695.695 0 00.685-.686m-11.485.028V44.198c0-.342-.343-.657-.714-.657h-1.458c-.37 0-.685.315-.685.657l.028 11.115c0 1.344.142 3.117.286 4.602-.4-1.4-.744-2.8-1.257-4.058l-4.83-11.802c-.143-.314-.543-.514-.914-.514h-2.686c-.372 0-.687.286-.687.657v17.945c0 .344.315.658.687.658h1.513c.373 0 .687-.314.687-.658l-.03-11.316c0-1.056-.255-3.342-.4-4.8.373 1.458.745 3.058 1.26 4.258l5.028 11.973c.143.342.4.543.772.543h2.686c.371 0 .714-.314.714-.658m-20.614-5.315v-12.6c0-.43-.286-.687-.686-.687h-1.63c-.427 0-.713.229-.713.686v12.459c0 2.915-1.2 3.772-3.315 3.772-2.344 0-3.171-1.43-3.171-3.943V44.227c0-.457-.258-.686-.686-.686h-1.658c-.4 0-.657.257-.657.686v12.601c0 3.887 2 6.144 6.23 6.144 4.113 0 6.286-2.172 6.286-6.144m149.616-1.515h-4.686l1.857-7.515c.2-.8.343-1.886.43-2.686.113.773.228 1.915.428 2.686l1.971 7.515zm-63.291-6.486c0 1.801-1.173 3.001-3.144 3.001h-2.286v-5.63h2.6c1.915 0 2.83 1.258 2.83 2.63m83.835-18.653v-.89c0-.236-.218-.436-.455-.436h-4.29v-3.892h3.71c.235 0 .454-.2.454-.455v-.763c0-.237-.219-.418-.455-.418h-3.71v-3.255h4.146a.445.445 0 00.437-.455v-.817c0-.237-.2-.438-.437-.438h-5.636a.443.443 0 00-.436.438v11.381a.44.44 0 00.436.436h5.781c.237 0 .455-.199.455-.436m-10.581-.072l-3.91-6.273 3.546-4.965c.145-.217.127-.509-.236-.509h-1.383c-.272 0-.436.074-.581.292l-3.2 4.855v-4.71c0-.237-.2-.437-.436-.437h-1.055c-.237 0-.437.2-.437.437v11.4c0 .22.2.418.437.418h1.055c.236 0 .436-.198.436-.417v-5.946l3.436 6.036c.146.255.345.327.619.327h1.472c.31 0 .42-.217.237-.508m-11.791-.437l-.4-.872c-.072-.183-.291-.255-.509-.164-.363.164-.98.345-1.418.345-1.764 0-2.964-1.29-2.964-4.527 0-3.218 1.127-4.51 2.964-4.51.508 0 .946.128 1.346.31.236.11.417.037.526-.163l.383-.746c.127-.236.036-.474-.182-.6-.673-.4-1.51-.49-2.218-.49-2.945 0-4.855 2.416-4.855 6.181 0 4.054 1.8 6.29 4.782 6.29 1 0 1.745-.2 2.381-.526.164-.073.273-.291.164-.528m-11.957.509V18.794c0-.237-.2-.438-.436-.438h-1.128a.443.443 0 00-.436.438v11.381c0 .237.2.436.436.436h1.128a.442.442 0 00.436-.436m-9.627-5.709c1.872-.291 2.672-1.564 2.672-3 0-1.219-.636-3.109-3.709-3.109h-3.2c-.236 0-.436.2-.436.436v11.4c0 .22.2.418.436.418h1.054c.238 0 .438-.199.438-.418v-5h.745c1.09 0 1.636.728 2.055 1.528.508.964.817 2.254 1.236 3.509.091.308.29.381.545.381h1.327c.382 0 .437-.236.31-.563-.527-1.455-1.237-3.218-1.527-3.837-.383-.799-1.074-1.564-1.946-1.745m-1.292-.836h-1.453v-3.583h1.653c1.22 0 1.8.801 1.8 1.674 0 1.145-.745 1.909-2 1.909m-7.974 6.545v-.89c0-.236-.219-.436-.455-.436h-4.29v-3.892h3.709c.236 0 .455-.2.455-.455v-.763c0-.237-.219-.418-.455-.418h-3.709v-3.255h4.145a.445.445 0 00.436-.455v-.817c0-.237-.2-.438-.436-.438h-5.636a.443.443 0 00-.437.438v11.381c0 .237.2.436.437.436h5.781c.236 0 .455-.199.455-.436m-11.865-3.363v-8.019c0-.272-.181-.436-.436-.436h-1.036c-.273 0-.455.145-.455.436v7.928c0 1.855-.764 2.4-2.11 2.4-1.49 0-2.018-.91-2.018-2.51v-7.818c0-.291-.164-.436-.436-.436h-1.054c-.255 0-.419.164-.419.436v8.019c0 2.472 1.273 3.909 3.964 3.909 2.619 0 4-1.382 4-3.91m-13.063 2.709v-5.545c0-.237-.2-.437-.437-.437h-3.072c-.236 0-.436.2-.436.437v.855c0 .236.2.436.436.436h1.6v3.582a4.01 4.01 0 01-1.164.164c-1.927 0-3.072-1.164-3.072-4.436 0-3.2.98-4.619 2.927-4.619.945 0 1.581.218 2.218.528.218.108.436 0 .527-.2l.364-.782c.109-.218.036-.437-.2-.565-.8-.417-1.836-.69-2.909-.69-3.164 0-4.982 2.418-4.982 6.2 0 3.928 1.49 6.273 4.945 6.273.982 0 2-.181 2.69-.436.437-.164.565-.347.565-.764m-20.097.672V18.775c0-.218-.219-.418-.455-.418h-.926c-.236 0-.438.2-.438.418l.02 7.073c0 .854.09 1.982.182 2.927-.255-.89-.474-1.782-.8-2.582l-3.074-7.51c-.091-.2-.345-.326-.581-.326h-1.71a.426.426 0 00-.437.418v11.418c0 .22.2.418.437.418h.963c.237 0 .437-.199.437-.418l-.018-7.2c0-.672-.164-2.127-.255-3.055.236.928.473 1.947.8 2.71l3.2 7.618c.091.219.255.345.491.345h1.71c.235 0 .454-.199.454-.418M238.01 24.54c0-4.237-1.456-6.292-4.256-6.292-2.854 0-4.29 2.164-4.29 6.291 0 4.183 1.454 6.181 4.29 6.181 2.819 0 4.255-2.036 4.255-6.18m-2-.056c0 2.836-.472 4.636-2.272 4.636-1.71 0-2.255-1.562-2.255-4.636 0-2.419.236-4.69 2.255-4.69 1.872 0 2.272 2.073 2.272 4.69m-9.573-5.636c.073-.255-.072-.491-.345-.491h-1.09c-.292 0-.475.163-.547.455l-2.091 8.217c-.145.584-.273 1.546-.382 2.383a17.332 17.332 0 00-.38-2.383l-2.092-8.236c-.073-.29-.273-.436-.564-.436h-1.255c-.272 0-.417.236-.345.508l3.364 11.347c.072.236.309.4.545.4h1.382a.584.584 0 00.545-.4l3.255-11.364zM206.45 24.54c0-4.237-1.454-6.292-4.254-6.292-2.856 0-4.292 2.164-4.292 6.291 0 4.183 1.455 6.181 4.292 6.181 2.818 0 4.255-2.036 4.255-6.18m-2-.056c0 2.836-.473 4.636-2.273 4.636-1.71 0-2.255-1.562-2.255-4.636 0-2.419.236-4.69 2.255-4.69 1.873 0 2.273 2.073 2.273 4.69m-9.215-4.8v-.89a.426.426 0 00-.418-.437h-7.091c-.236 0-.455.2-.455.436v.891c0 .237.219.418.455.418h2.581v10.072c0 .238.2.438.436.438h1.055c.237 0 .437-.2.437-.438V20.102h2.582a.41.41 0 00.418-.418m-10.633 0v-.89a.428.428 0 00-.42-.437h-7.09c-.237 0-.454.2-.454.436v.891c0 .237.217.418.454.418h2.582v10.072c0 .238.2.438.436.438h1.055c.237 0 .437-.2.437-.438V20.102h2.58a.411.411 0 00.42-.418m-10.444 4.856c0-4.237-1.455-6.292-4.255-6.292-2.855 0-4.291 2.164-4.291 6.291 0 4.183 1.455 6.181 4.29 6.181 2.82 0 4.256-2.036 4.256-6.18m-2-.056c0 2.836-.474 4.636-2.274 4.636-1.709 0-2.254-1.562-2.254-4.636 0-2.419.237-4.69 2.254-4.69 1.874 0 2.274 2.073 2.274 4.69"/><path d="M136.012 56.521c.07-6.906-4.127-4.587-5.552-8.103-1.353-3.337 1.134-6.633-1.679-9.025-1.004-.855-1.909-.88-3.031-1.59-2.994-1.893-5.209-4.488-6.359-6.319-1.116-1.779.086-3.56-1.056-5.414-.608-.986-1.539-1.179-2-2.232-.469-1.069.544-2.083-.228-2.96-1.29-1.469-2.51-2.638-3.555-5.932-3.175-10.01-7.247-8.71-8.135-9.285-2.446-1.583-6.668-3.502-9.76-4.322-3.63-.964-5.81-1.278-8.602-1.335-4.343-.091-5.188 1.41-5.843 1.355C71.694.626 67.756 3.246 62.82 5.72c-6.144 3.08-9.494 8.629-11.054 13.65-.776 2.496-1.476 3.868-2.379 6.443-.565 1.593-1.518 2.657-2.858 3.37-1.217.647-2.06 1.343-3.733 1.402-1.424.049-3.281.811-3.664 1.581l.097 2.772s.803-.24 2.118-1.457c1.022-.943 1.924.055 4.228.338 5.4.175 8.352-3.168 8.669-3.876.46-.985-.005-3.694.598-4.139l.868-.03c-.201 1.621.114 3.549-1.179 5.31-1.622 2.209-3.821 2.786-4.421 3-3.499 1.252-5.365.755-7.12.531-2.026-.257-.146 2.913-5.924 2.286-1.945-.21-3.927 1.548-3.981 3.168-.058 1.736.122 8.294.315 8.737l2.84 2.488s-.641-3.228 1.496-2.303c2.984 1.293 8.126.053 8.609-.327-1.081 1.006-1.231 2.129-2.063 3.187-1.842 2.245-5.61 3.514-4.7 7.58 1.9 8.473-2.05 8.042-2.05 8.042-2.472.086-4.292-3.425-4.292-3.425l.179 3.746c-.034 1.936 3.675 6.286 6.237 5.224l1.681 3.288c6.063.992.047 5.598.105 7.292l2.52 5.282c.13-.431.383-5.581 2.872-5.366 2.337.204 2.557 2.331 2.557 2.331-4.289 3.221.895 8.539 3.95 10.158 0 0 .381-.695 1.071-.838-1.506-.554-2.46-1.679-2.168-2.731.3-1.08.528-.899 1.412-1.18 1.124-.356 1.424-.049 2.46-.57 1.103-.555 1.498 1.002 2.505.7.749-.225 1.894-1.184 2.959-1.899-1.881 2.433-3.519 5.895-7.074 10.632-.69.92-.752 8.287-.396 15.384l.062 1.16c.324 5.687.913 10.96 1.657 12.294.09.164-.478.244 3.203-5.294l.898-1.382c3.96-6.27 9.535-13.854 14.851-18.761l1.196-7.455c.298.061.614.095.943.083l-.826 7.365c1.573.436 4.436 4.243 11.908 13.362l1.312 1.599c4.25 5.177 9.407 10.788 9.653 10.41 1.435-2.21 17.888-29.55 17.888-29.55S112.02 92.5 110.59 87.99c1.758-1.729 1.635-.051 6.226 2.936 3.554 2.312 4.967.19 4.967.19s-3.3-1.95-3.31-3.92c-.024-4.352 1.763-4.205 2.69-4.085 2.2.287 1.175 2.258 1.175 2.258l2.317-.02s.758-.45.998-.943c1.682-3.443-5.88-5.32-7.115-6.402-1.254-1.098-.5-3.249-.5-3.249 3.903 4.823 6.375 3.648 10.393 2.54l4.108-4.135c-4.363.516-9.063 4.423-12.434-5.612l.829-.749c1.989 3.572 4.14 4.942 6.749 5.094l6.133-6.397c-7.14 4.974-6.628-4.246-6.628-4.246 7.3-.375 8.808-3.295 8.823-4.729m-89.06 11.63c.104 3.024-2.75 4.7-5.352 4.79 0 0-.073-.3-.326-.473 2.6-.092 5.25-1.455 5.143-4.48 0 0 .525-.079.534.162m30.888 34.346l.705-5.278c21.785-2.552 25.818-14.513 25.818-14.513s1.268-2.011 1.48-1.365c3.035 9.336 8.583 17.6 8.583 17.6l-16.11 26.972c-.868-1.012-18.605-22.573-20.476-23.416m-14.3-12.515c1.556 4.744 7.24 5.357 8.986 6.014.587.221 1.532.185 1.532.185l-.935 6.003c-11.866 13.463-16.727 23-16.727 23-1.706-7.907-1.008-23.75-1.008-23.75S59.754 95.2 63.54 89.98m4.425-1.23c.029.805.17 1.32.075 2.13-.203-.512-.795-1.645-.795-1.645.121-.06.564-1.46.557-1.633.204-1.219.597-2.272 1.57-2.594-.106.524-.483.865-.92 1.821-.457.996-.515 1.114-.487 1.92m46.791-24.885c-1.852.186-2.899-1.352-2.899-1.352-2.337 4.078-4.535 1.491-4.535 1.491.013-2.91-3.698 14.777-4.265 17.49-1.06 2.012-5.05 9.24-17.34 12.906l.454-.244c1.048-.6 1.374-1.496 2.109-2.55.639-.915 1.181-1.367 1.512-2.417.07-.218-.18-.6-.467-1.08.552-.019 2.341-1.581 2.875-2.119 1.602-1.614 2.984-2.526 4.4-4.191 1.827-2.198 3.506-3.41 4.842-5.59.93-1.533 1.258-2.698 1.498-4.609.395-2.782 1.624-6.286 1.767-9.232-.926 1.647-1.315 2.813-1.638 4.093-.544 2.038-.624 3.253-1.174 5.118-.549 1.865-.744 3.314-1.925 4.681-1.003 1.189-2.079 2.034-3.216 2.88-3.228 2.445-5.33 6.133-9.842 7.073-2.21-1.648-5.008-3.302-5.78-3.207 0 0-.996.278-1.6.3l-.256 1.582s.894.362.874.152c-.096-.966.766-1.035.724-.571-.045.486.74 3.487-.507 5.045-.225.281.105-4.123-1.24-3.591l-.488 2.016-.62.021s.11-.427.066-1.697c-.043-1.225-.405-2.263-2.299-3.227-.4-.203-.426 2.478-.812 2.912l-1.403.653c-.259-.88-.63-2.036-.196-2.052 1.306-.045.715-1.135 1.049-1.914.215-.5.586-.635.5-1.299-.34-2.647.05-5.953-.382-5.938-.363.012-.663.201-.93-.029-.278-.238-.032-.906-.032-.906-1.359.167-.791 5.78-.791 5.78-.567.795-1.753 1.59-2.318 2.157 0 0-.417.321-.506.281-1.595-.012-3.22 2.7-3.22 2.7-.61.135-2.735-3.663-2.829-3.593-.29-1.26.26-.41-.727-3.138-.153-1.032-1.288-5.207-1.45-5.447-2.26-2.289-2.003-12.408-2.98-14.95-.584-1.523-2.63-2.024-2.835-3.823-.36-3.167.167-4.554.725-7.407.158-.817.022-1.349.417-2.092.456-.857.959-1.565 1.974-1.61.926-.04 1.122.865 1.906 1.327.678.398.984.878 1.77.967 2.864.325 2.584-.574 2.584-.574l1.399-.776c-.444-.287-1.162.218-1.913.249-.851.035-1.374.097-2.176-.166-.821-.27-2.365-.78-1.72-1.333.449-.386.706.701 1.552.066 0 0-1.37-1.167-.94-2.086-.273-.276.133-.652.464-.865.288-.184.62-.202.861-.211 0 0-.346 1.271-.053 2 .33.827.937 1.234 1.847 1.45.563.134.936.069 1.485-.113.805-.266 1.405-.593 1.561-1.447.095-.52.033-.849.2-1.34 0 0 .524.769 1.037 1.236.32.294-.008.713.222 1.083.16.253.339.372.638.462.416.125.767.098 1.468-.536.122-.235.2-.351.04-.668-.333-.655-.785.633-3.052-2.135-.513-.626-1.093-.697-1.891-.902-.96-.246-1.5-.311-2.547-.153-.277.098-.34-.02-.638-.523 0 0 .253-.318.48-.44 1.266-.687 3.04.075 3.703-.494-1-.206-.527-.438-.948-.511-1.434-.253-1.06-.145-3.288-.068 0 0-1.294.228-2.076.921-.683.605-1.493 1.627-1.493 1.627-.3.16-.548-.479-.64-.584 0 0 .73-1.69 1.588-2.478.882-.81 1.7-1.028 2.737-1.488.934-.414 1.605.097 2.613.272 1.101.19 1.565.43 2.755.751.807.22.687 1.22 1.479 1.524.206.079.398-.042.56.101.185.162.12.423-.04.608-.347.399-.86-.081-1.373-.255-.299-.103-.381-.356-.696-.4-.216-.03-.338.052-.555.08-.741.094.951.651 1.466 1.16.611.602.525 1.431 1.363 1.709.39.128.706-.123 1.056.083.429.253.431.662.474 1.135.017.2.025.375.012.542-.039 1.367-1.034 1.816-1.302 2.103-.948 1.014-.427 5.38-.3 7.28 0 0-2.432 4.237-.76 6.37.516.658.515.674 1.91 1.894 0 0-.993 2.876-1.737 3.06-.68-.149-4.413 1.174-5.183 3.739l-.1.695c.01.264-1.92.395-3.35-.921-.394-.364-.675 2.637-.064 4.288.274.8.694 2.284 2.764 1.75.706-.043 2.17-.325 2.672-.9.128.127 3.51 2.01 4.921 1.962 1.842-.065 2.58-1.207 2.57-1.47 0 0-.746-.034-1.61.056-2.998.315-2.775-1.356-2.775-1.356 1.153-.707 1.27-.875 2.68-.664 1.127.17 1.298.244 1.982.587.135.018.5.017.677-.045.911-.32 1.873-.93 3.998-.567.485.082 2.156 1.154 3.938.465l-.513-.215.922.025-.409.19c.992.379.542-.108 1.718-.058 1.552.068.93 3.542 4.754 2.984 1.726-.252 1.386-6.469 1.386-6.469l-.805.03c.011 2.118-.67 3.54-1.225 3.585-1.236.104-1.239-1.32-3.755-2.383 0 0-.863-1.098.321-.958.934.111 1.025 1.814 3.361 1.268l.02-1.895c-3.532.122-3.503-3.198-7.277-3.135-1.273.021.41 1.076-1.136 1.191-1.05.077-.484-.581-2.318-.286-.492.078-1.294-1.16-1.181-1.934.105-.728.801-.224.959-.943 0 0-.884-2.592.856-2.472.84.059 2.38 2.461 3.211-.354.436-.02-.376-.109-.376-.109-.215-.196-.154.922-.848.575-1.136-.566-.718-1.065-2.51-.88-2.607.267-1.853 2.83-2.585 2.33-3.873-2.65-5.537-4.106-3.155-8.67l.342.895c-.157-2.72-.502-7.25.072-8.602.243-.575.34-1.66.479-2.505.445-2.688.421-5.819-.534-6.154-2.982-1.047-2.261-3.804-5.345-4.157l-5.646.162s-.793-3.225 2.89-4.322c0 0-.43-4.352.8-5.479.961-.881 2.729.026 2.009-2.856-.132-.523-.482-.494-.773-.822-.68-.76-1.004-.328-1.682-2-.433-1.067 2.012-2.735 2.012-2.735C75.895 14.69 78.805 7.22 78.805 7.22c3.192 5.76 10.329 5.118 10.329 5.118 1.722.055 3.567.106 5.235 2.124 1.143 1.383 1.378 2.411 3.188 3.35 1.878.972 3.433-.237 3.433-.237-1.973-.16-3.353-1.226-4.193-2.867-3.04-5.944-5.97-5.605-6.797-5.361.737-.345.685-1.083 3.305-.732 3.806.512 5.667 6.904 8.115 7.215 3.736.475 3.64 1.133 2.767 4.555-1.09 4.278-1.286 8.197-.035 13.204.76 3.039 2.968 4.269 3.234 7.398.421 4.951-1.716 6.506-.085 11.752 1.118 3.594-.725 7.656 3.31 9.574l.474-.621c-3.919-2.165-1.433-5.523-1.433-5.523-.04 5.938 4.807 6.253 4.807 6.253-1.607-1.094-.317-1.928-.317-1.928 2.085-.679 3.237 3.108.614 3.37M74.01 65.68c.655-.682.264-1.24.696-1.177.558.08.93 1.14.93 1.14s.035.432.711 1.057c.722.666 2.825.765 3.792 1.208l2.006 2.303c-.96-.125-1.763-.6-2.389-.963-2.799-1.764-4.837.456-4.837.456-1.843-1.723-2.627-1.293-5.944.439-.92.48-1.485-.294-.569-.442.255-.13 1.279-2.108 1.979-2.28 1.096-.268 2.68-.756 3.625-1.74M63.739 41.158s.622.251.826.576c.129.208.145.601.145.601-.328.497-1.569-.55-.971-1.177m2.856.142l-.344.8-.027-.787.37-.013zm34.111-2.05c.066.242-1.254-2.153-1.76-2.81-.759-.955-1.13-.948-1.826-1.843-.381-.538-1.013-2.274-1.678-2.322-2.047-.143-3.428 1.084-4.48 1.164-.57.044.422-.674.422-.674.177-.548-3.605-.72-3.605-.72s-2.79-.01-2.954 1.265l.007.484 2.32.388c.997.285 1.175-.083 2.355.077l2.17-.04 1.92-.58 1.025.095c.31-.005.61.429.727.659.703 1.379 1.44 1.545 2.487 2.552 1.993 1.92 2.009 2.684 2.87 2.305m-15.484-4.373c-.558-.05-.968 1.41-2.39 1.557-1.912.199-2.625-1.282-3.265-2.542.06-.122-.206-1.268-.27-1.388l-.492.251c.032 1.998.815 4.344 2.807 4.974l.028 1.694.619-.071c.247-.005.297-.793.536-1.282.061-.122.856-.742 1.474-.875.865-.137 1.853-.337 3.03-.358l-.012-.727-1.425.027-.5-.234.3-.731c-.066-.12-.255-.279-.44-.295m-3.675 19.165l-.557.018c.037.364.151.555.279.9.193.523-.22.795.726 1.247l.059 1.693.532.01-.077-2.237-.47.047-.492-1.678zm1.148-10.764c.004.242-.054.546.015.909l1.364.035-.194-.482s.056-.303.054-.485l.553-.252c.745.107 1.048 1.726 2.592 1.456.06-.011-.037-.535-.037-.535-1.43-.276-1.503-1.062-1.503-1.062 1.026-1.653 2.76-1.685 2.765-1.383l-.174.73c.026 1.634.422 3.08 2.342 3.044 1.363-.025 2.467-.771 2.82-1.929.312.175.59.564.758.955.257.6.011.665.019 1.149.003.182-.742.135-.48.979l.93.042.725-1.164c-.024-1.512-1.612-3.843-3.233-4.42-.497-.172-1.309-.52-2.239-.563l-1.982.037c-.556.07-1.353.63-1.353.63-.96.253-.88-.831-.88-.831.424-.575.483-.735 2.21-1.253l2.29-.162c-.103-.193.137-.669.137-.669-4.275.019-5.61 1.835-5.878 2.106-.121.124-.85 1.045-.846 1.227 0 .061.807.167.807.167l.24-.489c.312.055.744-.013.75.29.01.725-.552.433-.538 1.28l-.495.01c-.744.013-1.553-.215-1.54.633m8.838-.639l-1.176.021-.011-.665 1.176-.02.011.664zm-2.227-.572s-.274 2.183 1.705 1.966l-.305.247c-2.043.16-1.705-1.966-1.4-2.213m-1.948 3.477l-1.286.023.01.543.868-.015.013.798.495-.01-.1-1.339zM95 41.66c.936 4.22 3.727 4.35 3.727 4.35l.536-.566s-2.79-.13-3.726-4.35c-.226.128-.537.566-.537.566m5.015-.275c-.008-.484-.072-.604-.143-1.148l-.426.493c-.284-.086-.696-1.146-1.058-1.556l-.77.135c.325.963 1.454 1.246 1.22 2.037-.04.13.81.289 1.177.039m-20.516 32.11c-.007-.182-.438-.106-.624-.1-.248.009-.339.581-.543.443-.507-.345-1.083-.87-1.11-1.597l-1.547.055c-.015-.423-.979-.16-.836.41.186-.006.915.072.91-.05.645.705 1.328.742 1.593 1.217.397.712.177 1.507.747 1.851.135-1.458 1.446-1.201 1.41-2.229"/></svg>