<?xml version="1.0" standalone="no"?>
<!DOCTYPE svg PUBLIC "-//W3C//DTD SVG 20010904//EN"
 "http://www.w3.org/TR/2001/REC-SVG-20010904/DTD/svg10.dtd">
<svg version="1.0" xmlns="http://www.w3.org/2000/svg"
 width="512.000000pt" height="512.000000pt" viewBox="0 0 512.000000 512.000000"
 preserveAspectRatio="xMidYMid meet">
<metadata>
Created by potrace 1.11, written by Peter Selinger 2001-2013
</metadata>
<g transform="translate(0.000000,512.000000) scale(0.100000,-0.100000)"
fill="#000000" stroke="none">
<path d="M3109 5067 c-138 -31 -252 -164 -266 -310 -8 -91 16 -176 76 -265 43
-62 49 -76 41 -101 -4 -16 -5 -33 -2 -37 4 -4 0 -4 -8 -1 -58 22 -92 29 -100
21 -4 -5 -10 -34 -11 -64 -2 -62 -13 -90 -34 -90 -8 0 -24 -14 -37 -30 l-22
-31 -83 6 c-72 5 -89 2 -125 -16 -36 -18 -61 -22 -160 -23 l-118 -1 -19 -45
c-11 -25 -22 -57 -26 -71 -5 -20 -30 -37 -135 -89 -71 -35 -132 -71 -135 -80
-4 -8 -9 -42 -12 -76 -5 -52 -1 -96 22 -264 8 -54 38 -187 51 -225 7 -22 14
-62 14 -90 0 -46 14 -85 55 -155 8 -14 15 -36 15 -50 0 -14 7 -46 14 -72 13
-43 13 -47 -4 -63 -15 -14 -17 -22 -9 -36 13 -25 61 -25 84 1 10 11 28 20 39
20 33 0 44 12 52 55 4 22 17 50 30 61 28 27 25 67 -10 147 -14 32 -26 64 -26
72 0 7 -11 27 -25 43 -17 20 -26 48 -32 93 -8 67 -10 265 -2 359 l4 56 70 0
c38 0 85 2 102 6 18 3 35 2 39 -3 5 -9 49 -182 58 -231 6 -35 56 -290 61 -315
7 -30 51 -80 95 -108 52 -33 45 -64 -33 -151 -56 -64 -101 -142 -111 -196 -7
-38 -65 -246 -98 -353 -42 -138 -47 -170 -35 -221 7 -26 0 -49 -36 -126 -25
-52 -44 -106 -44 -120 0 -39 -106 -248 -148 -291 -20 -22 -62 -50 -93 -64 -89
-39 -263 -127 -311 -157 -71 -45 -145 -117 -214 -206 -62 -81 -193 -180 -238
-180 -14 0 -68 -23 -120 -50 -51 -28 -117 -62 -146 -76 -65 -32 -122 -82 -128
-111 -4 -21 24 -97 88 -238 49 -109 200 -405 231 -454 27 -42 29 -43 68 -38
46 6 70 25 94 75 13 29 15 52 10 131 -3 53 -8 105 -10 116 -19 94 -18 124 3
153 12 17 21 37 21 45 0 8 14 31 30 52 17 21 33 55 36 75 6 36 15 43 233 187
124 83 312 203 416 268 367 228 360 222 561 500 47 66 97 129 109 140 13 11
28 30 34 41 6 12 34 33 63 47 29 14 67 39 85 55 33 31 47 33 119 17 11 -3 37
4 58 14 20 11 69 29 109 41 40 12 94 37 120 55 44 28 54 31 90 24 49 -8 137
-18 187 -19 l35 -1 -50 -23 c-104 -48 -193 -152 -239 -281 -14 -39 -54 -127
-88 -196 -59 -118 -65 -127 -102 -140 -21 -7 -64 -36 -94 -64 -30 -27 -94 -79
-141 -115 -111 -85 -112 -94 -29 -174 53 -52 191 -152 263 -192 25 -14 196
-121 250 -157 42 -27 108 -54 157 -62 24 -5 31 0 48 27 39 64 30 90 -75 223
-73 93 -113 175 -119 248 -3 31 -7 61 -10 66 -3 4 0 25 6 47 6 21 11 42 10 46
-1 3 40 44 91 90 266 242 523 495 556 548 29 48 51 113 51 150 0 41 -23 100
-49 126 -31 31 -218 137 -370 211 -64 30 -129 62 -146 71 -86 44 -135 66 -223
98 -53 20 -103 37 -109 39 -7 3 -14 15 -14 27 -1 13 -3 36 -5 51 -4 40 7 64
64 138 64 84 76 109 96 198 9 41 26 87 37 102 11 15 26 43 34 62 12 29 23 37
67 51 177 56 248 118 443 392 81 114 130 173 167 200 67 50 90 90 95 166 3 53
0 65 -28 109 -18 27 -37 49 -44 49 -6 0 -17 16 -24 36 -9 24 -18 34 -29 32
-13 -3 -17 -15 -17 -59 -1 -43 -7 -65 -30 -102 -17 -25 -36 -48 -42 -51 -15
-6 -17 22 -4 58 7 18 6 28 -4 36 -12 10 -22 4 -54 -30 -41 -44 -42 -49 -23
-125 14 -52 0 -81 -86 -185 -104 -125 -196 -192 -208 -152 -3 9 -21 49 -39 87
-42 89 -51 118 -54 180 -2 39 -10 59 -37 94 -19 24 -34 53 -34 63 0 32 -18 55
-64 82 -48 28 -52 50 -10 52 14 1 34 10 45 20 25 22 69 113 69 141 0 25 17 39
48 41 13 0 30 6 38 12 11 10 11 16 -1 41 -19 37 -19 87 1 124 9 17 18 61 20
100 2 39 6 86 10 106 7 45 -9 79 -68 138 -56 57 -131 107 -199 131 -68 25
-187 33 -260 17z"/>
</g>
</svg>
