<?xml version="1.0" standalone="no"?>
<!DOCTYPE svg PUBLIC "-//W3C//DTD SVG 20010904//EN"
 "http://www.w3.org/TR/2001/REC-SVG-20010904/DTD/svg10.dtd">
<svg version="1.0" xmlns="http://www.w3.org/2000/svg"
 width="512.000000pt" height="512.000000pt" viewBox="0 0 512.000000 512.000000"
 preserveAspectRatio="xMidYMid meet">
<metadata>
Created by potrace 1.11, written by Peter Selinger 2001-2013
</metadata>
<g transform="translate(0.000000,512.000000) scale(0.100000,-0.100000)"
fill="#000000" stroke="none">
<path d="M3128 5105 c-2 -2 -19 -5 -39 -8 -84 -11 -195 -94 -252 -190 -81
-133 -71 -288 28 -443 19 -30 35 -56 35 -59 0 -2 -10 -1 -22 4 -58 20 -98 -19
-98 -97 0 -38 -5 -48 -41 -82 -33 -30 -47 -37 -68 -33 -58 12 -130 6 -157 -12
-22 -14 -52 -19 -144 -21 -63 -2 -124 -6 -135 -8 -14 -4 -28 -27 -48 -79 l-28
-73 -72 -33 c-40 -18 -96 -47 -125 -64 -45 -27 -55 -39 -66 -77 -25 -84 -6
-288 49 -517 14 -57 25 -120 25 -141 0 -24 12 -62 31 -98 16 -32 32 -72 35
-89 3 -16 10 -44 15 -62 8 -24 7 -37 -4 -55 -31 -48 6 -108 65 -108 17 0 47 8
67 19 20 10 48 23 62 29 19 7 32 25 45 59 10 26 27 60 37 75 16 22 19 37 14
82 -3 30 -12 65 -20 78 -8 12 -18 34 -22 48 -11 38 -38 93 -52 108 -15 15 -15
24 -19 220 -3 197 -4 194 79 199 73 4 77 0 91 -70 3 -12 12 -55 20 -94 9 -40
18 -85 21 -100 3 -16 7 -37 9 -48 2 -11 12 -56 20 -100 26 -127 42 -160 96
-203 48 -38 49 -40 33 -63 -9 -13 -35 -45 -59 -70 -23 -25 -49 -59 -57 -75
-16 -32 -52 -148 -92 -299 -14 -55 -40 -143 -57 -195 -24 -73 -31 -112 -31
-168 1 -64 -3 -83 -37 -155 -20 -45 -40 -99 -43 -119 -8 -57 -91 -218 -133
-262 -21 -21 -58 -48 -83 -59 -290 -125 -388 -194 -551 -387 -56 -67 -153
-138 -199 -146 -50 -9 -306 -143 -363 -189 -25 -20 -60 -77 -57 -92 6 -41 112
-279 206 -468 93 -185 152 -282 177 -289 36 -9 103 15 139 50 56 56 61 93 42
269 -2 22 -7 65 -10 96 -6 49 -3 64 20 110 15 30 36 63 46 74 10 12 22 38 26
60 8 36 18 45 149 134 78 53 149 101 160 108 480 296 655 415 711 481 27 31
50 59 53 62 3 3 47 61 97 130 51 69 107 141 126 160 18 19 36 43 39 52 4 9 28
26 53 37 26 11 60 32 76 45 25 21 38 24 99 23 49 0 75 4 87 15 10 8 51 25 91
37 40 12 95 35 121 51 42 26 54 29 99 23 l52 -6 -53 -57 c-56 -60 -109 -154
-147 -260 -21 -58 -41 -98 -100 -205 -9 -16 -39 -43 -68 -60 -28 -16 -77 -54
-109 -84 -31 -29 -83 -71 -115 -92 -176 -120 -124 -191 354 -488 287 -178 355
-195 403 -101 26 51 15 139 -22 178 -67 70 -146 195 -161 252 -24 97 -25 138
-2 185 12 25 25 45 28 45 26 0 565 525 608 593 47 73 61 173 34 251 -20 58
-48 81 -216 176 -157 90 -508 258 -594 285 -30 10 -61 22 -67 28 -29 22 -6
100 46 157 41 45 86 139 102 215 7 33 23 75 36 93 12 19 25 42 28 52 4 12 26
25 58 36 171 56 262 136 438 388 46 66 101 137 124 158 22 22 57 56 79 76 49
47 68 91 71 168 3 55 -1 68 -28 112 -85 133 -117 161 -162 140 -27 -12 -40
-54 -31 -100 l4 -26 -34 14 c-34 14 -35 14 -79 -27 -48 -44 -67 -90 -53 -127
17 -49 9 -105 -20 -137 -15 -17 -43 -50 -63 -75 -82 -101 -124 -134 -140 -109
-29 45 -71 168 -74 217 -3 43 -12 67 -35 100 -17 24 -34 57 -37 74 -3 16 -19
42 -35 58 -27 28 -28 29 -9 40 17 9 68 100 85 153 3 9 14 17 23 17 46 0 90 72
64 104 -19 23 -19 60 1 113 10 28 18 69 17 90 0 21 2 65 6 99 9 75 -5 109 -72
178 -105 106 -231 164 -370 170 -39 2 -73 3 -75 1z"/>
</g>
</svg>
