<?xml version="1.0" standalone="no"?>
<!DOCTYPE svg PUBLIC "-//W3C//DTD SVG 20010904//EN"
 "http://www.w3.org/TR/2001/REC-SVG-20010904/DTD/svg10.dtd">
<svg version="1.0" xmlns="http://www.w3.org/2000/svg"
 width="512.000000pt" height="512.000000pt" viewBox="0 0 512.000000 512.000000"
 preserveAspectRatio="xMidYMid meet">
<metadata>
Created by potrace 1.11, written by Peter Selinger 2001-2013
</metadata>
<g transform="translate(0.000000,512.000000) scale(0.100000,-0.100000)"
fill="#000000" stroke="none">
<path d="M423 5101 c-94 -34 -157 -75 -234 -152 -61 -60 -85 -93 -117 -160
-72 -152 -67 18 -67 -2219 0 -1668 2 -2035 14 -2080 44 -180 173 -342 332
-418 152 -72 -17 -67 2209 -67 1660 0 2025 2 2070 14 180 44 342 173 418 332
72 152 67 -18 67 2219 0 1668 -2 2035 -14 2080 -44 181 -172 341 -337 421
l-89 44 -2100 2 c-2030 2 -2102 2 -2152 -16z m4176 -132 c161 -37 303 -177
347 -343 20 -75 20 -4036 0 -4111 -44 -164 -177 -297 -341 -341 -74 -20 -4016
-20 -4090 0 -164 44 -297 177 -341 341 -11 41 -14 412 -14 2055 0 1264 4 2021
10 2047 37 161 176 303 340 349 58 16 4019 20 4089 3z"/>
<path d="M1090 3908 c-26 -58 -25 -86 3 -98 12 -5 139 -29 282 -55 142 -25
261 -48 263 -50 3 -2 1 -20 -2 -39 -5 -25 -11 -33 -24 -30 -75 16 -526 94
-546 94 -27 0 -31 -9 -41 -80 -4 -30 -2 -50 7 -61 9 -12 93 -32 291 -70 l277
-53 0 -28 c0 -16 -6 -31 -14 -34 -7 -3 -129 18 -271 45 -142 28 -266 51 -275
51 -27 0 -41 -24 -47 -83 -5 -50 -3 -56 18 -70 13 -8 137 -38 274 -66 318 -66
288 -56 279 -94 -3 -18 -7 -33 -8 -34 -2 -2 -128 24 -281 58 -321 70 -306 72
-313 -35 l-4 -64 118 -27 c371 -85 446 -103 450 -108 9 -9 -8 -57 -20 -57 -7
0 -137 29 -291 65 -194 45 -282 62 -290 55 -9 -7 -37 -5 -90 7 -73 16 -80 16
-107 0 -21 -12 -41 -15 -73 -10 -24 3 -54 3 -68 0 -23 -6 -53 -52 -39 -61 4
-2 130 -34 280 -71 150 -37 271 -69 269 -72 -3 -2 -145 30 -316 71 -171 42
-318 76 -325 76 -23 0 -76 -50 -76 -70 0 -22 -18 -16 317 -101 199 -51 241
-64 232 -76 -6 -7 -20 -13 -31 -13 -11 0 -144 32 -295 71 -169 43 -285 68
-300 64 -44 -11 -86 -120 -53 -140 5 -3 110 -33 232 -66 346 -93 328 -87 338
-114 5 -14 26 -33 47 -42 21 -10 39 -18 41 -19 2 -1 -8 -78 -22 -170 -40 -274
-59 -489 -46 -514 14 -25 78 -56 136 -66 59 -9 79 19 88 128 18 221 68 574 85
604 4 8 64 -4 194 -39 l189 -51 30 -45 c68 -100 131 -169 176 -194 49 -26 143
-57 174 -57 20 0 48 53 48 90 0 20 -4 25 -73 82 -21 17 -36 32 -35 34 2 1 266
-68 586 -154 l582 -157 18 -35 c11 -24 27 -38 50 -45 36 -10 39 -27 22 -100
-6 -22 -19 -107 -30 -190 -11 -82 -27 -197 -35 -253 -9 -57 -14 -145 -13 -195
l3 -92 100 -32 c144 -47 141 -51 175 272 17 167 40 322 77 533 3 17 11 32 17
32 6 -1 71 -17 145 -38 l134 -37 53 -89 c95 -157 110 -171 223 -206 54 -16
107 -30 118 -30 42 0 71 115 37 142 -9 7 -31 27 -50 44 -31 29 -32 32 -23 74
6 24 24 70 41 102 17 32 28 61 25 65 -4 3 -53 18 -110 33 -57 15 -109 30 -114
33 -16 10 -24 50 -10 44 7 -2 74 -19 150 -38 l137 -33 51 50 c62 62 59 78 -19
95 -30 7 -50 15 -45 16 6 2 45 -5 87 -15 l75 -20 48 24 c26 14 49 28 53 32 3
5 52 5 110 1 100 -8 106 -7 123 13 10 12 17 31 15 42 -3 19 -38 29 -357 103
-195 46 -355 84 -356 85 -2 2 0 18 2 36 4 21 11 32 22 32 9 0 173 -36 365 -80
192 -44 351 -79 352 -77 5 5 37 197 33 200 -2 2 -166 38 -364 81 -197 42 -360
78 -362 80 -1 1 0 19 4 39 4 26 11 37 23 37 14 0 612 -124 696 -145 19 -4 22
2 34 96 7 57 9 104 4 108 -5 5 -162 38 -349 75 -187 37 -348 69 -357 72 -13 4
-15 13 -11 42 3 20 6 38 7 38 1 1 159 -29 351 -67 193 -38 357 -69 366 -69 12
0 18 19 28 83 7 45 15 91 17 103 5 20 -10 23 -350 84 -196 35 -361 67 -367 71
-7 4 -7 18 -1 40 7 28 13 33 33 31 13 -2 174 -30 357 -63 183 -32 336 -59 340
-59 5 0 20 39 35 88 14 48 27 91 29 96 2 5 -165 37 -370 71 -231 38 -377 67
-382 74 -4 7 -49 22 -99 32 -73 15 -96 16 -111 7 -27 -17 -1991 305 -2031 333
-31 21 -149 39 -170 26 -9 -5 -120 9 -292 37 -152 25 -286 46 -298 46 -14 0
-26 -13 -39 -42z m1777 -420 l973 -173 0 -25 c0 -61 58 -68 -1002 123 -540 98
-984 180 -986 182 -3 2 -1 20 2 40 5 27 11 35 24 31 9 -2 455 -82 989 -178z
m-63 -258 c535 -104 976 -190 980 -190 9 0 7 -52 -2 -67 -6 -9 -250 36 -987
182 -539 107 -981 195 -982 195 -9 0 -1 70 7 70 6 0 449 -85 984 -190z m-22
-265 c535 -113 973 -207 974 -208 6 -9 -11 -77 -20 -77 -10 0 -1959 421 -1962
424 -1 0 1 16 3 34 3 18 11 32 19 32 8 0 452 -92 986 -205z m-27 -264 l950
-217 -2 -33 c0 -18 -3 -35 -6 -37 -4 -4 -1956 445 -1965 452 -2 1 -1 17 3 34
6 28 9 30 38 24 18 -3 460 -103 982 -223z m-399 -170 c379 -93 749 -183 822
-201 73 -18 131 -34 129 -37 -4 -4 -1630 389 -1662 401 -54 22 125 -19 711
-163z m-1034 119 c31 -9 75 -47 65 -57 -2 -1 -19 2 -38 7 -19 5 -53 14 -77 20
-36 9 -41 14 -32 26 15 17 32 17 82 4z m1086 -278 c403 -103 733 -192 734
-197 3 -34 -49 -23 -746 156 -623 160 -719 187 -732 206 -11 18 -11 23 -2 23
7 0 343 -85 746 -188z m1597 -246 c72 -19 124 -35 117 -35 -15 -1 -255 58
-261 65 -8 8 16 3 144 -30z m-469 -44 c6 -4 17 -18 23 -30 11 -21 11 -23 -6
-18 -10 3 -30 8 -45 12 -31 7 -34 14 -16 32 14 14 28 15 44 4z"/>
</g>
</svg>
