<svg xmlns="http://www.w3.org/2000/svg" viewBox="0 0 400 120"><g fill-rule="evenodd"><path fill="#1c4f9c" d="M69.671 49.593c.61-5.812 5.448-10.067 10.804-9.503 5.357.563 9.206 5.734 8.597 11.546-.61 5.812-5.447 10.065-10.805 9.502-5.357-.564-9.205-5.733-8.596-11.545M42.329 57.82c.579-5.508 5.39-9.517 10.746-8.953 5.357.564 9.232 5.488 8.653 10.997-.577 5.508-5.39 9.517-10.746 8.952-5.357-.563-9.232-5.486-8.653-10.995M54.234 37.883a7.358 7.358 0 018.09-6.55 7.363 7.363 0 016.553 8.092 7.357 7.357 0 01-8.089 6.55 7.365 7.365 0 01-6.554-8.092M62.542 69.857a7.358 7.358 0 018.09-6.552 7.367 7.367 0 016.554 8.093 7.36 7.36 0 01-8.09 6.55 7.365 7.365 0 01-6.554-8.09"/><path fill="#2857af" d="M86.402 38.474c-.904-2.235.907-5.075 4.046-6.342 3.136-1.268 6.414-.483 7.318 1.751.905 2.237-.906 5.075-4.044 6.343-3.139 1.266-6.416.483-7.32-1.752M34.618 77.828c-1.338-3.308-.154-6.907 2.646-8.038 2.8-1.13 6.153.635 7.492 3.943 1.338 3.309.153 6.908-2.646 8.038s-6.153-.635-7.492-3.943M70.343 25.867c1.28-2.408 4.292-3.31 6.728-2.013 2.435 1.296 3.372 4.3 2.091 6.708-1.279 2.408-4.29 3.308-6.726 2.012-2.437-1.297-3.373-4.3-2.093-6.707M48.707 81.728c.318-3.034 3.404-5.195 6.893-4.828 3.487.368 6.058 3.125 5.74 6.158-.319 3.034-3.404 5.195-6.893 4.829-3.488-.369-6.059-3.126-5.74-6.159"/><path fill="#5788c2" d="M100.75 30.92c.212-2.015 2.46-3.43 5.02-3.16 2.562.269 4.466 2.121 4.253 4.138-.21 2.015-2.458 3.43-5.018 3.162-2.562-.27-4.466-2.124-4.255-4.14"/><path fill="#bad9f3" d="M114.268 28.254c.168-1.602 2.278-2.693 4.711-2.437 2.435.258 4.27 1.764 4.103 3.365-.168 1.602-2.277 2.693-4.71 2.437-2.435-.256-4.272-1.762-4.104-3.365"/><path fill="#5788c2" d="M73.991 15.406c.184-1.754 2.306-2.968 4.739-2.711 2.434.256 4.257 1.884 4.073 3.639-.183 1.754-2.305 2.967-4.738 2.711-2.435-.256-4.259-1.886-4.074-3.639"/><path fill="#63a1d9" d="M57.456 107.032c-.263-1.488 1.264-3 3.41-3.378 2.146-.377 4.099.523 4.361 2.01.263 1.488-1.263 3-3.409 3.377-2.147.378-4.1-.522-4.362-2.009"/><path fill="#5788c2" d="M23.063 76.147c1.302-1.554 4.051-1.389 6.139.366 2.09 1.754 2.727 4.434 1.425 5.987-1.303 1.552-4.05 1.388-6.14-.365-2.09-1.756-2.726-4.436-1.424-5.988"/><path fill="#63a1d9" d="M10.846 80.367c.834-1.334 3.46-1.195 5.866.31 2.408 1.505 3.684 3.807 2.85 5.141-.833 1.332-3.46 1.195-5.867-.31-2.407-1.506-3.682-3.808-2.849-5.14"/><path fill="#bad9f3" d="M.422 84.392c.647-1.034 2.953-.759 5.151.615 2.2 1.376 3.457 3.328 2.811 4.364-.647 1.035-2.953.758-5.15-.617-2.2-1.375-3.459-3.328-2.812-4.362M72.835 3.717c.157-1.503 1.796-2.56 3.66-2.365 1.864.197 3.248 1.574 3.09 3.076-.157 1.503-1.796 2.562-3.661 2.365-1.864-.196-3.248-1.573-3.09-3.076M60.232 116.505c-.247-1.399 1.089-2.803 2.983-3.136 1.893-.335 3.628.528 3.876 1.929.247 1.399-1.088 2.803-2.981 3.136-1.895.332-3.63-.53-3.878-1.93"/><path fill="#2857af" d="M37.297 37.765c.287-2.73 3.064-4.674 6.203-4.345 3.14.33 5.454 2.811 5.168 5.543-.288 2.73-3.064 4.675-6.205 4.344-3.139-.33-5.452-2.812-5.166-5.542"/><path fill="#5788c2" d="M30.79 25.5c.196-1.866 2.308-3.171 4.717-2.917 2.41.254 4.203 1.971 4.008 3.835-.196 1.863-2.307 3.169-4.716 2.916-2.408-.255-4.204-1.971-4.008-3.835"/><path fill="#bad9f3" d="M20.92 16.855c.142-1.35 1.891-2.274 3.907-2.061 2.015.212 3.535 1.48 3.393 2.83-.142 1.35-1.89 2.273-3.908 2.062-2.015-.213-3.534-1.48-3.392-2.83"/><path fill="#5788c2" d="M54.41 99.13c-1.221-1.619-.446-4.26 1.732-5.902 2.178-1.64 4.932-1.659 6.154-.04 1.22 1.618.444 4.26-1.733 5.9-2.179 1.641-4.933 1.66-6.154.041"/></g><g fill="#0a4195" aria-label="binc germany-usa"><path d="M119.477 73.896q1.98 0 3.013-1.425 1.05-1.425 1.05-4.14 0-2.714-1.05-4.139-1.033-1.425-3.013-1.425t-3.047 1.442q-1.05 1.425-1.05 4.122 0 2.698 1.05 4.14 1.067 1.425 3.047 1.425zm-4.098-12.3q1.274-1.662 2.824-2.442 1.55-.798 3.564-.798 3.564 0 5.853 2.8 2.29 2.782 2.29 7.175 0 4.394-2.29 7.193-2.29 2.782-5.853 2.782-2.015 0-3.564-.78-1.55-.797-2.824-2.46v2.748h-6.163V51.418h6.163zM132.219 58.814h6.163v19h-6.163zm0-7.396h6.163v4.954h-6.163zM161.454 66.245v11.57h-6.198v-8.856q0-2.46-.12-3.393-.104-.933-.38-1.374-.36-.594-.98-.916-.62-.34-1.412-.34-1.928 0-3.03 1.477-1.102 1.459-1.102 4.054v9.347h-6.164v-19h6.164v2.783q1.394-1.663 2.961-2.443 1.567-.798 3.46-.798 3.34 0 5.062 2.02 1.74 2.018 1.74 5.869zM180.514 59.408v4.954q-1.256-.848-2.53-1.256-1.257-.407-2.617-.407-2.583 0-4.029 1.493-1.429 1.476-1.429 4.14 0 2.663 1.429 4.156 1.446 1.475 4.029 1.475 1.446 0 2.737-.424 1.309-.424 2.41-1.255v4.97q-1.446.526-2.944.78-1.48.272-2.978.272-5.217 0-8.16-2.63-2.945-2.646-2.945-7.345t2.944-7.328q2.944-2.647 8.16-2.647 1.516 0 2.98.272 1.48.254 2.943.78z"/><path d="M202.005 84.358q-3.047 0-4.855-1.188-1.808-1.17-2.324-3.342l3.116-.44q.31 1.272 1.36 1.95 1.068.696 2.79.696 4.63 0 4.63-5.344v-2.952h-.034q-.878 1.764-2.41 2.664-1.533.882-3.581.882-3.426 0-5.045-2.24-1.6-2.239-1.6-7.04 0-4.868 1.72-7.176 1.74-2.324 5.269-2.324 1.98 0 3.426.9 1.463.882 2.255 2.527h.035q0-.509.069-1.764.069-1.256.137-1.374h2.944q-.103.916-.103 3.8v14.03q0 7.735-7.799 7.735zm4.717-16.388q0-2.239-.62-3.85-.62-1.63-1.755-2.477-1.12-.865-2.548-.865-2.376 0-3.461 1.696t-1.085 5.496q0 3.766 1.016 5.412 1.016 1.645 3.478 1.645 1.463 0 2.6-.848 1.136-.848 1.756-2.426.62-1.594.62-3.783zM216.932 68.615q0 3.155 1.325 4.869 1.326 1.713 3.874 1.713 2.015 0 3.22-.797 1.222-.798 1.652-2.019l2.72.763q-1.67 4.343-7.592 4.343-4.132 0-6.301-2.426-2.152-2.426-2.152-7.21 0-4.546 2.152-6.972 2.17-2.426 6.18-2.426 8.213 0 8.213 9.755v.407zm10.089-2.341q-.259-2.9-1.498-4.224-1.24-1.34-3.564-1.34-2.255 0-3.581 1.493-1.308 1.475-1.412 4.07zM234.234 77.148v-14.08q0-1.934-.103-4.275h2.927q.138 3.121.138 3.749h.068q.74-2.358 1.705-3.223.964-.866 2.72-.866.62 0 1.257.17v2.8q-.62-.17-1.653-.17-1.928 0-2.944 1.645-1.016 1.629-1.016 4.682v9.568zM256.753 77.148V65.511q0-2.664-.74-3.682-.74-1.018-2.668-1.018-1.98 0-3.134 1.493-1.153 1.493-1.153 4.207v10.637h-3.082V62.711q0-3.206-.103-3.918h2.926q.018.085.035.458.017.373.034.865.035.475.07 1.815h.05q1-1.95 2.29-2.714 1.292-.764 3.151-.764 2.118 0 3.34.832 1.24.83 1.722 2.646h.052q.964-1.849 2.324-2.663 1.377-.815 3.323-.815 2.823 0 4.097 1.51 1.291 1.51 1.291 4.954v12.231h-3.064V65.511q0-2.664-.74-3.682-.74-1.018-2.67-1.018-2.03 0-3.167 1.493-1.119 1.476-1.119 4.207v10.637zM280.03 77.487q-2.806 0-4.218-1.459t-1.412-4.003q0-2.85 1.894-4.377 1.911-1.527 6.146-1.629l4.184-.067V64.95q0-2.24-.964-3.207-.964-.966-3.03-.966-2.083 0-3.03.695-.947.696-1.137 2.222l-3.236-.288q.792-4.954 7.472-4.954 3.512 0 5.285 1.595 1.773 1.578 1.773 4.58v7.906q0 1.357.362 2.052.362.679 1.377.679.448 0 1.016-.119v1.9q-1.17.272-2.393.272-1.722 0-2.514-.883-.774-.899-.878-2.799h-.103q-1.188 2.104-2.772 2.986-1.567.865-3.822.865zm.706-2.29q1.704 0 3.03-.763 1.326-.764 2.083-2.087.775-1.34.775-2.748v-1.51l-3.392.068q-2.186.034-3.322.441-1.12.407-1.722 1.255-.603.849-.603 2.223 0 1.493.81 2.307.826.814 2.341.814zM306.716 77.148V65.511q0-1.816-.362-2.817-.361-1-1.153-1.441-.792-.442-2.325-.442-2.238 0-3.529 1.51t-1.291 4.19v10.637h-3.1V62.711q0-3.206-.102-3.918h2.926q.018.085.035.458.017.373.034.865.035.475.07 1.815h.05q1.068-1.9 2.463-2.68 1.411-.798 3.495-.798 3.064 0 4.476 1.51 1.429 1.493 1.429 4.954v12.231zM315.41 84.358q-1.274 0-2.135-.187v-2.29q.654.102 1.446.102 2.893 0 4.58-4.19l.293-.73-7.386-18.27h3.305l3.926 10.144.206.577q.12.322.775 2.205.654 1.883.706 2.104l1.205-3.342 4.08-11.688h3.271l-7.162 18.355q-1.153 2.935-2.152 4.36-.998 1.442-2.22 2.137-1.206.713-2.738.713zM331.318 69.277v-2.715h8.608v2.715zM346.899 58.793V70.43q0 1.815.361 2.816.362 1.001 1.154 1.442.792.441 2.324.441 2.238 0 3.53-1.51 1.29-1.51 1.29-4.19V58.793h3.1v14.436q0 3.206.103 3.919h-2.927q-.017-.085-.034-.458t-.052-.848q-.017-.492-.052-1.832h-.051q-1.068 1.9-2.48 2.697-1.394.78-3.477.78-3.065 0-4.494-1.493-1.411-1.51-1.411-4.97V58.793zM377.458 72.076q0 2.595-1.997 4.003-1.98 1.408-5.56 1.408-3.479 0-5.372-1.12-1.877-1.136-2.445-3.528l2.737-.526q.396 1.476 1.636 2.172 1.24.678 3.443.678 2.359 0 3.443-.712 1.102-.713 1.102-2.138 0-1.086-.757-1.764-.758-.679-2.445-1.12l-2.221-.577q-2.669-.678-3.805-1.323-1.119-.661-1.756-1.594t-.637-2.29q0-2.511 1.808-3.817 1.825-1.324 5.302-1.324 3.082 0 4.89 1.07 1.825 1.068 2.307 3.426l-2.79.34q-.257-1.222-1.394-1.867-1.119-.662-3.013-.662-2.1 0-3.098.628-.999.628-.999 1.9 0 .78.413 1.29.413.508 1.223.865.809.356 3.408.983 2.462.611 3.547 1.137 1.085.509 1.704 1.137.637.627.982 1.459.344.814.344 1.866zM385.86 77.487q-2.807 0-4.218-1.459-1.412-1.459-1.412-4.003 0-2.85 1.894-4.377 1.91-1.527 6.146-1.629l4.184-.067V64.95q0-2.24-.964-3.207-.965-.966-3.03-.966-2.084 0-3.03.695-.948.696-1.137 2.222l-3.237-.288q.792-4.954 7.472-4.954 3.512 0 5.286 1.595 1.773 1.578 1.773 4.58v7.906q0 1.357.362 2.052.361.679 1.377.679.448 0 1.016-.119v1.9q-1.171.272-2.393.272-1.722 0-2.514-.883-.775-.899-.878-2.799h-.103q-1.188 2.104-2.772 2.986-1.567.865-3.822.865zm.706-2.29q1.704 0 3.03-.763 1.325-.764 2.083-2.087.775-1.34.775-2.748v-1.51l-3.392.068q-2.187.034-3.323.441-1.119.407-1.721 1.255-.603.849-.603 2.223 0 1.493.81 2.307.826.814 2.34.814z"/></g></svg>
