<svg xmlns="http://www.w3.org/2000/svg" width="400" height="120">
  <g fill-rule="evenodd">
    <path d="M69.671 49.593c.61-5.812 5.448-10.067 10.804-9.503 5.357.563 9.206 5.734 8.597 11.546-.61 5.812-5.447 10.065-10.805 9.502-5.357-.564-9.205-5.733-8.596-11.545M42.329 57.82c.579-5.508 5.39-9.517 10.746-8.953 5.357.564 9.232 5.488 8.653 10.997-.577 5.508-5.39 9.517-10.746 8.952-5.357-.563-9.232-5.486-8.653-10.995M54.234 37.883a7.358 7.358 0 018.09-6.55 7.363 7.363 0 016.553 8.092 7.357 7.357 0 01-8.089 6.55 7.365 7.365 0 01-6.554-8.092M62.542 69.857a7.358 7.358 0 018.09-6.552 7.367 7.367 0 016.554 8.093 7.36 7.36 0 01-8.09 6.55 7.365 7.365 0 01-6.554-8.09" fill="#1c4f9c"/>
    <path d="M86.402 38.474c-.904-2.235.907-5.075 4.046-6.342 3.136-1.268 6.414-.483 7.318 1.751.905 2.237-.906 5.075-4.044 6.343-3.139 1.266-6.416.483-7.32-1.752M34.618 77.828c-1.338-3.308-.154-6.907 2.646-8.038 2.8-1.13 6.153.635 7.492 3.943 1.338 3.309.153 6.908-2.646 8.038s-6.153-.635-7.492-3.943M70.343 25.867c1.28-2.408 4.292-3.31 6.728-2.013 2.435 1.296 3.372 4.3 2.091 6.708-1.279 2.408-4.29 3.308-6.726 2.012-2.437-1.297-3.373-4.3-2.093-6.707M48.707 81.728c.318-3.034 3.404-5.195 6.893-4.828 3.487.368 6.058 3.125 5.74 6.158-.319 3.034-3.404 5.195-6.893 4.829-3.488-.369-6.059-3.126-5.74-6.159" fill="#2857af"/>
    <path d="M100.75 30.92c.212-2.015 2.46-3.43 5.02-3.16 2.562.269 4.466 2.121 4.253 4.138-.21 2.015-2.458 3.43-5.018 3.162-2.562-.27-4.466-2.124-4.255-4.14" fill="#5788c2"/>
    <path d="M114.268 28.254c.168-1.602 2.278-2.693 4.711-2.437 2.435.258 4.27 1.764 4.103 3.365-.168 1.602-2.277 2.693-4.71 2.437-2.435-.256-4.272-1.762-4.104-3.365" fill="#bad9f3"/>
    <path d="M73.991 15.406c.184-1.754 2.306-2.968 4.739-2.711 2.434.256 4.257 1.884 4.073 3.639-.183 1.754-2.305 2.967-4.738 2.711-2.435-.256-4.259-1.886-4.074-3.639" fill="#5788c2"/>
    <path d="M57.456 107.032c-.263-1.488 1.264-3 3.41-3.378 2.146-.377 4.099.523 4.361 2.01.263 1.488-1.263 3-3.409 3.377-2.147.378-4.1-.522-4.362-2.009" fill="#63a1d9"/>
    <path d="M23.063 76.147c1.302-1.554 4.051-1.389 6.139.366 2.09 1.754 2.727 4.434 1.425 5.987-1.303 1.552-4.05 1.388-6.14-.365-2.09-1.756-2.726-4.436-1.424-5.988" fill="#5788c2"/>
    <path d="M10.846 80.367c.834-1.334 3.46-1.195 5.866.31 2.408 1.505 3.684 3.807 2.85 5.141-.833 1.332-3.46 1.195-5.867-.31-2.407-1.506-3.682-3.808-2.849-5.14" fill="#63a1d9"/>
    <path d="M.422 84.392c.647-1.034 2.953-.759 5.151.615 2.2 1.376 3.457 3.328 2.811 4.364-.647 1.035-2.953.758-5.15-.617-2.2-1.375-3.459-3.328-2.812-4.362M72.835 3.717c.157-1.503 1.796-2.56 3.66-2.365 1.864.197 3.248 1.574 3.09 3.076-.157 1.503-1.796 2.562-3.661 2.365-1.864-.196-3.248-1.573-3.09-3.076M60.232 116.505c-.247-1.399 1.089-2.803 2.983-3.136 1.893-.335 3.628.528 3.876 1.929.247 1.399-1.088 2.803-2.981 3.136-1.895.332-3.63-.53-3.878-1.93" fill="#bad9f3"/>
    <path d="M37.297 37.765c.287-2.73 3.064-4.674 6.203-4.345 3.14.33 5.454 2.811 5.168 5.543-.288 2.73-3.064 4.675-6.205 4.344-3.139-.33-5.452-2.812-5.166-5.542" fill="#2857af"/>
    <path d="M30.79 25.5c.196-1.866 2.308-3.171 4.717-2.917 2.41.254 4.203 1.971 4.008 3.835-.196 1.863-2.307 3.169-4.716 2.916-2.408-.255-4.204-1.971-4.008-3.835" fill="#5788c2"/>
    <path d="M20.92 16.855c.142-1.35 1.891-2.274 3.907-2.061 2.015.212 3.535 1.48 3.393 2.83-.142 1.35-1.89 2.273-3.908 2.062-2.015-.213-3.534-1.48-3.392-2.83" fill="#bad9f3"/>
    <path d="M54.41 99.13c-1.221-1.619-.446-4.26 1.732-5.902 2.178-1.64 4.932-1.659 6.154-.04 1.22 1.618.444 4.26-1.733 5.9-2.179 1.641-4.933 1.66-6.154.041" fill="#5788c2"/>
  </g>
  <text style="line-height:125%;-inkscape-font-specification:'Arial, Normal';text-align:start" x="176.844" y="937.975" transform="matrix(.57312 0 0 .56472 4.902 -451.883)" font-weight="400" font-size="35.196" font-family="Arial" letter-spacing="0" word-spacing="0" fill="#0a4195">
    <tspan x="176.844" y="937.975" dy="0 0 0 0 0 -1.18" dx="0 0 0 0 0 3.73" font-size="61.521"><tspan style="-inkscape-font-specification:'sans-serif Bold'" dx="0" font-weight="700" font-family="sans-serif" letter-spacing="-3.902">binc</tspan> germany-usa</tspan>
  </text>
</svg>
