<svg xmlns="http://www.w3.org/2000/svg" viewBox="0 0 211.667 68.792"><defs/><path fill="#d4007a" d="M0 0h60.37v59.114H0z"/><path fill="#89ba17" d="M11.338 59.585H22.49v9.166H11.34z"/><path fill="#1a962b" d="M22.49 63.67h48.378v5.081H22.49z"/><path fill="#11728e" d="M22.49 59.585h48.378v4.084H22.49z"/><path fill="#00519e" d="M60.324 9.228h10.544v50.357H60.324z"/><path fill="#00827c" d="M22.49 4.381h48.378V9.23H22.49z"/><path fill="#9c0a7d" d="M11.338 9.23H22.49v50.356H11.34z"/><path fill="#006a4d" d="M22.49 9.23h37.88v50.356H22.49z"/><path d="M91.951 41.412q-1.651 0-3.08-.54-1.397-.571-2.445-1.619-1.047-1.048-1.65-2.572-.604-1.555-.604-3.524 0-1.968.667-3.492.667-1.556 1.778-2.604 1.143-1.048 2.635-1.587 1.492-.572 3.112-.572 1.46 0 2.571.476 1.143.477 2.032 1.207l-2.19 3.016q-1.112-.92-2.128-.92-1.714 0-2.698 1.206-.985 1.206-.985 3.27t.985 3.27q1.016 1.207 2.54 1.207.762 0 1.46-.318.73-.349 1.365-.825l1.842 3.048q-1.175 1.016-2.54 1.46-1.365.413-2.667.413zm7.684-.381V25.283h3.81l.317 2h.127q1.016-.952 2.222-1.65 1.207-.73 2.826-.73 2.572 0 3.715 1.682 1.175 1.683 1.175 4.667v9.78h-4.668v-9.177q0-1.714-.476-2.35-.444-.634-1.46-.634-.89 0-1.524.413-.635.38-1.397 1.11v10.637zm17.875 0V25.283h4.667v15.748zm2.317-18.066q-1.174 0-1.936-.666-.762-.699-.762-1.778 0-1.08.762-1.747.762-.666 1.936-.666 1.207 0 1.937.666.762.667.762 1.747t-.762 1.778q-.73.666-1.937.666zm25.356 3.628q-.558 0-1.047-.198-.49-.198-.85-.57-.35-.384-.56-.932-.197-.558-.197-1.257 0-.71.221-1.257.221-.559.594-.943.372-.384.861-.582.501-.198 1.048-.198.559 0 .955.198.396.198.698.465l-.489.63q-.244-.222-.524-.362-.267-.14-.605-.14-.384 0-.71.163-.326.152-.559.443-.233.29-.372.698-.128.396-.128.885 0 .49.128.885.128.396.349.687.233.28.559.442.326.151.71.151.396 0 .722-.163.337-.174.605-.407l.42.64q-.385.338-.85.536-.466.186-.979.186zm5.03 0q-.524 0-1.002-.198-.465-.198-.826-.57-.361-.384-.582-.932-.21-.558-.21-1.257 0-.71.21-1.257.22-.559.582-.943.36-.384.826-.582.478-.198 1.002-.198.523 0 .989.198.477.198.838.582.361.384.57.943.222.547.222 1.257 0 .699-.221 1.257-.21.548-.57.932-.362.372-.839.57-.466.198-.99.198zm0-.792q.36 0 .663-.15.303-.164.512-.443.222-.291.338-.687.116-.396.116-.885t-.116-.885q-.116-.407-.338-.698-.21-.291-.512-.443-.303-.163-.663-.163-.361 0-.664.163-.303.152-.524.443-.21.29-.326.698-.116.396-.116.885 0 .49.116.885.116.396.326.687.221.28.524.442.303.151.664.151zm4.109.652v-5.657h.792l.081.814h.035q.373-.407.803-.675.443-.28.955-.28.652 0 1.013.292.372.28.547.792.442-.49.885-.78.454-.303.978-.303.873 0 1.292.559.43.558.43 1.653v3.585h-.954v-3.457q0-.803-.256-1.153-.256-.36-.792-.36-.64 0-1.42.873v4.097h-.955v-3.457q0-.803-.256-1.153-.256-.36-.803-.36-.64 0-1.42.873v4.097zm12.154.14q-.396 0-.827-.186-.419-.198-.791-.536h-.035l-.082.582h-.768v-8.288h.955v2.258l-.024 1.024q.384-.337.839-.558.454-.233.93-.233.548 0 .967.21.42.197.699.581.29.373.43.909.152.523.152 1.175 0 .722-.198 1.293-.198.57-.536.966-.337.396-.78.605-.442.198-.931.198zm-.163-.803q.35 0 .64-.152.303-.163.512-.442.222-.29.338-.71.128-.42.128-.943 0-.466-.081-.85-.082-.384-.268-.652-.175-.28-.466-.43-.28-.152-.675-.152-.687 0-1.513.768v2.97q.372.325.733.465.373.128.652.128zm4.097.663v-5.657h.955v5.657zm.49-6.822q-.28 0-.478-.174-.186-.175-.186-.443 0-.279.186-.442.198-.175.478-.175.28 0 .465.175.198.163.198.442 0 .268-.198.443-.186.174-.465.174zm2.375 6.822v-5.657h.791l.082.814h.035q.407-.407.85-.675.454-.28 1.047-.28.897 0 1.304.56.42.558.42 1.653v3.585h-.955v-3.457q0-.803-.256-1.153-.257-.36-.815-.36-.443 0-.78.22-.338.222-.769.653v4.097zm7.672.14q-.71 0-1.188-.419-.466-.42-.466-1.187 0-.932.827-1.42.827-.501 2.643-.7 0-.267-.059-.523-.046-.256-.174-.454t-.361-.314q-.221-.129-.57-.129-.49 0-.92.187-.431.186-.769.419l-.372-.664q.396-.256.966-.489.57-.244 1.257-.244 1.037 0 1.502.64.466.629.466 1.688v3.47h-.792l-.081-.676h-.035q-.408.338-.873.582-.466.233-1.001.233zm.279-.768q.407 0 .768-.187.361-.197.769-.57v-1.572q-.71.094-1.2.222-.477.128-.78.302-.29.175-.43.408-.128.22-.128.489 0 .489.29.698.292.21.71.21zm5.902.768q-.454 0-.768-.14-.303-.14-.5-.384-.187-.244-.268-.594-.082-.349-.082-.768v-3.131h-.838v-.722l.885-.058.116-1.584h.803v1.584h1.525v.78h-1.525v3.143q0 .524.187.815.197.28.686.28.152 0 .326-.047.175-.047.315-.105l.186.722q-.233.081-.512.14-.268.07-.536.07zm4.192 0q-.525 0-1.002-.198-.466-.198-.827-.57-.36-.384-.582-.932-.21-.558-.21-1.257 0-.71.21-1.257.222-.559.582-.943.361-.384.827-.582.477-.198 1.001-.198.524 0 .99.198.477.198.838.582.36.384.57.943.222.547.222 1.257 0 .699-.222 1.257-.21.548-.57.932-.36.372-.838.57-.466.198-.99.198zm0-.792q.36 0 .663-.15.302-.164.512-.443.221-.291.338-.687.116-.396.116-.885t-.116-.885q-.117-.407-.338-.698-.21-.291-.512-.443-.303-.163-.664-.163-.36 0-.663.163-.303.152-.524.443-.21.29-.326.698-.117.396-.117.885 0 .49.117.885.116.396.326.687.221.28.524.442.302.151.663.151zm4.109.652v-5.657h.791l.082 1.024h.035q.29-.536.698-.85.42-.314.908-.314.338 0 .606.116l-.187.838q-.14-.046-.256-.07-.116-.023-.29-.023-.362 0-.757.291-.385.291-.676 1.013v3.632zm4.039 0v-5.657h.955v5.657zm.49-6.822q-.28 0-.478-.174-.186-.175-.186-.443 0-.279.186-.442.198-.175.477-.175.28 0 .466.175.198.163.198.442 0 .268-.198.443-.186.174-.466.174zm3.678 6.962q-.71 0-1.187-.419-.466-.42-.466-1.187 0-.932.827-1.42.826-.501 2.642-.7 0-.267-.058-.523-.047-.256-.175-.454t-.36-.314q-.222-.129-.571-.129-.489 0-.92.187-.43.186-.768.419l-.373-.664q.396-.256.967-.489.57-.244 1.257-.244 1.036 0 1.502.64.465.629.465 1.688v3.47h-.791l-.082-.676h-.035q-.407.338-.873.582-.465.233-1 .233zm.28-.768q.407 0 .768-.187.36-.197.768-.57v-1.572q-.71.094-1.199.222-.477.128-.78.302-.29.175-.43.408-.129.22-.129.489 0 .489.291.698.291.21.71.21zm5.296.768q-.547 0-.78-.326-.232-.326-.232-.954v-7.148h.954v7.217q0 .233.082.326.081.093.186.093h.082q.046 0 .128-.023l.128.722q-.093.047-.222.07-.128.023-.326.023zm-66.236 14.443v-5.775h1.397l.117.734h.046q.373-.35.815-.606.443-.267 1.036-.267.943 0 1.362.617.431.617.431 1.711v3.586h-1.71v-3.365q0-.628-.175-.861-.163-.233-.535-.233-.326 0-.56.151-.232.14-.511.408v3.9zm8.953.139q-.617 0-1.153-.198-.535-.21-.931-.593-.396-.396-.617-.955-.221-.559-.221-1.28 0-.699.233-1.258.232-.57.605-.954.384-.396.873-.606.489-.21 1.013-.21.617 0 1.07.21.467.21.77.582.314.373.465.885.151.5.151 1.094 0 .233-.023.443t-.047.314h-3.457q.116.629.512.931.407.292.99.292.617 0 1.245-.385l.57 1.036q-.442.303-.989.478-.535.174-1.06.174zm-1.28-3.655h2.083q0-.489-.221-.792-.221-.302-.745-.302-.408 0-.722.267-.303.268-.396.827zm6.169 3.655q-.943 0-1.373-.617-.42-.617-.42-1.71v-3.587h1.712v3.365q0 .629.174.861.175.233.548.233.326 0 .547-.151.22-.151.477-.49v-3.817h1.711v5.775h-1.397l-.128-.804h-.035q-.372.443-.803.699-.419.244-1.013.244zm4.587-.139v-5.775h1.397l.117 1.013h.046q.314-.593.757-.873.442-.28.885-.28.244 0 .395.036.163.023.291.081l-.279 1.479q-.163-.047-.303-.07-.14-.024-.326-.024-.326 0-.686.233-.35.233-.583.827v3.353zm6.705.139q-.546 0-1.059-.198-.512-.21-.908-.593-.384-.384-.617-.943-.233-.57-.233-1.292 0-.722.233-1.281.233-.57.617-.955.396-.384.908-.582.513-.21 1.06-.21t1.047.21q.513.198.897.582.396.385.629.955.232.559.232 1.28 0 .722-.232 1.293-.233.559-.63.943-.383.384-.896.593-.5.198-1.047.198zm0-1.385q.525 0 .792-.442.268-.443.268-1.2 0-.756-.268-1.199-.267-.442-.791-.442-.536 0-.804.442-.256.443-.256 1.2 0 .756.256 1.199.268.442.804.442zm3.691 1.246v-5.775h1.711v5.775zm.85-6.624q-.43 0-.71-.245-.28-.256-.28-.652t.28-.64q.28-.245.71-.245.442 0 .71.245.28.244.28.64t-.28.652q-.268.245-.71.245zm2.072 6.624v-5.775h1.397l.117.745h.046q.361-.36.769-.617.407-.267.977-.267.617 0 .99.256.384.244.605.71.385-.396.804-.675.43-.291 1.012-.291.932 0 1.363.628.442.617.442 1.7v3.586h-1.711v-3.365q0-.628-.175-.861-.163-.233-.536-.233-.43 0-.99.559v3.9h-1.71v-3.365q0-.628-.175-.861-.163-.233-.536-.233-.442 0-.977.559v3.9zm11.141.139q-.396 0-.722-.14-.314-.127-.535-.36-.221-.245-.35-.559-.116-.314-.116-.687 0-.908.769-1.42.768-.512 2.48-.687-.024-.384-.234-.605-.197-.233-.675-.233-.372 0-.745.14-.36.14-.78.384l-.617-1.13q.559-.337 1.164-.547.617-.21 1.304-.21 1.118 0 1.7.641.594.629.594 1.967v3.307h-1.397l-.117-.594h-.046q-.373.326-.78.535-.408.198-.897.198zm.582-1.327q.291 0 .5-.128.21-.128.443-.36v-1.014q-.908.129-1.257.373-.35.244-.35.582 0 .28.175.42.187.127.49.127zm5.868 3.644q-.513 0-.955-.093-.43-.081-.768-.256-.326-.175-.512-.454-.187-.28-.187-.664 0-.698.827-1.164v-.046q-.233-.152-.384-.385-.152-.232-.152-.593 0-.315.187-.594.186-.291.465-.49v-.046q-.302-.21-.547-.593-.233-.396-.233-.908 0-.524.198-.908.198-.396.524-.652.338-.268.768-.396.431-.128.897-.128.512 0 .896.14h2.107v1.245h-.92q.082.128.129.326.058.198.058.43 0 .501-.175.874-.174.36-.489.605-.302.233-.721.35-.408.116-.885.116-.338 0-.699-.116-.116.093-.163.186-.046.093-.046.244 0 .221.186.326.198.105.687.105h.931q1.071 0 1.63.35.57.337.57 1.117 0 .454-.232.826-.222.385-.64.652-.42.28-1.014.431-.593.163-1.338.163zm.128-5.32q.337 0 .559-.233.232-.244.232-.733 0-.454-.232-.687-.222-.245-.56-.245-.337 0-.57.233-.22.233-.22.699 0 .489.22.733.233.233.57.233zm.14 4.25q.582 0 .954-.21.373-.198.373-.501 0-.268-.233-.361-.221-.093-.652-.093h-.594q-.303 0-.489-.023-.186-.012-.326-.047-.314.28-.314.57 0 .326.35.49.348.174.93.174zm3.597-1.386v-5.775h1.711v5.775zm.85-6.624q-.431 0-.71-.245-.28-.256-.28-.652t.28-.64q.279-.245.71-.245.442 0 .71.245.28.244.28.64t-.28.652q-.268.245-.71.245zm2.071 6.624v-5.775h1.398l.116.734h.047q.372-.35.815-.606.442-.267 1.036-.267.943 0 1.362.617.43.617.43 1.711v3.586h-1.71v-3.365q0-.628-.175-.861-.163-.233-.536-.233-.326 0-.559.151-.232.14-.512.408v3.9zm8.43 2.456q-.513 0-.955-.093-.431-.081-.769-.256-.326-.175-.512-.454-.186-.28-.186-.664 0-.698.826-1.164v-.046q-.232-.152-.384-.385-.151-.232-.151-.593 0-.315.186-.594.186-.291.466-.49v-.046q-.303-.21-.547-.593-.233-.396-.233-.908 0-.524.198-.908.198-.396.524-.652.337-.268.768-.396.43-.128.896-.128.513 0 .897.14h2.107v1.245h-.92q.082.128.128.326.059.198.059.43 0 .501-.175.874-.175.36-.489.605-.303.233-.722.35-.407.116-.885.116-.337 0-.698-.116-.116.093-.163.186t-.047.244q0 .221.187.326.198.105.686.105h.932q1.07 0 1.63.35.57.337.57 1.117 0 .454-.233.826-.22.385-.64.652-.42.28-1.013.431-.594.163-1.339.163zm.127-5.32q.338 0 .56-.233.232-.244.232-.733 0-.454-.233-.687-.22-.245-.559-.245-.337 0-.57.233-.221.233-.221.699 0 .489.221.733.233.233.57.233zm.14 4.25q.582 0 .955-.21.372-.198.372-.501 0-.268-.233-.361-.22-.093-.651-.093h-.594q-.303 0-.49-.023-.185-.012-.325-.047-.314.28-.314.57 0 .326.349.49.35.174.931.174z"/><path fill="#1a171b" d="M132.964 17.831h.24v23.63h-.24z"/><path fill="#fff" stroke="#fff" stroke-width=".265" d="M36.55.01c-8.07 24.204-24.623 48.472-48.866 72.8C35.007 46.395 56.979 43.055 102.05 53.736 50.93 35.116 43.217 28.576 36.55.01z"/></svg>