<svg xmlns="http://www.w3.org/2000/svg" width="1379.251" height="252.093">
  <text transform="matrix(1.33333 0 0 1.33333 -278.67 1072.992)" style="-inkscape-font-specification:Arial-BoldMT" x="508.893" y="-734.592" font-weight="700" font-size="80.783" font-family="Arial" fill="#231f20" stroke-width="3.366">
    <tspan x="508.893 561.967 620.292 678.052 740.901 795.025 848.907 907.232 965.557 988.015 1046.34 1104.665 1127.122 1189.971" y="-734.592">EUROPEAN UNION</tspan>
  </text>
  <path d="M0 0h378.136v252.093H0z" fill="#024ea2"/>
  <path d="M181.01 54.927l7.978-5.823 7.981 5.823-3.039-9.416 8.107-5.824h-9.992l-3.057-9.53-3.058 9.54-9.982-.01 8.097 5.824zM139.719 66.02l7.978-5.823 7.975 5.823-3.032-9.416 8.1-5.824h-9.99l-3.058-9.541-3.056 9.552-9.985-.011 8.098 5.824zM117.484 71.52l-3.057 9.552-9.984-.01 8.099 5.822-3.036 9.417 7.978-5.822 7.979 5.822-3.036-9.417 8.099-5.823h-9.984zM106.4 131.719l7.974 5.822-3.03-9.416 8.098-5.822h-9.984l-3.057-9.543-3.057 9.563-9.99-.02 8.104 5.822-3.036 9.416zM120.542 163.667l-3.058-9.542-3.057 9.552-9.984-.01 8.099 5.822-3.036 9.418 7.978-5.834 7.979 5.834-3.036-9.418 8.099-5.822zM150.812 193.937l-3.057-9.531-3.052 9.541-9.99-.01 8.1 5.822-3.031 9.418 7.978-5.824 7.972 5.824-3.029-9.418 8.099-5.822zM192.052 204.906l-3.057-9.541-3.052 9.552-9.99-.011 8.099 5.823-3.03 9.417 7.978-5.824 7.972 5.824-3.035-9.417 8.104-5.823zM233.292 193.937l-3.052-9.531-3.063 9.541-9.979-.01 8.094 5.822-3.031 9.418 7.979-5.824 7.977 5.824-3.04-9.418 8.104-5.822zM263.573 163.667l-3.063-9.542-3.063 9.552-9.978-.01 8.104 5.822-3.042 9.418 7.98-5.834 7.98 5.834-3.044-9.418 8.103-5.822zM284.52 122.187h-9.989l-3.062-9.542-3.052 9.552-9.99-.01 8.104 5.822-3.033 9.418 7.97-5.834 7.978 5.834-3.03-9.418zM252.531 96.177l7.978-5.823 7.98 5.823-3.04-9.416 8.104-5.813h-9.98l-3.064-9.542-3.06 9.552-9.98-.01 8.104 5.813zM230.354 41.25l-3.052 9.552-9.99-.021 8.094 5.833-3.03 9.417 7.989-5.833 7.966 5.833-3.029-9.417 8.104-5.833h-10z" fill="#fff200"/>
  <text transform="matrix(1.33333 0 0 1.33333 -278.67 1072.992)" style="-inkscape-font-specification:ArialMT" x="509.738" y="-676.096" font-weight="400" font-size="42.599" font-family="Arial" fill="#231f20" stroke-width="2.84">
    <tspan x="509.738 538.151 561.836 576.021 599.706 623.39 647.075 670.76 694.444 706.287 737.043 760.728 784.412 793.869 817.554 841.239 864.923 874.465 886.308 917.064 940.749 962.048 985.733 995.189 1018.874 1042.559 1078.043 1101.728 1125.413 1137.255 1149.098 1175.125 1198.81 1222.495" y="-676.096">European Regional Development Fund</tspan>
  </text>
</svg>
