<svg xmlns="http://www.w3.org/2000/svg" viewBox="0 0 1379.251 252.093"><defs/><path fill="#231f20" d="M407.058 93.538V19.435h58.273v11.991h-42.759v18.618h39.55v11.991h-39.55v19.512h44.915v11.991zm101.584 1.052q-15.304 0-23.456-7.468-8.1-7.468-8.1-21.353V19.435h15.515V64.56q0 8.783 4.155 13.358 4.208 4.523 12.307 4.523 8.31 0 12.78-4.733 4.47-4.786 4.47-13.674V19.435h15.515V64.98q0 14.095-8.73 21.88-8.678 7.73-24.456 7.73zm97.858-1.052l-17.2-28.137h-18.197v28.137H555.59V19.435h37.026q13.253 0 20.458 5.733 7.205 5.68 7.205 16.356 0 7.784-4.417 13.464-4.418 5.627-11.939 7.415l20.038 31.135zm-1.842-51.383q0-10.676-13.674-10.676h-19.88v21.878h20.301q6.522 0 9.887-2.945 3.366-2.945 3.366-8.257zm99.997 13.99q0 11.57-4.576 20.353-4.576 8.783-13.096 13.464-8.52 4.628-19.88 4.628-17.46 0-27.4-10.255-9.888-10.309-9.888-28.19 0-17.83 9.887-27.822 9.888-9.992 27.506-9.992 17.62 0 27.507 10.097 9.94 10.098 9.94 27.717zm-15.83 0q0-11.991-5.68-18.776-5.68-6.837-15.937-6.837-10.413 0-16.093 6.785-5.68 6.731-5.68 18.828 0 12.201 5.785 19.249 5.838 6.995 15.883 6.995 10.414 0 16.041-6.837 5.68-6.837 5.68-19.407zm88.531-13.254q0 7.153-3.26 12.78-3.262 5.628-9.362 8.731-6.048 3.05-14.41 3.05h-18.408v26.086H716.4V19.435h33.291q13.306 0 20.459 6.153 7.205 6.101 7.205 17.303zm-15.62.263q0-11.675-13.78-11.675h-16.04v24.035h16.461q6.417 0 9.888-3.156 3.47-3.208 3.47-9.204zm26.83 50.384V19.435h58.273v11.991h-42.758v18.618h39.55v11.991h-39.55v19.512h44.914v11.991zm124.225 0l-6.574-18.933h-28.243L871.4 93.538h-15.515l27.033-74.103h18.303l26.927 74.103zM902.746 62.93l-7.31-21.3-3.367-10.781q-.841 3.05-1.577 5.47-.737 2.419-9.046 26.611zM983.3 93.538l-32.292-57.063q.946 8.31.946 13.359v43.704h-13.78V19.435H955.9l32.765 57.537q-.947-7.942-.947-14.463V19.435h13.78v74.103zm93.405 1.052q-15.305 0-23.457-7.468-8.099-7.468-8.099-21.353V19.435h15.515V64.56q0 8.783 4.155 13.358 4.207 4.523 12.307 4.523 8.31 0 12.78-4.733 4.47-4.786 4.47-13.674V19.435h15.515V64.98q0 14.095-8.73 21.88-8.678 7.73-24.456 7.73zm92.072-1.052l-32.293-57.063q.947 8.31.947 13.359v43.704h-13.78V19.435h17.725l32.765 57.537q-.947-7.942-.947-14.463V19.435h13.78v74.103zm32.641 0V19.435h15.515v74.103zm101.995-37.393q0 11.57-4.575 20.353-4.576 8.783-13.096 13.464-8.52 4.628-19.88 4.628-17.461 0-27.401-10.255-9.888-10.309-9.888-28.19 0-17.83 9.888-27.822 9.887-9.992 27.506-9.992t27.506 10.097q9.94 10.098 9.94 27.717zm-15.83 0q0-11.991-5.68-18.776-5.68-6.837-15.936-6.837-10.414 0-16.093 6.785-5.68 6.731-5.68 18.828 0 12.201 5.785 19.249 5.837 6.995 15.883 6.995 10.413 0 16.04-6.837 5.68-6.837 5.68-19.407zm72.701 37.393l-32.292-57.063q.947 8.31.947 13.359v43.704h-13.78V19.435h17.724l32.765 57.537q-.946-7.942-.946-14.463V19.435h13.78v74.103z" aria-label="EUROPEAN UNION"/><path fill="#024ea2" d="M0 0h378.136v252.093H0z"/><path fill="#fff200" d="M181.01 54.927l7.978-5.823 7.981 5.823-3.039-9.416 8.107-5.824h-9.992l-3.057-9.53-3.058 9.54-9.982-.01 8.097 5.824zM139.719 66.02l7.978-5.823 7.975 5.823-3.032-9.416 8.1-5.824h-9.99l-3.058-9.541-3.056 9.552-9.985-.011 8.098 5.824zm-22.235 5.5l-3.057 9.552-9.984-.01 8.099 5.822-3.036 9.417 7.978-5.822 7.979 5.822-3.036-9.417 8.099-5.823h-9.984zM106.4 131.719l7.974 5.822-3.03-9.416 8.098-5.822h-9.984l-3.057-9.543-3.057 9.563-9.99-.02 8.104 5.822-3.036 9.416zm14.142 31.948l-3.058-9.542-3.057 9.552-9.984-.01 8.099 5.822-3.036 9.418 7.978-5.834 7.979 5.834-3.036-9.418 8.099-5.822zm30.27 30.27l-3.057-9.531-3.052 9.541-9.99-.01 8.1 5.822-3.031 9.418 7.978-5.824 7.972 5.824-3.029-9.418 8.099-5.822zm41.24 10.969l-3.057-9.541-3.052 9.552-9.99-.011 8.099 5.823-3.03 9.417 7.978-5.824 7.972 5.824-3.035-9.417 8.104-5.823zm41.24-10.969l-3.052-9.531-3.063 9.541-9.979-.01 8.094 5.822-3.031 9.418 7.979-5.824 7.977 5.824-3.04-9.418 8.104-5.822zm30.281-30.27l-3.063-9.542-3.063 9.552-9.978-.01 8.104 5.822-3.042 9.418 7.98-5.834 7.98 5.834-3.044-9.418 8.103-5.822zm20.947-41.48h-9.989l-3.062-9.542-3.052 9.552-9.99-.01 8.104 5.822-3.033 9.418 7.97-5.834 7.978 5.834-3.03-9.418zm-31.989-26.01l7.978-5.823 7.98 5.823-3.04-9.416 8.104-5.813h-9.98l-3.064-9.542-3.06 9.552-9.98-.01 8.104 5.813zM230.354 41.25l-3.052 9.552-9.99-.021 8.094 5.833-3.03 9.417 7.989-5.833 7.966 5.833-3.029-9.417 8.104-5.833h-10z"/><path fill="#231f20" d="M405.638 171.533v-39.077h29.648v4.327h-24.35v12.535h22.685v4.271h-22.686v13.617h25.488v4.327zm41.933-30.008v19.025q0 2.968.583 4.604.582 1.636 1.858 2.358 1.276.72 3.744.72 3.605 0 5.685-2.468 2.08-2.468 2.08-6.85v-17.389h4.992v23.601q0 5.242.167 6.407h-4.715q-.028-.139-.055-.749-.028-.61-.084-1.387-.027-.804-.083-2.995h-.083q-1.72 3.106-3.994 4.41-2.246 1.276-5.602 1.276-4.936 0-7.238-2.441-2.275-2.468-2.275-8.126v-19.996zm26.81 30.008v-23.019q0-3.162-.166-6.989h4.714q.222 5.103.222 6.13h.111q1.193-3.856 2.746-5.27 1.553-1.415 4.382-1.415.998 0 2.024.278v4.576q-.998-.278-2.662-.278-3.106 0-4.743 2.69-1.636 2.663-1.636 7.655v15.642zm44.179-15.032q0 7.877-3.467 11.732-3.467 3.855-10.067 3.855-6.573 0-9.93-3.994-3.355-4.021-3.355-11.593 0-15.53 13.451-15.53 6.878 0 10.123 3.799 3.245 3.772 3.245 11.731zm-5.242 0q0-6.212-1.858-9.013-1.83-2.829-6.185-2.829-4.382 0-6.35 2.884-1.942 2.857-1.942 8.958 0 5.935 1.913 8.93 1.942 2.968 6.074 2.968 4.493 0 6.407-2.884 1.941-2.885 1.941-9.014zm36.822-.111q0 15.698-11.038 15.698-6.934 0-9.319-5.214h-.139q.111.222.111 4.714v11.732h-4.992v-35.666q0-4.631-.166-6.129h4.825q.028.111.084.804.055.666.11 2.08.084 1.415.084 1.942h.11q1.332-2.774 3.523-4.05 2.19-1.303 5.769-1.303 5.546 0 8.292 3.716 2.746 3.717 2.746 11.676zm-5.242.111q0-6.268-1.692-8.958-1.692-2.69-5.38-2.69-2.968 0-4.66 1.248-1.663 1.248-2.551 3.91-.86 2.635-.86 6.879 0 5.907 1.886 8.708t6.13 2.801q3.716 0 5.407-2.718 1.72-2.746 1.72-9.18zm15.272 1.082q0 5.158 2.135 7.96 2.135 2.8 6.24 2.8 3.245 0 5.186-1.303 1.969-1.303 2.662-3.3l4.382 1.248q-2.69 7.1-12.23 7.1-6.656 0-10.15-3.966-3.468-3.966-3.468-11.787 0-7.433 3.467-11.399 3.495-3.966 9.957-3.966 13.228 0 13.228 15.947v.666zm16.251-3.827q-.416-4.743-2.413-6.906-1.997-2.191-5.74-2.191-3.634 0-5.77 2.44-2.107 2.413-2.273 6.657zm19.155 18.332q-4.52 0-6.794-2.386-2.275-2.385-2.275-6.545 0-4.659 3.051-7.155 3.078-2.496 9.901-2.662l6.74-.111v-1.637q0-3.66-1.554-5.241-1.553-1.581-4.881-1.581-3.356 0-4.881 1.137-1.525 1.137-1.83 3.633l-5.214-.471q1.275-8.099 12.036-8.099 5.658 0 8.514 2.607 2.857 2.58 2.857 7.488v12.924q0 2.22.582 3.356.583 1.11 2.219 1.11.721 0 1.636-.195v3.107q-1.886.443-3.855.443-2.773 0-4.049-1.442-1.248-1.47-1.414-4.576h-.167q-1.913 3.439-4.465 4.881-2.524 1.415-6.157 1.415zm1.137-3.744q2.746 0 4.881-1.248 2.136-1.248 3.356-3.412 1.248-2.19 1.248-4.493v-2.468l-5.463.111q-3.522.056-5.353.721-1.803.666-2.773 2.052-.97 1.387-.97 3.634 0 2.44 1.303 3.771 1.33 1.332 3.771 1.332zm41.842 3.189v-19.025q0-2.968-.583-4.604-.582-1.636-1.858-2.358-1.276-.72-3.744-.72-3.605 0-5.685 2.468-2.08 2.468-2.08 6.85v17.389h-4.992v-23.601q0-5.242-.167-6.407h4.715q.028.139.055.749.028.61.056 1.414.055.777.11 2.968h.084q1.72-3.106 3.966-4.382 2.274-1.304 5.63-1.304 4.936 0 7.21 2.469 2.302 2.44 2.302 8.098v19.996zm56.771 0l-10.15-16.224H673v16.224h-5.297v-39.077h18.387q6.6 0 10.179 2.968 3.605 2.94 3.605 8.209 0 4.354-2.552 7.322-2.523 2.967-6.988 3.744l11.093 16.834zm-.777-27.845q0-3.41-2.33-5.186-2.301-1.803-6.656-1.803H673v14.422h12.785q4.188 0 6.462-1.941 2.302-1.97 2.302-5.492zm17.157 13.895q0 5.158 2.136 7.96 2.135 2.8 6.24 2.8 3.244 0 5.186-1.303 1.969-1.303 2.662-3.3l4.382 1.248q-2.69 7.1-12.23 7.1-6.656 0-10.15-3.966-3.468-3.966-3.468-11.787 0-7.433 3.467-11.399 3.495-3.966 9.957-3.966 13.228 0 13.228 15.947v.666zm16.252-3.827q-.416-4.743-2.413-6.906-1.997-2.191-5.74-2.191-3.634 0-5.77 2.44-2.107 2.413-2.273 6.657zm22.872 29.564q-4.91 0-7.821-1.942-2.912-1.913-3.744-5.463l5.02-.721q.499 2.08 2.19 3.19 1.72 1.136 4.493 1.136 7.46 0 7.46-8.736v-4.826h-.055q-1.414 2.885-3.883 4.355-2.468 1.442-5.768 1.442-5.52 0-8.126-3.661-2.58-3.66-2.58-11.51 0-7.96 2.774-11.73 2.801-3.8 8.486-3.8 3.19 0 5.52 1.47 2.357 1.442 3.633 4.132h.055q0-.832.111-2.884.11-2.053.222-2.247h4.742q-.166 1.498-.166 6.212v22.936q0 12.647-12.563 12.647zm7.599-26.791q0-3.66-.999-6.296-.998-2.662-2.829-4.049-1.802-1.414-4.104-1.414-3.828 0-5.575 2.773-1.747 2.774-1.747 8.986 0 6.157 1.636 8.847 1.637 2.69 5.603 2.69 2.357 0 4.187-1.386 1.83-1.387 2.83-3.966.998-2.607.998-6.185zm12.581 15.004v-30.008h4.992v30.008zm0-36.387v-4.77h4.992v4.77zm38.013 21.355q0 7.877-3.467 11.732-3.467 3.855-10.067 3.855-6.573 0-9.929-3.994-3.356-4.021-3.356-11.593 0-15.53 13.451-15.53 6.878 0 10.123 3.799 3.245 3.772 3.245 11.731zm-5.242 0q0-6.212-1.858-9.013-1.83-2.829-6.184-2.829-4.382 0-6.352 2.884-1.94 2.857-1.94 8.958 0 5.935 1.913 8.93 1.941 2.968 6.073 2.968 4.493 0 6.407-2.884 1.941-2.885 1.941-9.014zm30.499 15.032v-19.025q0-2.968-.583-4.604-.582-1.636-1.858-2.358-1.276-.72-3.744-.72-3.605 0-5.685 2.468-2.08 2.468-2.08 6.85v17.389h-4.993v-23.601q0-5.242-.166-6.407h4.715q.028.139.055.749.028.61.056 1.414.055.777.11 2.968h.084q1.72-3.106 3.966-4.382 2.274-1.304 5.63-1.304 4.936 0 7.21 2.469 2.302 2.44 2.302 8.098v19.996zm20.18.555q-4.52 0-6.794-2.386-2.274-2.385-2.274-6.545 0-4.659 3.05-7.155 3.08-2.496 9.902-2.662l6.739-.111v-1.637q0-3.66-1.553-5.241-1.553-1.581-4.881-1.581-3.356 0-4.881 1.137-1.526 1.137-1.83 3.633l-5.215-.471q1.276-8.099 12.037-8.099 5.657 0 8.514 2.607 2.856 2.58 2.856 7.488v12.924q0 2.22.583 3.356.582 1.11 2.219 1.11.72 0 1.636-.195v3.107q-1.886.443-3.855.443-2.773 0-4.05-1.442-1.247-1.47-1.414-4.576h-.166q-1.914 3.439-4.465 4.881-2.524 1.415-6.157 1.415zm1.138-3.744q2.746 0 4.881-1.248 2.136-1.248 3.356-3.412 1.248-2.19 1.248-4.493v-2.468l-5.464.111q-3.522.056-5.352.721-1.803.666-2.774 2.052-.97 1.387-.97 3.634 0 2.44 1.303 3.771 1.331 1.332 3.772 1.332zm22.787 3.189v-41.157h4.992v41.157zm62.986-19.941q0 6.046-2.357 10.595-2.358 4.52-6.684 6.933-4.326 2.413-9.984 2.413H907.73v-39.077h12.924q9.929 0 15.31 4.992 5.407 4.965 5.407 14.144zm-5.325 0q0-7.266-3.993-11.065-3.966-3.828-11.51-3.828h-7.516v30.59h8.709q4.298 0 7.543-1.885 3.273-1.886 5.02-5.436 1.747-3.55 1.747-8.376zm15.687 5.991q0 5.158 2.136 7.96 2.135 2.8 6.24 2.8 3.245 0 5.186-1.303 1.97-1.303 2.663-3.3l4.382 1.248q-2.69 7.1-12.231 7.1-6.656 0-10.15-3.966-3.467-3.966-3.467-11.787 0-7.433 3.467-11.399 3.494-3.966 9.956-3.966 13.229 0 13.229 15.947v.666zm16.252-3.827q-.416-4.743-2.412-6.906-1.997-2.191-5.741-2.191-3.633 0-5.769 2.44-2.108 2.413-2.274 6.657zm24.675 17.777h-5.908l-10.899-30.008h5.325l6.6 19.525q.361 1.109 1.914 6.572l.97-3.244 1.082-3.273 6.823-19.58h5.297zm19.052-13.95q0 5.158 2.135 7.96 2.136 2.8 6.24 2.8 3.245 0 5.187-1.303 1.969-1.303 2.662-3.3l4.382 1.248q-2.69 7.1-12.23 7.1-6.657 0-10.151-3.966-3.467-3.966-3.467-11.787 0-7.433 3.467-11.399 3.494-3.966 9.956-3.966 13.23 0 13.23 15.947v.666zm16.252-3.827q-.416-4.743-2.413-6.906-1.997-2.191-5.74-2.191-3.634 0-5.77 2.44-2.107 2.413-2.274 6.657zm11.501 17.777v-41.157h4.992v41.157zm37.984-15.032q0 7.877-3.467 11.732-3.466 3.855-10.067 3.855-6.573 0-9.929-3.994-3.356-4.021-3.356-11.593 0-15.53 13.451-15.53 6.878 0 10.123 3.799 3.245 3.772 3.245 11.731zm-5.242 0q0-6.212-1.858-9.013-1.83-2.829-6.184-2.829-4.382 0-6.352 2.884-1.94 2.857-1.94 8.958 0 5.935 1.913 8.93 1.941 2.968 6.073 2.968 4.493 0 6.407-2.884 1.941-2.885 1.941-9.014zm36.822-.111q0 15.698-11.038 15.698-6.934 0-9.319-5.214h-.138q.11.222.11 4.714v11.732h-4.992v-35.666q0-4.631-.166-6.129h4.826q.028.111.082.804.056.666.11 2.08.084 1.415.084 1.942h.11q1.331-2.774 3.522-4.05 2.191-1.303 5.769-1.303 5.547 0 8.292 3.716 2.746 3.717 2.746 11.676zm-5.242.111q0-6.268-1.692-8.958-1.691-2.69-5.38-2.69-2.967 0-4.66 1.248-1.663 1.248-2.55 3.91-.86 2.635-.86 6.879 0 5.907 1.885 8.708 1.886 2.801 6.13 2.801 3.716 0 5.408-2.718 1.72-2.746 1.72-9.18zm28.918 15.032v-19.025q0-4.355-1.193-6.019-1.192-1.664-4.299-1.664-3.189 0-5.047 2.441-1.858 2.44-1.858 6.878v17.389h-4.965v-23.601q0-5.242-.166-6.407h4.715q.028.139.056.749t.056 1.414q.056.777.11 2.968h.083q1.608-3.19 3.688-4.438 2.08-1.248 5.076-1.248 3.41 0 5.38 1.36 1.997 1.358 2.773 4.326h.083q1.553-3.023 3.744-4.354 2.219-1.332 5.353-1.332 4.548 0 6.6 2.469 2.08 2.468 2.08 8.098v19.996h-4.936v-19.025q0-4.355-1.193-6.019-1.192-1.664-4.299-1.664-3.272 0-5.102 2.441-1.803 2.413-1.803 6.878v17.389zm33.666-13.95q0 5.158 2.136 7.96 2.136 2.8 6.24 2.8 3.245 0 5.186-1.303 1.97-1.303 2.663-3.3l4.382 1.248q-2.69 7.1-12.231 7.1-6.656 0-10.15-3.966-3.467-3.966-3.467-11.787 0-7.433 3.467-11.399 3.494-3.966 9.956-3.966 13.229 0 13.229 15.947v.666zm16.252-3.827q-.416-4.743-2.412-6.906-1.997-2.191-5.741-2.191-3.633 0-5.769 2.44-2.108 2.413-2.274 6.657zm30.554 17.777v-19.025q0-2.968-.582-4.604-.582-1.636-1.858-2.358-1.276-.72-3.744-.72-3.606 0-5.686 2.468t-2.08 6.85v17.389h-4.992v-23.601q0-5.242-.166-6.407h4.715q.028.139.056.749t.056 1.414q.056.777.11 2.968h.083q1.72-3.106 3.966-4.382 2.274-1.304 5.63-1.304 4.936 0 7.21 2.469 2.302 2.44 2.302 8.098v19.996zm24.064-.222q-2.468.666-5.047.666-5.99 0-5.99-6.795v-20.024h-3.467v-3.633h3.66l1.47-6.711h3.328v6.711h5.547v3.633h-5.547V164.1q0 2.164.694 3.051.72.86 2.468.86.998 0 2.884-.389zm26.172-34.528v14.532h21.799v4.382h-21.799v15.836h-5.297v-39.077h27.762v4.327zm33.455 4.742v19.025q0 2.968.582 4.604.583 1.636 1.858 2.358 1.276.72 3.744.72 3.606 0 5.686-2.468t2.08-6.85v-17.389h4.992v23.601q0 5.242.166 6.407h-4.715q-.028-.139-.056-.749t-.082-1.387q-.028-.804-.083-2.995h-.083q-1.719 3.106-3.993 4.41-2.246 1.276-5.602 1.276-4.937 0-7.239-2.441-2.274-2.468-2.274-8.126v-19.996zm45.752 30.008v-19.025q0-2.968-.583-4.604-.582-1.636-1.858-2.358-1.276-.72-3.744-.72-3.605 0-5.685 2.468-2.08 2.468-2.08 6.85v17.389h-4.992v-23.601q0-5.242-.167-6.407h4.715q.028.139.056.749t.056 1.414q.056.777.11 2.968h.083q1.72-3.106 3.966-4.382 2.274-1.304 5.63-1.304 4.937 0 7.21 2.469 2.303 2.44 2.303 8.098v19.996zm31.469-4.826q-1.387 2.885-3.689 4.133-2.274 1.248-5.658 1.248-5.685 0-8.375-3.828-2.663-3.827-2.663-11.592 0-15.698 11.038-15.698 3.412 0 5.686 1.248t3.66 3.966h.057l-.056-3.355v-12.453h4.992v34.972q0 4.687.166 6.185h-4.77q-.083-.444-.194-2.052-.083-1.609-.083-2.774zm-15.143-10.206q0 6.296 1.664 9.014 1.664 2.718 5.408 2.718 4.243 0 6.157-2.94 1.914-2.94 1.914-9.125 0-5.962-1.914-8.736-1.914-2.773-6.101-2.773-3.772 0-5.464 2.801-1.664 2.773-1.664 9.041z" aria-label="European Regional Development Fund"/></svg>