<svg xmlns="http://www.w3.org/2000/svg" viewBox="0 0 155.908 45.301"><path fill="#023d6b" d="M94.288 36.93h-.64a.23.23 0 00-.23.24v2.81c0 .83-.42 1.28-1.06 1.28-.64 0-1-.45-1-1.28v-2.81a.25.25 0 00-.25-.24h-.63a.24.24 0 00-.24.24v2.68c0 1.45.59 2.35 1.81 2.35a1.51 1.51 0 001.38-.66v.32a.23.23 0 00.23.24h.64a.24.24 0 00.24-.24v-4.69a.24.24 0 00-.25-.24zm-8-.11a1.58 1.58 0 00-1.43.7v-2.41a.25.25 0 00-.25-.25h-.63a.24.24 0 00-.24.25v6.75a.23.23 0 00.24.24h.67a.24.24 0 00.25-.24v-2.8c0-.83.45-1.29 1.1-1.29.65 0 1.09.46 1.09 1.29v2.8a.24.24 0 00.24.24h.63a.24.24 0 00.25-.24v-2.68c-.01-1.41-.62-2.36-1.89-2.36zm1.71-28.84h-2.49a.93.93 0 00-.93.93v11.88c0 3.09-1.5 4.41-3.63 4.41s-3.57-1.32-3.57-4.41V8.91a.93.93 0 00-.93-.93h-2.49a.93.93 0 00-.93.93v11.88c0 5.25 3.18 8.49 7.92 8.49s8-3.24 8-8.49V8.91a.93.93 0 00-.92-.93zm-17.46 29h-.13a1.57 1.57 0 00-1.38.77v-.53a.23.23 0 00-.23-.24h-.58a.24.24 0 00-.24.24v4.69a.23.23 0 00.24.24h.62a.25.25 0 00.25-.24v-2.39c0-1 .44-1.49 1.31-1.49h.14a.24.24 0 00.25-.23v-.63a.25.25 0 00-.22-.24zm9.41.84a1.07 1.07 0 011.08.92.17.17 0 00.17.15h.72a.15.15 0 00.15-.17.32.32 0 000-.13 2.11 2.11 0 00-2.1-1.72 2.19 2.19 0 00-2.2 2.36v.67a2.18 2.18 0 002.2 2.35 2.07 2.07 0 002.1-1.66 1.28 1.28 0 000-.17.16.16 0 00-.17-.16h-.72a.15.15 0 00-.16.14 1 1 0 01-1.07.91c-.64 0-1.11-.45-1.11-1.28v-.92c.03-.88.5-1.34 1.14-1.34zm-6.63.52c0-.43.39-.57.84-.57a.88.88 0 011 .64c0 .11.07.16.19.16h.65a.17.17 0 00.17-.18.44.44 0 000-.13 1.81 1.81 0 00-1.93-1.39c-1 0-2 .45-2 1.52 0 2.1 2.94 1.23 2.94 2.31 0 .48-.36.66-1 .66a1 1 0 01-1.06-.69c0-.1-.07-.17-.18-.17h-.64a.19.19 0 00-.19.17.31.31 0 000 .14 1.89 1.89 0 002 1.44c1.07 0 2-.4 2-1.57.17-2.12-2.76-1.26-2.76-2.39zm4.66-32.14a2.16 2.16 0 10-2.16-2.16 2 2 0 002.19 2.11zm6.3 0a2.16 2.16 0 10-2.16-2.16 2 2 0 002.19 2.11zm-15.88 2.76a.93.93 0 00-.93-.93h-2.49a.93.93 0 00-.93.93v13.51a2.54 2.54 0 11-5.07 0v-.27a.93.93 0 00-.93-.93h-2.4a.93.93 0 00-.93.93v.21a6.84 6.84 0 1013.68 0zM16.268 19.3L23.648.13a22.7 22.7 0 00-22.61 12.2.5.5 0 010 .13l-.32.83c-2.24 5.79 1.18 10.08 4.5 11.36a8.55 8.55 0 0011.05-5.35zm47.76 17.52a2.2 2.2 0 00-2.22 2.36v.67a2.23 2.23 0 104.46 0v-.67a2.2 2.2 0 00-2.24-2.36zm1.12 3.16c0 .83-.46 1.28-1.12 1.28-.66 0-1.1-.45-1.1-1.28v-.92c0-.83.47-1.29 1.1-1.29.63 0 1.12.46 1.12 1.29zm-35.5-15.71c-4.4 11.5-15 15.81-24.71 14.15a22.67 22.67 0 1031.77-32.33zm31 10.59h-4a.24.24 0 00-.23.25v6.75a.23.23 0 00.23.24h.63a.24.24 0 00.25-.24v-2.65h2.5a.24.24 0 00.24-.24v-.55a.25.25 0 00-.24-.25h-2.5V35.9h3.12a.25.25 0 00.25-.24v-.55a.25.25 0 00-.25-.25zm85.45 2.07h-.63a.24.24 0 00-.24.24v2.81c0 .83-.42 1.28-1.06 1.28-.64 0-1-.45-1-1.28v-2.81a.25.25 0 00-.25-.24h-.63a.24.24 0 00-.24.24v2.68c0 1.45.59 2.35 1.81 2.35a1.51 1.51 0 001.38-.66v.32a.23.23 0 00.24.24h.63a.24.24 0 00.24-.24v-4.69a.24.24 0 00-.28-.24zm-10.59-15.45h-3.09c-.6 0-.72.48-.78.93a3.13 3.13 0 01-3.42 2.79c-2.19 0-4-1.62-4-4.71v-4c0-3.09 1.77-4.77 4-4.77a3.27 3.27 0 013.43 2.92c.09.6.42.81.75.81h3.06a.63.63 0 00.66-.75 7.55 7.55 0 00-7.9-7.06c-4.8 0-8.31 3.54-8.31 8.79v4c0 5.25 3.51 8.79 8.31 8.79a7.71 7.71 0 008-7.08.68.68 0 00-.71-.66zm4.6 15.45h-.14a1.54 1.54 0 00-1.37.77v-.53a.24.24 0 00-.24-.24h-.58a.24.24 0 00-.24.24v4.69a.23.23 0 00.24.24h.62a.25.25 0 00.25-.24v-2.34c0-1 .44-1.49 1.31-1.49h.15a.23.23 0 00.24-.23v-.63a.24.24 0 00-.24-.24zm-4.69 0h-1.05v-1.1a.24.24 0 00-.24-.25h-.61a.24.24 0 00-.23.25v.45c0 .53-.21.65-.72.65a.24.24 0 00-.24.24v.47a.24.24 0 00.24.24h.71v2.56c0 1.07.36 1.66 1.6 1.66h.54a.24.24 0 00.24-.24v-.53a.23.23 0 00-.24-.23h-.36c-.62 0-.69-.22-.69-.81v-2.38h1.05a.24.24 0 00.23-.27v-.5a.24.24 0 00-.23-.21zm18.62-.11a1.81 1.81 0 00-1.61.84 1.64 1.64 0 00-1.52-.84 1.47 1.47 0 00-1.34.7v-.35a.25.25 0 00-.25-.24h-.67a.24.24 0 00-.24.24v4.69a.23.23 0 00.24.24h.63a.25.25 0 00.25-.24v-2.64c0-.83.16-1.45 1-1.45s1 .51 1 1.45v2.64a.24.24 0 00.24.24h.64a.24.24 0 00.24-.24v-2.64c0-.89.21-1.45 1.05-1.45.84 0 1 .56 1 1.45v2.64a.23.23 0 00.24.24h.71a.25.25 0 00.25-.24v-2.53c-.04-1.49-.34-2.51-1.86-2.51zm-25 0a1.57 1.57 0 00-1.42.71v-.36a.24.24 0 00-.24-.24h-.64a.23.23 0 00-.23.24v4.69a.23.23 0 00.23.24h.64a.24.24 0 00.24-.24v-2.8c0-.83.46-1.29 1.1-1.29.64 0 1.1.46 1.1 1.29v2.8a.23.23 0 00.24.24h.59a.24.24 0 00.24-.24v-2.68c.02-1.41-.6-2.36-1.87-2.36zm26-28.84h-2.49a.93.93 0 00-.93.93v7.5h-7.17v-7.5a.93.93 0 00-.93-.93h-2.49a.93.93 0 00-.93.93v19.14a.93.93 0 00.93.93h2.49a.93.93 0 00.93-.93v-7.56h7.11v7.56a.93.93 0 00.93.93h2.49a.93.93 0 00.93-.93V8.91a.93.93 0 00-.93-.93zm-55.82 28.84a1.57 1.57 0 00-1.42.71v-.36a.24.24 0 00-.24-.24h-.63a.24.24 0 00-.24.24v4.69a.23.23 0 00.24.24h.63a.24.24 0 00.24-.24v-2.8c0-.83.46-1.29 1.1-1.29.64 0 1.1.46 1.1 1.29v2.8a.23.23 0 00.24.24h.63a.25.25 0 00.25-.24v-2.68c0-1.41-.62-2.36-1.9-2.36zm6.66 4.28h-1.34c-.35 0-.5-.11-.5-.37a.36.36 0 01.41-.37h1a1.73 1.73 0 002-1.76v-2.12a.24.24 0 00-.24-.24h-.56a.24.24 0 00-.24.24v.67a1.87 1.87 0 00-1.06-.33h-.26a1.77 1.77 0 00-2 1.78 1.4 1.4 0 00.66 1.26.83.83 0 00-.7.85.82.82 0 00.47.79 1.26 1.26 0 00-.7 1.19 1.61 1.61 0 001.83 1.58h1.2a1.6 1.6 0 100-3.17zm-.75-3.41h.28a.91.91 0 110 1.81h-.28a.87.87 0 01-1-.9.88.88 0 011-.91zm.54 5.72h-.82c-.7 0-.95-.28-.95-.72 0-.44.25-.75.95-.75h.8c.71 0 1 .29 1 .75s-.27.72-1 .72zm4.6-5.12c0-.43.39-.57.84-.57a.89.89 0 011 .64c0 .11.07.16.18.16h.66a.17.17 0 00.17-.18.44.44 0 000-.13 1.81 1.81 0 00-1.93-1.39c-1 0-2 .45-2 1.52 0 2.1 2.94 1.23 2.94 2.31 0 .48-.36.66-.95.66a1 1 0 01-1.06-.69c0-.1-.07-.17-.18-.17h-.65a.18.18 0 00-.18.17.31.31 0 000 .14 1.88 1.88 0 002.05 1.44c1.07 0 2-.4 2-1.57.04-2.07-2.89-1.21-2.89-2.34zm-3.11-10.24v-2.22a.93.93 0 00-.93-.93h-8v-16a.93.93 0 00-.93-.93h-2.49a.93.93 0 00-.93.93v19.15a.93.93 0 00.93.93h11.4a.93.93 0 00.95-.93zm8.25 0V8.91a.93.93 0 00-.93-.93h-2.49a.93.93 0 00-.93.93v19.14a.93.93 0 00.93.93h2.49a.93.93 0 00.93-.93zm3 8.88h-3.41a.25.25 0 00-.25.24v.47a.24.24 0 00.25.24h2.35l-2.41 3.08a.56.56 0 00-.19.46v.42a.24.24 0 00.25.24h3.41a.23.23 0 00.24-.24v-.47a.24.24 0 00-.24-.25h-2.39l2.48-3.07a.53.53 0 00.15-.41v-.5a.24.24 0 00-.2-.21zm4-.11a2.21 2.21 0 00-2.24 2.36v.67a2.21 2.21 0 002.25 2.35 2.12 2.12 0 002-1.37.64.64 0 000-.17.17.17 0 00-.17-.18h-.67a.3.3 0 00-.24.15 1 1 0 01-1 .63 1.14 1.14 0 01-1.13-1.23v-.14h3.07a.25.25 0 00.37-.25v-.48a2.2 2.2 0 00-2.19-2.34zm1.12 2.28h-2.24v-.12a1.12 1.12 0 112.24 0z"/><path fill="none" d="M-45.352-45.361h246.61v136.06h-246.61z"/></svg>
