<svg xmlns="http://www.w3.org/2000/svg" viewBox="0 0 442.808 250"><defs><clipPath id="a" clipPathUnits="userSpaceOnUse"><path d="M0 191h372.096V0H0z"/></clipPath></defs><g clip-path="url(#a)" transform="matrix(1.25 0 0 -1.25 -10.785 255.591)"><path fill="#393536" d="M174.67 110.531c0 7.506-2.252 12.385-4.13 14.824-1.687 2.064-4.314 3.753-8.818 3.753-3.941 0-7.32-1.313-10.133-4.69-4.128-5.256-5.254-13.887-5.254-21.205 0-6.006 1.502-12.01 4.69-14.825 2.628-2.627 5.443-4.128 10.697-4.128 9.758 0 12.948 12.947 12.948 26.271m-25.708-66.239c-5.254-1.5-11.447-7.505-11.447-15.01 0-5.255 3.19-10.884 6.756-12.95 5.817-3.377 11.072-4.502 21.955-4.502 9.757 0 25.894 5.63 25.519 16.7 0 10.884-7.881 17.638-25.894 16.888l-16.89-1.126zm-18.765-33.964c-6.755 3.941-9.381 8.818-9.381 14.824 0 10.133 10.507 17.264 19.515 21.016v1.127c-8.258 1.875-12.762 7.881-12.762 13.884 0 10.133 10.51 16.514 16.139 19.141v.375c-7.131 4.13-16.14 12.01-16.14 27.96 0 12.384 10.51 27.397 34.716 27.397 16.139 0 23.645-8.633 25.52-10.697 4.504 3.565 11.072 6.944 15.95 6.944 6.944 0 10.134-4.129 9.759-9.008 0-3.752-3.38-7.506-7.506-7.506-2.815 0-4.691 1.502-5.817 2.627-1.501 1.127-3.002 2.252-4.503 2.252-1.127 0-3.003 0-4.504-1.125 1.125-2.252 2.252-6.38 2.252-12.386 0-7.317-2.252-14.823-7.882-20.828-6.005-6.38-15.012-8.632-23.831-8.632-4.13 0-6.755 0-10.696.75-3.377-1.5-8.068-4.879-8.068-9.382 0-7.506 7.13-7.506 23.643-6.756 14.26.751 23.643-.374 31.9-7.129 7.506-5.629 9.383-12.76 9.383-18.389 0-8.258-3.38-15.387-11.635-21.768-6.005-4.879-19.141-10.884-36.78-10.508-9.006 0-21.015 1.125-29.272 5.817m98.136 98.702c0 5.63-1.127 9.382-9.758 11.634-1.687.375-1.875.938-1.875 1.69v2.063c0 .751.375 1.126 1.313 1.501 2.627 1.127 21.205 7.693 24.396 9.007 1.875.751 3.377 1.126 4.5 1.126 1.129 0 1.692-.75 1.502-2.252-.373-3.002-.373-15.01-.373-30.586V82.947c0-7.13 0-13.886.373-16.138.375-3.377 1.127-4.878 3.004-4.878h7.506c1.5 0 1.875-.376 1.875-1.314v-3.754c0-1.125-.375-1.875-1.5-1.875-1.502 0-10.133.563-22.707.563-10.883 0-18.014-.563-20.266-.563-.937 0-1.5.375-1.5 1.875v3.566c0 1.126.75 1.502 1.877 1.502h8.256c1.877 0 2.815.75 3.002 3.752.188 5.63.375 11.635.375 16.89zm62.861 25.52c1.502.75 2.625 1.502 3.75 1.502 1.127 0 1.88-.751 2.252-2.253l1.502-9.757h1.127c2.252 2.626 5.63 5.63 9.383 7.506 4.502 2.627 9.382 4.504 15.011 4.504 6.38 0 12.385-1.127 16.514-4.504 8.254-6.005 10.32-11.634 10.32-19.328V85.198c0-6.004-.187-14.26-.187-18.013 0-4.128 2.252-5.253 4.502-5.253h5.254c1.69 0 2.252-.376 2.252-1.315V56.3c0-.938-.377-1.313-1.5-1.313-1.502 0-7.13.563-20.268.563-11.258 0-17.264-.563-18.389-.563s-1.5.75-1.5 2.252v3.19c0 1.126.375 1.502 2.252 1.502h3.752c1.502 0 3.002 1.125 3.377 4.503.563 4.878.752 10.133.752 17.637v21.58c0 7.506-.377 12.385-4.88 16.138-3.753 3.378-7.13 3.378-11.258 3.378-3 0-7.506-.751-12.01-4.88-3.002-3.001-3.94-8.255-3.94-13.321V68.31c0-4.128.938-6.38 3.563-6.38h3.381c1.5 0 1.875-.375 1.875-1.69v-3.378c0-1.125-.375-1.875-1.498-1.875-1.129 0-6.383.563-17.64.563-11.636 0-17.642-.563-18.767-.563-.75 0-1.125.75-1.125 1.875v3.567c0 1.126.375 1.502 1.875 1.502h3.754c2.25 0 4.88.75 4.88 3.752v42.22c0 5.629-3.378 8.63-7.882 10.884l-1.502.75c-1.125.376-1.502 1.126-1.502 1.876v1.502c0 .75.752 1.5 1.88 1.877z"/><path fill="#2854a4" d="M249.116 142.951a47.201 47.201 0 0120.247-4.539 47.184 47.184 0 0120.248 4.54 47.204 47.204 0 01-20.247 4.537 47.234 47.234 0 01-20.248-4.538"/><path fill="#2854a4" d="M249.116 142.951a47.18 47.18 0 0117.525 11.108 47.162 47.162 0 0111.108 17.527 47.185 47.185 0 01-17.524-11.108 47.202 47.202 0 01-11.109-17.527M109.05 127.258a8.467 8.467 0 01-2.477 6.276l-33.984 33.984v6.076h1.69a5.431 5.431 0 010 10.863H42.898a5.431 5.431 0 110-10.863h1.69v-6.59l-33.47-33.47a8.484 8.484 0 01-2.445-6.87 8.518 8.518 0 01-.045-.865V64.29a8.33 8.33 0 018.33-8.33h83.9a8.33 8.33 0 018.329 8.33v61.508c0 .499-.052.984-.136 1.459"/><path fill="#2854a4" d="M109.05 127.258a8.467 8.467 0 01-2.477 6.276l-33.984 33.984v6.076h1.69a5.431 5.431 0 010 10.863H42.898a5.431 5.431 0 110-10.863h1.69v-6.59l-33.47-33.47a8.484 8.484 0 01-2.445-6.87 8.518 8.518 0 01-.045-.865V64.29a8.33 8.33 0 018.33-8.33h83.9a8.33 8.33 0 018.329 8.33v61.508c0 .499-.052.984-.136 1.459"/><path fill="#fff" d="M73.02 131.689a36.718 36.718 0 0115.753 3.53 36.707 36.707 0 01-15.753 3.53 36.76 36.76 0 01-11.747-1.923 36.784 36.784 0 019.835 7.035 36.73 36.73 0 018.644 13.635 36.73 36.73 0 01-13.635-8.644 36.705 36.705 0 01-8.6-13.524c-.082-.038-.167-.07-.249-.11a36.715 36.715 0 0115.752-3.53m-43.08-3.825a36.73 36.73 0 01-15.753-3.53 36.7 36.7 0 0115.752-3.53c4.223 0 8.278.712 12.056 2.02a36.77 36.77 0 01-10.035-7.133 36.706 36.706 0 01-8.64-13.634 36.704 36.704 0 0113.633 8.642 36.754 36.754 0 018.624 13.585c.037.017.077.032.114.05a36.721 36.721 0 01-15.752 3.53m.206 24.693L54.71 127.99a8.617 8.617 0 004.531 1.29 8.661 8.661 0 008.66-8.66c0-1.61-.447-3.11-1.212-4.402l11.72-11.284a8.6 8.6 0 004.271 1.132 8.66 8.66 0 008.66-8.66 8.66 8.66 0 00-17.319 0 8.61 8.61 0 00.938 3.908l-11.958 11.514a8.53 8.53 0 00-1.26-.498V80.844c3.74-.958 6.507-4.34 6.507-8.38a8.66 8.66 0 00-8.66-8.659 8.66 8.66 0 00-8.66 8.66c0 3.784 2.432 6.993 5.814 8.171v31.694a8.66 8.66 0 00-6.16 8.29c0 1.296.293 2.521.803 3.626l-24.78 24.78"/><path fill="#2854a4" d="M248.073 154.999c0-7.171-5.813-12.984-12.984-12.984-7.17 0-12.985 5.813-12.985 12.984s5.814 12.984 12.985 12.984c7.171 0 12.984-5.813 12.984-12.984"/></g></svg>