<svg xmlns="http://www.w3.org/2000/svg" id="Ebene_1" x="0" y="0" version="1.1" xml:space="preserve" viewBox="0 0 723.934 177.616"><style id="style14011" type="text/css">.st0{fill:#1d1d1b}.st0,.st2,.st3,.st4,.st6,.st7{fill-rule:evenodd;clip-rule:evenodd}.st2{fill:#eabc00}.st3{fill:#00121e}.st4{fill:#fff}.st6{fill:#e20613}.st7{fill:#159934}.st8{fill:none;stroke:#1d1d1b;stroke-width:.6406;stroke-miterlimit:3.864}</style><path id="path14013" d="M190.334 45.87c-3.2 0-6.2-.4-8.7-1l.3-5.7c2.5.9 5.9 1.6 8.9 1.6 5.2 0 9.5-2.1 9.5-7.5 0-9.8-19.5-5.9-19.5-19.7 0-7.1 5.7-12.3 15.4-12.3 2.6 0 5.3.3 7.8.8l-.3 5.3c-2.5-.7-5.3-1.2-7.8-1.2-5.9 0-9 2.7-9 6.7 0 9.4 19.6 6 19.6 19.5 0 7.9-6.1 13.5-16.2 13.5" class="st0"/><path id="path14015" d="M244.334 45.27l-3.6-10.1h-18.5l-3.6 10.2h-6l15.8-43.4h6.6l15.9 43.4h-6.6zm-10.9-30.3c-.8-2.2-1.4-4.2-1.9-6.5h-.1c-.5 2.1-1.2 4.4-2 6.6l-5.6 15.4h15.3z" class="st0"/><path id="path14017" d="M276.334 45.87c-13.9 0-19.7-8.9-19.7-21.1 0-13.2 6.6-23.2 21.2-23.2 3.3 0 6.7.5 9.8 1.3l-.6 5.4c-3.3-1-6.6-1.5-9.8-1.5-9.9 0-14.1 7.6-14.1 17.1 0 10.7 4.6 16.8 14.7 16.8 3.2 0 7.1-.9 9.7-2.2l.6 5.3c-3.4 1.2-7.5 2.1-11.8 2.1" class="st0"/><path id="polygon14019" d="M138.1 217.6h22.1v-18.3h5.9v43.3h-5.9v-19.9h-22.1v19.9h-5.9v-43.3h5.9z" class="st0" transform="translate(167.734 -197.33)"/><path id="path14021" d="M354.934 45.87c-3.2 0-6.2-.4-8.7-1l.3-5.7c2.5.9 5.9 1.6 8.9 1.6 5.2 0 9.5-2.1 9.5-7.5 0-9.8-19.5-5.9-19.5-19.7 0-7.1 5.7-12.3 15.4-12.3 2.6 0 5.3.3 7.8.8l-.3 5.3c-2.5-.7-5.3-1.2-7.8-1.2-5.9 0-9 2.7-9 6.7 0 9.4 19.6 6 19.6 19.5 0 7.9-6.1 13.5-16.2 13.5" class="st0"/><path id="polygon14023" d="M236.5 222.7h-15.6v15h16.4v4.9H215v-43.3h22.3v4.8h-16.4v13.8h15.6z" class="st0" transform="translate(167.734 -197.33)"/><path id="path14025" d="M444.534 45.27l-16.5-26.9c-2-3.2-3.5-6.1-4.9-9 .3 4.6.5 15 .5 21.9v13.9h-5.9V1.77h7.8l16.1 26c1.9 3.1 3.7 6.4 5.3 9.5-.3-5.3-.4-16-.4-23.2V1.77h5.7v43.4h-7.7z" class="st0"/><path id="rect14027" d="M463.534 26.869h15.2v4.6h-15.2z" class="st0"/><path id="path14029" d="M516.834 45.27l-3.6-10.2h-18.4l-3.6 10.2h-6l15.8-43.4h6.6l15.9 43.4zm-10.8-30.3c-.8-2.2-1.4-4.2-1.9-6.5h-.1c-.5 2.1-1.2 4.4-2 6.6l-5.6 15.4h15.3z" class="st0"/><path id="path14031" d="M559.134 45.27l-16.5-26.9c-2-3.2-3.5-6.1-4.9-9 .3 4.6.5 15 .5 21.9v13.9h-5.8V1.77h7.8l16.1 26c1.9 3.1 3.7 6.4 5.3 9.5-.3-5.3-.5-16-.5-23.2V1.77h5.7v43.4h-7.7z" class="st0"/><path id="polygon14033" d="M419.9 217.6H442v-18.3h6v43.3h-6v-19.9h-22.1v19.9H414v-43.3h5.9z" class="st0" transform="translate(167.734 -197.33)"/><path id="path14035" d="M656.334 45.27l-3.6-10.2h-18.4l-3.6 10.2h-6l15.8-43.4h6.6l15.9 43.4zm-10.9-30.3c-.8-2.2-1.4-4.2-1.9-6.5h-.1c-.5 2.1-1.2 4.4-2 6.6l-5.6 15.4h15.3z" class="st0"/><path id="polygon14037" d="M504 199.3h5.9v38.3h15.6v5H504z" class="st0" transform="translate(167.734 -197.33)"/><path id="polygon14039" d="M555.3 204.2h-12.6v38.4h-5.9v-38.4h-12.4v-4.9h30.9z" class="st0" transform="translate(167.734 -197.33)"/><path id="line14041" fill="none" stroke="#e0b800" stroke-miterlimit="3.864" stroke-width="3.795" d="M177.534 69.769h546.4"/><path id="rect14043" stroke-width="1.206" d="M.337.138h146.457v97.96H.337z" class="st2"/><path id="rect14045" stroke-width="1.206" d="M.337 11.357h146.457v9.651H.337z" class="st3"/><path id="rect14047" stroke-width="1.206" d="M.337 30.539h146.457v9.651H.337z" class="st3"/><path id="rect14049" stroke-width="1.206" d="M.337 49.841h146.457v9.651H.337z" class="st3"/><path id="rect14051" stroke-width="1.206" d="M.337 69.144h146.457v9.651H.337z" class="st3"/><path id="rect14053" stroke-width="1.206" d="M.337 88.446h146.457v9.651H.337z" class="st3"/><path id="path14055" stroke-width="1.206" d="M146.793 104.25v-6.153H.338v6.153c0 40.414 32.814 73.228 73.228 73.228 40.414 0 73.229-32.814 73.229-73.228" class="st4"/><path id="path14057" fill="none" stroke="#fff" stroke-miterlimit="3.864" stroke-width=".228" d="M73.565 177.478c-40.414 0-73.228-32.814-73.228-73.228V.138h146.457V104.25c0 40.414-32.815 73.228-73.229 73.228z"/><path id="rect14059" stroke-width="1.206" d="M101.312.138h45.481v49.704h-45.481z" class="st3"/><path id="rect14061" stroke-width="1.206" d="M101.674.138h45.119v49.704h-45.119z" class="st4"/><path id="path14063" stroke-width="1.206" d="M128.818 17.63c-2.533 0-2.171-2.05-1.81-3.619.363-1.568.845-2.533.966-3.86.12-.845-.242-1.207-.724-1.327-.724-.242-1.086-.242-1.69-.483-.844-.241-1.447-.724-2.291-.603l-.603.482c-.242 0-.724-.12-1.327 0-.724 0-1.448.242-1.81.724a2.318 2.318 0 00-.483 1.448c-.12.483-.24.724-.24 1.327.482-.241 1.085-.724 1.567-.724l.965.241c-.361.242-1.327.724-2.292.845-.603.12-.965.12-1.689 0l-.603.241c-.241.483 1.568 1.207 2.654 1.086l1.086-.241-.483.603-.24.362c.482-.12 1.085.12 2.17-.845l.966-.965c-.12.965-.12 1.448-.483 2.292-.362.965-.603 1.69-1.086 2.172-.603.603-1.81 1.086-2.654 1.086-1.689 0-3.257-1.81-3.257-3.499 0-1.81 1.207-3.86 1.69-4.946.24-.603.482-1.69 0-1.93-.966-.604-2.896-.604-4.223-.604-2.534 0-3.258.121-5.67.121-1.448 0-2.293 0-3.62.12.121 2.052 1.207 3.258 3.137 3.62 1.327.241 3.257.241 4.705.241l1.81.241-.724.242c-1.448.12-2.413.12-4.223.12h-4.584c0 .845.12 1.569.845 2.293.965 1.085 2.774 1.327 3.86 1.327h2.895c.604 0 1.448.12 1.448.361 0 .242-.603.121-1.206.242h-8.204c0 .844.12 1.81.845 2.533.844.965 2.412 1.207 3.498 1.207 1.69.12 2.896-.121 4.705 0h.362l-.362.12c-1.689.242-2.895.483-4.825.603-1.69.242-2.655.362-4.343.483.361 1.206.844 2.05 2.05 2.654.845.483 1.93.603 3.258.483 1.93-.121 3.619-.483 5.67-.724h.603l-.362.12c-1.689.483-3.257.966-5.308 1.569-2.292.603-3.62.965-5.911 1.568 1.93 2.051 2.895 2.654 3.86 2.654 1.327.12 3.137-.844 4.946-1.689a78.787 78.787 0 013.378-1.568l.241-.12-.24.24c-1.81 1.086-3.258 1.81-5.309 3.137-1.327.845-2.05 1.327-3.378 2.172 1.327.482 2.413 1.085 3.981 1.085.965 0 1.69-.12 2.413-.723.724-.604 1.448-1.207 2.292-2.051.845-.845 1.207-1.207 2.172-2.051l.362-.241-.242.361c-1.327 1.69-2.292 2.775-3.86 4.705 1.689 0 2.654 0 3.98-.603 1.69-.724 2.534-1.568 3.5-2.895v.362c-.121.482-1.328 1.568-2.172 2.171-1.206.845-2.413 1.569-3.62 2.292l.604.242.483.362c-.604.482-1.086 1.085-1.69 1.568-.603.362-1.206.603-1.93.603h-1.327l-.724-.12-.24.24-.483.121c-.483.242-.724.483-.845.966l.483 1.085.362-.603.362-.12.361.12.483-.12.603-.121c-.482.362-.965.603-1.327.844l-.362.362.12.362-.12 1.207c.12.482.603.844 1.327.965l-.12-.724.12-.362.362-.12.483-.604.603-.724-.362 1.207c-.12.362-.241.482-.241.965l.241.241c0 .724.241 1.086.724 1.448l1.81.241-.845-.724-.241-.603.362-.362c.12-.603.12-.844.24-1.448l.242-.844.603.844.483.242.241-.121.242.362-.121.603c.603.12 1.086-.12 1.327-.724.241-.603-.12-1.327-.362-1.568l-.12-.603-.966-.724v-.603l.724-.845.965-.724.483.483.482.724.724-1.086c.362-.482.603-.724.965-1.206l1.086-.965.483.723v.845c-.362 1.327-1.207 3.378-2.051 4.825-1.207 2.051-2.654 3.62-4.223 5.43.604.24 1.448.361 2.292.24.845 0 1.93-.12 2.896-.361.482.603.724.844 1.327 1.327.724.603 1.086.965 1.81 1.447.723-.482 1.206-.844 1.81-1.447.602-.483.844-.724 1.326-1.327.965.24 1.93.362 2.895.362.966 0 1.81 0 2.293-.242-1.569-1.81-3.016-3.498-4.223-5.429-.844-1.447-1.81-3.498-2.05-4.825v-.845l.482-.723 1.086.965c.362.482.603.724.965 1.206l.724 1.086.482-.724.483-.483.965.724.724.845v.603l-.965.724-.121.603c-.241.241-.603.965-.362 1.568.12.603.724.724 1.327.724l-.12-.603.24-.362.242.12.483-.24.603-.845.241.844c.12.604.12.845.241 1.448l.362.362-.241.603-.845.724 1.81-.241c.483-.242.724-.724.724-1.448l.241-.241c-.12-.483-.12-.603-.241-.965l-.362-1.207.603.724.483.603.362.12.12.363-.12.724c.603-.12 1.206-.483 1.327-.965l-.12-1.207.12-.362-.362-.362c-.362-.24-.845-.603-1.327-.844l.603.12.603.121.362-.12.362.12.362.603.482-1.085c0-.483-.361-.845-.844-.966l-.483-.12-.24-.241-.725.12a2.49 2.49 0 01-1.327 0c-.724-.12-1.327-.241-1.93-.603s-1.086-.965-1.689-1.568l.483-.362.603-.242c-1.207-.723-2.534-1.447-3.62-2.292-.844-.603-1.93-1.689-2.17-2.171l.12-.362c.965 1.327 1.81 2.171 3.498 2.895 1.448.603 2.292.603 3.981.603-1.689-1.93-2.533-3.016-3.86-4.705l-.241-.361.362.24c.965.845 1.327 1.328 2.171 2.052.845.844 1.568 1.447 2.292 2.05.724.604 1.448.724 2.413.724 1.448 0 2.654-.603 3.981-1.085-1.327-.845-2.05-1.327-3.378-2.172-2.05-1.327-3.498-2.05-5.308-3.136l-.241-.242.241.12c1.086.483 2.172.966 3.378 1.57 1.81.844 3.62 1.688 4.946 1.688.965-.12 1.93-.603 3.86-2.654-2.291-.603-3.618-.844-5.91-1.568-2.051-.603-3.74-1.086-5.309-1.569l-.362-.12h.604c2.05.241 3.74.603 5.67.724 1.327.12 2.412 0 3.257-.483 1.086-.603 1.689-1.448 2.05-2.654-1.688-.12-2.653-.241-4.342-.483-1.93-.24-3.137-.482-4.826-.603l-.362-.12h.362c1.81-.121 3.016 0 4.705 0 1.086 0 2.654-.362 3.499-1.207.723-.724.844-1.689.844-2.533-2.292 0-5.55.12-8.203 0-.483 0-1.207 0-1.207-.242 0-.12.845-.24 1.448-.361h2.895c1.086 0 2.896-.242 3.86-1.327.604-.724.725-1.448.845-2.293h-4.584c-1.69 0-2.654 0-4.223-.12l-.723-.242 1.81-.24c1.447-.121 3.377 0 4.704-.242 1.93-.362 3.016-1.568 3.137-3.62-1.448 0-2.292 0-3.62-.12-2.412 0-3.136-.12-5.67-.12-1.326 0-3.257 0-4.222.603-.482.24-.241 1.447 0 1.93.483 1.086 1.568 3.136 1.69 4.946-1.449 1.448-3.017 3.137-4.706 3.257" class="st3"/><path id="path14065" stroke-width="1.206" d="M123.872 47.187c-.603-.362-.845-.603-1.448-.965-.724-.603-1.086-.965-1.568-1.689-.965.241-1.568.362-2.654.362-.845 0-1.327 0-2.172-.12 1.448-1.69 2.413-2.775 3.62-4.706 1.206-2.05 1.93-3.86 2.412-5.428l-.12-.845-.724-.844c-.603.482-.965.844-1.448 1.327-.482.603-.844.965-1.206 1.568-.362-.603-.603-.844-1.086-1.327-.483-.483-.724-.724-1.327-1.086 1.086-.724 1.81-1.086 3.016-1.93.844-.603 1.81-1.448 2.292-2.172v-.965l-.482.121c-.483.603-1.207 1.568-2.051 2.171-1.327.845-3.137 1.328-4.585 1.207a51.304 51.304 0 002.172-2.654c.603-.724.965-1.207 1.568-2.051l.242-.483h-.604c-1.206.965-1.93 1.81-3.016 2.896-1.327 1.206-2.412 2.413-3.98 2.413-1.328 0-2.414-.483-3.379-.845 1.81-1.206 2.896-1.81 4.705-2.895a97.37 97.37 0 004.223-2.534l.12-.362h-.603c-.965.362-2.05.965-3.378 1.569-1.81.844-3.498 1.81-5.067 1.81-1.206.12-2.654-1.448-3.498-2.293 2.413-.603 3.74-.844 6.152-1.568 1.93-.483 2.896-.845 4.826-1.448l.483-.482-.604-.242c-1.447.242-5.067.845-6.152.845-2.172 0-4.102-.483-4.705-2.654 1.81-.242 2.895-.362 4.705-.604 1.689-.24 2.533-.361 4.343-.603l.362-.362-.483-.241c-2.171-.12-3.62.12-5.55-.12-1.93-.121-3.377-1.207-3.498-3.137 1.81 0 2.775.12 4.584.12h4.223l.482-.362-.362-.482c-1.206-.241-1.447-.241-2.412-.241-1.448 0-2.775 0-3.74-.242-1.327-.362-2.172-1.085-2.292-2.654h4.463c1.569 0 3.016-.12 4.464-.12l.603-.483-.965-.482c-1.81 0-2.05 0-3.378-.121-1.448 0-2.895-.12-3.74-.724-1.085-.844-1.206-1.327-1.447-2.413 1.568 0 2.895-.12 4.463-.12 3.378 0 6.394-.362 8.324.362.604.24.483.723.362 1.206-.362 1.206-1.085 2.413-1.689 4.343-.24.724-.361 1.81.121 2.775.483 1.327 1.93 2.412 3.378 2.412 1.086 0 2.292-.482 3.016-1.447.844-1.086 1.448-3.62 1.448-4.826 0-1.206-.604-1.93-.604-2.775 0-.482.242-.965.724-.965.724 0 1.327.483 2.172.724.724.12 1.206.362 1.689.483l.362 1.086c-.362 1.327-.724 2.292-1.086 3.86-.12.844-.241 1.206-.241 1.93.12.603.24 1.207.844 1.569l1.448.361c1.327 0 2.775-1.085 3.378-2.412.362-.965.241-2.051.12-2.775-.482-1.81-1.327-3.016-1.689-4.343-.12-.483-.24-.965.362-1.206 1.93-.604 4.947-.362 8.324-.362 1.448 0 2.896.12 4.464.12-.12 1.086-.362 1.69-1.448 2.413-.844.603-2.292.724-3.74.724-1.326 0-1.688.12-3.377.12l-.965.483.603.483c1.327.12 2.775.12 4.463.12h4.464c-.12 1.569-.965 2.292-2.292 2.654-.965.242-2.292.242-3.74.242-.965 0-1.327 0-2.413.24l-.362.483.483.362h4.222c1.81 0 2.775 0 4.585-.12-.12 1.93-1.69 3.016-3.499 3.136-1.93.242-3.378-.12-5.55.121l-.482.241.362.362c1.689.242 2.654.362 4.343.603 1.81.242 2.895.362 4.705.604-.603 2.171-2.533 2.654-4.705 2.654-1.086 0-4.584-.603-6.153-.845l-.603.242.483.482c2.05.603 3.016.965 4.825 1.448 2.413.603 3.74.965 6.153 1.568-.844.845-2.292 2.292-3.498 2.292-1.569-.12-3.258-.965-5.067-1.81-1.327-.603-2.413-1.085-3.378-1.568h-.603l.12.362c1.327.845 2.654 1.569 4.223 2.534 1.81 1.085 2.895 1.81 4.705 2.895-1.086.483-2.051.845-3.378.845-1.569 0-2.654-1.207-3.982-2.413-1.085-1.086-1.81-1.81-3.016-2.896h-.603l.242.483c.603.844.965 1.206 1.689 2.05.844 1.087 1.327 1.57 2.171 2.655-1.448 0-3.257-.362-4.584-1.207-.965-.603-1.69-1.568-2.051-2.171l-.483-.12.12.964c.363.724 1.328 1.569 2.172 2.172 1.086.844 1.93 1.327 3.016 1.93-.603.362-.844.603-1.327 1.086-.482.483-.723.724-1.085 1.327-.362-.603-.724-.965-1.207-1.568-.482-.604-.844-.965-1.447-1.327l-.724.844-.12.845a20.898 20.898 0 002.412 5.428c1.206 2.051 2.292 3.016 3.62 4.705-.845.121-1.328.121-2.172.121-1.086 0-1.69-.12-2.654-.362-.604.724-.966 1.086-1.569 1.689-1.086.362-1.448.603-1.93.965" class="st3"/><path id="path14067" stroke-width="1.206" d="M116.272 39.587l.24-.362.363-.362.362.844c0 .604-.242.604-.483.724v-.482z" class="st4"/><path id="path14069" stroke-width="1.206" d="M113.618 41.638h-.362l-.362-.12.241.602c.241.242.483.362.965.483l-.241-.362z" class="st4"/><path id="polygon14071" d="M313.6 49.3l-.1.5.5.7-.1-.3.1-.4-.2-.2z" class="st4" transform="translate(-267.725 -19.889) scale(1.2064)"/><path id="polygon14073" d="M312.8 48l.3-.4.4-.1v-.6l-.5.3z" class="st4" transform="translate(-267.725 -19.889) scale(1.2064)"/><path id="path14075" stroke-width="1.206" d="M116.754 34.279l.362.24.362.363-1.086.844-.724.845v.844l.604.483.482.362-.482.603-.483.724c-.362-.483-.603-.724-.724-.965l-.603.12-.241.965c-.12.604-.12.966-.242 1.327h-.603l-.603-.24.362-.966c.12-.482.12-.603.241-1.086l-.12-.482-.604.241-.603.724-.482.482-.483-.361-.482-.604.844-.603.965-.603.12-.362-.482-.12-.844.12-.603.12v-.482l.12-.603 1.086.12c.724 0 1.086 0 1.689-.12s.844-.241 1.327-.603l.965-.845z" class="st2"/><path id="path14077" stroke-width="1.206" d="M131.352 39.587l-.242-.362-.362-.362-.362.844c0 .604.242.604.483.724v-.482z" class="st4"/><path id="path14079" stroke-width="1.206" d="M134.006 41.638h.362l.362-.12-.242.602c-.241.242-.482.362-.965.483l.241-.362z" class="st4"/><path id="polygon14081" d="M335.5 49.3l.1.5-.5.7.1-.3-.1-.4.2-.2z" class="st4" transform="translate(-267.725 -19.889) scale(1.2064)"/><path id="polygon14083" d="M336.3 48l-.3-.4-.3-.1v-.3l-.1-.3.6.3z" class="st4" transform="translate(-267.725 -19.889) scale(1.2064)"/><path id="path14085" stroke-width="1.206" d="M130.99 34.279l-.362.24-.362.363 1.086.844.723.845v.844l-.603.483-.482.362.482.603.483.724c.362-.483.603-.724.724-.965l.603.12.241.965c.12.604.12.966.241 1.327h.604l.603-.24-.362-.966c-.12-.482-.12-.603-.241-1.086l.12-.482.603.241.604.724.482.482.483-.361.482-.604-.844-.603-.965-.603-.12-.362.482-.12.844.12.603.12v-.482l-.12-.603-1.086.12c-.724 0-1.086 0-1.689-.12-.483-.12-.845-.241-1.327-.603l-.965-.845z" class="st2"/><path id="path14087" stroke-width="1.206" d="M117.237 12.202a4.57 4.57 0 001.81 0c1.085-.121 1.809-.483 2.653-1.086l.121.12c-.603.966-1.327 1.448-2.413 1.569-.724.12-1.93-.362-2.171-.603" class="st6"/><path id="path14089" stroke-width="1.206" d="M120.735 13.287l.724-.965c.362-.482.603-.844.965-1.327l-.362-.12c-.603-.242-.965-.604-1.568-.483-.483 0-.844.12-1.206.483l.24-1.086.363-.845c.241-.362.724-.482 1.327-.482h1.327l-.12.603c0 .603.12.844.361 1.448l.241.965-.844.844c-.483.483-.965.845-1.448.965" class="st2"/><path id="polygon14091" d="M326.1 24.5l-.2.3h-.4l-.5.2-.5-.6-.2-.4.3-.1.4.1-.1.2.2.4.3-.1v-.2h.3z" class="st4" transform="translate(-267.725 -19.889) scale(1.2064)"/><path id="path14093" stroke-width="1.206" d="M12.763 145.147h7.359v-5.43h10.375v5.43h8.927v-5.43h10.375v5.43h8.927v-5.43h10.375v5.43h8.807v-5.43h10.375v5.43h8.807v-5.43h10.375v5.43h8.807v-5.43h10.375v5.43h7.359c-13.15 19.543-35.468 32.331-60.803 32.331-24.972 0-47.29-12.908-60.44-32.331" class="st3"/><path id="rect14095" stroke-width="1.206" d="M64.276 145.871h8.807v4.584h-8.807z" class="st6"/><path id="rect14097" stroke-width="1.206" d="M54.625 145.871h8.807v4.584h-8.807z" class="st6"/><path id="rect14099" stroke-width="1.206" d="M44.973 145.871h8.807v4.584h-8.807z" class="st6"/><path id="rect14101" stroke-width="1.206" d="M35.322 145.871h8.807v4.584h-8.807z" class="st6"/><path id="rect14103" stroke-width="1.206" d="M25.792 145.871h8.807v4.584h-8.807z" class="st6"/><path id="polygon14105" d="M242.6 141.2h-6.8l-.5-.6v-3.2h7.3z" class="st6" transform="translate(-267.725 -19.889) scale(1.2064)"/><path id="path14107" stroke-width="1.206" d="M13.245 145.87h2.051v2.775c-.724-.844-1.327-1.81-2.05-2.774" class="st6"/><path id="rect14109" stroke-width="1.206" d="M73.927 145.871h8.807v4.584h-8.807z" class="st6"/><path id="rect14111" stroke-width="1.206" d="M83.578 145.871h8.807v4.584h-8.807z" class="st6"/><path id="rect14113" stroke-width="1.206" d="M93.229 145.871h8.927v4.584h-8.927z" class="st6"/><path id="rect14115" stroke-width="1.206" d="M102.881 145.871h8.807v4.584h-8.807z" class="st6"/><path id="rect14117" stroke-width="1.206" d="M112.532 145.871h8.927v4.584h-8.927z" class="st6"/><path id="polygon14119" d="M330.5 140.5l-.5.7h-6.9v-3.8h7.4z" class="st6" transform="translate(-267.725 -19.889) scale(1.2064)"/><path id="path14121" stroke-width="1.206" d="M131.714 145.87h2.05a23.55 23.55 0 01-2.05 2.775z" class="st6"/><path id="rect14123" stroke-width="1.206" d="M59.45 151.299h8.807v4.584H59.45z" class="st6"/><path id="rect14125" stroke-width="1.206" d="M49.799 151.299h8.807v4.584h-8.807z" class="st6"/><path id="rect14127" stroke-width="1.206" d="M40.148 151.299h8.927v4.584h-8.927z" class="st6"/><path id="rect14129" stroke-width="1.206" d="M30.497 151.299h8.807v4.584h-8.807z" class="st6"/><path id="polygon14131" d="M246.6 145.7h-6.8l-.5-.6v-3.2h7.3z" class="st6" transform="translate(-267.725 -19.889) scale(1.2064)"/><path id="path14133" stroke-width="1.206" d="M17.347 151.3h2.775v3.136c-.965-1.086-1.81-2.172-2.775-3.137" class="st6"/><path id="rect14135" stroke-width="1.206" d="M78.753 151.299h8.807v4.584h-8.807z" class="st6"/><path id="rect14137" stroke-width="1.206" d="M88.404 151.299h8.927v4.584h-8.927z" class="st6"/><path id="rect14139" stroke-width="1.206" d="M98.055 151.299h8.927v4.584h-8.927z" class="st6"/><path id="rect14141" stroke-width="1.206" d="M107.706 151.299h8.807v4.584h-8.807z" class="st6"/><path id="polygon14143" d="M326.5 145.1l-.6.6h-6.7v-3.8h7.3z" class="st6" transform="translate(-267.725 -19.889) scale(1.2064)"/><path id="path14145" stroke-width="1.206" d="M126.888 151.3h2.775c-.845 1.085-1.81 2.05-2.775 3.136z" class="st6"/><path id="rect14147" stroke-width="1.206" d="M54.625 156.607h8.807v4.584h-8.807z" class="st6"/><path id="rect14149" stroke-width="1.206" d="M44.973 156.607h8.807v4.584h-8.807z" class="st6"/><path id="rect14151" stroke-width="1.206" d="M35.322 156.607h8.807v4.584h-8.807z" class="st6"/><path id="path14153" stroke-width="1.206" d="M25.792 156.607h8.806v4.585h-6.997c-.603-.483-1.206-1.086-1.93-1.569v-3.016z" class="st6"/><path id="path14155" stroke-width="1.206" d="M22.414 156.607h2.533v2.413c-.844-.724-1.689-1.568-2.533-2.413" class="st6"/><path id="rect14157" stroke-width="1.206" d="M83.578 156.607h8.807v4.584h-8.807z" class="st6"/><path id="rect14159" stroke-width="1.206" d="M93.229 156.607h8.927v4.584h-8.927z" class="st6"/><path id="rect14161" stroke-width="1.206" d="M102.881 156.607h8.807v4.584h-8.807z" class="st6"/><path id="path14163" stroke-width="1.206" d="M112.532 156.607h8.927v3.016c-.603.483-1.206 1.086-1.93 1.569h-6.997z" class="st6"/><path id="path14165" stroke-width="1.206" d="M122.062 156.607h2.534c-.845.845-1.69 1.569-2.534 2.413z" class="st6"/><path id="rect14167" stroke-width="1.206" d="M59.45 162.036h8.807v4.584H59.45z" class="st6"/><path id="rect14169" stroke-width="1.206" d="M49.799 162.036h8.807v4.584h-8.807z" class="st6"/><path id="rect14171" stroke-width="1.206" d="M40.148 162.036h8.927v4.584h-8.927z" class="st6"/><path id="path14173" stroke-width="1.206" d="M30.497 162.036h8.806v4.585h-4.222c-1.568-.966-3.137-2.051-4.705-3.137v-1.448z" class="st6"/><path id="polygon14175" d="M246.6 151.6l-1-.8h1z" class="st6" transform="translate(-267.725 -19.889) scale(1.2064)"/><path id="rect14177" stroke-width="1.206" d="M78.753 162.036h8.807v4.584h-8.807z" class="st6"/><path id="rect14179" stroke-width="1.206" d="M88.404 162.036h8.927v4.584h-8.927z" class="st6"/><path id="rect14181" stroke-width="1.206" d="M98.055 162.036h8.927v4.584h-8.927z" class="st6"/><path id="path14183" stroke-width="1.206" d="M107.706 162.036h8.807v1.448c-1.568 1.086-3.137 2.171-4.705 3.137h-4.222v-4.585z" class="st6"/><path id="polygon14185" d="M319.2 151.6v-.8h1z" class="st6" transform="translate(-267.725 -19.889) scale(1.2064)"/><path id="rect14187" stroke-width="1.206" d="M54.625 167.465h8.807v4.584h-8.807z" class="st6"/><path id="polygon14189" d="M266.6 159.1H260l-.8-.3v-3.5h7.4z" class="st6" transform="translate(-267.725 -19.889) scale(1.2064)"/><path id="path14191" stroke-width="1.206" d="M36.529 167.465h7.72v3.981c-2.653-1.206-5.187-2.533-7.72-3.98" class="st6"/><path id="rect14193" stroke-width="1.206" d="M83.578 167.465h8.807v4.584h-8.807z" class="st6"/><path id="polygon14195" d="M306.5 158.8l-.7.3h-6.6v-3.8h7.3z" class="st6" transform="translate(-267.725 -19.889) scale(1.2064)"/><path id="path14197" stroke-width="1.206" d="M102.88 167.465h7.722c-2.534 1.448-5.067 2.775-7.721 3.981z" class="st6"/><path id="path14199" stroke-width="1.206" d="M59.45 172.894h8.807v4.464c-3.016-.242-5.911-.604-8.807-1.207z" class="st6"/><path id="path14201" stroke-width="1.206" d="M49.8 172.894h8.806v3.136a67.395 67.395 0 01-8.807-2.412z" class="st6"/><path id="path14203" stroke-width="1.206" d="M78.753 172.894h8.806v3.257c-2.895.603-5.911.965-8.806 1.207z" class="st6"/><path id="path14205" stroke-width="1.206" d="M88.404 172.894h8.927v.724c-2.895.965-5.79 1.81-8.927 2.412z" class="st6"/><path id="rect14207" stroke-width="1.206" d="M59.45 140.442h8.807v4.584H59.45z" class="st6"/><path id="rect14209" stroke-width="1.206" d="M40.148 140.442h8.927v4.584h-8.927z" class="st6"/><path id="rect14211" stroke-width="1.206" d="M20.966 140.442h8.807v4.584h-8.807z" class="st6"/><path id="rect14213" stroke-width="1.206" d="M78.753 140.442h8.807v4.584h-8.807z" class="st6"/><path id="rect14215" stroke-width="1.206" d="M98.055 140.442h8.927v4.584h-8.927z" class="st6"/><path id="rect14217" stroke-width="1.206" d="M117.357 140.442h8.927v4.584h-8.927z" class="st6"/><path id="rect14219" stroke-width="1.206" d="M69.101 151.299h8.807v4.584h-8.807z" class="st6"/><path id="path14221" stroke-width="1.206" d="M73.565 150.455c5.79 0 10.375 4.705 10.375 10.375v15.924a73.703 73.703 0 01-10.375.724c-3.498 0-6.997-.241-10.375-.724v-15.803c0-5.791 4.584-10.496 10.375-10.496" class="st3"/><path id="rect14223" stroke-width="1.206" d="M63.914 162.036h3.137v4.584h-3.137z" class="st6"/><path id="rect14225" stroke-width="1.206" d="M63.914 167.465h3.137v4.584h-3.137z" class="st6"/><path id="path14227" stroke-width="1.206" d="M63.914 172.894h3.137v4.343c-1.086-.12-2.051-.241-3.137-.362z" class="st6"/><path id="path14229" stroke-width="1.206" d="M65.241 156.004c.844-1.568 2.171-2.774 3.74-3.619l1.447 3.137c-.965.482-1.688 1.206-2.292 2.171z" class="st6"/><path id="path14231" stroke-width="1.206" d="M67.654 158.296l-2.896-1.568c-.603 1.207-.965 2.654-.965 4.223v.361h3.137c0-1.085.362-2.05.724-3.016" class="st6"/><path id="rect14233" stroke-width="1.206" d="M80.08 162.036h3.137v4.584H80.08z" class="st6"/><path id="rect14235" stroke-width="1.206" d="M80.08 167.465h3.137v4.584H80.08z" class="st6"/><path id="path14237" stroke-width="1.206" d="M80.08 172.894h3.136v3.981c-.965.12-2.05.241-3.136.362z" class="st6"/><path id="path14239" stroke-width="1.206" d="M81.89 156.004c-.845-1.568-2.172-2.774-3.74-3.619l-1.448 3.137c.965.482 1.689 1.206 2.292 2.171z" class="st6"/><path id="path14241" stroke-width="1.206" d="M79.356 158.296l2.895-1.568c.603 1.207.965 2.654.965 4.223v.361H80.08a6.54 6.54 0 00-.724-3.016" class="st6"/><path id="path14243" stroke-width="1.206" d="M73.565 155.522c3.137 0 5.79 2.533 5.79 5.79v15.925c-1.93.12-3.86.241-5.79.241-1.93 0-3.86-.12-5.79-.241v-15.925c0-3.257 2.533-5.79 5.79-5.79" class="st4"/><path id="path14245" stroke-width="1.206" d="M73.565 151.3c-1.327 0-2.654.24-3.86.844l1.447 3.136c.724-.361 1.569-.482 2.413-.482.845 0 1.69.12 2.413.482l1.448-3.136c-1.207-.603-2.534-.845-3.86-.845" class="st6"/><path id="path14247" stroke-width="1.206" d="M12.4.138a3.336 3.336 0 001.328 1.568c1.81 1.206 4.102.724 5.308-1.086l.362-.603H12.4zm134.394 94.581c-.845-1.689-1.086-3.74-.121-6.032-.12.603 0 1.207.12 1.81V78.795l-.482.603c-.965 1.327-.845 3.137 0 4.343l-.724 1.206c.603-1.689 0-3.498-1.448-4.584-1.81-1.206-4.222-.724-5.308 1.086-1.206 1.81-.724 4.102 1.086 5.308 1.206.844 2.775.844 4.102.12-3.016 2.896-6.515 2.534-8.928.966-2.292-1.569-3.619-3.86-3.377-6.877 1.568.483 3.377 0 4.463-1.447 1.207-1.81.724-4.102-1.086-5.309-1.81-1.206-4.101-.723-5.308 1.086-.965 1.448-.844 3.378.242 4.585-2.775 1.327-5.309.965-7.6-.604-2.414-1.568-3.982-4.825-2.414-8.686-.24 1.448.362 2.896 1.69 3.74 1.809 1.206 4.101.724 5.308-1.086 1.206-1.81.723-4.101-1.086-5.308-1.569-1.086-3.499-.844-4.826.362l.845-1.206c1.568.362 3.136-.242 4.101-1.569 1.207-1.81.724-4.101-1.085-5.308-1.81-1.206-4.102-.724-5.308 1.086-.966 1.327-.845 3.137 0 4.343l-.724 1.206c.603-1.689 0-3.498-1.448-4.584-1.81-1.206-4.102-.724-5.308 1.086-1.207 1.81-.724 4.102 1.086 5.308 1.206.845 2.774.845 4.101.12-3.016 2.896-6.514 2.534-8.927.966-2.292-1.569-3.62-3.86-3.378-6.877 1.568.483 3.378 0 4.343-1.447 1.207-1.81.724-4.102-1.086-5.309-1.81-1.206-4.101-.723-5.308 1.086-.965 1.448-.844 3.378.242 4.585-2.775 1.327-5.309.965-7.6-.604-2.414-1.568-3.982-4.825-2.414-8.686-.24 1.448.362 2.896 1.69 3.74 1.809 1.207 4.222.724 5.308-1.086 1.206-1.81.723-4.101-1.086-5.308-1.569-1.086-3.499-.844-4.826.362l.845-1.206c1.568.362 3.136-.242 4.101-1.569 1.207-1.81.724-4.101-1.085-5.308-1.81-1.206-4.102-.724-5.309 1.086-.965 1.327-.844 3.137 0 4.343l-.723 1.206c.603-1.689 0-3.498-1.448-4.584-1.81-1.206-4.102-.724-5.308 1.086-1.207 1.81-.724 4.102 1.086 5.308 1.206.845 2.774.845 4.101.12-3.016 2.896-6.514 2.534-8.927.966-2.292-1.569-3.62-3.74-3.378-6.877 1.568.483 3.378 0 4.343-1.568 1.207-1.81.724-4.102-1.086-5.308-1.81-1.207-4.101-.724-5.308 1.086-.965 1.447-.844 3.378.241 4.584-2.774 1.327-5.308.965-7.6-.603-2.413-1.569-3.98-4.826-2.413-8.686-.24 1.447.362 2.895 1.69 3.74 1.809 1.206 4.101.723 5.307-1.086 1.207-1.81.724-4.102-1.085-5.308-1.569-1.086-3.499-.845-4.826.362l.845-1.207c1.568.362 3.136-.241 4.101-1.568 1.207-1.81.724-4.102-1.085-5.308-1.81-1.207-4.102-.724-5.309 1.085-.965 1.327-.844 3.137.121 4.343l-.724 1.207c.603-1.69 0-3.499-1.447-4.584-1.81-1.207-4.102-.724-5.309 1.085-1.206 1.81-.723 4.102 1.086 5.308 1.207.845 2.775.845 4.102.121-3.016 2.895-6.515 2.534-8.927.965-2.293-1.568-3.62-3.86-3.378-6.876 1.568.482 3.378 0 4.343-1.569 1.206-1.81.724-4.101-1.086-5.308-1.81-1.206-4.102-.724-5.308 1.086-.965 1.448-.845 3.378.241 4.584-2.775 1.327-5.308.965-7.6-.603-2.413-1.568-3.981-4.825-2.413-8.686-.241 1.448.362 2.895 1.689 3.74 1.81 1.206 4.102.724 5.308-1.086 1.206-1.81.724-4.102-1.086-5.308-1.568-1.086-3.498-.845-4.825.362l.844-1.207c1.569.362 3.137-.24 4.102-1.568 1.206-1.81.724-4.102-1.086-5.308-1.81-1.206-4.102-.724-5.308 1.086-.965 1.327-.844 3.136 0 4.343l-.724 1.206c.603-1.689 0-3.498-1.447-4.584-1.81-1.206-4.102-.724-5.309 1.086-1.206 1.81-.723 4.101 1.086 5.308 1.207.844 2.775.844 4.102.12-3.016 2.896-6.515 2.534-8.927.966-2.293-1.569-3.62-3.74-3.378-6.877 1.568.483 3.378 0 4.343-1.568 1.206-1.81.723-4.102-1.086-5.308C26.274.258 23.982.74 22.776 2.55c-.965 1.448-.845 3.378.241 4.585-2.775 1.327-5.308.965-7.6-.603-1.93-1.328-3.258-3.62-3.016-6.515H1.06v22.439l111.23 75.641h34.502z" class="st3"/><path id="path14249" stroke-width="1.206" d="M112.894 98.097L.337 22.094V.138h2.292a8.822 8.822 0 004.343 0h2.775c-.121 3.257 1.206 6.273 3.74 8.082 2.774 1.93 5.67 2.293 8.686 1.327.361 3.016 1.447 5.43 4.101 7.36 3.378 2.292 6.997 2.292 10.496.12-.724 3.62.603 7.36 3.62 9.41 2.774 1.93 5.67 2.292 8.685 1.327.362 3.016 1.448 5.429 4.102 7.36 3.378 2.291 6.997 2.291 10.496.12-.724 3.619.603 7.359 3.619 9.41 2.775 1.93 5.67 2.292 8.686 1.327.362 3.016 1.448 5.429 4.102 7.359 3.378 2.292 6.997 2.292 10.495.12-.724 3.62.604 7.36 3.62 9.41 2.774 1.93 5.67 2.292 8.686 1.327.362 3.016 1.447 5.43 4.101 7.36 3.378 2.292 6.997 2.292 10.496.12-.724 3.62.603 7.36 3.62 9.41 2.774 1.93 5.67 2.292 8.685 1.327.362 3.016 1.448 5.55 4.102 7.359 3.378 2.292 6.997 2.292 10.496.12-.603 3.137.241 6.274 2.413 8.325v.241h-33.9z" class="st7"/><path id="path14251" stroke-width="1.206" d="M72.6 36.691c1.086-1.568.603-3.74-.965-4.825-1.568-1.086-3.74-.603-4.826.965-1.085 1.568-.603 3.74.965 4.826 1.569 1.085 3.74.603 4.826-.966" class="st7"/><path id="path14253" stroke-width="1.206" d="M81.89 42.965c1.085-1.569.602-3.74-.966-4.826-1.568-1.086-3.74-.603-4.825.965-1.086 1.569-.604 3.74.965 4.826 1.568 1.086 3.74.603 4.825-.965" class="st7"/><path id="path14255" stroke-width="1.206" d="M85.388 45.378c1.086-1.569 3.257-2.051 4.825-.966 1.569 1.086 2.051 3.258.966 4.826-1.086 1.568-3.258 2.05-4.826.965-1.689-1.086-2.05-3.257-.965-4.825" class="st7"/><path id="path14257" stroke-width="1.206" d="M99.503 54.908c1.085-1.568.603-3.74-.965-4.826-1.569-1.085-3.74-.603-4.826.966-1.086 1.568-.603 3.74.965 4.825 1.568.965 3.74.603 4.826-.965" class="st7"/><path id="path14259" stroke-width="1.206" d="M108.792 61.181c1.086-1.568.603-3.74-.965-4.825-1.568-1.086-3.74-.603-4.826.965-1.086 1.568-.603 3.74.965 4.825 1.569.966 3.74.604 4.826-.965" class="st7"/><path id="path14261" stroke-width="1.206" d="M112.29 63.474c1.086-1.569 3.258-2.051 4.826-.966 1.568 1.086 2.051 3.258.965 4.826-1.086 1.568-3.257 2.05-4.825.965-1.69-1.086-2.051-3.257-.965-4.825" class="st7"/><path id="path14263" stroke-width="1.206" d="M126.405 73.004c1.086-1.568.604-3.74-.965-4.826-1.568-1.085-3.74-.603-4.825.966-1.086 1.568-.604 3.74.965 4.825 1.568 1.086 3.74.603 4.825-.965" class="st7"/><path id="path14265" stroke-width="1.206" d="M135.695 79.277c1.085-1.568.603-3.74-.965-4.825-1.569-1.086-3.74-.603-4.826.965-1.086 1.568-.603 3.74.965 4.825 1.568 1.086 3.74.604 4.826-.965" class="st7"/><path id="path14267" stroke-width="1.206" d="M139.193 81.69c1.086-1.568 3.257-2.05 4.826-.965 1.568 1.086 2.05 3.257.965 4.826-1.086 1.568-3.257 2.05-4.826.965-1.689-1.086-2.05-3.258-.965-4.826" class="st7"/><path id="path14269" stroke-width="1.206" d="M45.697 18.595c1.086-1.568.604-3.74-.965-4.825-1.568-1.086-3.74-.603-4.825.965-1.086 1.568-.604 3.74.965 4.826 1.568.965 3.74.603 4.825-.966" class="st7"/><path id="path14271" stroke-width="1.206" d="M54.987 24.869c1.085-1.569.603-3.74-.966-4.826-1.568-1.086-3.74-.603-4.825.965-1.086 1.569-.603 3.74.965 4.826 1.568.965 3.74.603 4.826-.965" class="st7"/><path id="path14273" stroke-width="1.206" d="M58.485 27.16c1.086-1.567 3.257-2.05 4.826-.964 1.568 1.086 2.05 3.257.965 4.825-1.086 1.569-3.257 2.051-4.826.966-1.689-1.086-2.05-3.137-.965-4.826" class="st7"/><path id="path14275" stroke-width="1.206" d="M18.795.5l.24-.362h-6.152c.242.482.603.965 1.086 1.206 1.568 1.086 3.74.724 4.826-.844" class="st7"/><path id="path14277" stroke-width="1.206" d="M28.084 6.652c1.086-1.568.603-3.74-.965-4.825-1.569-1.086-3.74-.604-4.826.965-1.086 1.568-.603 3.74.965 4.825 1.569 1.086 3.74.603 4.826-.965" class="st7"/><path id="path14279" stroke-width="1.206" d="M31.582 9.065c1.086-1.568 3.258-2.05 4.826-.965 1.568 1.086 2.05 3.257.965 4.825-1.086 1.569-3.257 2.051-4.825.966-1.69-1.086-2.051-3.258-.966-4.826" class="st7"/><path id="path14281" stroke-width="1.206" d="M43.888 6.17c1.568 1.085 2.05 3.257.965 4.825-1.086 1.568-3.257 2.051-4.826.965-1.568-1.085-2.05-3.257-.965-4.825 1.086-1.69 3.137-2.051 4.826-.965" class="st7"/><path id="path14283" stroke-width="1.206" d="M70.79 24.266c1.569 1.085 2.051 3.257.966 4.825-1.086 1.568-3.258 2.051-4.826.965-1.568-1.085-2.05-3.257-.965-4.825 1.086-1.569 3.136-2.051 4.825-.965" class="st7"/><path id="path14285" stroke-width="1.206" d="M97.693 42.362c-1.568-1.086-3.74-.604-4.826.965-1.085 1.568-.603 3.74.966 4.825 1.568 1.086 3.74.603 4.825-.965.965-1.568.603-3.74-.965-4.825" class="st7"/><path id="path14287" stroke-width="1.206" d="M124.596 60.578c-1.569-1.086-3.74-.603-4.826.965-1.086 1.569-.603 3.74.965 4.826 1.569 1.086 3.74.603 4.826-.965.965-1.69.603-3.74-.965-4.826" class="st7"/><path id="path14289" stroke-width="1.206" d="M146.793 79.398l-.12.241c-.845 1.327-.724 2.896.12 4.102z" class="st7"/><path id="path14291" stroke-width="1.206" d="M146.793 95.564c-1.327-2.051-1.688-4.947 0-8.204v-3.016l-.24-.241c-3.379 6.032-8.446 6.273-11.823 4.102-2.413-1.69-3.861-4.102-3.62-7.239l-.603-.362-.482-.482c-2.896 1.447-5.67 1.086-8.083-.603-3.258-2.172-4.947-7.118-.724-12.426l-.845-.483-.723-.603c-3.378 6.032-8.445 6.273-11.823 4.102-2.413-1.69-3.86-4.102-3.62-7.239l-.603-.362-.482-.482c-2.895 1.448-5.67 1.086-8.083-.603-3.257-2.172-4.946-7.118-.603-12.426l-.845-.483-.724-.603c-3.377 6.032-8.565 6.273-11.822 4.102-2.413-1.69-3.86-4.102-3.62-7.239l-.603-.362-.482-.482c-2.896 1.448-5.67 1.086-8.083-.603-3.257-2.172-4.946-7.118-.603-12.426l-.845-.483-.724-.603c-3.377 6.032-8.444 6.273-11.822 4.102-2.413-1.69-3.86-4.102-3.62-7.239l-.603-.362-.482-.482c-2.896 1.448-5.67 1.086-8.083-.603-3.257-2.172-4.946-7.118-.603-12.426l-.845-.483-.724-.603c-3.378 6.032-8.444 6.273-11.822 4.102-2.413-1.69-3.86-4.102-3.62-7.239l-.603-.362-.482-.482c-2.896 1.448-5.67 1.086-8.083-.603-2.051-1.448-3.499-3.86-3.257-6.756H10.35c-.241 3.137 1.206 6.032 3.74 7.72 2.774 1.931 5.55 2.172 8.686.966.12 3.137 1.327 5.79 4.222 7.6 3.257 2.172 7.962 1.81 11.099-1.206-1.689 3.981-.241 8.445 3.016 10.737 2.775 1.93 5.55 2.171 8.686.965.12 3.137 1.327 5.79 4.222 7.6 3.258 2.172 7.963 1.81 11.1-1.206-1.69 3.98-.242 8.445 3.015 10.737 2.775 1.93 5.55 2.171 8.686.965.121 3.137 1.327 5.79 4.223 7.6 3.257 2.172 7.962 1.81 11.099-1.206-1.69 3.98-.242 8.445 3.016 10.737 2.774 1.93 5.55 2.171 8.686.965.12 3.137 1.327 5.79 4.222 7.6 3.257 2.172 7.962 1.81 11.099-1.206-1.689 3.98-.241 8.445 3.016 10.737 2.775 1.93 5.55 2.171 8.686.965.12 3.136 1.327 5.79 4.222 7.6 3.258 2.172 7.963 1.81 11.1-1.206-1.328 3.378-.604 6.997 1.568 9.41v-1.69z" class="st7"/><path id="polygon14293" d="M222.2 19.8l115.6 78h-.5L222.2 20.1z" class="st0" transform="translate(-267.725 -19.889) scale(1.2064)"/><path id="path14295" d="M139.193 97.977L.337 4.239m0-.362l139.46 94.1" class="st8"/><path id="polygon14297" d="M222.2 31.8l97.8 66h-.5l-97.3-65.7z" class="st3" transform="translate(-267.725 -19.889) scale(1.2064)"/><path id="path14299" d="M117.72 97.977L.215 18.717m.12-.242l117.987 79.622" class="st8"/><path id="rect14301" stroke-width="1.206" d="M.337 96.891h146.457v1.206H.337z" class="st3"/><path id="path14303" stroke-width="1.206" d="M73.565 176.272c-39.811 0-72.143-32.332-72.143-72.143V1.344h144.165V104.25c0 39.81-32.21 72.022-72.022 72.022m0 1.206c-40.414 0-73.228-32.814-73.228-73.228V.138h146.457V104.25c0 40.414-32.815 73.228-73.229 73.228" class="st3"/><path id="path14305" stroke-width="1.206" d="M58.606 103.647c1.447-.724 2.292-1.086 3.74-1.569l.603-.241c1.689-.241 2.654-.241 4.222-.241h2.896l.965.241c.965.724 1.689 1.327 2.774 2.292a46.428 46.428 0 012.775 2.292c-.12.603-.241.965-.482 1.569-.362.603-.483.965-1.086 1.568.724-.483 1.086-1.086 1.568-2.051.241-.483.362-.844.603-1.327l.604-.241c2.292.724 4.463 1.568 7.359 1.81.482 0 .723.12 1.327.12l.723.12c1.327.604 2.051.966 3.378 1.69 1.448.844 2.775 1.568 4.102 3.016 1.086 1.206 1.93 1.81 3.378 2.533.965.483 1.448.483 2.775.844l.362.483c.362 1.568.603 2.533.965 4.102.362 1.568.603 2.533.965 4.102.965 1.085 1.568 1.568 2.775 2.412.965.604 1.568.965 2.533 1.327.483 2.534.603 3.982.724 6.515.12 1.568 0 2.533 0 4.102-.12.603-.362.965-.965 1.327l-1.327.362h-8.807c-.603-.483-.844-1.207-.603-1.93.241-.724.603-1.086 1.327-1.328.724-.24 1.448-.24 2.292-.24 0-.725-.12-1.69-.362-2.172l-.844-.724c-1.93-1.327-2.896-2.051-4.464-3.378-.965-.724-1.327-1.207-2.172-1.93l-.12-.724-.12-.362.361-.724.362-1.206c-.12.603-.241.844-.603 1.327l-.362.482c.362 1.448.482 2.172.724 3.62.12 1.206.241 1.809.241 3.015-.724 1.448-1.327 2.293-2.292 3.86-.483.725-1.207 1.57-1.81 2.293-.362.362-.844.362-1.447.362h-8.928a1.72 1.72 0 01-.724-1.448c0-.965.604-1.81 1.81-2.171.483-.12 1.206-.12 1.81-.12.12-.483.12-.725.12-1.207v-1.327l-.241-.604c-.603-.723-1.327-1.568-1.81-2.654a5.881 5.881 0 01-.482-1.327c-1.448-.12-2.292-.24-3.74-.482-1.206-.241-1.93-.362-3.257-.483-1.086-.844-2.172-1.447-3.016-1.689H69.1l-.361-.844c-.121-.362-.242-.845-.362-1.93 0 1.327.362 2.412.723 3.498.362 1.207.483 1.448.966 2.895v.845c-.362 1.81-.604 2.533-1.086 4.222-.483 1.69-.845 3.016-1.569 4.343l-.844.845h-9.53c-.362-.483-.604-1.086-.483-1.69l.603-1.206c.362-.361 1.327-1.085 3.016-1.327 0-1.688-.12-2.533-.12-4.222v-4.343c-.483-.724-.604-.965-.845-1.568-.241-.724-.362-1.086-.483-1.81 0 .603 0 .965.121 1.568.12.724.483 1.207.724 1.69-1.327 1.206-2.051 1.809-3.62 2.895-1.206.844-1.93 1.327-3.377 2.05-.12.604-.12.845-.362 1.207-.362.483-.845.845-1.327.845h-7.842c-.482 0-1.206-1.93-.603-2.534 1.206-1.327 1.93-2.05 3.016-3.498.845-1.086 1.448-1.93 2.05-3.016.604-.845 1.81-1.328 3.138-1.93 1.085-.604 1.81-.845 3.016-1.207l-.121-.965c-.241 0-1.086 0-1.81-.12-.965-.242-1.689-.363-2.654-.725-1.086-.362-1.568-.603-2.533-1.085-.845 0-1.327 0-2.172-.121-.724-.12-1.206-.12-1.93-.241v-1.327l.724-.121.724-.12c-.603 0-.965 0-1.569.12h-1.206c-.12 0-.603-.483-1.086-.965-.482-.603-1.086-.965-1.086-1.207v-1.327l.242-.603 1.447-.362c.724-.603 1.207-1.086 1.93-1.568.845-.603 1.207-.965 2.052-1.448.24-1.327.361-2.292 1.206-2.533 1.086-.241 2.292-.483 4.102-.483.241-.724.482-1.206 1.085-1.568.845-.483 2.051-.483 2.896-.483.724.845 1.327 1.81 1.568 3.258.12.844-.12 1.568-.362 2.292l.362-.724c.362-1.568-.12-3.378-.603-4.584-.362-1.327 1.689-1.69 3.74-2.654" class="st3"/><path id="path14307" stroke-width="1.206" d="M53.78 120.777l.241.966-.12.965c-.965.362-1.568.603-2.534 1.085-1.206.604-2.171.966-3.136 1.569l-.724.844c-.845 1.207-1.206 1.81-2.051 2.896-.965 1.327-1.81 2.292-2.654 3.136l-.241.845c.12.603.362 1.085.603 1.085h6.997l.965-.24c.483-.363.724-.845.603-1.57 1.569-.844 2.413-1.326 3.74-2.291 1.207-.845 1.93-1.448 3.016-2.413-.241-.603-.362-.965-.482-1.568-.121-.724-.242-1.086-.121-1.81.12-.724.241-1.206.724-1.81.12.724.12 1.086.241 1.69.241.844.241 1.326.603 2.17l.603 1.087v3.98c0 1.931 0 3.017.121 4.947l-.362.483-1.568.482c-.724.362-1.448.724-1.568 1.568-.121.483.12 1.327.361 1.327h8.928c.603 0 1.447-2.533 2.05-4.463.483-1.69.845-2.775 1.086-4.223v-.965c-.12-.482-.603-2.05-1.085-3.257-.362-1.206-.483-2.172-.604-3.378 0-.965.121-1.568.724-2.171 0 .844 0 1.327.121 2.171.12.965.362 1.448.603 2.413l.965.241c.845.362 1.569.845 2.534 1.568 1.085.242 1.689.362 2.774.483 1.69.241 2.775.362 4.464.603.12.603.241.965.483 1.569.482 1.085 1.206 1.93 1.93 2.774l.241.603v1.448c0 .965-.241 1.81-.482 1.81-.483-.12-.965-.12-1.448-.12-.845 0-1.81.482-1.93 1.809l.603.965h8.686l.965-.241c.845-.966 1.448-1.81 2.172-3.016.723-1.086 1.085-1.81 1.689-2.896 0-1.086-.121-1.689-.242-2.775-.12-1.447-.362-2.292-.603-3.74.362-.482.483-.723.724-1.206.362-.844.603-1.327.724-2.292.241.603.362.965.362 1.568 0 .966-.362 1.569-.724 2.293-.12.24 1.086 1.447 1.93 2.171.845.845 1.93 1.689 3.257 2.654.604.483 1.207.724 1.69 1.086.603.362.844.844 1.085 1.568.12.603.241 1.207.241 2.292h-1.206c-1.086 0-2.172.242-2.292 1.448l.603 1.086h8.445l.844-.241c.483-.242.965-.724.965-1.086.121-1.69.121-2.775 0-4.464-.12-2.292-.24-3.498-.603-5.67-1.086-.362-1.689-.724-2.654-1.327-1.086-.724-1.81-1.448-2.533-2.292l-.242-.724c-.482-2.292-.603-2.895-1.085-4.705l-.604-3.016c-.965-.362-1.568-.362-2.292-.724-1.206-.482-1.93-1.086-2.774-1.689-.724-.482-1.207-1.206-1.69-1.689-.965-.965-1.809-1.447-3.136-2.171-1.327-.845-2.895-1.569-3.62-1.93l-.723-.121c-.724 0-1.81 0-2.895-.241-1.81-.362-3.982-.966-5.791-1.69a8.316 8.316 0 01-.845 1.81c-.723 1.448-1.689 1.93-3.016 2.172-.12-.12.845-.845 1.327-1.569.483-.723.724-1.327.966-2.171-.966-.724-1.448-1.206-2.293-1.93-1.206-.965-1.93-1.569-3.136-2.534h-2.896c-1.81 0-2.895.12-4.705.242-.965.361-1.568.603-2.654 1.085-1.085.483-1.689.724-2.774 1.207-.965.362-1.448.603-2.413.844.241.845.603 1.81.482 3.257 0 .845-.12 1.69-.723 2.293-.362.362-.966.844-1.448 1.085.362-.723.482-1.206.603-1.93.12-.603.362-.965.241-1.568-.12-1.569-.723-2.413-1.206-3.137-.483 0-1.448.12-1.93.241-.845.362-1.207.966-1.448 1.81-.844 0-1.327 0-2.171.12-.845.121-1.569.242-2.293.363l-.362.362c-.12.603-.361 1.327-.482 1.93-.845.482-1.206.844-2.051 1.327-.844.603-1.93 1.689-2.171 1.81l-.604.24-.724.121v1.327l.845.845.965.965h2.172c.844 0 2.292 0 2.292.241l-.965.724c-.724.241-1.086.12-1.69.241v.362c.483.12.845.12 1.328.242.965.12 1.568.12 2.533.12.845.362 1.207.603 2.051.965 1.086.483 1.689.724 2.895.845l.966.12c.603.121.965 0 1.447 0" class="st3"/><path id="polygon14309" d="M304.5 131l-.2-.2-.4-.1-.5.7.4.7.3-.1.1-.4z" class="st4" transform="translate(-267.725 -19.889) scale(1.2064)"/><path id="polygon14311" d="M305.7 131l-.2-.2-.4-.1-.6.7.5.7.2-.1.1-.4z" class="st4" transform="translate(-267.725 -19.889) scale(1.2064)"/><path id="polygon14313" d="M288.8 131l-.1-.2-.5-.1-.5.7.5.7.2-.1.1-.4z" class="st4" transform="translate(-267.725 -19.889) scale(1.2064)"/><path id="polygon14315" d="M290 131l-.2-.2-.4-.1-.5.7.4.7.3-.1v-.4z" class="st4" transform="translate(-267.725 -19.889) scale(1.2064)"/><path id="polygon14317" d="M270.5 131l-.2-.2-.4-.1-.5.7.4.7.3-.1.1-.4z" class="st4" transform="translate(-267.725 -19.889) scale(1.2064)"/><path id="polygon14319" d="M271.7 131l-.2-.2-.4-.1-.6.7.5.7.2-.1.1-.4z" class="st4" transform="translate(-267.725 -19.889) scale(1.2064)"/><path id="polygon14321" d="M258.8 126.4l-.1-.3h-.5l-.5.6.5.8.2-.2.1-.3z" class="st4" transform="translate(-267.725 -19.889) scale(1.2064)"/><path id="polygon14323" d="M260 126.4l-.2-.3h-.4l-.5.6.4.8.3-.2.1-.3z" class="st4" transform="translate(-267.725 -19.889) scale(1.2064)"/><path id="polygon14325" d="M258.6 126.4l-.5-.1-.2.4.3.5.1-.4z" class="st4" transform="translate(-267.725 -19.889) scale(1.2064)"/><path id="polygon14327" d="M259.7 126.4l-.4-.1-.2.4.2.5.2-.4z" class="st4" transform="translate(-267.725 -19.889) scale(1.2064)"/><path id="polygon14329" d="M270.2 131l-.4-.1-.2.4.2.6.2-.5z" class="st4" transform="translate(-267.725 -19.889) scale(1.2064)"/><path id="polygon14331" d="M271.4 131l-.4-.1-.3.4.3.6.1-.5z" class="st4" transform="translate(-267.725 -19.889) scale(1.2064)"/><path id="polygon14333" d="M288.6 131l-.5-.1-.2.4.3.6.1-.5z" class="st4" transform="translate(-267.725 -19.889) scale(1.2064)"/><path id="polygon14335" d="M289.7 131l-.4-.1-.2.4.2.6.2-.5z" class="st4" transform="translate(-267.725 -19.889) scale(1.2064)"/><path id="polygon14337" d="M304.2 131l-.4-.1-.2.4.2.6.2-.5z" class="st4" transform="translate(-267.725 -19.889) scale(1.2064)"/><path id="polygon14339" d="M305.4 131l-.4-.1-.2.4.2.6.1-.5z" class="st4" transform="translate(-267.725 -19.889) scale(1.2064)"/><path id="path14341" stroke-width="1.206" d="M46.904 109.679c-.242.361-.362.723-.242 1.206.121.603.362 1.086.845 1.448v-.483h.362l.603-.12-.844-.724c-.362-.362-.604-.724-.724-1.327" class="st4"/><path id="polygon14343" d="M261.5 109h-.3l-.2-.1-.1-.2-.1-.6.3.4z" class="st4" transform="translate(-267.725 -19.889) scale(1.2064)"/><path id="path15135" d="M336.834 124.77h-3.1v-17.9c0-1.4.1-3.1.3-5.2h-.1c-.3 1.2-.5 2.1-.8 2.6l-9.1 20.5h-1.5l-9.1-20.3c-.3-.6-.5-1.5-.8-2.7h-.1c.1 1.1.1 2.8.1 5.2v17.8h-3v-26.6h4.1l8.2 18.6c.6 1.4 1 2.5 1.2 3.2h.1c.5-1.4.9-2.5 1.3-3.3l8.3-18.5h3.9v26.6z"/><path id="path15133" d="M345.034 100.97c-.5 0-1-.2-1.4-.6-.4-.3-.6-.8-.6-1.4 0-.6.2-1 .6-1.4.4-.4.9-.6 1.4-.6.6 0 1 .2 1.4.6.4.4.6.8.6 1.4 0 .5-.2 1-.6 1.4-.4.4-.9.6-1.4.6"/><path id="path15131" d="M346.534 124.77h-3v-19h3z"/><path id="path15129" d="M368.434 124.77h-3v-10.9c0-4-1.5-6-4.4-6-1.5 0-2.8.6-3.8 1.7s-1.5 2.6-1.5 4.3v10.9h-3v-19h3v3.2h.1c1.4-2.4 3.5-3.6 6.2-3.6 2.1 0 3.7.7 4.8 2 1.1 1.3 1.6 3.3 1.6 5.8z"/><path id="path15127" d="M375.734 100.97c-.5 0-1-.2-1.4-.6-.4-.3-.6-.8-.6-1.4 0-.6.2-1 .6-1.4.4-.4.9-.6 1.4-.6.6 0 1 .2 1.4.6.4.4.6.8.6 1.4 0 .5-.2 1-.6 1.4-.4.4-.8.6-1.4.6"/><path id="path15125" d="M377.234 124.77h-3v-19h3z"/><path id="path15123" d="M382.234 124.17v-3.3c1.7 1.3 3.5 1.9 5.5 1.9 2.7 0 4-.9 4-2.7 0-.5-.1-1-.3-1.3l-.9-.9c-.4-.3-.9-.5-1.4-.7-.5-.2-1.1-.5-1.7-.7-.8-.3-1.6-.6-2.2-1-.6-.3-1.2-.7-1.6-1.2-.4-.4-.8-.9-1-1.4-.2-.5-.3-1.2-.3-1.9 0-.9.2-1.7.6-2.4.4-.7.9-1.3 1.6-1.7.7-.5 1.4-.8 2.3-1.1.9-.2 1.8-.3 2.7-.3 1.6 0 3.1.3 4.4.8v3.1c-1.4-.9-3-1.4-4.8-1.4-.5 0-1.1.1-1.5.2-.5.1-.8.3-1.2.6l-.8.8c-.2.3-.3.7-.3 1.1 0 .5.1.9.3 1.3l.8.9c.3.3.8.5 1.3.7.5.2 1.1.4 1.7.7.8.3 1.6.6 2.3 1 .6.3 1.2.7 1.7 1.1.5.4.8.9 1.1 1.5.3.6.4 1.2.4 2 0 .9-.2 1.8-.6 2.5-.4.7-1 1.3-1.7 1.7-.7.5-1.5.8-2.4 1-.9.2-1.8.3-2.8.3-2.1-.1-3.7-.5-5.2-1.2"/><path id="path15121" d="M408.334 124.57c-.7.4-1.7.6-2.9.6-3.3 0-5-1.9-5-5.6v-11.3h-3.3v-2.6h3.3v-4.6l3-1v5.6h4.8v2.6h-4.8v10.7c0 1.3.2 2.2.6 2.7.5.6 1.1.8 2.2.8.8 0 1.4-.2 2-.6v2.7z"/><path id="path15119" d="M427.734 116.07h-13.4c0 2.1.6 3.8 1.7 4.9 1.1 1.2 2.6 1.7 4.5 1.7 2.1 0 4.1-.7 5.9-2.1v2.9c-1.7 1.2-3.9 1.8-6.6 1.8-2.7 0-4.8-.9-6.3-2.6-1.6-1.8-2.3-4.2-2.3-7.3 0-3 .8-5.4 2.5-7.3 1.7-1.9 3.8-2.8 6.3-2.8s4.4.8 5.7 2.4c1.4 1.6 2.1 3.9 2.1 6.7v1.7z"/><path id="path15117" fill="#fff" d="M424.634 113.47c0-1.7-.4-3.2-1.3-4.1-.8-1-2-1.5-3.5-1.5-1.4 0-2.7.5-3.7 1.6-1 1-1.6 2.4-1.9 4z"/><path id="path15115" d="M442.234 108.87c-.5-.4-1.3-.6-2.3-.6-1.3 0-2.4.6-3.2 1.8-.9 1.2-1.3 2.9-1.3 5v9.7h-3v-19h3v3.9h.1c.4-1.3 1.1-2.4 2-3.1.9-.8 1.9-1.1 3-1.1.8 0 1.4.1 1.8.3v3.1z"/><path id="path15113" d="M447.134 100.97c-.5 0-1-.2-1.4-.6-.4-.3-.6-.8-.6-1.4 0-.6.2-1 .6-1.4.4-.4.9-.6 1.4-.6.6 0 1 .2 1.4.6.4.4.6.8.6 1.4 0 .5-.2 1-.6 1.4-.4.4-.8.6-1.4.6"/><path id="path15111" d="M448.634 124.77h-3v-19h3z"/><path id="path15109" d="M470.134 124.77h-3v-3h-.1c-1.3 2.3-3.2 3.5-5.9 3.5-4.5 0-6.8-2.7-6.8-8.1v-11.4h3v10.9c0 4 1.5 6 4.6 6 1.5 0 2.7-.6 3.7-1.6.9-1.1 1.4-2.5 1.4-4.3v-11h3v19z"/><path id="path15107" d="M503.334 124.77h-3v-11c0-2.1-.3-3.6-1-4.6-.6-1-1.7-1.4-3.3-1.4-1.3 0-2.4.6-3.3 1.8-.9 1.2-1.4 2.6-1.4 4.3v10.9h-3v-11.3c0-3.8-1.4-5.6-4.3-5.6-1.3 0-2.4.6-3.3 1.7-.9 1.1-1.3 2.6-1.3 4.4v10.9h-3v-19h3v3h.1c1.4-2.3 3.3-3.4 5.9-3.4 1.3 0 2.4.3 3.4 1.1 1 .7 1.6 1.7 2 2.9 1.4-2.6 3.5-3.9 6.3-3.9 4.2 0 6.3 2.6 6.3 7.8v11.4z"/><path id="path15105" d="M528.934 99.37c-.6-.3-1.3-.5-2-.5-2.1 0-3.2 1.3-3.2 4v2.9h4.4v2.6h-4.4v16.4h-3v-16.4h-3.2v-2.6h3.2v-3.1c0-2 .6-3.6 1.7-4.7 1.1-1.2 2.6-1.8 4.3-1.8.9 0 1.7.1 2.2.3z"/><path id="path15103" d="M546.734 124.77h-3v-3h-.1c-1.3 2.3-3.2 3.5-5.9 3.5-4.5 0-6.8-2.7-6.8-8.1v-11.4h3v10.9c0 4 1.5 6 4.6 6 1.5 0 2.7-.6 3.7-1.6 1-1.1 1.4-2.5 1.4-4.3v-11h3v19z"/><path id="path15101" d="M542.634 102.17c-.5 0-.9-.2-1.3-.5-.3-.3-.5-.8-.5-1.3s.2-1 .5-1.3c.3-.4.8-.5 1.3-.5s.9.2 1.3.5c.3.3.5.8.5 1.3s-.2.9-.5 1.3c-.4.3-.8.5-1.3.5"/><path id="path15099" d="M535.434 102.17c-.5 0-1-.2-1.3-.5-.3-.4-.5-.8-.5-1.3s.2-1 .5-1.3c.3-.4.8-.5 1.3-.5s1 .2 1.3.5c.4.3.6.8.6 1.3s-.2.9-.5 1.3c-.4.3-.9.5-1.4.5"/><path id="path15097" d="M562.834 108.87c-.5-.4-1.3-.6-2.3-.6-1.3 0-2.4.6-3.2 1.8-.9 1.2-1.3 2.9-1.3 5v9.7h-3v-19h3v3.9h.1c.4-1.3 1.1-2.4 2-3.1.9-.8 1.9-1.1 3-1.1.8 0 1.4.1 1.8.3v3.1z"/><path id="path14347" fill="#1d1d1b" d="M505.634 166.87v-2.8c0-1.6-.5-2.9-1.5-3.9-1-1.1-2.3-1.6-3.9-1.6-1.8 0-3.3.7-4.4 2.1-1.1 1.4-1.6 3.2-1.6 5.7 0 2.2.5 3.9 1.5 5.2 1 1.3 2.4 1.9 4.1 1.9 1.7 0 3-.6 4.1-1.9 1.1-1.3 1.7-2.9 1.7-4.7m3 8.6h-3v-3.2h-.1c-1.4 2.4-3.6 3.7-6.5 3.7-2.4 0-4.3-.8-5.7-2.5-1.4-1.7-2.1-4-2.1-7 0-3.2.8-5.7 2.4-7.6 1.6-1.9 3.7-2.9 6.3-2.9 2.6 0 4.5 1 5.7 3.1h.1v-11.7h3v28.1zm-22 0h-3v-10.9c0-4-1.5-6-4.4-6-1.5 0-2.8.6-3.8 1.7s-1.5 2.6-1.5 4.3v10.9h-3v-19h3v3.2h.1c1.4-2.4 3.5-3.6 6.2-3.6 2.1 0 3.7.7 4.8 2 1.1 1.3 1.6 3.3 1.6 5.8zm-21.9 0h-3v-3h-.1c-1.3 2.3-3.2 3.5-5.9 3.5-4.5 0-6.8-2.7-6.8-8.1v-11.4h3v10.9c0 4 1.5 6 4.6 6 1.5 0 2.7-.6 3.7-1.6 1-1.1 1.4-2.5 1.4-4.3v-11h3v19zm-29.9-.2c-.7.4-1.7.6-2.9.6-3.3 0-5-1.9-5-5.6v-11.3h-3.2v-2.6h3.3v-4.6l3-1v5.6h4.8v2.6h-4.8v10.7c0 1.3.2 2.2.6 2.7.5.6 1.1.8 2.2.8.8 0 1.4-.2 2-.6zm-11.3-25.3c-.6-.3-1.3-.5-2-.5-2.1 0-3.2 1.3-3.2 4v2.9h4.4v2.6h-4.4v16.4h-3v-16.4h-3.2v-2.6h3.2v-3.1c0-2 .6-3.6 1.7-4.7 1.1-1.2 2.6-1.8 4.3-1.8.9 0 1.7.1 2.2.3zm-18.2 15.8l-4.6.6c-1.4.2-2.5.5-3.2 1-.7.5-1.1 1.4-1.1 2.7 0 .9.3 1.7 1 2.3.7.6 1.6.9 2.7.9 1.5 0 2.7-.5 3.7-1.6s1.5-2.4 1.5-4zm3 9.7h-3v-3h-.1c-1.3 2.3-3.3 3.4-5.9 3.4-1.9 0-3.4-.5-4.4-1.5-1.1-1-1.6-2.3-1.6-4 0-3.5 2.1-5.6 6.3-6.2l5.7-.8c0-3.2-1.3-4.9-3.9-4.9-2.3 0-4.3.8-6.2 2.4v-3.1c1.9-1.2 4-1.8 6.5-1.8 4.4 0 6.7 2.4 6.7 7.1v12.4zm-19.4 0h-3v-11c0-4-1.5-5.9-4.4-5.9-1.5 0-2.7.6-3.8 1.7-1 1.1-1.5 2.6-1.5 4.4v10.8h-3v-28.1h3v12.2h.1c1.4-2.4 3.5-3.6 6.2-3.6 4.3 0 6.4 2.6 6.4 7.8zm-20.4-.9c-1.4.9-3.2 1.3-5.2 1.3-2.7 0-4.9-.9-6.5-2.7-1.7-1.7-2.5-4-2.5-6.8 0-3.2.9-5.7 2.7-7.6 1.8-1.9 4.2-2.9 7.2-2.9 1.7 0 3.2.3 4.4.9v3.1c-1.4-1-2.9-1.5-4.5-1.5-1.9 0-3.5.7-4.8 2.1-1.3 1.4-1.9 3.2-1.9 5.5 0 2.2.6 4 1.8 5.3 1.2 1.3 2.7 1.9 4.7 1.9 1.7 0 3.2-.6 4.7-1.7v3.1zm-30.2.2v-3.3c1.7 1.3 3.5 1.9 5.5 1.9 2.7 0 4-.9 4-2.7 0-.5-.1-1-.3-1.3l-.9-.9c-.4-.3-.9-.5-1.4-.7-.5-.2-1.1-.5-1.7-.7-.8-.3-1.6-.6-2.2-1-.6-.3-1.2-.7-1.6-1.2-.4-.4-.8-.9-.9-1.4-.2-.5-.3-1.2-.3-1.9 0-.9.2-1.7.6-2.4.4-.7 1-1.3 1.6-1.7.7-.5 1.4-.8 2.3-1.1.9-.2 1.8-.3 2.7-.3 1.6 0 3.1.3 4.4.8v3.1c-1.4-.9-3-1.4-4.8-1.4-.5 0-1.1.1-1.5.2-.5.2-.8.3-1.2.6l-.8.8c-.2.3-.3.7-.3 1.1 0 .5.1.9.3 1.3l.8.9c.3.3.8.5 1.3.7.5.2 1.1.4 1.7.7.8.3 1.6.6 2.3 1 .6.3 1.2.7 1.7 1.1.5.4.8.9 1.1 1.5.3.6.4 1.2.4 2 0 .9-.2 1.8-.6 2.5-.4.7-1 1.3-1.7 1.7-.7.5-1.5.8-2.4 1-.9.2-1.8.3-2.8.3-2.2-.1-3.9-.5-5.3-1.2m-4.6.7h-3v-10.9c0-4-1.5-6-4.4-6-1.5 0-2.8.6-3.8 1.7s-1.5 2.6-1.5 4.3v10.9h-3v-19h3v3.2h.1c1.4-2.4 3.5-3.6 6.2-3.6 2.1 0 3.7.7 4.8 2 1.1 1.3 1.6 3.3 1.6 5.8zm-23.5-11.4c0-1.8-.4-3.2-1.3-4.1-.8-1-2-1.5-3.5-1.5-1.4 0-2.7.5-3.7 1.6-1 1-1.6 2.4-1.9 4zm3.1 2.6h-13.4c0 2.1.6 3.8 1.7 4.9 1.1 1.2 2.6 1.7 4.5 1.7 2.1 0 4.1-.7 5.9-2.1v2.9c-1.7 1.2-3.9 1.8-6.6 1.8-2.7 0-4.8-.9-6.3-2.6-1.6-1.8-2.3-4.2-2.3-7.3 0-3 .8-5.4 2.5-7.3 1.7-1.9 3.8-2.8 6.3-2.8s4.4.8 5.7 2.4c1.4 1.6 2.1 3.9 2.1 6.7v1.7zm-32.6 8.1v-3.3c1.7 1.3 3.5 1.9 5.5 1.9 2.7 0 4-.9 4-2.7 0-.5-.1-1-.3-1.3l-.9-.9c-.4-.3-.9-.5-1.4-.7-.5-.2-1.1-.5-1.7-.7-.8-.3-1.6-.6-2.2-1-.6-.3-1.2-.7-1.6-1.2-.4-.4-.8-.9-.9-1.4-.2-.5-.3-1.2-.3-1.9 0-.9.2-1.7.6-2.4.4-.7 1-1.3 1.6-1.7.7-.5 1.4-.8 2.3-1.1.9-.2 1.8-.3 2.7-.3 1.6 0 3.1.3 4.4.8v3.1c-1.4-.9-3-1.4-4.8-1.4-.5 0-1.1.1-1.5.2-.5.2-.8.3-1.2.6l-.8.8c-.2.3-.3.7-.3 1.1 0 .5.1.9.3 1.3l.8.9c.3.3.8.5 1.3.7.5.2 1.1.4 1.7.7.8.3 1.6.6 2.3 1 .6.3 1.2.7 1.7 1.1.5.4.8.9 1.1 1.5.3.6.4 1.2.4 2 0 .9-.2 1.8-.6 2.5-.4.7-1 1.3-1.7 1.7-.7.5-1.5.8-2.4 1-.9.2-1.8.3-2.8.3-2.1-.1-3.8-.5-5.3-1.2m-16.1 0v-3.3c1.7 1.3 3.5 1.9 5.5 1.9 2.7 0 4-.9 4-2.7 0-.5-.1-1-.3-1.3l-.9-.9c-.4-.3-.9-.5-1.4-.7-.5-.2-1.1-.5-1.7-.7-.8-.3-1.6-.6-2.2-1-.6-.3-1.2-.7-1.6-1.2-.4-.4-.8-.9-1-1.4-.2-.5-.3-1.2-.3-1.9 0-.9.2-1.7.6-2.4.4-.7 1-1.3 1.6-1.7.6-.4 1.4-.8 2.3-1.1.9-.2 1.8-.3 2.7-.3 1.6 0 3.1.3 4.4.8v3.1c-1.4-.9-3-1.4-4.8-1.4-.5 0-1.1.1-1.5.2-.5.2-.8.3-1.2.6l-.8.8c-.2.3-.3.7-.3 1.1 0 .5.1.9.3 1.3l.8.9c.3.3.8.5 1.3.7.5.2 1.1.4 1.7.7.8.3 1.6.6 2.3 1 .6.3 1.2.7 1.7 1.1.5.4.8.9 1.1 1.5.3.6.4 1.2.4 2 0 .9-.2 1.8-.6 2.5-.4.7-1 1.3-1.7 1.7-.7.5-1.5.8-2.4 1-.9.2-1.8.3-2.8.3-2.1-.1-3.8-.5-5.2-1.2m-5 .7h-3v-19h3zm-1.5-23.9c-.5 0-1-.2-1.4-.6-.4-.3-.6-.8-.6-1.4 0-.6.2-1 .6-1.4.4-.4.9-.6 1.4-.6.6 0 1 .2 1.4.6.4.4.6.8.6 1.4 0 .5-.2 1-.6 1.4-.4.4-.8.6-1.4.6m-5.1-2.8l-7.5 26.6h-3.7l-5.5-19.5c-.2-.8-.4-1.7-.4-2.7h-.1c-.1.9-.2 1.8-.5 2.7l-5.5 19.5h-3.6l-7.8-26.6h3.4l5.7 20.4c.2.8.4 1.8.5 2.7h.1c.1-.6.3-1.6.6-2.7l5.9-20.4h3l5.6 20.6c.2.7.3 1.5.5 2.5 0-.6.2-1.5.5-2.5l5.4-20.5h3.4z"/><path id="path15095" d="M554.833 150.057l-7.5 26.6h-3.7l-5.5-19.5c-.2-.8-.4-1.7-.4-2.7h-.1c-.1.9-.2 1.8-.5 2.7l-5.5 19.5h-3.6l-7.8-26.6h3.4l5.7 20.4c.2.8.4 1.8.5 2.7h.1c.1-.6.3-1.6.6-2.7l5.9-20.4h3l5.6 20.6c.2.7.3 1.5.5 2.5h.1c0-.6.2-1.5.5-2.5l5.4-20.5h3.3z"/><path id="path15093" d="M559.933 152.857c-.5 0-1-.2-1.4-.6-.4-.3-.6-.8-.6-1.4 0-.6.2-1 .6-1.4.4-.4.9-.6 1.4-.6.6 0 1 .2 1.4.6.4.4.6.8.6 1.4 0 .5-.2 1-.6 1.4-.4.4-.8.6-1.4.6"/><path id="path15091" d="M561.433 176.657h-3v-19h3z"/><path id="path15089" d="M577.533 160.757c-.5-.4-1.3-.6-2.3-.6-1.3 0-2.4.6-3.2 1.8-.9 1.2-1.3 2.9-1.3 5v9.7h-3v-19h3v3.9h.1c.4-1.3 1.1-2.4 2-3.1.9-.8 1.9-1.1 3-1.1.8 0 1.4.1 1.8.3v3.1z"/><path id="path15087" d="M589.633 176.457c-.7.4-1.7.6-2.9.6-3.3 0-5-1.9-5-5.6v-11.3h-3.3v-2.6h3.3v-4.6l3-1v5.6h4.8v2.6h-4.8v10.7c0 1.3.2 2.2.6 2.7.5.6 1.1.8 2.2.8.8 0 1.4-.2 2-.6v2.7z"/><path id="path15085" d="M592.533 176.057v-3.3c1.7 1.3 3.5 1.9 5.5 1.9 2.7 0 4-.9 4-2.7 0-.5-.1-1-.3-1.3l-.9-.9c-.4-.3-.9-.5-1.4-.7-.5-.2-1.1-.5-1.7-.7-.8-.3-1.6-.6-2.2-1-.6-.3-1.2-.7-1.6-1.2-.4-.4-.8-.9-.9-1.4-.2-.5-.3-1.2-.3-1.9 0-.9.2-1.7.6-2.4.4-.7 1-1.3 1.6-1.7.7-.5 1.4-.8 2.3-1.1.9-.2 1.8-.3 2.7-.3 1.6 0 3.1.3 4.4.8v3.1c-1.4-.9-3-1.4-4.8-1.4-.5 0-1.1.1-1.5.2-.5.1-.8.3-1.2.6l-.8.8c-.2.3-.3.7-.3 1.1 0 .5.1.9.3 1.3l.8.9c.3.3.8.5 1.3.7.5.2 1.1.4 1.7.7.8.3 1.6.6 2.3 1 .6.3 1.2.7 1.7 1.1.5.4.8.9 1.1 1.5.3.6.4 1.2.4 2 0 .9-.2 1.8-.6 2.5-.4.7-1 1.3-1.7 1.7-.7.5-1.5.8-2.4 1-.9.2-1.8.3-2.8.3-2.1-.1-3.8-.5-5.3-1.2"/><path id="path15083" d="M622.833 175.857c-1.4.9-3.2 1.3-5.2 1.3-2.7 0-4.9-.9-6.5-2.7-1.7-1.7-2.5-4-2.5-6.8 0-3.2.9-5.7 2.7-7.6 1.8-1.9 4.2-2.9 7.2-2.9 1.7 0 3.2.3 4.4.9v3.1c-1.4-1-2.9-1.5-4.5-1.5-1.9 0-3.5.7-4.8 2.1-1.3 1.4-1.9 3.2-1.9 5.5 0 2.2.6 4 1.8 5.3 1.2 1.3 2.7 1.9 4.7 1.9 1.7 0 3.2-.6 4.7-1.7v3.1z"/><path id="path15081" d="M643.233 176.657h-3v-11c0-4-1.5-5.9-4.4-5.9-1.5 0-2.7.6-3.8 1.7-1 1.1-1.5 2.6-1.5 4.4v10.8h-3v-28.1h3v12.2h.1c1.4-2.4 3.5-3.6 6.2-3.6 4.3 0 6.4 2.6 6.4 7.8z"/><path id="path15079" d="M662.533 176.657h-3v-3h-.1c-1.3 2.3-3.3 3.4-5.9 3.4-1.9 0-3.4-.5-4.4-1.5-1.1-1-1.6-2.3-1.6-4 0-3.5 2.1-5.6 6.3-6.2l5.7-.8c0-3.2-1.3-4.9-3.9-4.9-2.3 0-4.3.8-6.2 2.4v-3.1c1.9-1.2 4-1.8 6.5-1.8 4.5 0 6.7 2.4 6.7 7.1v12.4z"/><path id="path15077" fill="#fff" d="M659.533 167.057l-4.6.6c-1.4.2-2.5.5-3.2 1-.7.5-1.1 1.4-1.1 2.7 0 .9.3 1.7 1 2.3.7.6 1.6.9 2.7.9 1.5 0 2.7-.5 3.7-1.6s1.5-2.4 1.5-4z"/><path id="path15075" d="M677.733 151.257c-.6-.3-1.3-.5-2-.5-2.1 0-3.2 1.3-3.2 4v2.9h4.4v2.6h-4.4v16.4h-3v-16.4h-3.2v-2.6h3.2v-3.1c0-2 .6-3.6 1.7-4.7 1.1-1.2 2.6-1.8 4.3-1.8.9 0 1.7.1 2.2.3z"/><path id="path15073" d="M689.033 176.457c-.7.4-1.7.6-2.9.6-3.3 0-5-1.9-5-5.6v-11.3h-3.2v-2.6h3.3v-4.6l3-1v5.6h4.8v2.6h-4.8v10.7c0 1.3.2 2.2.6 2.7.5.6 1.1.8 2.2.8.8 0 1.4-.2 2-.6z"/></svg>