<svg xmlns="http://www.w3.org/2000/svg" viewBox="0 0 133.159 10.583"><defs><path id="a" d="M43.35 90.633h172.067v63.649H43.35z"/></defs><g aria-label="Loading NeuroVault Viewer" transform="translate(-44.388 -92.044)"><path d="M44.388 100.085V92.53h.879v6.76H48.6v.795zM54.64 97.248q0 1.385-.697 2.165-.697.775-1.927.775-.76 0-1.349-.356-.59-.357-.91-1.023-.32-.667-.32-1.561 0-1.385.693-2.155.692-.775 1.922-.775 1.188 0 1.886.79.703.791.703 2.14zm-4.314 0q0 1.085.434 1.654.434.568 1.276.568.843 0 1.277-.563.439-.569.439-1.659 0-1.08-.44-1.638-.433-.563-1.286-.563-.842 0-1.271.553-.43.552-.43 1.648zM59.628 100.085l-.17-.806h-.042q-.424.532-.848.723-.418.186-1.049.186-.842 0-1.323-.434-.475-.434-.475-1.235 0-1.715 2.744-1.798l.961-.031v-.351q0-.667-.29-.982-.284-.32-.914-.32-.708 0-1.602.433l-.263-.656q.418-.227.914-.356.501-.13 1.003-.13 1.013 0 1.498.45.491.45.491 1.442v3.865zm-1.938-.605q.8 0 1.256-.439.46-.44.46-1.23V97.3l-.858.036q-1.024.036-1.478.32-.45.28-.45.874 0 .465.28.708.283.242.79.242zM65.886 99.325h-.047q-.594.863-1.778.863-1.11 0-1.73-.76-.616-.759-.616-2.16 0-1.4.62-2.175.62-.775 1.726-.775 1.153 0 1.768.837h.067l-.036-.408-.02-.398v-2.305h.857v8.041h-.698zm-1.716.145q.878 0 1.271-.475.398-.48.398-1.545v-.181q0-1.204-.403-1.716-.398-.517-1.276-.517-.755 0-1.158.59-.398.583-.398 1.653 0 1.085.398 1.638.398.553 1.168.553zM69.374 100.085h-.858v-5.664h.858zm-.93-7.198q0-.295.144-.43.145-.139.362-.139.207 0 .357.14t.15.429q0 .289-.15.434-.15.14-.357.14-.217 0-.362-.14-.144-.145-.144-.434zM75.069 100.085v-3.664q0-.692-.316-1.033-.315-.341-.987-.341-.889 0-1.302.48-.413.48-.413 1.587v2.971h-.858v-5.664h.697l.14.775h.041q.264-.418.74-.645.475-.233 1.059-.233 1.023 0 1.54.496.516.491.516 1.576v3.695zM82.324 94.421v.543l-1.05.124q.146.18.26.475.113.29.113.657 0 .832-.569 1.328-.568.496-1.56.496-.253 0-.476-.041-.547.289-.547.728 0 .233.19.346.192.109.657.109h1.003q.92 0 1.41.387.497.388.497 1.127 0 .94-.755 1.431-.754.497-2.201.497-1.111 0-1.716-.414-.6-.413-.6-1.168 0-.517.331-.894t.93-.511q-.217-.099-.366-.305-.145-.207-.145-.48 0-.31.165-.543.166-.233.522-.45-.44-.18-.718-.615-.274-.434-.274-.992 0-.93.558-1.432.558-.506 1.581-.506.445 0 .801.103zm-4.517 6.615q0 .46.388.698.387.237 1.111.237 1.08 0 1.597-.325.522-.32.522-.874 0-.46-.285-.64-.284-.176-1.07-.176h-1.028q-.584 0-.91.279-.325.279-.325.8zm.465-4.8q0 .593.336.898.336.305.936.305 1.255 0 1.255-1.22 0-1.276-1.27-1.276-.605 0-.931.326-.326.325-.326.966zM92.266 100.085h-1.002l-4.13-6.34h-.04q.082 1.116.082 2.046v4.294h-.811V92.53h.992l4.119 6.315h.041q-.01-.14-.046-.894-.037-.76-.026-1.085V92.53h.821zM96.607 100.188q-1.256 0-1.984-.764-.724-.765-.724-2.124 0-1.37.672-2.176.677-.806 1.814-.806 1.064 0 1.685.703.62.697.62 1.845v.542h-3.902q.026.998.501 1.514.481.517 1.35.517.914 0 1.808-.382v.765q-.455.196-.863.279-.403.087-.977.087zm-.232-5.152q-.682 0-1.09.445-.404.444-.476 1.23h2.96q0-.812-.36-1.24-.363-.435-1.034-.435zM100.958 94.421v3.675q0 .692.316 1.033.315.341.987.341.888 0 1.297-.486.413-.485.413-1.586V94.42h.858v5.664h-.708l-.124-.76h-.047q-.263.419-.733.641-.466.222-1.065.222-1.033 0-1.55-.49-.512-.491-.512-1.571V94.42zM109.232 94.318q.377 0 .677.062l-.12.796q-.35-.078-.62-.078-.687 0-1.178.558-.485.559-.485 1.39v3.04h-.858V94.42h.708l.098 1.05h.041q.316-.554.76-.853.444-.3.977-.3zM115.857 97.248q0 1.385-.698 2.165-.698.775-1.928.775-.76 0-1.348-.356-.59-.357-.91-1.023-.32-.667-.32-1.561 0-1.385.692-2.155.693-.775 1.923-.775 1.188 0 1.886.79.703.791.703 2.14zm-4.315 0q0 1.085.434 1.654.434.568 1.276.568.842 0 1.276-.563.44-.569.44-1.659 0-1.08-.44-1.638-.434-.563-1.286-.563-.843 0-1.271.553-.43.552-.43 1.648zM121.805 92.53h.945l-2.723 7.555h-.868l-2.708-7.555h.93l1.736 4.889q.3.842.476 1.638.186-.837.486-1.67zM127.143 100.085l-.17-.806h-.042q-.424.532-.848.723-.418.186-1.049.186-.842 0-1.323-.434-.475-.434-.475-1.235 0-1.715 2.744-1.798l.961-.031v-.351q0-.667-.29-.982-.283-.32-.914-.32-.708 0-1.602.433l-.263-.656q.418-.227.914-.356.502-.13 1.003-.13 1.013 0 1.498.45.491.45.491 1.442v3.865zm-1.938-.605q.8 0 1.256-.439.46-.44.46-1.23V97.3l-.858.036q-1.024.036-1.478.32-.45.28-.45.874 0 .465.28.708.283.242.79.242zM130.352 94.421v3.675q0 .692.315 1.033.315.341.987.341.889 0 1.297-.486.414-.485.414-1.586V94.42h.857v5.664h-.708l-.124-.76h-.046q-.264.419-.734.641-.465.222-1.064.222-1.034 0-1.55-.49-.512-.491-.512-1.571V94.42zM136.9 100.085h-.859v-8.04h.858zM140.548 99.48q.227 0 .439-.03.212-.037.336-.073v.656q-.14.068-.414.109-.268.046-.486.046-1.643 0-1.643-1.73v-3.37h-.811v-.413l.811-.357.362-1.21h.496v1.313h1.643v.667h-1.643v3.333q0 .512.243.786.243.273.667.273zM149.648 92.53h.945l-2.723 7.555h-.868l-2.708-7.555h.93l1.737 4.889q.3.842.475 1.638.186-.837.486-1.67zM152.36 100.085h-.857v-5.664h.858zm-.93-7.198q0-.295.145-.43.145-.139.362-.139.207 0 .357.14t.15.429q0 .289-.15.434-.15.14-.357.14-.217 0-.362-.14-.144-.145-.144-.434zM156.572 100.188q-1.255 0-1.984-.764-.724-.765-.724-2.124 0-1.37.672-2.176.677-.806 1.814-.806 1.065 0 1.685.703.62.697.62 1.845v.542h-3.902q.026.998.502 1.514.48.517 1.348.517.915 0 1.809-.382v.765q-.455.196-.863.279-.403.087-.977.087zm-.232-5.152q-.682 0-1.09.445-.404.444-.476 1.23h2.961q0-.812-.362-1.24-.361-.435-1.033-.435zM164.742 100.085l-1.038-3.323q-.099-.305-.367-1.385h-.042q-.206.905-.361 1.396l-1.07 3.312h-.992l-1.545-5.664h.899q.548 2.135.832 3.25.29 1.117.33 1.505h.042q.057-.295.18-.76.13-.47.223-.744l1.039-3.25h.93l1.013 3.25q.29.889.392 1.493h.042q.02-.186.108-.573.093-.388 1.08-4.17h.89l-1.567 5.663zM170.742 100.188q-1.256 0-1.984-.764-.724-.765-.724-2.124 0-1.37.672-2.176.677-.806 1.814-.806 1.064 0 1.684.703.62.697.62 1.845v.542h-3.901q.026.998.501 1.514.48.517 1.349.517.915 0 1.809-.382v.765q-.455.196-.863.279-.403.087-.977.087zm-.233-5.152q-.682 0-1.09.445-.403.444-.475 1.23h2.96q0-.812-.361-1.24-.362-.435-1.034-.435zM176.87 94.318q.378 0 .678.062l-.12.796q-.35-.078-.62-.078-.687 0-1.177.558-.486.559-.486 1.39v3.04h-.858V94.42h.708l.098 1.05h.041q.316-.554.76-.853.444-.3.977-.3z"/></g></svg>
