<svg xmlns="http://www.w3.org/2000/svg" viewBox="0 0 100 100"><path d="M50 1.233c-27.612 0-50 22.388-50 50 0 22.095 14.325 40.832 34.195 47.442 2.5.458 3.412-1.086 3.412-2.404 0-1.19-.046-5.132-.07-9.307-13.904 3.02-16.843-5.896-16.843-5.896-2.277-5.774-5.55-7.312-5.55-7.312-4.545-3.1.343-3.04.343-3.04 5.02.348 7.664 5.152 7.664 5.152 4.462 7.64 11.707 5.432 14.55 4.15.456-3.223 1.75-5.432 3.175-6.677-11.1-1.264-22.775-5.554-22.775-24.713 0-5.463 1.95-9.92 5.142-13.42-.51-1.27-2.23-6.356.495-13.237 0 0 4.193-1.343 13.75 5.126 3.986-1.113 8.262-1.663 12.513-1.68 4.248.017 8.526.573 12.518 1.687 9.54-6.476 13.74-5.127 13.74-5.127 2.734 6.887 1.013 11.97.5 13.232 3.204 3.5 5.14 7.956 5.14 13.42 0 19.206-11.695 23.436-22.834 24.675 1.8 1.55 3.393 4.59 3.393 9.253 0 6.683-.067 12.073-.067 13.72 0 1.33.91 2.888 3.443 2.4C85.687 92.052 100 73.315 100 51.232c0-27.612-22.388-50-50-50z"/></svg>