<?xml version="1.0" encoding="UTF-8" standalone="no"?>
<!-- Created with Inkscape (http://www.inkscape.org/) -->

<svg
   xmlns:dc="http://purl.org/dc/elements/1.1/"
   xmlns:cc="http://creativecommons.org/ns#"
   xmlns:rdf="http://www.w3.org/1999/02/22-rdf-syntax-ns#"
   xmlns:svg="http://www.w3.org/2000/svg"
   xmlns="http://www.w3.org/2000/svg"
   xmlns:sodipodi="http://sodipodi.sourceforge.net/DTD/sodipodi-0.dtd"
   xmlns:inkscape="http://www.inkscape.org/namespaces/inkscape"
   width="400"
   height="120"
   viewBox="0 0 400 120"
   id="svg6087"
   version="1.1"
   inkscape:version="0.91 r13725"
   sodipodi:docname="binc.svg">
  <defs
     id="defs6089">
    <clipPath
       id="clipPath6751"
       clipPathUnits="userSpaceOnUse">
      <path
         inkscape:connector-curvature="0"
         id="path6753"
         d="m 0,144.567 595.275,0 0,697.323 L 0,841.89 0,144.567 Z" />
    </clipPath>
    <clipPath
       id="clipPath6765"
       clipPathUnits="userSpaceOnUse">
      <path
         inkscape:connector-curvature="0"
         id="path6767"
         d="m 0,0 595.276,0 0,841.89 L 0,841.89 0,0 Z" />
    </clipPath>
    <clipPath
       id="clipPath6783"
       clipPathUnits="userSpaceOnUse">
      <path
         inkscape:connector-curvature="0"
         id="path6785"
         d="m 0,0 595.276,0 0,841.89 L 0,841.89 0,0 Z" />
    </clipPath>
    <clipPath
       id="clipPath6801"
       clipPathUnits="userSpaceOnUse">
      <path
         inkscape:connector-curvature="0"
         id="path6803"
         d="m 459.742,63.236 117.165,0 0,73.701 -117.165,0 0,-73.701 z" />
    </clipPath>
    <clipPath
       id="clipPath6973"
       clipPathUnits="userSpaceOnUse">
      <path
         inkscape:connector-curvature="0"
         id="path6975"
         d="m 498.015,72.201 68.667,0 0,52.544 -68.667,0 0,-52.544 z" />
    </clipPath>
    <clipPath
       id="clipPath6989"
       clipPathUnits="userSpaceOnUse">
      <path
         inkscape:connector-curvature="0"
         id="path6991"
         d="m 459.742,63.236 117.165,0 0,73.701 -117.165,0 0,-73.701 z" />
    </clipPath>
    <clipPath
       id="clipPath7001"
       clipPathUnits="userSpaceOnUse">
      <path
         inkscape:connector-curvature="0"
         id="path7003"
         d="m 35.915,31.361 152.551,0 0,97.229 -152.551,0 0,-97.229 z" />
    </clipPath>
    <clipPath
       id="clipPath7061"
       clipPathUnits="userSpaceOnUse">
      <path
         inkscape:connector-curvature="0"
         id="path7063"
         d="m 50.671,35.613 134.961,0 0,89.292 -134.961,0 0,-89.292 z" />
    </clipPath>
    <clipPath
       id="clipPath7085"
       clipPathUnits="userSpaceOnUse">
      <path
         inkscape:connector-curvature="0"
         id="path7087"
         d="m 35.915,31.361 152.551,0 0,97.229 -152.551,0 0,-97.229 z" />
    </clipPath>
    <clipPath
       id="clipPath7001-0"
       clipPathUnits="userSpaceOnUse">
      <path
         inkscape:connector-curvature="0"
         id="path7003-5"
         d="m 35.915,31.361 152.551,0 0,97.229 -152.551,0 0,-97.229 z" />
    </clipPath>
    <clipPath
       id="clipPath7061-4"
       clipPathUnits="userSpaceOnUse">
      <path
         inkscape:connector-curvature="0"
         id="path7063-8"
         d="m 50.671,35.613 134.961,0 0,89.292 -134.961,0 0,-89.292 z" />
    </clipPath>
    <clipPath
       id="clipPath7085-5"
       clipPathUnits="userSpaceOnUse">
      <path
         inkscape:connector-curvature="0"
         id="path7087-9"
         d="m 35.915,31.361 152.551,0 0,97.229 -152.551,0 0,-97.229 z" />
    </clipPath>
  </defs>
  <sodipodi:namedview
     id="base"
     pagecolor="#ffffff"
     bordercolor="#666666"
     borderopacity="1.0"
     inkscape:pageopacity="0.0"
     inkscape:pageshadow="2"
     inkscape:zoom="2.8"
     inkscape:cx="232.22305"
     inkscape:cy="58.279557"
     inkscape:document-units="px"
     inkscape:current-layer="g7878"
     showgrid="false"
     units="px"
     inkscape:window-width="1916"
     inkscape:window-height="1053"
     inkscape:window-x="0"
     inkscape:window-y="516"
     inkscape:window-maximized="0"
     fit-margin-top="0"
     fit-margin-left="0"
     fit-margin-right="0"
     fit-margin-bottom="0" />
  <metadata
     id="metadata6092">
    <rdf:RDF>
      <cc:Work
         rdf:about="">
        <dc:format>image/svg+xml</dc:format>
        <dc:type
           rdf:resource="http://purl.org/dc/dcmitype/StillImage" />
        <dc:title></dc:title>
      </cc:Work>
    </rdf:RDF>
  </metadata>
  <g
     inkscape:label="Layer 1"
     inkscape:groupmode="layer"
     id="layer1"
     transform="translate(-0.53065779,-849.87634)">
    <g
       id="g7878"
       transform="matrix(0.56890798,0,0,0.56890798,5.4321785,397.99354)">
      <g
         transform="matrix(1.8453397,0,0,1.8453397,-708.12598,534.6593)"
         id="g7855">
        <path
           inkscape:connector-curvature="0"
           id="path7007"
           style="fill:#1c4f9c;fill-opacity:1;fill-rule:evenodd;stroke:none"
           d="m 445.43312,187.9388 c 0.58,-5.53625 5.18875,-9.58875 10.29125,-9.05125 5.1025,0.53625 8.76875,5.46125 8.18875,10.9975 -0.58125,5.53625 -5.18875,9.5875 -10.2925,9.05125 -5.1025,-0.5375 -8.7675,-5.46125 -8.1875,-10.9975" />
        <path
           inkscape:connector-curvature="0"
           id="path7011"
           style="fill:#1c4f9c;fill-opacity:1;fill-rule:evenodd;stroke:none"
           d="m 419.38849,195.77644 c 0.55125,-5.2475 5.13375,-9.06625 10.23625,-8.52875 5.1025,0.5375 8.79375,5.2275 8.2425,10.475 -0.55,5.24625 -5.13375,9.065 -10.23625,8.5275 -5.1025,-0.53625 -8.79375,-5.22625 -8.2425,-10.47375" />
        <path
           inkscape:connector-curvature="0"
           id="path7015"
           style="fill:#1c4f9c;fill-opacity:1;fill-rule:evenodd;stroke:none"
           d="m 430.72887,176.78518 c 0.40375,-3.8525 3.85375,-6.645 7.70625,-6.24 3.85125,0.405 6.64625,3.85625 6.24125,7.70875 -0.40375,3.85125 -3.85375,6.645 -7.705,6.23875 -3.8525,-0.40625 -6.64625,-3.85625 -6.2425,-7.7075" />
        <path
           inkscape:connector-curvature="0"
           id="path7019"
           style="fill:#1c4f9c;fill-opacity:1;fill-rule:evenodd;stroke:none"
           d="m 438.64187,207.24144 c 0.40375,-3.85375 3.85375,-6.64625 7.70625,-6.24125 3.85125,0.40625 6.64625,3.8575 6.2425,7.70875 -0.405,3.8525 -3.85375,6.645 -7.70625,6.24 -3.85125,-0.405 -6.64625,-3.85625 -6.2425,-7.7075" />
        <path
           inkscape:connector-curvature="0"
           id="path7023"
           style="fill:#2857af;fill-opacity:1;fill-rule:evenodd;stroke:none"
           d="m 461.36973,177.34767 c -0.86125,-2.12875 0.86375,-4.83375 3.85375,-6.04125 2.9875,-1.2075 6.11,-0.46 6.97125,1.66875 0.86125,2.13 -0.86375,4.83375 -3.8525,6.04125 -2.99,1.20625 -6.11125,0.46 -6.9725,-1.66875" />
        <path
           inkscape:connector-curvature="0"
           id="path7027"
           style="fill:#2857af;fill-opacity:1;fill-rule:evenodd;stroke:none"
           d="m 412.04387,214.83381 c -1.275,-3.15125 -0.1475,-6.57875 2.52,-7.65625 2.66625,-1.07625 5.86125,0.605 7.13625,3.75625 1.275,3.15125 0.14625,6.58 -2.52,7.65625 -2.66625,1.07625 -5.86125,-0.605 -7.13625,-3.75625" />
        <path
           inkscape:connector-curvature="0"
           id="path7031"
           style="fill:#2857af;fill-opacity:1;fill-rule:evenodd;stroke:none"
           d="m 446.07249,165.33893 c 1.21875,-2.29375 4.08875,-3.1525 6.40875,-1.9175 2.32,1.235 3.2125,4.09625 1.9925,6.39 -1.21875,2.29375 -4.0875,3.15125 -6.4075,1.91625 -2.32125,-1.235 -3.2125,-4.095 -1.99375,-6.38875" />
        <path
           inkscape:connector-curvature="0"
           id="path7035"
           style="fill:#2857af;fill-opacity:1;fill-rule:evenodd;stroke:none"
           d="m 425.46374,218.54906 c 0.3025,-2.89 3.2425,-4.94875 6.56625,-4.59875 3.32125,0.35 5.77,2.97625 5.4675,5.865 -0.30375,2.89 -3.2425,4.94875 -6.56625,4.6 -3.3225,-0.35125 -5.77125,-2.9775 -5.4675,-5.86625" />
        <path
           inkscape:connector-curvature="0"
           id="path7039"
           style="fill:#5788c2;fill-opacity:1;fill-rule:evenodd;stroke:none"
           d="m 475.03711,170.15317 c 0.20125,-1.92 2.3425,-3.26875 4.78125,-3.01125 2.44,0.25625 4.25375,2.02125 4.05125,3.9425 -0.2,1.91875 -2.34125,3.2675 -4.78,3.01125 -2.44,-0.2575 -4.25375,-2.0225 -4.0525,-3.9425" />
        <path
           inkscape:connector-curvature="0"
           id="path7043"
           style="fill:#bad9f3;fill-opacity:1;fill-rule:evenodd;stroke:none"
           d="m 487.91324,167.61318 c 0.16,-1.52625 2.17,-2.565 4.4875,-2.32125 2.31875,0.245 4.0675,1.68 3.9075,3.205 -0.16,1.52625 -2.16875,2.565 -4.48625,2.32125 -2.31875,-0.24375 -4.06875,-1.67875 -3.90875,-3.205" />
        <path
           inkscape:connector-curvature="0"
           id="path7047"
           style="fill:#5788c2;fill-opacity:1;fill-rule:evenodd;stroke:none"
           d="m 449.54799,155.37481 c 0.175,-1.67125 2.19625,-2.8275 4.51375,-2.5825 2.31875,0.24375 4.055,1.795 3.88,3.46625 -0.175,1.67125 -2.19625,2.82625 -4.51375,2.5825 -2.31875,-0.24375 -4.05625,-1.79625 -3.88,-3.46625" />
        <path
           inkscape:connector-curvature="0"
           id="path7051"
           style="fill:#63a1d9;fill-opacity:1;fill-rule:evenodd;stroke:none"
           d="m 433.79748,242.65218 c -0.25,-1.4175 1.20375,-2.8575 3.24875,-3.2175 2.04375,-0.36 3.90375,0.4975 4.15375,1.915 0.25,1.41625 -1.20375,2.85625 -3.2475,3.21625 -2.045,0.36 -3.905,-0.4975 -4.155,-1.91375" />
        <path
           inkscape:connector-curvature="0"
           id="path7055"
           style="fill:#5788c2;fill-opacity:1;fill-rule:evenodd;stroke:none"
           d="m 401.03701,213.23255 c 1.24,-1.48 3.85875,-1.3225 5.8475,0.34875 1.99,1.67125 2.5975,4.22375 1.3575,5.7025 -1.24125,1.47875 -3.85875,1.3225 -5.84875,-0.3475 -1.99,-1.6725 -2.59625,-4.225 -1.35625,-5.70375" />
        <path
           inkscape:connector-curvature="0"
           id="path7067"
           style="fill:#63a1d9;fill-opacity:1;fill-rule:evenodd;stroke:none"
           d="m 389.39999,217.25269 c 0.79375,-1.27125 3.29625,-1.13875 5.5875,0.295 2.29375,1.43375 3.50875,3.62625 2.71375,4.8975 -0.7925,1.26875 -3.295,1.1375 -5.5875,-0.29625 -2.2925,-1.43375 -3.5075,-3.62625 -2.71375,-4.89625" />
        <path
           inkscape:connector-curvature="0"
           id="path7071"
           style="fill:#bad9f3;fill-opacity:1;fill-rule:evenodd;stroke:none"
           d="m 379.47088,221.08644 c 0.61625,-0.985 2.8125,-0.7225 4.90625,0.58625 2.095,1.31 3.2925,3.17 2.6775,4.15625 -0.61625,0.98625 -2.8125,0.7225 -4.90625,-0.5875 -2.095,-1.31 -3.29375,-3.17 -2.6775,-4.155" />
        <path
           inkscape:connector-curvature="0"
           id="path7075"
           style="fill:#bad9f3;fill-opacity:1;fill-rule:evenodd;stroke:none"
           d="m 448.44637,144.24057 c 0.15,-1.43125 1.71125,-2.43875 3.48625,-2.2525 1.77625,0.1875 3.09375,1.49875 2.94375,2.93 -0.15,1.43125 -1.71125,2.44 -3.4875,2.2525 -1.775,-0.18625 -3.09375,-1.49875 -2.9425,-2.93" />
        <path
           inkscape:connector-curvature="0"
           id="path7079"
           style="fill:#bad9f3;fill-opacity:1;fill-rule:evenodd;stroke:none"
           d="m 436.44149,251.67518 c -0.235,-1.3325 1.0375,-2.67 2.84125,-2.9875 1.80375,-0.31875 3.45625,0.50375 3.6925,1.8375 0.235,1.3325 -1.03625,2.67 -2.84,2.9875 -1.805,0.31625 -3.4575,-0.505 -3.69375,-1.8375" />
        <path
           inkscape:connector-curvature="0"
           id="path7091"
           style="fill:#2857af;fill-opacity:1;fill-rule:evenodd;stroke:none"
           d="m 414.59512,176.67268 c 0.27375,-2.6 2.91875,-4.4525 5.90875,-4.13875 2.99125,0.315 5.195,2.6775 4.9225,5.28 -0.27375,2.6 -2.91875,4.4525 -5.91,4.1375 -2.99,-0.315 -5.19375,-2.67875 -4.92125,-5.27875" />
        <path
           inkscape:connector-curvature="0"
           id="path7095"
           style="fill:#5788c2;fill-opacity:1;fill-rule:evenodd;stroke:none"
           d="m 408.39799,164.98893 c 0.18625,-1.77625 2.1975,-3.02 4.4925,-2.7775 2.295,0.24125 4.00375,1.8775 3.8175,3.6525 -0.18625,1.775 -2.1975,3.01875 -4.4925,2.7775 -2.29375,-0.2425 -4.00375,-1.8775 -3.8175,-3.6525" />
        <path
           inkscape:connector-curvature="0"
           id="path7099"
           style="fill:#bad9f3;fill-opacity:1;fill-rule:evenodd;stroke:none"
           d="m 398.99562,156.75518 c 0.135,-1.28625 1.80125,-2.16625 3.72125,-1.96375 1.92,0.2025 3.3675,1.41 3.2325,2.69625 -0.135,1.28625 -1.80125,2.165 -3.7225,1.96375 -1.92,-0.2025 -3.36625,-1.40875 -3.23125,-2.69625" />
        <path
           inkscape:connector-curvature="0"
           id="path7103"
           style="fill:#5788c2;fill-opacity:1;fill-rule:evenodd;stroke:none"
           d="m 430.89549,235.12443 c -1.1625,-1.54125 -0.42375,-4.0575 1.65,-5.62125 2.075,-1.5625 4.69875,-1.58 5.8625,-0.0387 1.1625,1.54125 0.4225,4.05875 -1.65125,5.62125 -2.075,1.5625 -4.69875,1.58 -5.86125,0.0387" />
      </g>
      <text
         xml:space="preserve"
         style="font-style:normal;font-variant:normal;font-weight:normal;font-stretch:normal;font-size:35.19570923px;line-height:125%;font-family:Arial;-inkscape-font-specification:'Arial, Normal';text-align:start;letter-spacing:0px;word-spacing:0px;writing-mode:lr-tb;text-anchor:start;fill:#0a4195;fill-opacity:1;stroke:none;stroke-width:1px;stroke-linecap:butt;stroke-linejoin:miter;stroke-opacity:1"
         x="176.84383"
         y="937.97479"
         id="text7630"
         sodipodi:linespacing="125%"
         transform="scale(1.0074084,0.99264608)"><tspan
           sodipodi:role="line"
           x="176.84383"
           y="937.97479"
           id="tspan4718"
           style="font-size:61.52137375px"
           dy="0 0 0 0 0 -1.1800001"
           dx="0 0 0 0 0 3.73"><tspan
   id="tspan3484"
   style="font-style:normal;font-variant:normal;font-weight:bold;font-stretch:normal;font-size:61.52137375px;font-family:sans-serif;-inkscape-font-specification:'sans-serif Bold';letter-spacing:-3.90221286px;word-spacing:0px"
   dx="0">binc</tspan> germany-usa</tspan></text>
      <flowRoot
         xml:space="preserve"
         id="flowRoot4710"
         style="font-style:normal;font-variant:normal;font-weight:bold;font-stretch:normal;font-size:20px;line-height:125%;font-family:Arial;-inkscape-font-specification:'Arial, Bold';text-align:start;letter-spacing:0px;word-spacing:0px;writing-mode:lr-tb;text-anchor:start;fill:#000000;fill-opacity:1;stroke:none;stroke-width:1px;stroke-linecap:butt;stroke-linejoin:miter;stroke-opacity:1"><flowRegion
           id="flowRegion4712"><rect
             id="rect4714"
             width="35"
             height="24.285715"
             x="166.78572"
             y="59.285713" /></flowRegion><flowPara
           id="flowPara4716" /></flowRoot>    </g>
  </g>
</svg>
