<?xml version="1.0" encoding="utf-8"?>
<!-- Generator: Adobe Illustrator 19.2.1, SVG Export Plug-In . SVG Version: 6.00 Build 0)  -->
<svg version="1.1" id="Layer_1" xmlns="http://www.w3.org/2000/svg" xmlns:xlink="http://www.w3.org/1999/xlink" x="0px" y="0px"
	 viewBox="0 0 70.7 93.1" style="enable-background:new 0 0 70.7 93.1;" xml:space="preserve">
<title>ForestRunning</title>
<path d="M10.7,93.1C9.5,91.4,5.3,82.8,5,81.6s-2-2,2.1-4c2.1-1,3.8-2.4,4.9-2.1c1.2-0.7,3.3-2.3,4.1-3.5c2.5-3.5,5.3-4.5,10-6.7
	c1.6-0.7,2.9-3.7,3.8-6c0-0.5-0.2-0.5,0.2-1.2c0.3-0.6,0.8-1.7,1.1-2.3c0.7-1.3-0.5-1.1,0.2-3.3c1.4-4.4,2.2-7.7,2.5-8.8
	c1-3.4,3.1-3.1,3.1-5.4c-0.5-0.2-2.2-1.2-2.4-2.5c-0.6-3.8-2.1-9.9-2.1-9.9c-1.3,0-1.9,0.5-3.9,0.1c0.1,1.1-0.5,3.7-0.1,6.7
	c0.1,1,0.1,1.7,0.3,2.2c0.3,0.3,0.7,0.6,0.7,0.9c0.4,1.5,0.9,2.1,1.1,2.8c0.1,1.4,0.1,1.3-0.8,1.8c0,0.6,0,0.9-0.3,1.5
	c-0.1,0.3-0.6,0.4-1,0.3c-0.8,0.7-0.8,0.8-1.6,0.7c-0.2,0.1-0.5-0.4-0.5-0.7c0.1-0.3,0.6-0.3,0.6-0.5c0-0.9-0.2-1-0.4-1.5
	c-0.2-0.3,0-1.4-0.3-1.7c-0.9-1.4-1.1-1.2-1-3.4c-0.9-2.5-2.4-10-1.2-11.6c1.4-0.7,3.6-1.8,4.6-2.3c0-0.5,0.7-2,0.9-2.5
	c1-0.3,2.6,0.3,5.1-0.4c0.7-0.8,1.5-0.3,3.5-0.3c0.8,0,0.4-0.9,1.3-1.1c1,0.2,0.4-2.3,0.8-2.8c0.4-0.4,1.9,0.4,1.9,0.5
	c0.1-0.6,0.4-1.1,0.2-1.6c-0.4-0.3-0.6-0.8-1-1.3c-0.5-0.7-1.6-2.5-1.1-5.4C41,3.8,43,1.9,45,1.5c2.6-0.6,6,0,8.6,2.9
	c0.8,0.8,1,1.2,1.1,1.7c0.2,0.8-0.4,1.2-0.3,1.8c0.2,2.3-0.1,1.8-0.5,3c-0.5,1.2,0.4,2,0.4,2.3c-0.3,0.7-0.7,0.4-1.4,0.5
	c-0.2,0.3-0.4,0.3-0.4,0.9c0,0.6-0.3,0.8-0.4,1.1c-0.4,1.1-1.1,1.8-2,1.7c-0.2,0-0.2,0.1-0.3,0.4c0.4,0.4,2,0.7,2,1.9
	c0,1.1,1.3,1.4,1.3,2.5c-0.1,3,1.5,3.8,1.7,5.6c2-0.4,3.4-2.7,5.4-5.1c0-0.9,0.2-0.2-0.2-2.1c-0.1-0.3-0.3-0.8,0.1-1
	c0.5-0.4,0.2-0.6,0.6-0.7c0.3-0.1,0.3-0.4,0.5-0.5c0.1-0.1,0.5,0,0.5,0.6c0,0.2-0.2,0.5-0.3,0.6c0.1,0,0,0.6,0.1,0.7
	c0.3,0.3,0.7-0.9,1-1.1c0.3-0.1,0.2-0.5,0.4-0.7c0.2-0.3,0.1-0.5,0.1-0.7c0-0.5-0.1-0.6-0.1-1.1c0.2-0.4,0.5-0.4,0.6-0.3
	c0.2,0.2,0.5,0.6,0.5,1.3c0-0.2,0.4-0.1,0.7,0.1c0.1,0.2,0.2,0.4,0.1,0.7c0.5,0.1,0.6,0.4,0.6,0.6c0.3,0,0.2,0.7,0.2,0.9
	c0,0.2-0.1,0.7-0.1,0.8c0.2,0.6-0.3,1.4-0.6,1.8c-0.5,0.6-0.6,0.8-1.3,1.1c-1,0.5-2.5,3.2-3.9,5.1c-4.3,5.7-5.9,4.9-8.1,5.9
	c0.1,1.1-1.1,1.6-1.3,3.1c-0.3,2.6-1.3,3.2-2.3,4.6c-1.2,1.6-0.5,2-0.5,3.3c1.9,0.5,6.1,2.2,6.3,2.7c1.8,0.4,7.4,3.7,8.3,4.2
	c2.9,1.5,1.8,4.6,0.8,6.1c-0.7,1-9.3,9.2-11.3,10.8c-0.5,0.4,0.1,0.1-0.4,1c-0.3,0.5-0.3,1,0,2c-0.3,1.7,1.5,4.3,3.3,6.3
	c1.1,1.7,0.4,2,0.2,2.8c-0.3,0.8-2.2,0-3.1-0.4c-1.7-1.4-12.1-6.8-11-8.6c0.5-0.8,2.1-1.3,4.5-3.8c0.3-0.4,1.8-1,2.1-1
	c0.4-1.4,1.9-3.4,2.3-4.8c1.8-6.5,6.5-6.4,5.5-6.6c-0.8,0-3.2-0.2-4.7-0.5c-1.8,1.5-2.9,1.5-4.6,2c-0.7,1.1-2,0.2-3.2,0.4
	c-0.7,1-1.6,1.4-2.5,1.7c-0.4,0.1-0.7,0.9-0.9,1.2c-0.1,0.1-0.5,0.3-0.6,0.4c-2,2.7-4.3,6.2-6.1,7.7c-1.8,1.4-12.6,7.7-17.5,11.4
	c-0.1,1.4-0.2,1.5-1.1,2.3c-0.2,1.7-1.2,1.4-0.9,2.7c0.5,1.5,0.4,4,0.6,5C13.3,92.4,12,93.4,10.7,93.1z"/>
</svg>
