<?xml version="1.0" encoding="UTF-8" standalone="no"?>
<!-- Created with Inkscape (http://www.inkscape.org/) -->

<svg
   xmlns:dc="http://purl.org/dc/elements/1.1/"
   xmlns:cc="http://creativecommons.org/ns#"
   xmlns:rdf="http://www.w3.org/1999/02/22-rdf-syntax-ns#"
   xmlns:svg="http://www.w3.org/2000/svg"
   xmlns="http://www.w3.org/2000/svg"
   xmlns:xlink="http://www.w3.org/1999/xlink"
   xmlns:sodipodi="http://sodipodi.sourceforge.net/DTD/sodipodi-0.dtd"
   xmlns:inkscape="http://www.inkscape.org/namespaces/inkscape"
   width="32"
   height="32"
   id="svg2"
   version="1.1"
   inkscape:version="0.48.4 r9939"
   inkscape:export-filename="/home/mih/private/www/studyforrest.org/www/pics/favicon.png"
   inkscape:export-xdpi="90"
   inkscape:export-ydpi="90"
   sodipodi:docname="New document 1">
  <defs
     id="defs4">
    <linearGradient
       id="linearGradient4189">
      <stop
         style="stop-color:#f9f9f9;stop-opacity:1;"
         offset="0"
         id="stop4191" />
      <stop
         id="stop4209"
         offset="0.56321841"
         style="stop-color:white;stop-opacity:0.49803922;" />
      <stop
         id="stop4197"
         offset="1"
         style="stop-color:black;stop-opacity:1;" />
    </linearGradient>
    <radialGradient
       inkscape:collect="always"
       xlink:href="#linearGradient4189"
       id="radialGradient4207"
       cx="15.787339"
       cy="15.341992"
       fx="15.787339"
       fy="15.341992"
       r="16"
       gradientTransform="matrix(1.8536036,0,0,1.7188,-13.528629,-11.227811)"
       gradientUnits="userSpaceOnUse" />
  </defs>
  <sodipodi:namedview
     id="base"
     pagecolor="#ffffff"
     bordercolor="#666666"
     borderopacity="1.0"
     inkscape:pageopacity="0.0"
     inkscape:pageshadow="2"
     inkscape:zoom="8"
     inkscape:cx="29.149427"
     inkscape:cy="39.469337"
     inkscape:document-units="px"
     inkscape:current-layer="layer1"
     showgrid="false"
     inkscape:window-width="1920"
     inkscape:window-height="1141"
     inkscape:window-x="0"
     inkscape:window-y="30"
     inkscape:window-maximized="1" />
  <metadata
     id="metadata7">
    <rdf:RDF>
      <cc:Work
         rdf:about="">
        <dc:format>image/svg+xml</dc:format>
        <dc:type
           rdf:resource="http://purl.org/dc/dcmitype/StillImage" />
        <dc:title></dc:title>
      </cc:Work>
    </rdf:RDF>
  </metadata>
  <g
     inkscape:label="Layer 1"
     inkscape:groupmode="layer"
     id="layer1"
     transform="translate(0,-1020.3622)">
    <rect
       style="fill:url(#radialGradient4207);fill-opacity:1;fill-rule:evenodd;stroke:#4d4d4d;stroke-width:1;stroke-linecap:round;stroke-linejoin:miter;stroke-miterlimit:4;stroke-opacity:1;stroke-dasharray:none;stroke-dashoffset:0"
       id="rect4199"
       width="31"
       height="31.125"
       x="0.5"
       y="0.37499994"
       transform="translate(0,1020.3622)"
       rx="3.4375"
       ry="3.4375"
       inkscape:export-xdpi="90"
       inkscape:export-ydpi="90" />
    <g
       id="g4113"
       transform="matrix(0.07749994,0,0,0.08912075,-3.9278266,997.6021)">
      <g
         transform="translate(57.142857,292.11894)"
         id="g5"
         style="fill:#3d2218;fill-opacity:1">
        <line
           style="fill:#3d2218;fill-opacity:1"
           y2="174.91"
           x1="138.5"
           y1="174.91"
           x2="138.5"
           id="line7" />
        <line
           style="fill:#3d2218;fill-opacity:1"
           y2="130.91"
           x1="95.5"
           y1="130.91"
           x2="95.5"
           id="line9" />
        <line
           style="fill:#3d2218;fill-opacity:1"
           y2="130.91"
           x1="95.5"
           y1="130.91"
           x2="95.5"
           id="line11" />
        <line
           style="fill:#3d2218;fill-opacity:1"
           y2="130.91"
           x1="95.5"
           y1="130.91"
           x2="95.5"
           id="line13" />
        <line
           style="fill:#3d2218;fill-opacity:1"
           y2="130.91"
           x1="95.5"
           y1="130.91"
           x2="95.5"
           id="line15" />
        <path
           style="fill:#3d2218;fill-opacity:1"
           d="m 127.5,168.91 c -6.44,-6.45 -11.46,-13.78 -16.89,-21.02 -1.37,-1.84 -2.93,-3.63 -3.96,-5.69 -0.85,-1.7 -2.6,-3.79 -3.9,-5.54 -1.3,-1.76 -1.65,-2.79 -2.75,-3.75 -0.795,-0.7 -1.57,-1.03 -3,-1.5 3.31,0.66 6.63,1.32 9.94,1.98 1.97,0.4 4.57,1.89 5.48,3.02 3.68,4.56 6.85,9.26 9.91,14.36 1.54,2.56 3.92,4.63 5.59,7.14 1.61,2.41 3.57,5.57 5.6,7.6 3.75,3.75 6.26,9.55 11.48,11.4 -6.52,-1.72 -12.84,-2.77 -17.5,-8"
           id="path17"
           inkscape:connector-curvature="0" />
        <line
           style="fill:#3d2218;fill-opacity:1"
           y2="133.41"
           x1="106"
           y1="133.41"
           x2="106"
           id="line19" />
        <line
           style="fill:#3d2218;fill-opacity:1"
           y2="133.41"
           x1="106"
           y1="133.41"
           x2="106"
           id="line21" />
        <line
           style="fill:#3d2218;fill-opacity:1"
           y2="133.41"
           x1="106"
           y1="133.41"
           x2="106"
           id="line23" />
        <path
           style="fill:#3d2218;fill-opacity:1"
           d="m 60.5,193.91 c 1.128,-10.21 2.024,-21.12 4.068,-31.34 0.529,-2.65 0.792,-5.32 1.235,-7.98 0.456,-2.74 1.474,-5.29 2.145,-7.97 0.28,-1.13 0.323,-2.3 0.604,-3.42 0.396,-1.59 0.089,-1.88 1.625,-1.51 3.108,0.74 6.215,1.48 9.323,2.22 -1.24,4.96 -1.211,9.77 -2.055,14.83 -0.842,5.06 -2.685,10.25 -3.797,15.25 -1.163,5.23 0.336,10.52 -0.534,15.74 -0.511,3.06 1.09,7.72 0.386,12.18 -4.45,-1.27 -13.527,-1.67 -13,-8"
           id="path25"
           inkscape:connector-curvature="0" />
        <line
           style="fill:#3d2218;fill-opacity:1"
           y2="144.41"
           x1="79"
           y1="144.41"
           x2="79"
           id="line27" />
        <line
           style="fill:#3d2218;fill-opacity:1"
           y2="144.41"
           x1="79"
           y1="144.41"
           x2="79"
           id="line29" />
        <line
           style="fill:#3d2218;fill-opacity:1"
           y2="146.91"
           x1="77"
           y1="146.91"
           x2="77"
           id="line31" />
        <path
           style="fill:#3d2218;fill-opacity:1"
           d="m 60.5,146.41 c -2.115,-1.92 -1.717,-6.56 0.156,-8.66 1.979,-2.21 4.022,-4.27 6.344,-6.34 2.43,-2.18 5.67,-3.59 8.5,-5 3.396,-1.7 6.771,-3.09 10.405,-4.31 3.328,-1.1 7.438,-1.05 10.927,-1.48 3.848,-0.48 7.008,0.41 10.778,0.94 1.15,0.17 3.28,1.14 4.39,0.85 1.05,-0.28 1.61,-1.61 2.25,-2.25 1.62,-1.62 2.58,-6.98 3.25,-9.25 1.72,-5.82 1.78,-11.926 2.96,-17.818 1.21,-6.028 1.83,-12.187 2.7,-18.292 0.91,-6.373 3.05,-12.529 5.09,-18.643 0.46,-1.384 1.44,-2.778 2.25,-4 0.24,-0.365 2.61,-1.787 3.06,-1.744 3.48,0.331 6.98,0.907 10.46,1.239 -2.42,1.788 -4.79,4.559 -5.77,7.505 -0.62,1.867 -1.38,3.035 -1.72,5.084 -0.32,1.891 0.32,3.624 0.05,5.559 -1.02,7.096 -3.66,14.288 -3.66,21.513 0,1.635 -1.97,3.342 -2.29,4.946 -0.31,1.575 -0.31,3.353 -0.68,4.861 -0.43,1.71 -0.32,3.39 -0.87,5.05 -0.52,1.57 -0.89,3.27 -1.21,4.89 -0.79,3.95 -2.03,15.08 -8.04,13.29 -10.73,-3.2 -23.22,-1.46 -32.908,4.36 -5.507,3.3 -24.716,14.34 -14.422,21.2 -3.91,-0.93 -8.787,-1.36 -12,-3.5"
           id="path33"
           inkscape:connector-curvature="0" />
        <line
           style="fill:#3d2218;fill-opacity:1"
           y2="216.91"
           x1="310"
           y1="216.91"
           x2="310"
           id="line35" />
        <line
           style="fill:#3d2218;fill-opacity:1"
           y2="216.91"
           x1="310"
           y1="216.91"
           x2="310"
           id="line37" />
        <line
           style="fill:#3d2218;fill-opacity:1"
           y2="216.91"
           x1="309.5"
           y1="216.91"
           x2="309.5"
           id="line39" />
        <line
           style="fill:#3d2218;fill-opacity:1"
           y2="216.91"
           x1="309.5"
           y1="216.91"
           x2="309.5"
           id="line41" />
        <line
           style="fill:#3d2218;fill-opacity:1"
           y2="183.41"
           x1="247"
           y1="183.41"
           x2="247"
           id="line43" />
        <line
           style="fill:#3d2218;fill-opacity:1"
           y2="183.41"
           x1="247"
           y1="183.41"
           x2="247"
           id="line45" />
        <path
           style="fill:#3d2218;fill-opacity:1"
           d="m 322.5,220.41 c -4.03,-1.05 -8.06,-2.09 -12.1,-3.14 -2.59,-0.67 -5.27,-1.23 -7.24,-3.21 -4.5,-4.5 -8.54,-10.19 -11.73,-15.77 -3.53,-6.18 -7.11,-12.24 -10.28,-18.59 -0.71,-1.42 -1.47,-2.96 -2.15,-4.29 -0.5,-0.98 -2,-2.24 -2,-3.25 0,-0.52 -1.5,-0.99 -1.5,-1.5 0,-0.84 -2.47,-0.58 -3,-1.25 3.9,0.83 7.79,1.67 11.68,2.5 2.05,0.44 4.99,1.08 6.32,2.5 0.07,0.07 1.42,0.64 1.42,0.75 0,0.65 0.32,-0.08 0.5,0.25 0.29,0.52 0.37,1.37 0.75,1.75 1.03,1.03 1.71,2.63 2.17,4.01 1,3.01 2.93,6.71 4.83,9.24 1,1.34 1.54,2.84 2.2,4.38 0.6,1.42 1.79,2.67 2.57,4.02 1.78,3.12 2.29,6.15 4.14,9.23 3.12,5.21 7.27,10.83 13.42,12.37"
           id="path47"
           inkscape:connector-curvature="0" />
        <line
           style="fill:#3d2218;fill-opacity:1"
           y2="174.91"
           x1="278"
           y1="174.91"
           x2="278"
           id="line49" />
        <path
           style="fill:#3d2218;fill-opacity:1"
           d="m 253.42,240.41 c 1.93,-11.6 1.34,-23.31 3.65,-34.84 1.11,-5.57 3.35,-11.17 5.15,-16.57 0.15,-0.46 -0.61,-3.06 -0.76,-3.1 -1.34,-0.34 -2.67,-0.67 -4,-1 l -9.96,-2.49 c 0,3.05 -1.6,6.08 -2.1,9.09 -0.6,3.61 -1.62,7.01 -2.33,10.57 -1.48,7.4 -1.83,14.99 -3.47,22.37 -1.32,5.96 -2.1,13.13 -2.1,19.2 0,1.8 0.06,2.9 0.87,4.51 0.44,0.88 2.48,1.15 3.31,1.38 3.94,1.13 8.03,2.02 11.96,3.14 -3.9,-2.23 -0.68,-9.53 -0.22,-12.26 z"
           id="path51"
           inkscape:connector-curvature="0" />
        <path
           style="fill:#3d2218;fill-opacity:1"
           d="m 254.42,183.91 c 0.86,-2.6 1.99,-5.92 3.92,-7.85 2.18,-2.17 4.54,-4.19 7.01,-6.04 6.09,-4.57 12.3,-5.95 19.6,-8.04 1.46,-0.42 3.05,-1.45 4.56,-1.64 2.61,-0.32 3.92,-0.31 6.44,0.41 1.59,0.45 8.47,2.33 8.47,-0.59 0,-0.84 -0.28,-2.33 0.08,-3.25 0.7,-1.8 1.49,-3.46 1.87,-5.36 0.7,-3.48 2.63,-6.99 3.5,-10.44 1.31,-5.23 1.96,-10.67 2.85,-16.02 0.95,-5.68 0.55,-11.34 1.26,-17.05 0.7,-5.56 3.06,-11.484 4.83,-16.814 1.56,-4.686 1.67,-11.073 6.36,-13.422 -4.21,-0.601 -8.59,-1.601 -12.8,-2.202 -3.57,-0.51 -4.55,3.007 -5.87,5.554 -1.48,2.843 -2.3,6.8 -3.16,9.797 -1.03,3.634 -1.56,7.322 -2.47,10.957 -1.81,7.28 -2.61,14.92 -3.84,22.33 -0.29,1.71 -0.69,4.59 -0.77,5.64 -0.09,1.05 -0.4,2.19 -0.76,4.21 -0.36,2.03 -1.22,7.1 -1.8,10.64 -0.3,1.75 -0.66,3.39 -1.15,5.16 -0.49,1.77 -0.91,3.24 -1.68,4.77 -1.06,2.13 -1.6,4.25 -4.13,4.25 -1.64,0 -3.14,-0.93 -4.78,-1.13 -2.14,-0.27 -4.14,-0.37 -6.31,-0.37 -3.61,0 -7.44,0.91 -10.71,2.31 -6.27,2.68 -12.7,5.45 -17.6,10.34 -4.35,4.36 -9.34,8.95 -9.34,15.58 0,2.97 2.25,4.21 4.82,4.76 3.89,0.84 7.78,1.67 11.68,2.51 -3.86,-1.35 -1.02,-6.19 -0.08,-9 z"
           id="path53"
           inkscape:connector-curvature="0" />
      </g>
      <g
         transform="translate(57.142857,292.11894)"
         id="g55"
         style="fill:#637554">
        <line
           y2="122.41"
           x1="110.5"
           y1="122.41"
           x2="110.5"
           id="line57" />
        <path
           style="fill:#2b130c;fill-opacity:1"
           d="m 147,166.41 c -1.48,-0.96 -4.31,-3.21 -6.75,-6 -2.44,-2.8 -4.63,-5.96 -6.75,-8.5 -2.44,-2.93 -4.53,-6.04 -6.74,-9.14 -0.94,-1.32 -1.7,-2.78 -2.6,-4.13 -0.74,-1.1 -1.69,-2.87 -2.66,-3.73 0.45,0.05 2.64,-0.61 3.12,-0.88 0.8,-0.45 3.1,-2.64 3.58,-3.11 0.8,-0.78 1.53,-1.7 1.88,-2.75 0.57,-1.7 1.28,-3.33 1.84,-5.03 1.12,-3.36 2.52,-6.38 3.11,-9.9 0.61,-3.69 1.16,-7.43 1.97,-11.08 1.63,-7.354 1.6,-15.136 3.42,-22.42 0.86,-3.449 1.09,-6.924 2.08,-10.332 0.28,-0.944 0.93,-3.501 1.25,-4.25 0.47,-1.097 0.21,-2.127 1,-3.5 1.39,-2.422 2.89,-5.737 1.25,-8.25 -2.7,-4.145 -4.74,0.104 -6.5,2.75 -2.01,3.012 -2.48,6.701 -3.61,10.069 -1.15,3.455 -1.79,7.518 -2.31,11.134 -0.49,3.451 -1.15,6.879 -1.83,10.297 -0.7,3.493 -0.69,7.015 -1.57,10.546 -0.82,3.266 -0.8,6.676 -1.63,9.996 -0.82,3.3 -1.22,6.73 -2.3,9.96 -0.77,2.3 -1.92,5.88 -4.25,6.25 -1.56,0.24 -2.96,-0.32 -4.4,-0.8 -1.65,-0.55 -3.52,-0.5 -5.24,-0.72 -6.81,-0.85 -15.609,0.39 -21.808,3.49 -5.975,2.99 -11.813,5.79 -16.551,10.53 -1.896,1.89 -4.5,4.83 -4.5,7.73 0,2.38 1.517,5.92 4.5,5.27 1.082,-0.24 2.354,-1.71 2.87,-2.74 0.638,-1.28 1.536,-2.17 2.63,-3.26 -0.857,3.43 -1.699,6.79 -2.552,10.21 -0.898,3.59 -1.001,7.27 -1.8,10.87 -1.625,7.31 -3.26,17.84 -3.776,25.28 -0.217,3.13 -0.439,3.74 -0.372,6.87 0.076,3.51 2.599,6.67 5.656,3.61 1.021,-1.02 2.344,-1.98 2.344,-3.58 0,-1.94 0.152,-3.68 0.473,-5.6 0.571,-3.43 0.654,-6.93 1.226,-10.35 1.254,-7.53 2.018,-15.11 3.274,-22.65 0.53,-3.18 1.657,-6.62 2.527,-9.66 0.437,-1.53 0.656,-2.82 1.37,-4.25 0.292,-0.58 0.35,-1.17 0.63,-1.75 0.308,-0.65 0.795,-1.09 1.13,-1.76 2.521,-5.05 8.594,-7.74 14.119,-7.74 2.67,0 4.87,0.1 6.75,2 0.46,0.47 1.26,1.59 2,2.5 0.83,1 2.03,2.56 2.6,3.7 1.29,2.57 3.2,4.79 4.7,7.29 1.64,2.74 3.81,4.95 5.7,7.51 3.52,4.75 6.82,9.81 11,14 2.48,2.48 8.86,8.76 12.5,6.5 2.07,-1.29 2.5,-4.07 2.5,-6.25 0,-1.07 -0.62,-2.58 -1.5,-3.25 -0.76,-0.6 -1.52,-0.04 -3,-1 z"
           id="path59"
           inkscape:connector-curvature="0" />
        <path
           style="fill:#2b130c;fill-opacity:1"
           d="m 290.5,174.41 c 0.25,0.41 2.72,5.18 3.5,7 1.44,3.37 4.75,9.18 5.44,10.35 0.69,1.17 1.04,2.36 1.87,3.62 1.23,1.83 2.34,3.67 3.44,5.58 1.79,3.14 3.8,6.2 5.67,9.31 1.98,3.3 9.23,12.05 13.08,9.64 2.64,-1.65 3.19,-5.14 3,-8 -0.23,-3.44 -3.13,-2.63 -5.16,-4.66 -9.32,-9.33 -15.08,-22.33 -20.84,-33.84 1.02,0.23 2.34,-0.92 3.24,-1.37 1.28,-0.64 2,-1.54 3.01,-2.55 0.33,-0.32 1.18,-2.2 1.4,-2.66 0.4,-0.81 0.97,-1.72 1.26,-2.59 0.59,-1.77 0.73,-2.86 1.43,-4.6 0.64,-1.55 0.82,-3.22 1.16,-4.73 0.45,-2 1.06,-3.88 1.4,-5.91 0.59,-3.53 1.5,-7.04 2.1,-10.59 2.48,-14.65 4.34,-29.37 7.95,-43.794 0.71,-2.859 2.06,-5.248 2.97,-7.974 0.82,-2.46 2.44,-7.054 -0.66,-8.604 -1.56,-0.783 -2.22,0.016 -3.26,1.37 -1.13,1.476 -1.99,2.983 -2.58,4.734 -1.18,3.546 -2.58,6.931 -3.5,10.598 -3.5,14.01 -4.34,28.79 -7.17,42.92 -0.71,3.54 -1.63,7.01 -2.22,10.58 -0.59,3.52 -1.77,6.38 -3.03,9.67 -0.4,1.04 -0.77,2.09 -1.5,3 -1.05,1.29 -1.45,0.85 -3,0.5 -1.82,-0.41 -3.59,-0.67 -5.39,-1.19 -1.81,-0.51 -3.42,0.19 -5.26,0.19 -7.54,0 -14.37,3.61 -20.71,7.41 -2.7,1.63 -5.24,4.12 -7.64,6.09 -2.4,1.97 -4.49,4.48 -5.87,7.24 -0.91,1.81 -2.63,3.71 -2.63,5.99 0,2.06 0.06,5.04 2,5.77 1.89,0.71 3.59,-0.67 4.37,-2.24 0.86,-1.72 2.05,-3.14 3.13,-4.76 -0.73,3.63 -1.63,7.39 -2.8,10.9 -1.17,3.52 -1.39,7.53 -2.11,11.16 -1.45,7.25 -2.3,14.64 -3.22,21.97 -0.46,3.69 -0.86,7.4 -1.47,11.06 -0.49,2.95 -1.67,6.86 -0.27,9.67 2.03,4.06 4.92,1.36 6.37,-1.76 0.69,-1.48 0.55,-3.21 0.95,-4.79 0.43,-1.75 0.59,-3.59 0.77,-5.37 1.47,-14.77 3.51,-29.75 7.1,-44.14 1.5,-5.97 2.53,-11.51 6.68,-16.2 1.31,-1.49 2.65,-3.13 5.26,-4 2.61,-0.87 3.73,-1.26 4.51,-1.42 0.77,-0.17 1.29,-0.21 1.99,-0.21 0.7,0 1.11,0.03 1.99,0.13 0.88,0.09 3,1.08 3.25,1.5 z"
           id="path61"
           inkscape:connector-curvature="0" />
      </g>
      <g
         transform="translate(57.142857,292.11894)"
         id="g63"
         style="fill:#502d16">
        <line
           style="fill:#502d16"
           y2="45.907001"
           x1="86"
           y1="45.907001"
           x2="86"
           id="line65" />
        <line
           style="fill:#502d16"
           y2="45.907001"
           x1="86"
           y1="45.907001"
           x2="86"
           id="line67" />
        <line
           style="fill:#502d16"
           y2="45.907001"
           x1="86"
           y1="45.907001"
           x2="86"
           id="line69" />
        <line
           style="fill:#502d16"
           y2="45.907001"
           x1="86"
           y1="45.907001"
           x2="86"
           id="line71" />
        <line
           style="fill:#502d16"
           y2="45.907001"
           x1="86"
           y1="45.907001"
           x2="86"
           id="line73" />
        <polygon
           style="fill:#502d16"
           points="79.75,52.288 79.868,51.595 80.307,50.451 80.5,49.907 81,48.907 81.294,48.326 81.794,47.326 82.132,46.634 82.621,45.803 83.263,45.248 84,44.907 84.5,44.907 387,88.407 387.5,88.907 387.5,89.407 387,90.407 386,92.407 385.5,93.907 384.8,95.65 384.3,97.65 383.82,99.188 383.5,99.907 383.3,100.56 383.27,100.97 383.13,101.46 382.94,102.01 382.5,102.41 81,55.407 80.392,54.979 80,54.407 79.834,53.694 79.742,53.131 "
           id="polygon75" />
        <polygon
           style="fill:#502d16"
           points="373.5,154.41 373.68,153.4 373.87,152.38 374,151.41 374.09,150.09 374,149.41 74.5,92.907 74,92.907 73.33,93.159 72.498,93.741 72,94.407 71.707,95.219 71.5,95.907 71.354,96.363 71.249,96.779 71.083,97.175 70.937,97.674 70.792,98.236 70.688,98.694 70.625,99.214 70.5,99.907 70.5,100.41 70.5,101.41 70.5,102.41 70.667,103.1 71,103.91 71.5,104.41 371,163.91 371.53,163.8 371.75,162.95 372,161.41 372.34,159.94 372.73,158.46 373,156.79 373.26,155.39 "
           id="polygon77" />
        <line
           style="fill:#502d16"
           y2="87.406998"
           x1="75.5"
           y1="87.406998"
           x2="75.5"
           id="line79" />
        <line
           style="fill:#502d16"
           y2="87.906998"
           x1="75.5"
           y1="87.906998"
           x2="75.5"
           id="line81" />
        <line
           style="fill:#502d16"
           y2="87.906998"
           x1="75.5"
           y1="87.906998"
           x2="75.5"
           id="line83" />
        <polygon
           style="fill:#502d16"
           points="375.67,142.82 375.73,142.11 375.82,141.02 376,139.91 376.41,137.44 376.74,135.39 377,133.41 377.5,130.91 377.62,129.3 377.5,128.41 77,76.407 76.443,76.557 75.797,76.896 75,77.407 74.555,77.853 74.278,78.593 73.987,79.579 73.809,80.37 73.68,81.243 73.5,81.907 73.5,82.907 73.5,83.907 73.5,84.407 73.5,85.407 73.5,86.407 73.697,86.963 74,87.407 74.827,88.094 75.5,88.407 375,143.41 375.5,143.41 "
           id="polygon85" />
        <polygon
           style="fill:#502d16"
           points="77,61.907 77.444,61.242 77.882,60.764 78.5,60.407 79.277,60.325 80,60.407 381.5,107.91 381,109.91 380.5,112.91 380,115.41 379.5,117.91 379,120.41 378.5,122.91 78,71.907 77.264,71.684 76.487,71.066 76.125,70.532 76,69.907 76,68.907 76,67.907 76,66.907 76,66.407 76.188,65.268 76.347,64.391 76.5,63.907 76.746,62.876 "
           id="polygon87" />
        <line
           style="fill:#502d16"
           y2="170.41"
           x1="366.5"
           y1="170.41"
           x2="366.5"
           id="line89" />
        <polygon
           style="fill:#502d16"
           points="367,174.91 367.31,174.63 367.5,174.41 367.82,174.14 368,173.91 368.25,173.44 368.5,172.91 368.77,172.44 369,171.91 369.37,171.15 369.5,170.41 369.44,169.94 368.99,169.3 368.5,168.91 69.5,108.41 69,108.41 68.291,108.68 67.784,109.12 67.5,109.41 67.123,109.71 66.869,109.84 66.5,109.74 66.226,109.59 65.349,109.64 64.777,109.8 64.377,110.01 63.73,110.52 63.014,111.24 62.855,112.09 63.19,112.5 63.682,112.67 64.107,112.76 64.446,112.9 64.967,113 65.394,113.1 65.724,113.22 66.5,113.41 366,175.41 366.23,175.33 366.75,175.1 "
           id="polygon91" />
        <line
           style="fill:#502d16"
           y2="173.91"
           x1="352"
           y1="173.91"
           x2="352"
           id="line93" />
        <line
           style="fill:#502d16"
           y2="173.91"
           x1="352"
           y1="173.91"
           x2="352"
           id="line95" />
        <polygon
           style="fill:#502d16"
           points="53,107.91 52,108.41 51.5,108.91 51,109.41 50.5,110.41 50.5,111.41 352,174.41 353.15,174.44 354.81,174.39 356.28,174.3 357.69,174.14 358.8,174.04 359.9,173.83 360,172.91 360,171.41 359.72,170.41 359.5,169.91 359,169.41 58,107.91 57.472,107.83 56.928,107.76 55.893,107.68 55.379,107.65 54.893,107.68 53.928,107.76 53.472,107.83 "
           id="polygon97" />
        <line
           style="fill:#502d16"
           y2="172.72"
           x1="343.41"
           y1="172.72"
           x2="343.41"
           id="line99" />
        <line
           style="fill:#502d16"
           y2="172.41"
           x1="344"
           y1="172.41"
           x2="344"
           id="line101" />
        <line
           style="fill:#502d16"
           y2="171.91"
           x1="345"
           y1="171.91"
           x2="345"
           id="line103" />
        <line
           style="fill:#502d16"
           y2="171.7"
           x1="345.26001"
           y1="171.7"
           x2="345.26001"
           id="line105" />
        <polygon
           style="fill:#502d16"
           points="43.431,108.77 42.931,108.77 42.431,108.77 41.846,108.8 41.273,108.98 40.658,109.15 40.17,109.28 39.761,109.43 39,109.91 38.5,110.41 37.884,111.26 37.5,111.91 37.276,113.05 37.5,113.91 340.5,178.41 341,178.41 342.06,178.01 342.69,177.62 343.33,177.36 344.05,176.99 344.7,176.69 345.5,176.41 346.11,176.13 346.65,175.96 347.59,175.64 348.48,175.19 348.86,174.83 348.72,173.83 348.5,172.91 348,171.91 347.5,171.41 45.5,108.91 44.494,108.83 43.931,108.77 "
           id="polygon107" />
        <polygon
           style="fill:#502d16"
           points="27.5,114.41 26.845,114.82 26,115.41 25.5,115.91 25,116.41 24.289,117.24 24,117.91 24,118.91 24.5,119.91 328.5,187.41 329.28,187.1 329.78,186.6 330.28,186.1 331.28,185.1 332.7,183.96 333.5,183.41 334.63,182.48 336,181.41 337,180.41 337,179.91 336.5,178.91 336,177.91 32.5,113.41 31.626,112.97 31,112.91 30.046,113.19 29.5,113.41 28.824,113.73 28.038,114.08 "
           id="polygon109" />
        <line
           style="fill:#502d16"
           y2="132.41"
           x1="14"
           y1="132.41"
           x2="14"
           id="line111" />
        <line
           style="fill:#502d16"
           y2="131.91"
           x1="13.5"
           y1="131.91"
           x2="13.5"
           id="line113" />
        <line
           style="fill:#502d16"
           y2="131.91"
           x1="13.5"
           y1="131.91"
           x2="13.5"
           id="line115" />
        <line
           style="fill:#502d16"
           y2="122.41"
           x1="20.5"
           y1="122.41"
           x2="20.5"
           id="line117" />
        <line
           style="fill:#502d16"
           y2="122.41"
           x1="20.5"
           y1="122.41"
           x2="20.5"
           id="line119" />
        <line
           style="fill:#502d16"
           y2="122.41"
           x1="20.5"
           y1="122.41"
           x2="20.5"
           id="line121" />
        <line
           style="fill:#502d16"
           y2="122.41"
           x1="20.5"
           y1="122.41"
           x2="20.5"
           id="line123" />
        <polygon
           style="fill:#502d16"
           points="17.5,121.91 16.5,122.41 16,122.91 15.5,123.41 14.5,124.41 14,124.91 13.5,125.91 13,126.91 12.5,127.91 12.5,128.41 12.5,129.41 12.5,130.41 13,131.41 13.5,131.91 14,132.41 319,203.91 319.26,203.59 319.32,202.59 319.32,201.59 319.56,200.56 319.73,199.98 320,199.41 320.5,197.91 321.5,196.41 322,195.41 322.75,194.24 323.57,193 324.57,192 325,191.41 325.08,190.9 325,190.41 324,189.41 19.5,121.41 19,121.41 18,121.41 "
           id="polygon125" />
      </g>
      <g
         transform="translate(57.142857,292.11894)"
         id="g127"
         style="fill:#483e37">
        <polygon
           style="fill:#483e37"
           points="384.5,89.407 384,90.407 383.61,91.568 383.27,92.356 383,93.407 382.5,94.407 382.21,95.44 382,96.407 381.69,97.737 381.5,98.907 381.5,99.907 381.62,100.75 381.76,101.4 382.17,101.99 382.5,102.41 382.94,102.01 383.13,101.46 383.27,100.97 383.3,100.56 383.5,99.907 383.82,99.188 384.3,97.65 384.8,95.65 385.5,93.907 386,92.407 387,90.407 387.5,89.407 387.5,88.907 387,88.407 386.5,88.407 386,88.407 385,88.907 "
           id="polygon129" />
        <polygon
           style="fill:#483e37"
           points="373.26,155.39 373.5,154.41 373.68,153.4 373.87,152.38 374,151.41 374.09,150.09 374,149.41 373.45,149.46 373,149.91 372.5,150.41 372,151.41 371.5,152.41 371.22,153.02 371.07,153.48 370.86,153.96 370.67,154.5 370.55,155.05 370.39,155.59 370.25,156.11 370.18,156.57 370.04,157.68 370.04,158.18 370,158.91 370,160.41 370,161.41 370,162.41 370.27,163.47 371,163.91 371.53,163.8 371.75,162.95 372,161.41 372.34,159.94 372.73,158.46 373,156.79 "
           id="polygon131" />
        <polygon
           style="fill:#483e37"
           points="374.02,134.96 373.84,135.89 373.64,136.84 373.47,137.81 373.47,138.8 373.5,139.91 373.5,140.91 373.84,142.02 374.34,143.02 375,143.41 375.5,143.41 375.67,142.82 375.73,142.11 375.82,141.02 376,139.91 376.41,137.44 376.74,135.39 377,133.41 377.5,130.91 377.62,129.3 377.5,128.41 376.9,128.69 376.35,129.24 376,129.91 375.5,130.91 375,131.91 374.5,132.91 374.22,133.93 "
           id="polygon133" />
        <polygon
           style="fill:#483e37"
           points="377,117.91 377,118.91 377,120.41 377.17,121.25 377.5,121.91 378,122.41 378.5,122.91 379,120.41 379.5,117.91 380,115.41 380.5,112.91 381,109.91 381.5,107.91 381,107.91 380.5,107.91 380,108.41 379.5,108.91 379,109.91 378.5,110.91 378.2,111.82 377.78,112.96 377.54,113.96 377.3,114.98 377.08,115.98 377.07,116.9 "
           id="polygon135" />
        <line
           style="fill:#483e37"
           y2="170.41"
           x1="366.5"
           y1="170.41"
           x2="366.5"
           id="line137" />
        <polygon
           style="fill:#483e37"
           points="364.85,175.17 365.37,175.28 366,175.41 366.23,175.33 366.75,175.1 367,174.91 367.31,174.63 367.5,174.41 367.82,174.14 368,173.91 368.25,173.44 368.5,172.91 368.77,172.44 369,171.91 369.37,171.15 369.5,170.41 369.44,169.94 368.99,169.3 368.5,168.91 367.88,169.02 367.5,169.41 367,169.91 367,170.41 366.73,171.09 366,171.18 365.47,171.07 364.5,170.91 364,171.41 363.5,172.41 363,173.41 363.08,174.26 363.33,174.59 363.69,174.73 364,174.91 364.43,175.08 "
           id="polygon139" />
        <polygon
           style="fill:#483e37"
           points="352,174.41 353.15,174.44 354.81,174.39 356.28,174.3 357.69,174.14 358.8,174.04 359.9,173.83 360,172.91 360,171.41 359.72,170.41 359.5,169.91 359,169.41 358.5,169.41 357.5,169.41 357,169.41 356.5,169.41 356,169.41 355.5,169.41 355,169.41 354.14,169.7 353.41,170.04 352.87,170.85 352.5,171.91 352.16,172.88 352,173.91 "
           id="polygon141" />
        <polygon
           style="fill:#483e37"
           points="346,171.41 345.68,171.55 345.26,171.7 345,171.91 344.44,172.17 344,172.41 343.41,172.72 343,172.91 342.39,173.27 341.5,173.91 341,174.91 340.68,175.93 340.5,177.41 340.5,178.41 341,178.41 342.06,178.01 342.69,177.62 343.33,177.36 344.05,176.99 344.7,176.69 345.5,176.41 346.11,176.13 346.65,175.96 347.59,175.64 348.48,175.19 348.86,174.83 348.72,173.83 348.5,172.91 348,171.91 347.5,171.41 347,171.36 346.5,171.35 "
           id="polygon143" />
        <polygon
           style="fill:#483e37"
           points="329.28,187.1 330.28,186.1 331.28,185.1 332.7,183.96 333.5,183.41 334.63,182.48 336,181.41 337,180.41 337,179.91 336.5,178.91 336,177.91 335.46,177.86 335,177.91 334,178.41 333.59,178.59 333,178.91 332.25,179.38 331.5,179.91 331,180.41 330.5,180.91 329.91,181.77 329.41,182.77 328.82,183.9 328.17,185.75 328.17,186.51 328.5,187.41 "
           id="polygon145" />
        <polygon
           style="fill:#483e37"
           points="318.39,203.67 319,203.91 319.26,203.59 319.32,202.59 319.32,201.59 319.56,200.56 319.73,199.98 320,199.41 320.5,197.91 321.5,196.41 322,195.41 322.75,194.24 323.57,193 324.57,192 325,191.41 325.08,190.9 325,190.41 324,189.41 323.5,189.41 323.01,189.56 322.5,189.91 321.61,190.96 321,191.91 320.24,192.84 319.74,193.84 319,194.91 318.5,195.91 318,196.91 317.58,198.02 317.5,199.41 317.5,200.41 317.5,201.41 317.56,202.39 318,203.41 "
           id="polygon147" />
      </g>
    </g>
  </g>
</svg>
