<?xml version="1.0" encoding="UTF-8" standalone="no"?>
<!-- Generator: Adobe Illustrator 19.2.1, SVG Export Plug-In . SVG Version: 6.00 Build 0)  -->

<svg
   xmlns:dc="http://purl.org/dc/elements/1.1/"
   xmlns:cc="http://creativecommons.org/ns#"
   xmlns:rdf="http://www.w3.org/1999/02/22-rdf-syntax-ns#"
   xmlns:svg="http://www.w3.org/2000/svg"
   xmlns="http://www.w3.org/2000/svg"
   xmlns:sodipodi="http://sodipodi.sourceforge.net/DTD/sodipodi-0.dtd"
   xmlns:inkscape="http://www.inkscape.org/namespaces/inkscape"
   version="1.1"
   id="Layer_1"
   x="0px"
   y="0px"
   viewBox="0 0 1342.1422 390.29459"
   xml:space="preserve"
   inkscape:version="0.92.2pre0 (973e216, 2017-07-25)"
   sodipodi:docname="logo_wide3.3.svg"
   width="1342.1421"
   height="390.29459"
   inkscape:export-filename="/home/aqw/git/studyforrest.org/artwork/logo_wide3.3.png"
   inkscape:export-xdpi="299.96201"
   inkscape:export-ydpi="299.96201"><metadata
     id="metadata11"><rdf:RDF><cc:Work
         rdf:about=""><dc:format>image/svg+xml</dc:format><dc:type
           rdf:resource="http://purl.org/dc/dcmitype/StillImage" /><dc:title>ForestRunning</dc:title></cc:Work></rdf:RDF></metadata><defs
     id="defs9" /><sodipodi:namedview
     pagecolor="#ffffff"
     bordercolor="#666666"
     borderopacity="1"
     objecttolerance="10"
     gridtolerance="10"
     guidetolerance="10"
     inkscape:pageopacity="0"
     inkscape:pageshadow="2"
     inkscape:window-width="1916"
     inkscape:window-height="1053"
     id="namedview7"
     showgrid="false"
     inkscape:zoom="0.4481128"
     inkscape:cx="154.21635"
     inkscape:cy="83.633949"
     inkscape:window-x="0"
     inkscape:window-y="516"
     inkscape:window-maximized="0"
     inkscape:current-layer="Layer_1"
     inkscape:measure-start="388.969,109.274"
     inkscape:measure-end="157.797,109.669"
     fit-margin-top="0"
     fit-margin-left="0"
     fit-margin-right="0"
     fit-margin-bottom="0"
     showguides="false"
     inkscape:guide-bbox="true"><sodipodi:guide
       position="1.5695403e-07,-4.606714e-05"
       orientation="0,842.12543"
       id="guide829"
       inkscape:locked="false" /><sodipodi:guide
       position="842.12547,-4.606714e-05"
       orientation="-390.29459,0"
       id="guide831"
       inkscape:locked="false" /><sodipodi:guide
       position="842.12547,390.29455"
       orientation="0,-842.12543"
       id="guide833"
       inkscape:locked="false" /><sodipodi:guide
       position="1.5695403e-07,390.29457"
       orientation="390.29459,0"
       id="guide835"
       inkscape:locked="false" /><sodipodi:guide
       position="258.65419,50.001317"
       orientation="0,1"
       id="guide837"
       inkscape:locked="false" /></sodipodi:namedview><title
     id="title3">ForestRunning</title><g
     id="g4145"
     transform="matrix(0.76430227,0,0,0.76430227,-63.217107,-0.12626884)"><path
       inkscape:connector-curvature="0"
       id="path4139"
       d="m 318.1931,0.210345 c -23.77364,-1.2387364 -44.244,23.238489 -39.2507,46.428728 1.40763,9.060421 6.60094,17.108773 11.96532,24.094507 -1.39648,0.01514 -4.68026,-1.703465 -6.98138,-0.898459 -6.09587,0.683982 -6.13938,7.835908 -5.73008,12.485878 1.2238,4.250309 -3.89626,3.46679 -5.3869,6.559136 -1.14531,3.370674 -4.18542,3.235363 -7.2243,2.494861 -5.28945,-0.933674 -11.38323,-1.268886 -15.69411,2.485222 -9.19359,2.74048 -18.94225,-0.270152 -28.29182,2.176739 -1.86334,4.814433 -4.30361,9.428643 -5.59319,14.450533 -8.3311,4.78367 -18.18234,7.61664 -25.45184,13.88177 -5.40779,13.26168 -1.21765,27.83799 0.44796,41.39667 1.34821,8.91165 4.78751,17.55774 5.74871,26.40805 -0.75477,6.88092 2.79295,13.12737 6.48972,18.49746 0.11963,4.39954 1.01318,8.74798 3.05785,12.54565 -5.86348,2.91737 -2.76185,12.11724 3.21016,12.79243 4.33911,0.91103 7.84801,-1.92755 11.22109,-4.0662 6.06337,0.52441 8.65921,-6.5288 8.87277,-11.36185 7.32162,-4.29152 4.72777,-14.56427 0.97172,-20.4139 -1.78634,-5.30637 -3.24173,-10.91617 -7.10091,-15.05979 -1.43354,-6.52995 -1.11592,-13.43899 -1.83156,-19.95307 0.11746,-6.94645 0.40803,-14.69878 1.46138,-21.1389 4.76089,0.47305 9.51298,-0.35589 14.21532,-0.99485 4.8005,18.22485 7.50149,37.01293 12.1774,55.20316 2.39214,4.80586 7.15732,7.95057 11.22108,10.96467 -2.88178,8.0535 -12.27123,11.79662 -14.39268,20.40813 -6.37183,17.20431 -9.08761,35.53149 -15.62857,52.69865 -1.9314,5.34921 -1.62966,11.2413 -0.4338,16.55979 -2.6727,8.117 -8.8218,15.09811 -8.85733,23.98654 -4.67404,10.28773 -8.45182,22.49573 -18.70183,28.64657 -21.18164,8.8815 -43.86243,19.1548 -56.79983,39.16504 -6.86293,7.21821 -14.5917,15.28916 -24.93101,16.49699 -9.61356,3.53057 -17.83351,9.93763 -27.156202,14.1247 -6.550261,3.08743 -13.975309,10.30094 -9.975593,18.08679 9.834869,24.31925 21.121125,48.17179 34.771905,70.60228 12.06847,4.41788 24.3888,-9.13198 21.23139,-20.91326 0.0501,-8.82097 -1.95591,-17.82702 -2.61248,-26.34066 2.35225,-2.9088 3.68525,-6.66968 5.07264,-9.86184 3.52127,-2.98386 5.50283,-7.56564 5.6144,-12.14847 30.70074,-22.72282 64.69192,-40.5917 95.78612,-62.65883 13.08148,-12.02387 21.63754,-28.07669 33.03282,-41.36188 4.33242,-1.9902 4.36812,-8.85071 9.7828,-8.96725 4.51058,-1.399 7.78689,-5.52694 11.40811,-7.77957 5.41177,0.65725 12.81354,2.59097 16.98588,-2.56427 8.45862,-1.96631 17.17154,-4.50253 23.94027,-10.19924 3.73457,0.67268 7.53705,1.14608 11.28858,1.54627 -12.53561,8.66602 -18.16399,23.45751 -22.76032,37.30147 -3.33582,6.18483 -6.887,12.70656 -9.99102,18.75388 -11.57105,3.04872 -17.40333,14.75128 -27.70184,20.00903 -4.95614,3.32644 -11.96195,8.6803 -8.35412,15.40298 6.02626,9.76374 16.75013,15.38328 25.79695,21.98332 13.21796,8.31889 26.40377,16.9232 40.05083,24.40299 5.69263,2.74149 15.32106,5.37893 18.60735,-2.09962 3.60077,-6.33406 2.28884,-14.44759 -2.92321,-19.50508 -7.70615,-9.72874 -16.89437,-19.82045 -16.75805,-33.11453 -2.00988,-6.4639 1.50569,-13.2262 7.24166,-16.40362 19.31278,-18.35787 39.69549,-35.84075 57.25264,-55.94546 6.64619,-9.93248 9.02338,-25.52507 -0.85797,-34.21662 -13.19709,-9.08378 -27.60479,-16.33343 -41.94392,-23.40171 -11.65869,-4.65748 -22.17467,-11.8561 -34.36723,-15.30143 -3.85153,-1.32745 -9.06402,-1.77393 -7.98973,-7.08549 -0.47533,-7.88624 7.86989,-12.00483 10.79499,-18.6382 4.02839,-5.8304 4.91246,-12.93392 6.26801,-19.62342 1.89495,-3.88993 5.30255,-7.07543 6.11184,-11.46595 11.99226,-3.09593 23.51627,-8.68846 31.68127,-18.25067 12.022,-12.0651 19.54352,-27.83203 31.00069,-40.21857 7.96336,-4.29034 14.56078,-12.38864 13.88983,-21.86907 0.88101,-5.00447 0.13773,-10.37282 -3.99522,-13.799356 -0.16221,-4.193724 -5.50474,-4.691206 -6.1099,-8.568135 -1.85121,-4.814205 -9.13641,-6.246728 -11.5103,-1.050772 -2.06877,3.221244 0.59976,7.94195 -0.58997,10.615695 -2.16933,-3.644346 -8.10791,-3.948324 -10.03343,0.09447 -3.63301,3.059648 -7.97637,7.244848 -6.50709,12.522508 1.54944,4.84964 3.21231,10.90088 -1.52892,14.60478 -6.52401,6.78278 -11.11163,15.8161 -19.79501,20.22689 -3.55614,-8.80242 -9.59929,-17.22307 -8.18639,-27.19091 -0.92199,-6.13334 -8.26711,-9.21729 -7.70052,-15.80786 -0.87404,-2.83675 -3.76576,-4.869032 -5.7166,-6.402969 6.50951,-4.03832 8.97626,-12.260607 10.75644,-18.965964 6.66198,2.280103 12.3921,-7.145041 7.03343,-11.88048 -2.41735,-7.050769 5.84992,-13.440396 2.76094,-20.759026 -0.0564,-5.735895 3.8108,-11.613487 0.30655,-17.140127 C 359.17344,16.998792 350.62247,10.136476 341.52025,5.4140797 334.28381,1.9164933 326.2373,0.067269 318.1931,0.210345 Z"
       style="fill:#ffffff" /><path
       inkscape:connector-curvature="0"
       id="path5"
       d="m 121.06706,506.4919 c -6.56575,-9.30148 -29.545857,-56.35598 -31.187287,-62.92173 -1.641439,-6.56575 -10.942913,-10.94291 11.490057,-21.88582 11.49006,-5.47146 20.79153,-13.1315 26.81013,-11.49006 6.56574,-3.83001 18.05579,-12.58435 22.43296,-19.15008 13.67863,-19.1501 28.99871,-24.62156 54.71455,-36.65876 8.75433,-3.83001 15.86722,-20.24438 20.79153,-32.82873 0,-2.73572 -1.0943,-2.73572 1.09429,-6.56574 1.64143,-3.28287 4.37716,-9.30147 6.0186,-12.58434 3.83002,-7.1129 -2.73573,-6.01861 1.09428,-18.05581 7.66005,-24.0744 12.03721,-42.1302 13.67865,-48.1488 5.47145,-18.60295 16.96151,-16.96151 16.96151,-29.54586 -2.73573,-1.09429 -12.0372,-6.56575 -13.1315,-13.67863 -3.28287,-20.79154 -11.49005,-54.1674 -11.49005,-54.1674 -7.11289,0 -10.39577,2.73572 -21.33868,0.54713 0.54715,6.01861 -2.73572,20.24439 -0.54714,36.65876 0.54714,5.47145 0.54714,9.30147 1.64144,12.0372 1.64144,1.64143 3.83001,3.28287 3.83001,4.92431 2.18859,8.20718 4.92431,11.49006 6.0186,15.32007 0.54715,7.66003 0.54715,7.1129 -4.37716,9.84862 0,3.28287 0,4.92431 -1.64144,8.20718 -0.54714,1.64143 -3.28287,2.18858 -5.47145,1.64143 -4.37716,3.83003 -4.37716,4.37717 -8.75433,3.83003 -1.09429,0.54714 -2.73573,-2.18859 -2.73573,-3.83003 0.54715,-1.64143 3.28288,-1.64143 3.28288,-2.73572 0,-4.92431 -1.09429,-5.47145 -2.18859,-8.20719 -1.09429,-1.64142 0,-7.66003 -1.64143,-9.30147 -4.92431,-7.66004 -6.0186,-6.56574 -5.47145,-18.60295 -4.92432,-13.67863 -13.1315,-54.71454 -6.56575,-63.46887 7.66003,-3.83001 19.69724,-9.84861 25.16869,-12.58435 0,-2.73572 3.83002,-10.94291 4.92431,-13.67863 5.47145,-1.641439 14.22579,1.64143 27.90442,-2.188584 3.83001,-4.377164 8.20719,-1.641437 19.1501,-1.641437 4.37716,0 2.18857,-4.924309 7.11288,-6.0186 5.47145,1.094291 2.18859,-12.584346 4.37717,-15.320074 2.18858,-2.188581 10.39577,2.188582 10.39577,2.735728 0.54714,-3.282873 2.18857,-6.0186 1.09429,-8.754328 -2.18859,-1.641436 -3.28288,-4.377165 -5.47146,-7.112892 -2.73573,-3.830018 -8.75433,-13.678637 -6.0186,-29.545856 3.83002,-13.678637 14.77293,-24.0744014 25.71584,-26.2629834 14.22578,-3.282873 32.82873,0 47.0545,15.8672194 4.37718,4.377163 5.47146,6.565745 6.01861,9.301473 1.09429,4.377164 -2.18858,6.565746 -1.64143,9.848619 1.09428,12.584346 -0.54715,9.848618 -2.73574,16.414364 -2.73572,6.565746 2.18859,10.942911 2.18859,12.584347 -1.64144,3.830019 -3.83003,2.188582 -7.66004,2.735728 -1.09429,1.641436 -2.18859,1.641436 -2.18859,4.924309 0,3.282873 -1.64143,4.377164 -2.18857,6.0186 -2.18859,6.018601 -6.0186,9.848619 -10.94291,9.301473 -1.0943,0 -1.0943,0.547146 -1.64144,2.188582 2.18858,2.188582 10.94291,3.830022 10.94291,10.395772 0,6.0186 7.11289,7.66003 7.11289,13.67863 -0.54714,16.41436 8.20718,20.79152 9.30147,30.64015 10.94291,-2.18859 18.60295,-14.77293 29.54586,-27.90442 0,-4.92431 1.0943,-1.09429 -1.09429,-11.49006 -0.54715,-1.64144 -1.64144,-4.37716 0.54715,-5.47145 2.73572,-2.18859 1.09429,-3.28288 3.28286,-3.83003 1.64144,-0.54714 1.64144,-2.18857 2.73574,-2.735719 0.54714,-0.547145 2.73572,0 2.73572,3.282869 0,1.09429 -1.09429,2.73573 -1.64143,3.28288 0.54714,0 0,3.28287 0.54714,3.83001 1.64144,1.64144 3.83002,-4.9243 5.47145,-6.0186 1.64144,-0.54714 1.09429,-2.73572 2.18859,-3.83001 1.09429,-1.64144 0.54714,-2.735731 0.54714,-3.830022 0,-2.735727 -0.54714,-3.282873 -0.54714,-6.0186 1.09429,-2.188582 2.73573,-2.188582 3.28287,-1.641436 1.09429,1.094291 2.73573,3.282873 2.73573,7.112891 0,-1.094291 2.18858,-0.547146 3.83001,0.547145 0.54715,1.094291 1.0943,2.188582 0.54715,3.830022 2.73573,0.54714 3.28288,2.18857 3.28288,3.28287 1.64143,0 1.09428,3.83002 1.09428,4.92431 0,1.09429 -0.54713,3.83002 -0.54713,4.37717 1.09428,3.28287 -1.64144,7.66003 -3.28288,9.84861 -2.73573,3.28287 -3.28287,4.37717 -7.1129,6.0186 -5.47145,2.73573 -13.67863,17.50866 -21.33867,27.90443 -23.52725,31.18729 -32.28158,26.81012 -44.31879,32.28158 0.54715,6.0186 -6.0186,8.75432 -7.11288,16.96151 -1.64144,14.22578 -7.11289,17.50865 -12.58435,25.16869 -6.56575,8.75432 -2.73573,10.94291 -2.73573,18.0558 10.39577,2.73572 33.37587,12.0372 34.47017,14.77293 9.84861,2.18858 40.48877,20.24438 45.41308,22.98011 15.86721,8.20718 9.84861,25.16869 4.37716,33.37587 -3.83002,5.47146 -50.88454,50.33739 -61.82745,59.09171 -2.73572,2.18859 0.54715,0.54715 -2.18857,5.47146 -1.64144,2.73573 -1.64144,5.47145 0,10.94291 -1.64144,9.30147 8.20718,23.52726 18.05579,34.47017 6.0186,9.30147 2.18859,10.94291 1.0943,15.32007 -1.64143,4.37716 -12.03721,0 -16.96152,-2.18859 -9.30147,-7.66003 -66.2046,-37.20589 -60.186,-47.0545 2.73573,-4.37717 11.49006,-7.1129 24.62155,-20.79153 1.64144,-2.18859 9.84862,-5.47146 11.49006,-5.47146 2.18858,-7.66004 10.39576,-18.60295 12.58434,-26.26298 9.84863,-35.56446 35.56446,-35.01731 30.09301,-36.1116 -4.37717,0 -17.50866,-1.0943 -25.71584,-2.73573 -9.84863,8.20718 -15.86722,8.20718 -25.1687,10.94291 -3.83001,6.0186 -10.94291,1.09429 -17.50866,2.18858 -3.83001,5.47145 -8.75432,7.66004 -13.67863,9.30148 -2.18858,0.54714 -3.83001,4.92431 -4.92431,6.56574 -0.54714,0.54714 -2.73573,1.64144 -3.28287,2.18858 -10.94291,14.77293 -23.52725,33.92302 -33.37588,42.1302 -9.84862,7.66004 -68.94033,42.13021 -95.75045,62.37459 -0.54715,7.66004 -1.0943,8.20718 -6.01861,12.58435 -1.09429,9.30147 -6.56574,7.66003 -4.9243,14.77292 2.73572,8.20718 2.18857,21.88582 3.28286,27.35728 -1.09429,9.30147 -8.20717,14.77292 -15.32007,13.13149 z"
       style="fill:#222222;fill-opacity:1" /></g><flowRoot
     xml:space="preserve"
     id="flowRoot3443"
     style="font-style:normal;font-variant:normal;font-weight:bold;font-stretch:normal;font-size:20px;line-height:25px;font-family:Arial;-inkscape-font-specification:'Arial, Bold';text-align:start;letter-spacing:-13px;word-spacing:0px;writing-mode:lr-tb;text-anchor:start;fill:#000000;fill-opacity:1;stroke:none;stroke-width:1px;stroke-linecap:butt;stroke-linejoin:miter;stroke-opacity:1"
     transform="matrix(1,0,0,1.1363636,-56.439895,-9.218822)"><flowRegion
       id="flowRegion3445"
       style="letter-spacing:-13px"><rect
         id="rect3447"
         width="1146.8787"
         height="324.61572"
         x="359.28455"
         y="119.24175"
         style="letter-spacing:-13px" /></flowRegion><flowPara
       style="font-style:normal;font-variant:normal;font-weight:bold;font-stretch:normal;font-size:200px;line-height:150px;font-family:'Old Standard TT';-inkscape-font-specification:'Old Standard TT Bold';text-align:start;letter-spacing:-13px;text-anchor:start;fill:#0053a3;fill-opacity:1"
       id="flowPara827"><flowSpan
   id="flowSpan968"
   style="font-style:normal;font-variant:normal;font-weight:bold;font-stretch:normal;font-size:200px;line-height:150px;font-family:'Old Standard TT';-inkscape-font-specification:'Old Standard TT Bold';text-align:start;letter-spacing:-13px;text-anchor:start;fill:#c91049;fill-opacity:1">Study<flowSpan
   style="letter-spacing:-40px"
   id="flowSpan842"> </flowSpan></flowSpan>Forrest</flowPara></flowRoot><flowRoot
     xml:space="preserve"
     id="flowRoot958"
     style="font-style:normal;font-variant:normal;font-weight:bold;font-stretch:normal;font-size:20px;line-height:25px;font-family:Arial;-inkscape-font-specification:'Arial, Bold';text-align:start;letter-spacing:0px;word-spacing:0px;writing-mode:lr-tb;text-anchor:start;fill:#000000;fill-opacity:1;stroke:none;stroke-width:1px;stroke-linecap:butt;stroke-linejoin:miter;stroke-opacity:1"><flowRegion
       id="flowRegion960"><rect
         id="rect962"
         width="94.677963"
         height="34.715252"
         x="706.92877"
         y="191.47087" /></flowRegion><flowPara
       id="flowPara964" /></flowRoot></svg>