<svg xmlns="http://www.w3.org/2000/svg" viewBox="0 0 62.432 100"><path d="M57.724 31l-4.017 6.427V92c0 2.88-1.12 4-4 4H12.725c-2.88 0-4-1.12-4-4V37.427L4.708 31H0l4.725 7.573V92c0 5.084 2.916 8 8 8h36.982c5.084 0 8-2.916 8-8V38.573L62.432 31h-4.708z"/><circle cx="39.216" cy="28.5" r="6.5"/><circle cx="41.216" cy="16.5" r="2.5"/><circle cx="27.216" cy="27.5" r="2.5"/><circle cx="24.216" cy="2.5" r="2.5"/><circle cx="22.716" cy="18" r="4"/><circle cx="31.716" cy="13" r="3"/><circle cx="17.216" cy="29.5" r="4.5"/><path d="M12.716 40h37v52h-37z"/></svg>