<?xml version="1.0" encoding="UTF-8" standalone="no"?>
<svg
   xmlns:dc="http://purl.org/dc/elements/1.1/"
   xmlns:cc="http://creativecommons.org/ns#"
   xmlns:rdf="http://www.w3.org/1999/02/22-rdf-syntax-ns#"
   xmlns:svg="http://www.w3.org/2000/svg"
   xmlns="http://www.w3.org/2000/svg"
   xmlns:sodipodi="http://sodipodi.sourceforge.net/DTD/sodipodi-0.dtd"
   xmlns:inkscape="http://www.inkscape.org/namespaces/inkscape"
   version="1.1"
   x="0px"
   y="0px"
   viewBox="0 0 110 100"
   enable-background="new 0 0 100 100"
   xml:space="preserve"
   id="svg4790"
   inkscape:version="0.91 r13725"
   sodipodi:docname="brain.svg"
   width="110"
   height="100"><metadata
     id="metadata4798"><rdf:RDF><cc:Work
         rdf:about=""><dc:format>image/svg+xml</dc:format><dc:type
           rdf:resource="http://purl.org/dc/dcmitype/StillImage" /><dc:title></dc:title></cc:Work></rdf:RDF></metadata><defs
     id="defs4796" /><sodipodi:namedview
     pagecolor="#ffffff"
     bordercolor="#666666"
     borderopacity="1"
     objecttolerance="10"
     gridtolerance="10"
     guidetolerance="10"
     inkscape:pageopacity="0"
     inkscape:pageshadow="2"
     inkscape:window-width="1916"
     inkscape:window-height="1071"
     id="namedview4794"
     showgrid="false"
     inkscape:zoom="6.675088"
     inkscape:cx="35.273292"
     inkscape:cy="41.001335"
     inkscape:window-x="0"
     inkscape:window-y="498"
     inkscape:window-maximized="0"
     inkscape:current-layer="svg4790"
     fit-margin-top="0"
     fit-margin-left="0"
     fit-margin-right="0"
     fit-margin-bottom="0" /><path
     d="m 109.90771,40.124085 c 0,-6.28888 -3.35964,-12.121395 -8.86669,-15.557696 C 98.117692,12.612447 86.839451,4.0912657 73.630798,4.0912657 c -3.178049,0 -6.280626,0.4929225 -9.252307,1.4693316 -3.68512,-3.4799335 -8.646179,-5.43628967 -13.942138,-5.43628967 -6.117892,0 -11.920926,2.72993677 -15.633168,7.24642207 -0.82311,-0.097878 -1.650935,-0.1474055 -2.476402,-0.1474055 -8.966932,0 -16.637879,5.5825158 -19.010508,13.5447368 C 5.4342422,23.348235 0.09229038,30.329329 0.09229038,38.3682 c 0,2.383239 0.49056326,4.760586 1.43041642,6.965761 -0.93867301,2.206356 -1.43041642,4.583702 -1.43041642,6.964586 0,6.913877 3.96813872,13.157944 10.39381062,16.422078 3.68866,3.472856 8.744056,5.453979 13.963366,5.453979 3.333709,0 6.530625,-0.765328 9.398533,-2.238195 3.721678,4.075447 9.21693,6.510577 14.9952,6.510577 3.602575,0 7.037697,-0.892684 10.073057,-2.600222 3.360832,2.462251 7.373781,4.048327 11.603709,4.567191 7.130856,7.155621 12.603706,16.399674 12.657949,16.496372 l 1.798339,3.062479 9.030609,-6.474017 -5.027093,-14.409118 c 2.831352,-1.311315 5.174498,-3.456349 6.657981,-6.145014 6.168599,-3.273566 10.096639,-9.54004 10.096639,-16.267598 0,-1.508246 -0.18985,-2.996445 -0.56486,-4.44455 3.03301,-3.356114 4.73818,-7.665052 4.73818,-12.108424 z m -18.03173,27.446782 -1.124993,0.514148 -0.49764,1.133248 c -1.043627,2.373806 -3.303046,4.108469 -6.040059,4.643842 l -3.67451,0.715798 4.792428,13.736953 C 82.712115,84.530678 78.789967,79.362074 74.228672,74.964693 l -0.844334,-0.812496 -1.167449,-0.08607 c -2.788897,-0.206372 -5.463411,-1.04481 -7.812454,-2.391501 l 9.337211,-7.379675 c 2.431591,-1.923339 5.708695,-2.760599 6.812463,-2.464611 l 4.279457,1.137966 1.607302,-6.05657 -4.280636,-1.136786 c -3.761772,-1.002353 -9.148533,1.112022 -12.304178,3.604932 l -10.485789,8.284153 -0.02477,-0.02359 -2.148574,1.597868 c -2.389137,1.78065 -5.132046,2.72286 -8.20986,2.72286 -4.395022,0 -8.457501,-2.045977 -10.815977,-5.366712 l 0,-3.448096 0,-1.442209 0,-4.503511 c 0,-2.514139 1.169804,-4.915068 1.859659,-5.331338 l 3.501161,-2.162724 -3.39621,-5.548319 -3.59078,2.160365 c -1.680416,1.015325 -2.979938,2.812485 -3.846679,4.826624 -0.728768,-0.672166 -1.515321,-1.271218 -2.33725,-1.770036 l -10.503479,-6.366711 -3.364367,5.54596 10.353715,6.36671 c 2.515316,1.524754 4.248797,4.839596 4.248797,6.78298 l 0,1.442209 0,2.731117 c -2.358478,1.181596 -4.301862,1.810132 -6.794773,1.810132 -3.705167,0 -7.198073,-1.44103 -9.707495,-3.949271 L 14.23372,63.342109 13.745515,63.102722 C 9.3115786,60.998968 6.5663115,56.857483 6.5663115,52.296187 c 0,-1.897396 0.4728742,-3.71814 1.3962184,-5.413885 L 8.8092238,45.330424 7.964888,43.779726 C 7.0427239,42.087518 6.5745659,40.266773 6.5745659,38.36702 c 0,-5.637942 4.1745061,-10.497585 10.1497091,-11.817152 l 2.122628,-0.469337 0.372641,-2.141498 c 1.031834,-5.929211 6.542417,-10.232253 13.104879,-10.232253 1.069571,0 2.145037,0.120281 3.195739,0.358488 l 2.222865,0.502355 1.226408,-1.920978 c 2.376166,-3.7240379 6.770009,-6.0377043 11.465738,-6.0377043 3.042435,0 5.903268,0.9398532 8.219294,2.6273445 l -2.411545,2.2499878 -0.04127,-0.04481 -1.689849,1.575462 c -2.274752,1.740558 -5.061293,2.654468 -6.123787,2.49409 l -4.597852,-0.692211 -0.963438,6.413878 4.594315,0.691035 c 0.1533,0.02359 0.317216,0.02122 0.474055,0.0342 -0.741743,2.317203 -1.00825,4.787709 -0.633253,6.972838 l 1.057777,6.162701 6.392654,-1.09905 -1.057777,-6.161523 c -0.398583,-2.321921 0.774761,-5.870249 2.465787,-7.444534 l 2.658004,-2.481118 c 0.365565,-0.288913 0.712261,-0.581364 1.029477,-0.876174 l 5.089593,-4.748794 c 2.765316,-1.127354 5.700441,-1.70636 8.728726,-1.70636 10.623762,0 19.602485,7.007036 21.351295,16.661465 l 0.283019,1.566029 1.410369,0.733487 c 4.159173,2.162724 6.745243,6.219304 6.745243,10.587205 0,2.287723 -0.69693,4.464597 -1.97759,6.358455 l -1.00706,-1.007069 0.001,0 -4.201631,-4.201628 c -1.826597,-1.825462 -3.694511,-5.865535 -4.001113,-8.64382 l -0.693392,-6.312466 -6.225202,0.683959 0.693393,6.312465 c 0.198112,1.810132 0.811315,3.859649 1.649754,5.833694 -0.416271,-0.05071 -0.831362,-0.106126 -1.231125,-0.125 l -14.086007,-0.668628 -0.298347,6.257041 14.09544,0.667449 c 2.884419,0.136791 7.106093,1.856123 8.859621,3.607291 l 3.341963,3.343142 0.121463,0.300706 c 0.525939,1.326644 0.793626,2.724043 0.793626,4.147383 -0.0023,4.645022 -2.827814,8.819525 -7.374959,10.893808 z"
     id="path4792"
     inkscape:connector-curvature="0"
     style="fill:#000000" /></svg>