<svg xmlns="http://www.w3.org/2000/svg" viewBox="0 0 110 100" width="110" height="100"><path d="M109.908 40.124c0-6.29-3.36-12.12-8.867-15.558C98.12 12.612 86.84 4.09 73.63 4.09c-3.177 0-6.28.494-9.252 1.47C60.693 2.08 55.732.125 50.436.125c-6.118 0-11.92 2.73-15.633 7.247-.823-.097-1.65-.147-2.476-.147-8.967 0-16.638 5.583-19.01 13.545C5.433 23.348.09 30.328.09 38.368c0 2.383.49 4.76 1.43 6.966C.585 47.54.093 49.918.093 52.3c0 6.912 3.968 13.156 10.394 16.42 3.69 3.473 8.744 5.455 13.963 5.455 3.333 0 6.53-.766 9.398-2.24 3.722 4.077 9.217 6.512 14.995 6.512 3.603 0 7.038-.893 10.073-2.6 3.36 2.462 7.374 4.048 11.604 4.567 7.13 7.156 12.604 16.4 12.658 16.496l1.798 3.063 9.03-6.474-5.026-14.41c2.83-1.312 5.174-3.457 6.658-6.145 6.168-3.274 10.096-9.54 10.096-16.268 0-1.508-.19-2.996-.564-4.444 3.033-3.357 4.738-7.666 4.738-12.11zM91.876 67.57l-1.125.515-.497 1.133c-1.043 2.374-3.303 4.11-6.04 4.644l-3.674.716 4.79 13.737c-2.618-3.784-6.54-8.953-11.1-13.35l-.846-.813-1.167-.086c-2.79-.206-5.464-1.045-7.813-2.39l9.338-7.38c2.43-1.924 5.708-2.762 6.812-2.466l4.28 1.138 1.607-6.056-4.28-1.137c-3.762-1.002-9.148 1.112-12.304 3.605L59.37 67.664l-.025-.024-2.148 1.598c-2.39 1.78-5.132 2.723-8.21 2.723-4.395 0-8.457-2.045-10.816-5.366V57.2c0-2.513 1.17-4.914 1.86-5.33l3.502-2.163-3.396-5.55-3.59 2.162c-1.682 1.014-2.98 2.81-3.848 4.825-.73-.672-1.515-1.27-2.337-1.77L19.86 43.01l-3.365 5.544 10.354 6.367c2.515 1.526 4.25 4.84 4.25 6.784v4.172c-2.36 1.183-4.303 1.812-6.796 1.812-3.704 0-7.197-1.44-9.707-3.95l-.36-.396-.487-.24C9.312 61 6.566 56.858 6.566 52.297c0-1.897.473-3.718 1.397-5.414l.846-1.552-.845-1.55c-.922-1.692-1.39-3.513-1.39-5.413 0-5.638 4.174-10.498 10.15-11.817l2.122-.47.373-2.14c1.03-5.93 6.542-10.233 13.104-10.233 1.07 0 2.145.12 3.196.358l2.223.503 1.226-1.92c2.376-3.725 6.77-6.04 11.465-6.04 3.043 0 5.903.94 8.22 2.628l-2.412 2.25-.04-.045-1.69 1.577c-2.276 1.74-5.062 2.654-6.125 2.494l-4.598-.69-.963 6.413 4.594.69c.154.024.318.022.475.035-.742 2.317-1.008 4.788-.633 6.973l1.058 6.163 6.392-1.1-1.058-6.16c-.398-2.322.775-5.87 2.466-7.445l2.658-2.48c.366-.29.713-.582 1.03-.877l5.09-4.748c2.765-1.127 5.7-1.706 8.728-1.706 10.624 0 19.603 7.007 21.35 16.66l.284 1.567 1.41.734c4.16 2.163 6.746 6.22 6.746 10.587 0 2.288-.697 4.465-1.978 6.36l-1.007-1.01h.002l-4.2-4.2c-1.828-1.826-3.696-5.866-4.002-8.644l-.694-6.312-6.225.684.694 6.312c.2 1.81.812 3.86 1.65 5.834-.416-.05-.83-.106-1.23-.125l-14.087-.67-.298 6.258 14.094.67c2.885.135 7.106 1.855 8.86 3.606l3.342 3.343.12.3c.527 1.326.795 2.724.795 4.147 0 4.645-2.827 8.82-7.374 10.894z"/></svg>