<svg xmlns="http://www.w3.org/2000/svg" xmlns:xlink="http://www.w3.org/1999/xlink" version="1.1" x="0px" y="0px" viewBox="0 0 100 100" enable-background="new 0 0 100 100" xml:space="preserve"><g><g><path fill-rule="evenodd" clip-rule="evenodd" d="M98.745,45.19c-1.124-11.056-5.479-20.668-13.083-28.75    C78.387,8.704,69.494,3.776,59.033,1.879C46.031-0.48,33.887,1.89,22.888,9.24C11.612,16.768,4.453,27.278,1.963,40.606    c-3.035,16.251,1.113,30.673,12.314,42.88c7.283,7.939,16.386,12.773,26.985,14.726c1.948,0.36,3.938,0.478,5.91,0.707    c0.112,0.015,0.225,0.053,0.341,0.081h4.936c0.547-0.059,1.094-0.121,1.645-0.171c11.783-1.059,21.927-5.716,30.357-14.008    c6.736-6.623,11.144-14.581,13.289-23.786C98.959,55.813,99.293,50.524,98.745,45.19z M75.958,41.98    c-0.128,0.369-0.497,0.722-0.842,0.936c-1.241,0.76-2.638,1.063-4.063,1.226c-0.566,0.063-1.145,0.063-1.715,0.05    c-0.617-0.015-1.184-0.196-1.677-0.604c-0.174-0.144-0.398-0.241-0.613-0.318c-1.133-0.415-1.861,0.089-1.889,1.296    c-0.027,1.266-0.664,1.796-1.896,1.502c-0.486-0.116-1.006-0.302-1.387-0.609c-0.904-0.729-1.943-0.971-3.045-1.141    c-0.57-0.089-1.138-0.299-1.665-0.536c-0.45-0.197-0.636-0.612-0.551-1.121c0.023-0.14,0.026-0.279,0.047-0.419    c0.179-1.233-0.373-2.033-1.61-2.277c-1.242-0.244-2.48-0.12-3.698,0.124c-1.183,0.236-2.358,0.532-3.515,0.873    c-0.617,0.186-1.206,0.481-1.765,0.808c-0.83,0.48-1.614,0.601-2.417-0.027c-0.155-0.125-0.337-0.222-0.512-0.319    c-0.578-0.31-0.788-0.213-1.222,0.277c-0.524,0.585-1.086,1.151-1.703,1.636c-0.823,0.645-1.308,1.432-1.358,2.477    c-0.043,0.861-0.435,1.497-1.188,1.92c-0.772,0.435-1.533,0.881-2.297,1.323c-1.156,0.664-2.099,1.49-2.545,2.833    c-0.183,0.543-0.617,1.048-1.04,1.459c-0.768,0.748-0.958,1.614-0.703,2.596c0.346,1.335,0.303,2.643-0.171,3.931    c-1.35,3.683-0.073,6.654,2.549,9.207c1.153,1.122,2.441,2.099,3.674,3.14c0.792,0.668,1.739,0.935,2.755,0.981    c0.942,0.042,1.889,0.046,2.832,0.081c0.357,0.016,0.714,0.04,1.067,0.097c0.877,0.151,1.692-0.057,2.483-0.41    c0.765-0.342,1.509-0.722,2.281-1.04c1.16-0.481,2.208-0.333,3.085,0.64c0.616,0.683,1.485,0.707,2.313,0.819    c0.64,0.089,1.295,0.14,1.924,0.295c0.838,0.206,1.098,0.695,0.889,1.54c-0.116,0.481-0.275,0.951-0.412,1.428    c-0.264,0.932-0.042,1.724,0.621,2.437c0.861,0.937,1.734,1.867,2.5,2.88c1.209,1.602,1.152,2.444-0.07,4.047    c-0.318,0.419-0.633,0.847-0.908,1.292c-0.424,0.687-0.508,1.431-0.178,2.181c0.329,0.753,0.697,1.482,1.047,2.227    c0.154,0.322,0.287,0.653,0.446,0.971c0.282,0.574,0.578,1.145,0.896,1.77c-1.004,0.197-2.067,0.439-3.139,0.621    c-2.793,0.469-5.606,0.683-8.435,0.616c-10.068-0.248-19.112-3.426-27.105-9.561c-2.518-1.937-4.792-4.129-6.848-6.549    c-0.497-0.587-0.493-0.742,0.015-1.297c0.074-0.077,0.144-0.163,0.213-0.244c0.823-0.997,1.017-2.045,0.337-3.213    c-0.989-1.699-2.27-3.139-3.821-4.338c-1.366-1.056-2.646-2.212-3.733-3.551c-0.458-0.57-0.88-1.229-1.102-1.917    c-0.745-2.324-1.551-4.652-2.044-7.034C4.19,53.814,4.124,49.581,4.558,45.34c0.784-7.577,3.313-14.522,7.547-20.855    c0.217-0.325,0.465-0.559,0.838-0.683c0.337-0.116,0.651-0.286,0.981-0.427c0.827-0.357,1.536-0.854,2.029-1.634    c0.206-0.326,0.462-0.62,0.706-0.923c0.679-0.843,1.549-1.313,2.646-1.343c1.28-0.043,2.27-0.586,3.003-1.661    c1.246-1.823,2.115-3.814,2.856-5.877c0.065-0.188,0.201-0.389,0.36-0.494c3.679-2.355,7.624-4.128,11.819-5.34    c0.074-0.022,0.147-0.03,0.252-0.05c0.082,1.145-0.046,1.396-1.005,1.832c-0.718,0.325-1.451,0.62-2.192,0.896    c-1.032,0.384-1.901,1.002-2.553,1.875c-0.818,1.09-1.575,2.227-2.355,3.344c-0.082,0.113-0.144,0.24-0.206,0.365    c-0.609,1.234-0.229,1.428,0.931,1.746c0.423,0.116,0.714-0.155,0.946-0.457c0.726-0.937,1.669-1.611,2.616-2.29    c0.869-0.617,1.889-0.641,2.882-0.783c0.738-0.106,1.471-0.214,2.208-0.311c2.083-0.28,3.713-1.406,5.195-2.799    c0.997-0.938,1.913-1.939,2.573-3.158c0.341-0.636,1.028-0.655,1.633-0.71c1.634-0.155,3.279-0.225,4.913-0.396    c0.714-0.073,1.408-0.322,2.114-0.485c0.145-0.031,0.303-0.059,0.45-0.039c3.189,0.411,6.313,1.122,9.343,2.212    c0.188,0.065,0.369,0.26,0.466,0.442c0.128,0.241,0.187,0.524,0.241,0.796c0.166,0.811-0.109,1.428-0.819,1.854    c-0.88,0.531-1.839,0.609-2.833,0.496c-1.229-0.139-2.459-0.341-3.693-0.403c-1.428-0.065-2.592,0.552-3.43,1.715    c-0.403,0.563-0.745,1.177-1.082,1.785c-0.462,0.822-1.056,1.511-1.777,2.127c-0.645,0.547-1.269,1.152-1.754,1.835    c-0.59,0.831-0.311,1.809,0.609,2.224c0.415,0.19,0.966,0.159,1.443,0.112c0.438-0.043,0.869-0.217,1.291-0.365    c0.312-0.108,0.518-0.035,0.641,0.261c0.105,0.256,0.198,0.521,0.295,0.783c0.066,0.187,0.109,0.389,0.198,0.566    c0.241,0.467,0.535,0.905,1.117,0.947c0.57,0.039,0.908-0.35,1.173-0.788c0.535-0.896,0.829-1.87,0.76-2.922    c-0.016-0.232-0.086-0.523-0.244-0.676c-0.385-0.367-0.443-0.811-0.396-1.28c0.09-0.833,0.393-1.594,0.932-2.242    c0.119-0.144,0.299-0.236,0.449-0.35c0.035,0.023,0.074,0.047,0.109,0.074c-0.078,0.252-0.159,0.508-0.232,0.765    c-0.16,0.536-0.334,1.063-0.462,1.606c-0.12,0.493,0.004,0.939,0.341,1.343c0.436,0.52,0.881,1.047,1.246,1.617    c0.924,1.443,0.372,3.132-1.227,3.69c-0.69,0.24-1.439,0.354-2.172,0.438c-0.385,0.047-0.804-0.055-1.188-0.163    c-0.664-0.186-0.822-0.496-0.742-1.176c0.031-0.24,0.043-0.508-0.03-0.729c-0.062-0.198-0.241-0.465-0.403-0.492    c-0.218-0.039-0.59,0.054-0.688,0.213c-0.189,0.326-0.356,0.741-0.334,1.11c0.051,0.799-0.236,1.36-0.849,1.843    c-1.615,1.257-3.213,2.533-4.815,3.811c-0.206,0.162-0.388,0.353-0.574,0.538c-0.605,0.61-0.808,1.301-0.446,2.119    c0.155,0.354,0.268,0.726,0.404,1.086c0.551,1.444-0.066,2.221-1.781,2.151c-0.691-0.028-1.374-0.35-2.061-0.524    c-0.361-0.09-0.722-0.193-1.09-0.229c-0.768-0.069-1.18,0.291-1.226,1.056c-0.019,0.322,0.011,0.652,0.046,0.974    c0.066,0.598,0.008,1.145-0.326,1.693c-0.566,0.934-0.423,1.5,0.357,2.265c0.481,0.478,0.927,0.993,1.354,1.521    c0.492,0.614,0.78,0.683,1.528,0.431c0.478-0.161,0.986-0.259,1.486-0.317c0.741-0.089,1.463-0.236,2.002-0.765    c0.307-0.299,0.485-0.729,0.698-1.114c0.074-0.131,0.078-0.298,0.101-0.453c0.124-0.9,0.574-1.563,1.432-1.904    c0.671-0.27,1.059-0.676,1.024-1.468c-0.027-0.536,0.218-0.745,0.757-0.815c0.416-0.055,0.838-0.072,1.253-0.076    c0.535-0.008,0.989-0.19,1.42-0.506c0.633-0.465,0.967-0.453,1.4,0.19c0.688,1.013,1.649,1.595,2.725,2.092    c0.686,0.313,1.307,0.765,1.947,1.168c0.155,0.097,0.291,0.236,0.411,0.376c0.342,0.404,0.311,0.641-0.147,0.889    c-0.38,0.206-0.783,0.365-1.18,0.544c-0.668,0.29-0.807,0.462-0.668,0.814c0.257,0.664,0.865,0.985,1.437,0.761    c0.757-0.295,1.497-1.374,1.502-2.193v-1.796c0.221,0.14,0.384,0.237,0.547,0.342c0.256,0.162,0.539,0.446,0.807,0.097    c0.249-0.325-0.027-0.59-0.268-0.787c-0.384-0.311-0.788-0.605-1.195-0.885c-1.125-0.769-2.273-1.506-3.383-2.298    c-0.373-0.264-0.671-0.64-0.962-0.996c-0.094-0.117-0.121-0.374-0.055-0.509c0.042-0.094,0.307-0.155,0.442-0.124    c0.419,0.104,0.845,0.217,1.229,0.406c1.288,0.641,2.476,1.448,3.398,2.554c0.547,0.655,0.963,1.432,1.366,2.196    c0.493,0.936,1.028,1.808,1.991,2.328c0.367,0.198,0.771,0.471,1.167,0.171c0.419-0.321,0.252-0.807,0.112-1.207    c-0.146-0.418-0.372-0.814-0.586-1.207c-0.221-0.403-0.205-0.636,0.206-0.841c0.373-0.179,0.776-0.322,1.184-0.393    c0.574-0.097,0.962-0.4,1.098-0.935c0.241-0.958,0.419-1.933,0.621-2.903c0.015-0.089,0.019-0.186,0.039-0.275    c0.171-0.756,0.497-0.927,1.206-0.594c0.463,0.218,0.893,0.497,1.348,0.734c0.732,0.383,0.945,0.275,1.159-0.513    c0.023-0.093,0.265-0.229,0.35-0.194c1.167,0.447,2.327,0.921,3.483,1.397c0.152,0.061,0.283,0.193,0.4,0.313    c0.346,0.346,0.342,0.655-0.004,1.01c-0.435,0.442-1.01,0.551-1.588,0.535c-0.693-0.023-1.393-0.081-2.071-0.222    c-0.69-0.14-1.257-0.007-1.753,0.471c-0.078,0.072-0.172,0.139-0.241,0.22c-0.578,0.691-1.249,0.979-2.13,0.566    c-0.326-0.15-0.738-0.154-0.928,0.176c-0.14,0.244-0.187,0.647-0.086,0.904c0.424,1.059,1.018,2.024,1.895,2.777    c0.729,0.625,1.342,0.563,2.079-0.035c0.187-0.154,0.56-0.232,0.792-0.162c0.578,0.17,1.027,0.094,1.498-0.307    c0.713-0.609,1.271-0.462,1.637,0.404C76.304,39.625,76.361,40.816,75.958,41.98z M94.24,61.439    C91.253,73.1,84.033,81.849,76.758,87.006c-0.008-0.435,0.209-0.702,0.484-0.905c0.527-0.379,1.105-0.693,1.609-1.101    c0.963-0.775,1.953-1.536,2.814-2.418c0.924-0.938,1.35-2.149,1.275-3.484c-0.158-2.854,0.645-5.416,2.268-7.748    c0.725-1.044,1.396-2.127,2.109-3.179c1.486-2.2,2.709-4.527,3.346-7.115c0.232-0.95,0.375-1.952,0.36-2.931    c-0.017-0.946-0.396-1.116-1.292-0.818c-0.617,0.202-1.211,0.485-1.836,0.664c-2.568,0.722-4.531-0.19-5.629-2.627    c-0.416-0.916-0.762-1.862-1.118-2.806c-0.52-1.373-1.323-2.537-2.417-3.53c-0.699-0.633-1.297-1.374-1.933-2.076    c-0.132-0.144-0.222-0.326-0.329-0.493c0.042-0.047,0.089-0.093,0.131-0.141c0.574,0.404,1.242,0.727,1.712,1.231    c1.695,1.831,3.368,3.69,4.962,5.606c0.684,0.826,1.16,1.824,1.73,2.743c0.214,0.342,0.389,0.71,0.625,1.033    c0.469,0.631,1.09,0.768,1.754,0.345c0.372-0.237,0.721-0.544,1.016-0.873c1.742-1.94,3.229-4.056,4.145-6.519    c0.598-1.603,0.69-3.267,0.311-4.943c-0.078-0.342-0.229-0.68-0.411-0.978c-0.563-0.912-1.548-1.142-2.448-0.567    c-0.458,0.291-0.865,0.66-1.315,0.959c-0.478,0.318-0.928,0.286-1.3-0.137c-0.757-0.857-1.334-1.828-1.625-2.944    c-0.031-0.12-0.035-0.314,0.034-0.376c0.073-0.063,0.268-0.032,0.38,0.015c0.256,0.109,0.5,0.245,0.746,0.38    c1.24,0.691,2.557,0.901,3.953,0.652c1.023-0.182,1.75-0.818,2.456-1.505c0.329-0.322,0.69-0.613,1.128-0.998    C96.161,46.866,96.107,54.164,94.24,61.439z"></path></g></g></svg>
