<svg xmlns="http://www.w3.org/2000/svg" viewBox="0 0 100 100"><path d="M99.693 45.096c-1.146-11.27-5.585-21.07-13.337-29.31C78.94 7.9 69.873 2.876 59.21.944 45.954-1.46 33.573.954 22.36 8.448 10.865 16.12 3.567 26.838 1.028 40.423c-3.094 16.567 1.135 31.27 12.554 43.714 7.425 8.094 16.705 13.022 27.51 15.013 1.986.367 4.014.487 6.025.72.114.016.23.055.347.083h5.033c.557-.06 1.115-.123 1.677-.174 12.012-1.08 22.353-5.83 30.946-14.29 6.868-6.76 11.362-14.87 13.55-24.25 1.24-5.33 1.582-10.72 1.023-16.16zm-23.23-3.272c-.13.376-.507.736-.858.954-1.266.775-2.69 1.084-4.143 1.25-.577.064-1.167.064-1.748.05-.63-.014-1.207-.2-1.71-.615-.177-.147-.405-.246-.624-.324-1.155-.43-1.898.09-1.926 1.32-.028 1.29-.677 1.83-1.933 1.53-.49-.12-1.02-.31-1.41-.62-.92-.75-1.98-.99-3.1-1.17-.58-.09-1.16-.31-1.7-.55-.46-.2-.65-.63-.56-1.15.02-.15.03-.29.05-.43.19-1.26-.38-2.07-1.64-2.32-1.26-.25-2.53-.12-3.77.12-1.2.24-2.4.54-3.58.89-.63.19-1.23.49-1.8.82-.84.49-1.64.61-2.46-.03-.16-.13-.34-.23-.52-.33-.58-.32-.8-.22-1.24.28-.53.59-1.11 1.17-1.74 1.66-.84.66-1.33 1.46-1.38 2.53-.04.88-.44 1.52-1.21 1.96-.79.44-1.56.9-2.34 1.35-1.18.67-2.14 1.51-2.59 2.88-.18.55-.63 1.07-1.06 1.48-.78.76-.97 1.64-.71 2.65.35 1.36.31 2.69-.17 4.01-1.37 3.75-.07 6.78 2.6 9.38 1.18 1.14 2.49 2.14 3.75 3.2.81.68 1.78.95 2.81 1 .96.04 1.93.05 2.89.08.37.014.73.04 1.09.1.9.15 1.73-.06 2.53-.42.78-.35 1.54-.737 2.33-1.06 1.19-.49 2.25-.34 3.15.65.63.695 1.51.72 2.36.834.65.09 1.32.14 1.96.3.86.21 1.12.71.91 1.57-.12.49-.28.97-.42 1.454-.27.95-.04 1.76.64 2.485.88.95 1.77 1.9 2.55 2.93 1.23 1.63 1.17 2.49-.07 4.126-.33.43-.65.86-.93 1.32-.43.7-.52 1.46-.18 2.22.33.77.71 1.51 1.06 2.27.16.33.3.67.46.99.29.59.59 1.17.92 1.81-1.02.2-2.1.443-3.2.63-2.84.48-5.71.694-8.6.63-10.26-.257-19.48-3.497-27.63-9.75-2.57-1.976-4.88-4.21-6.98-6.677-.5-.6-.5-.754.02-1.32.08-.08.15-.167.22-.25.84-1.016 1.04-2.084.34-3.275-1.01-1.73-2.31-3.2-3.89-4.42-1.39-1.08-2.695-2.258-3.804-3.62-.46-.58-.892-1.25-1.12-1.958-.76-2.37-1.58-4.74-2.08-7.17-.874-4.26-.942-8.574-.5-12.9.8-7.72 3.378-14.8 7.695-21.26.22-.33.476-.57.856-.695.34-.11.66-.29 1-.43.84-.36 1.565-.87 2.067-1.666.21-.33.47-.63.72-.94.69-.86 1.58-1.337 2.7-1.37 1.306-.04 2.31-.595 3.06-1.69 1.27-1.86 2.158-3.89 2.91-5.993.068-.19.207-.4.37-.5 3.75-2.4 7.77-4.21 12.05-5.45.074-.03.15-.04.256-.06.08 1.165-.05 1.42-1.026 1.865-.737.336-1.48.636-2.24.92-1.054.39-1.94 1.02-2.604 1.91-.838 1.11-1.61 2.27-2.4 3.41-.09.114-.15.243-.21.37-.626 1.257-.24 1.454.944 1.78.43.117.73-.16.97-.47.74-.96 1.7-1.644 2.66-2.34.887-.63 1.927-.653 2.94-.8.75-.11 1.5-.22 2.25-.32 2.127-.28 3.787-1.43 5.297-2.85 1.02-.953 1.95-1.973 2.626-3.22.344-.645 1.044-.664 1.66-.72 1.666-.16 3.343-.23 5.01-.405.73-.08 1.434-.33 2.154-.5.15-.03.31-.06.46-.04 3.25.42 6.43 1.14 9.52 2.25.197.066.38.265.48.45.13.246.19.535.247.81.17.83-.11 1.457-.83 1.89-.9.54-1.874.62-2.89.507-1.25-.14-2.502-.35-3.76-.41-1.46-.07-2.643.56-3.5 1.75-.41.57-.76 1.2-1.102 1.82-.47.835-1.07 1.54-1.81 2.17-.66.553-1.29 1.17-1.79 1.87-.6.843-.31 1.84.62 2.264.43.19.99.16 1.47.116.45-.04.89-.22 1.32-.37.32-.11.53-.033.65.27.11.26.21.53.3.8.07.19.12.4.21.58.25.48.55.926 1.14.97.58.04.92-.36 1.19-.81.55-.91.85-1.9.78-2.98-.02-.23-.09-.53-.25-.69-.39-.37-.45-.83-.4-1.3.09-.85.4-1.62.95-2.28.12-.15.31-.24.46-.36l.11.074-.24.78c-.16.55-.34 1.09-.47 1.64-.12.51.01.96.35 1.37.44.53.9 1.07 1.27 1.65.94 1.47.38 3.197-1.25 3.76-.703.25-1.47.36-2.214.45-.39.05-.82-.05-1.21-.16-.672-.19-.84-.504-.752-1.2.03-.24.04-.52-.03-.74-.07-.202-.25-.474-.41-.502-.23-.04-.607.06-.707.22-.19.33-.36.76-.34 1.13.05.82-.24 1.39-.86 1.88-1.644 1.28-3.273 2.58-4.91 3.89-.21.16-.392.36-.58.545-.62.627-.824 1.33-.455 2.16.155.36.27.74.41 1.11.56 1.476-.07 2.268-1.817 2.197-.7-.03-1.4-.358-2.1-.53-.37-.09-.735-.2-1.11-.238-.78-.07-1.2.3-1.25 1.08-.02.33.01.667.05.996.06.61.01 1.17-.33 1.73-.58.95-.44 1.53.36 2.31.49.482.94 1.01 1.38 1.55.5.62.79.692 1.56.44.49-.17 1-.27 1.51-.328.75-.09 1.49-.24 2.04-.78.31-.31.49-.75.71-1.14.078-.136.08-.306.1-.46.13-.92.588-1.598 1.46-1.94.687-.28 1.08-.69 1.047-1.5-.03-.55.22-.76.77-.83.42-.06.85-.078 1.274-.08.546-.01 1.01-.19 1.45-.518.65-.473.99-.46 1.43.19.7 1.03 1.68 1.627 2.78 2.13.7.32 1.33.78 1.985 1.19.153.1.29.24.42.387.342.414.31.655-.15.91-.39.21-.8.37-1.21.553-.68.295-.82.47-.68.83.26.68.88 1.004 1.466.775.77-.3 1.52-1.4 1.53-2.237V36c.22.14.39.24.56.347.26.167.54.456.82.1.25-.33-.03-.6-.28-.802-.39-.317-.804-.617-1.22-.902-1.15-.784-2.32-1.536-3.45-2.343-.38-.27-.68-.652-.98-1.015-.094-.12-.12-.382-.06-.52.05-.095.32-.157.45-.126.43.1.86.22 1.26.41 1.31.65 2.52 1.47 3.46 2.6.555.67.98 1.46 1.39 2.24.5.95 1.05 1.84 2.03 2.37.374.2.785.48 1.19.17.426-.33.256-.82.113-1.23-.15-.43-.38-.83-.59-1.23-.22-.41-.21-.65.21-.86.38-.19.79-.33 1.21-.4.583-.1.98-.41 1.12-.96.243-.98.43-1.97.63-2.96.02-.09.02-.19.04-.28.18-.77.51-.95 1.23-.61.472.22.91.5 1.38.74.75.39.962.28 1.18-.52.025-.1.27-.24.36-.2 1.19.45 2.37.94 3.55 1.42.15.06.285.19.405.32.35.35.35.66-.01 1.03-.44.45-1.03.56-1.62.54-.7-.03-1.42-.09-2.11-.23-.7-.14-1.28-.01-1.78.48-.08.07-.172.14-.242.23-.59.7-1.27.99-2.17.57-.33-.15-.75-.16-.945.18-.14.25-.19.66-.085.92.43 1.08 1.04 2.06 1.93 2.83.74.64 1.367.57 2.12-.04.19-.16.57-.24.806-.17.59.18 1.05.1 1.53-.31.73-.62 1.293-.47 1.67.41.49 1.16.55 2.37.14 3.56zM95.1 61.66c-3.043 11.89-10.404 20.81-17.82 26.067-.008-.444.214-.716.494-.923.537-.386 1.126-.706 1.64-1.122.982-.79 1.99-1.565 2.87-2.464.94-.956 1.375-2.19 1.3-3.552-.162-2.91.656-5.52 2.31-7.9.74-1.063 1.424-2.167 2.15-3.24 1.516-2.242 2.763-4.615 3.412-7.253.237-.968.382-1.99.367-2.987-.016-.964-.403-1.138-1.316-.834-.63.205-1.235.493-1.872.676-2.618.736-4.62-.194-5.738-2.678-.424-.934-.777-1.898-1.14-2.86-.53-1.4-1.35-2.587-2.464-3.6-.713-.645-1.322-1.4-1.97-2.116-.135-.147-.227-.332-.336-.502.043-.048.09-.095.133-.144.586.412 1.267.74 1.746 1.255 1.728 1.867 3.433 3.763 5.058 5.716.7.84 1.184 1.86 1.765 2.79.21.35.39.72.63 1.05.48.64 1.11.78 1.79.35.38-.25.73-.56 1.03-.89 1.77-1.98 3.29-4.14 4.22-6.65.61-1.64.7-3.33.31-5.04-.08-.35-.24-.7-.42-1-.58-.93-1.58-1.17-2.5-.58-.47.29-.89.67-1.34.98-.49.32-.95.29-1.33-.14-.77-.88-1.36-1.87-1.66-3-.03-.13-.04-.32.03-.39s.27-.04.38.01c.26.11.51.25.76.38 1.26.7 2.61.92 4.03.66 1.04-.19 1.78-.83 2.5-1.54.33-.33.7-.63 1.15-1.02 1.74 7.59 1.68 15.03-.22 22.44z" clip-rule="evenodd" fill-rule="evenodd"/></svg>