<?xml version="1.0" standalone="no"?>
<!DOCTYPE svg PUBLIC "-//W3C//DTD SVG 20010904//EN"
 "http://www.w3.org/TR/2001/REC-SVG-20010904/DTD/svg10.dtd">
<svg version="1.0" xmlns="http://www.w3.org/2000/svg"
 width="700.000000pt" height="700.000000pt" viewBox="0 0 700.000000 700.000000"
 preserveAspectRatio="xMidYMid meet">
<metadata>
Created by potrace 1.11, written by Peter Selinger 2001-2013
</metadata>
<g transform="translate(0.000000,700.000000) scale(0.100000,-0.100000)"
fill="#000000" stroke="none">
<path d="M4190 6961 c-223 -75 -371 -264 -385 -493 -7 -119 48 -284 131 -393
19 -24 34 -46 34 -49 0 -2 -12 -1 -27 3 -33 9 -69 6 -101 -11 -27 -14 -44 -72
-41 -134 3 -41 0 -46 -51 -95 -52 -50 -56 -51 -104 -49 -120 8 -163 3 -207
-20 -39 -20 -63 -24 -221 -30 -98 -3 -180 -9 -183 -12 -9 -8 -75 -172 -75
-185 0 -7 -64 -44 -142 -82 -185 -89 -215 -115 -232 -201 -26 -130 -2 -363 68
-655 19 -77 36 -169 39 -205 7 -84 18 -116 64 -192 12 -20 25 -56 28 -80 4
-24 13 -62 22 -86 14 -40 14 -45 -3 -63 -28 -31 -25 -93 7 -124 40 -41 88 -43
161 -7 35 16 75 35 91 41 33 13 63 60 72 112 4 21 13 40 20 43 24 9 48 68 46
115 -1 49 -96 298 -126 331 -19 20 -23 40 -32 140 -12 128 -4 422 12 438 1 2
33 5 69 7 36 2 78 6 94 9 27 6 28 5 45 -66 9 -40 38 -172 63 -293 86 -417 76
-389 161 -472 40 -39 73 -75 73 -78 0 -10 -58 -82 -108 -135 -24 -25 -51 -61
-61 -80 -26 -50 -73 -198 -126 -400 -26 -96 -62 -222 -81 -280 -40 -123 -52
-190 -43 -243 10 -61 4 -87 -46 -191 -26 -54 -52 -126 -59 -160 -27 -126 -117
-301 -194 -376 -47 -46 -80 -65 -192 -115 -301 -133 -500 -273 -614 -432 -82
-115 -275 -263 -343 -263 -35 0 -414 -200 -477 -252 -46 -38 -74 -93 -71 -138
6 -73 308 -731 386 -842 11 -14 19 -28 19 -31 0 -20 84 -146 100 -150 56 -15
151 17 200 66 36 36 70 108 72 153 2 54 -10 211 -26 327 l-13 98 36 67 c20 37
50 89 68 116 17 26 34 65 38 87 6 34 15 45 88 96 176 123 240 165 642 416 346
216 576 372 627 425 50 53 177 214 255 324 67 95 88 122 143 183 25 27 58 67
73 87 17 22 38 39 58 43 17 4 59 29 94 55 l63 48 79 -5 c73 -5 82 -3 138 26
33 17 71 33 85 35 64 12 159 52 220 94 31 21 42 23 100 16 36 -3 70 -7 76 -7
6 0 -15 -26 -47 -57 -94 -93 -156 -201 -224 -389 -13 -36 -43 -102 -67 -146
-24 -44 -54 -101 -68 -127 -19 -36 -35 -51 -71 -68 -54 -24 -98 -57 -185 -140
-34 -32 -95 -81 -136 -108 -73 -50 -127 -102 -129 -125 0 -7 -2 -23 -5 -37 -7
-48 71 -140 211 -249 88 -67 589 -378 704 -436 70 -35 146 -43 193 -21 43 21
78 91 78 158 0 48 -34 128 -71 168 -58 62 -154 200 -181 260 -24 51 -36 105
-43 190 -9 100 12 148 88 207 16 12 83 73 150 136 67 63 149 139 182 170 230
214 453 448 484 507 68 131 66 293 -6 386 -45 60 -239 173 -618 359 -288 141
-350 169 -459 205 -89 29 -105 46 -100 100 6 56 25 95 79 155 25 28 52 66 61
85 9 19 22 42 29 50 7 8 23 58 36 110 23 97 33 123 88 221 28 51 36 58 78 68
68 18 189 77 260 127 82 59 200 193 325 373 136 192 194 263 248 302 81 58
134 132 145 201 18 115 10 191 -24 233 -10 11 -22 32 -29 47 -6 15 -23 35 -37
44 -14 9 -32 32 -40 50 -19 45 -66 69 -109 54 -44 -14 -60 -47 -54 -109 3 -28
3 -53 1 -55 -3 -2 -20 2 -38 10 -19 8 -39 14 -45 14 -20 0 -121 -104 -136
-139 -14 -33 -14 -53 0 -111 13 -55 15 -83 6 -106 -10 -25 -190 -244 -231
-280 -13 -11 -35 -27 -49 -36 l-25 -15 -48 108 c-54 122 -57 132 -63 209 -7
84 -10 91 -54 150 -24 32 -43 70 -47 94 -4 27 -18 51 -43 76 -35 35 -36 38
-18 49 30 19 86 114 105 180 15 52 21 61 41 61 25 0 59 15 80 36 22 23 27 81
8 108 -22 34 -20 85 6 148 14 35 22 80 24 133 2 44 6 114 9 155 6 72 6 77 -25
122 -88 132 -238 244 -400 298 -92 31 -291 37 -370 11z"/>
</g>
</svg>
